<?xml version='1.0' encoding='utf-8'?>
<svg height="453.10mm" viewBox="0.0 0.0 161.94 453.10" width="161.94mm" xmlns="http://www.w3.org/2000/svg" xmlns:cc="http://creativecommons.org/ns#" xmlns:dc="http://purl.org/dc/elements/1.1/" xmlns:inkscape="http://www.inkscape.org/namespaces/inkscape" xmlns:rdf="http://www.w3.org/1999/02/22-rdf-syntax-ns#" xmlns:svg="http://www.w3.org/2000/svg" xmlns:xlink="http://www.w3.org/1999/xlink">
<!--
UniversalBox - Box with various options for different styles and lids

Created with Boxes.py (https://boxes.hackerspace-bamberg.de/)
Creation date: 2024-09-26 11:23:46
Command line (remove spaces between dashes): boxes UniversalBox - -top_edge=F - -bottom_edge=F - -x=80.0 - -y=60.0 - -h=120.0 - -reference=0 - -burn=0.11
Url: https://boxes.hackerspace-bamberg.de/UniversalBox?FingerJoint_style=rectangular&FingerJoint_surroundingspaces=2.0&FingerJoint_bottom_lip=0.0&FingerJoint_edge_width=1.0&FingerJoint_extra_length=0.0&FingerJoint_finger=2.0&FingerJoint_play=0.0&FingerJoint_space=2.0&FingerJoint_width=1.0&Stackable_angle=60&Stackable_bottom_stabilizers=0.0&Stackable_height=2.0&Stackable_holedistance=1.0&Stackable_width=4.0&Hinge_grip_percentage=0&Hinge_outset=0&Hinge_outset=1&Hinge_pinwidth=0.5&Hinge_style=outset&Hinge_axle=2.0&Hinge_grip_length=0&Hinge_hingestrength=1&CabinetHinge_bore=3.2&CabinetHinge_eyes_per_hinge=5&CabinetHinge_hinges=2&CabinetHinge_style=inside&CabinetHinge_eye=1.5&CabinetHinge_play=0.05&CabinetHinge_spacing=2.0&SlideOnLid_hole_width=0&SlideOnLid_second_pin=0&SlideOnLid_second_pin=1&SlideOnLid_spring=both&SlideOnLid_style=rectangular&SlideOnLid_surroundingspaces=2.0&SlideOnLid_bottom_lip=0.0&SlideOnLid_edge_width=1.0&SlideOnLid_extra_length=0.0&SlideOnLid_finger=3.0&SlideOnLid_play=0.05&SlideOnLid_space=2.0&SlideOnLid_width=1.0&Click_angle=5.0&Click_bottom_radius=0.1&Click_depth=3.0&RoundedTriangleEdge_height=50.0&RoundedTriangleEdge_r_hole=2.0&RoundedTriangleEdge_radius=30.0&RoundedTriangleEdge_outset=1.0&Mounting_d_head=6.5&Mounting_d_shaft=3.0&Mounting_margin=0.125&Mounting_num=2&Mounting_side=back&Mounting_style=straight+edge%2C+within&HandleEdge_height=20.0&HandleEdge_hole_height=75.0&HandleEdge_hole_width=40%3A40&HandleEdge_on_sides=0&HandleEdge_on_sides=1&HandleEdge_radius=10.0&HandleEdge_outset=1.0&Flex_stretch=1.05&Flex_connection=1.0&Flex_distance=0.5&Flex_width=5.0&Lid_handle=none&Lid_style=none&Lid_handle_height=8.0&Lid_height=4.0&Lid_play=0.1&top_edge=F&bottom_edge=F&x=80.0&y=60.0&h=120.0&outside=0&outside=1&vertical_edges=finger+joints&thickness=3.0&format=svg&tabs=0.0&qr_code=0&debug=0&labels=0&labels=1&reference=0&inner_corners=loop&burn=0.11&language=en&render=2
Url short: https://boxes.hackerspace-bamberg.de/UniversalBox?top_edge=F&bottom_edge=F&x=80.0&y=60.0&h=120.0&reference=0&burn=0.11
SettingsUrl: https://boxes.hackerspace-bamberg.de/UniversalBox?FingerJoint_style=rectangular&FingerJoint_surroundingspaces=2.0&FingerJoint_bottom_lip=0.0&FingerJoint_edge_width=1.0&FingerJoint_extra_length=0.0&FingerJoint_finger=2.0&FingerJoint_play=0.0&FingerJoint_space=2.0&FingerJoint_width=1.0&Stackable_angle=60&Stackable_bottom_stabilizers=0.0&Stackable_height=2.0&Stackable_holedistance=1.0&Stackable_width=4.0&Hinge_grip_percentage=0&Hinge_outset=0&Hinge_outset=1&Hinge_pinwidth=0.5&Hinge_style=outset&Hinge_axle=2.0&Hinge_grip_length=0&Hinge_hingestrength=1&CabinetHinge_bore=3.2&CabinetHinge_eyes_per_hinge=5&CabinetHinge_hinges=2&CabinetHinge_style=inside&CabinetHinge_eye=1.5&CabinetHinge_play=0.05&CabinetHinge_spacing=2.0&SlideOnLid_hole_width=0&SlideOnLid_second_pin=0&SlideOnLid_second_pin=1&SlideOnLid_spring=both&SlideOnLid_style=rectangular&SlideOnLid_surroundingspaces=2.0&SlideOnLid_bottom_lip=0.0&SlideOnLid_edge_width=1.0&SlideOnLid_extra_length=0.0&SlideOnLid_finger=3.0&SlideOnLid_play=0.05&SlideOnLid_space=2.0&SlideOnLid_width=1.0&Click_angle=5.0&Click_bottom_radius=0.1&Click_depth=3.0&RoundedTriangleEdge_height=50.0&RoundedTriangleEdge_r_hole=2.0&RoundedTriangleEdge_radius=30.0&RoundedTriangleEdge_outset=1.0&Mounting_d_head=6.5&Mounting_d_shaft=3.0&Mounting_margin=0.125&Mounting_num=2&Mounting_side=back&Mounting_style=straight+edge%2C+within&HandleEdge_height=20.0&HandleEdge_hole_height=75.0&HandleEdge_hole_width=40%3A40&HandleEdge_on_sides=0&HandleEdge_on_sides=1&HandleEdge_radius=10.0&HandleEdge_outset=1.0&Flex_stretch=1.05&Flex_connection=1.0&Flex_distance=0.5&Flex_width=5.0&Lid_handle=none&Lid_style=none&Lid_handle_height=8.0&Lid_height=4.0&Lid_play=0.1&top_edge=F&bottom_edge=F&x=80.0&y=60.0&h=120.0&outside=0&outside=1&vertical_edges=finger+joints&thickness=3.0&format=svg&tabs=0.0&qr_code=0&debug=0&labels=0&labels=1&reference=0&inner_corners=loop&burn=0.11&language=en&render=2
SettingsUrl short: https://boxes.hackerspace-bamberg.de/UniversalBox?top_edge=F&bottom_edge=F&x=80.0&y=60.0&h=120.0&reference=0&burn=0.11
-->
<title>UniversalBox</title>
<metadata>
<rdf:RDF><cc:Work>
<dc:title>Box - UniversalBox</dc:title>
<dc:date>2024-09-26 11:23:46</dc:date>
<dc:source>https://boxes.hackerspace-bamberg.de/UniversalBox?FingerJoint_style=rectangular&amp;FingerJoint_surroundingspaces=2.0&amp;FingerJoint_bottom_lip=0.0&amp;FingerJoint_edge_width=1.0&amp;FingerJoint_extra_length=0.0&amp;FingerJoint_finger=2.0&amp;FingerJoint_play=0.0&amp;FingerJoint_space=2.0&amp;FingerJoint_width=1.0&amp;Stackable_angle=60&amp;Stackable_bottom_stabilizers=0.0&amp;Stackable_height=2.0&amp;Stackable_holedistance=1.0&amp;Stackable_width=4.0&amp;Hinge_grip_percentage=0&amp;Hinge_outset=0&amp;Hinge_outset=1&amp;Hinge_pinwidth=0.5&amp;Hinge_style=outset&amp;Hinge_axle=2.0&amp;Hinge_grip_length=0&amp;Hinge_hingestrength=1&amp;CabinetHinge_bore=3.2&amp;CabinetHinge_eyes_per_hinge=5&amp;CabinetHinge_hinges=2&amp;CabinetHinge_style=inside&amp;CabinetHinge_eye=1.5&amp;CabinetHinge_play=0.05&amp;CabinetHinge_spacing=2.0&amp;SlideOnLid_hole_width=0&amp;SlideOnLid_second_pin=0&amp;SlideOnLid_second_pin=1&amp;SlideOnLid_spring=both&amp;SlideOnLid_style=rectangular&amp;SlideOnLid_surroundingspaces=2.0&amp;SlideOnLid_bottom_lip=0.0&amp;SlideOnLid_edge_width=1.0&amp;SlideOnLid_extra_length=0.0&amp;SlideOnLid_finger=3.0&amp;SlideOnLid_play=0.05&amp;SlideOnLid_space=2.0&amp;SlideOnLid_width=1.0&amp;Click_angle=5.0&amp;Click_bottom_radius=0.1&amp;Click_depth=3.0&amp;RoundedTriangleEdge_height=50.0&amp;RoundedTriangleEdge_r_hole=2.0&amp;RoundedTriangleEdge_radius=30.0&amp;RoundedTriangleEdge_outset=1.0&amp;Mounting_d_head=6.5&amp;Mounting_d_shaft=3.0&amp;Mounting_margin=0.125&amp;Mounting_num=2&amp;Mounting_side=back&amp;Mounting_style=straight+edge%2C+within&amp;HandleEdge_height=20.0&amp;HandleEdge_hole_height=75.0&amp;HandleEdge_hole_width=40%3A40&amp;HandleEdge_on_sides=0&amp;HandleEdge_on_sides=1&amp;HandleEdge_radius=10.0&amp;HandleEdge_outset=1.0&amp;Flex_stretch=1.05&amp;Flex_connection=1.0&amp;Flex_distance=0.5&amp;Flex_width=5.0&amp;Lid_handle=none&amp;Lid_style=none&amp;Lid_handle_height=8.0&amp;Lid_height=4.0&amp;Lid_play=0.1&amp;top_edge=F&amp;bottom_edge=F&amp;x=80.0&amp;y=60.0&amp;h=120.0&amp;outside=0&amp;outside=1&amp;vertical_edges=finger+joints&amp;thickness=3.0&amp;format=svg&amp;tabs=0.0&amp;qr_code=0&amp;debug=0&amp;labels=0&amp;labels=1&amp;reference=0&amp;inner_corners=loop&amp;burn=0.11&amp;language=en&amp;render=2</dc:source>
<dc:source>https://boxes.hackerspace-bamberg.de/UniversalBox?top_edge=F&amp;bottom_edge=F&amp;x=80.0&amp;y=60.0&amp;h=120.0&amp;reference=0&amp;burn=0.11</dc:source>
<dc:description>Box with various options for different styles and lids

Created with Boxes.py (https://boxes.hackerspace-bamberg.de/)
Command line: boxes UniversalBox --FingerJoint_style=rectangular --FingerJoint_surroundingspaces=2.0 --FingerJoint_bottom_lip=0.0 --FingerJoint_edge_width=1.0 --FingerJoint_extra_length=0.0 --FingerJoint_finger=2.0 --FingerJoint_play=0.0 --FingerJoint_space=2.0 --FingerJoint_width=1.0 --Stackable_angle=60 --Stackable_bottom_stabilizers=0.0 --Stackable_height=2.0 --Stackable_holedistance=1.0 --Stackable_width=4.0 --Hinge_grip_percentage=0 --Hinge_outset=0 --Hinge_outset=1 --Hinge_pinwidth=0.5 --Hinge_style=outset --Hinge_axle=2.0 --Hinge_grip_length=0 --Hinge_hingestrength=1 --CabinetHinge_bore=3.2 --CabinetHinge_eyes_per_hinge=5 --CabinetHinge_hinges=2 --CabinetHinge_style=inside --CabinetHinge_eye=1.5 --CabinetHinge_play=0.05 --CabinetHinge_spacing=2.0 --SlideOnLid_hole_width=0 --SlideOnLid_second_pin=0 --SlideOnLid_second_pin=1 --SlideOnLid_spring=both --SlideOnLid_style=rectangular --SlideOnLid_surroundingspaces=2.0 --SlideOnLid_bottom_lip=0.0 --SlideOnLid_edge_width=1.0 --SlideOnLid_extra_length=0.0 --SlideOnLid_finger=3.0 --SlideOnLid_play=0.05 --SlideOnLid_space=2.0 --SlideOnLid_width=1.0 --Click_angle=5.0 --Click_bottom_radius=0.1 --Click_depth=3.0 --RoundedTriangleEdge_height=50.0 --RoundedTriangleEdge_r_hole=2.0 --RoundedTriangleEdge_radius=30.0 --RoundedTriangleEdge_outset=1.0 --Mounting_d_head=6.5 --Mounting_d_shaft=3.0 --Mounting_margin=0.125 --Mounting_num=2 --Mounting_side=back '--Mounting_style=straight edge, within' --HandleEdge_height=20.0 --HandleEdge_hole_height=75.0 --HandleEdge_hole_width=40:40 --HandleEdge_on_sides=0 --HandleEdge_on_sides=1 --HandleEdge_radius=10.0 --HandleEdge_outset=1.0 --Flex_stretch=1.05 --Flex_connection=1.0 --Flex_distance=0.5 --Flex_width=5.0 --Lid_handle=none --Lid_style=none --Lid_handle_height=8.0 --Lid_height=4.0 --Lid_play=0.1 --top_edge=F --bottom_edge=F --x=80.0 --y=60.0 --h=120.0 --outside=0 --outside=1 '--vertical_edges=finger joints' --thickness=3.0 --format=svg --tabs=0.0 --qr_code=0 --debug=0 --labels=0 --labels=1 --reference=0 --inner_corners=loop --burn=0.11
Command line short: boxes UniversalBox --top_edge=F --bottom_edge=F --x=80.0 --y=60.0 --h=120.0 --reference=0 --burn=0.11
Url: https://boxes.hackerspace-bamberg.de/UniversalBox?FingerJoint_style=rectangular&amp;FingerJoint_surroundingspaces=2.0&amp;FingerJoint_bottom_lip=0.0&amp;FingerJoint_edge_width=1.0&amp;FingerJoint_extra_length=0.0&amp;FingerJoint_finger=2.0&amp;FingerJoint_play=0.0&amp;FingerJoint_space=2.0&amp;FingerJoint_width=1.0&amp;Stackable_angle=60&amp;Stackable_bottom_stabilizers=0.0&amp;Stackable_height=2.0&amp;Stackable_holedistance=1.0&amp;Stackable_width=4.0&amp;Hinge_grip_percentage=0&amp;Hinge_outset=0&amp;Hinge_outset=1&amp;Hinge_pinwidth=0.5&amp;Hinge_style=outset&amp;Hinge_axle=2.0&amp;Hinge_grip_length=0&amp;Hinge_hingestrength=1&amp;CabinetHinge_bore=3.2&amp;CabinetHinge_eyes_per_hinge=5&amp;CabinetHinge_hinges=2&amp;CabinetHinge_style=inside&amp;CabinetHinge_eye=1.5&amp;CabinetHinge_play=0.05&amp;CabinetHinge_spacing=2.0&amp;SlideOnLid_hole_width=0&amp;SlideOnLid_second_pin=0&amp;SlideOnLid_second_pin=1&amp;SlideOnLid_spring=both&amp;SlideOnLid_style=rectangular&amp;SlideOnLid_surroundingspaces=2.0&amp;SlideOnLid_bottom_lip=0.0&amp;SlideOnLid_edge_width=1.0&amp;SlideOnLid_extra_length=0.0&amp;SlideOnLid_finger=3.0&amp;SlideOnLid_play=0.05&amp;SlideOnLid_space=2.0&amp;SlideOnLid_width=1.0&amp;Click_angle=5.0&amp;Click_bottom_radius=0.1&amp;Click_depth=3.0&amp;RoundedTriangleEdge_height=50.0&amp;RoundedTriangleEdge_r_hole=2.0&amp;RoundedTriangleEdge_radius=30.0&amp;RoundedTriangleEdge_outset=1.0&amp;Mounting_d_head=6.5&amp;Mounting_d_shaft=3.0&amp;Mounting_margin=0.125&amp;Mounting_num=2&amp;Mounting_side=back&amp;Mounting_style=straight+edge%2C+within&amp;HandleEdge_height=20.0&amp;HandleEdge_hole_height=75.0&amp;HandleEdge_hole_width=40%3A40&amp;HandleEdge_on_sides=0&amp;HandleEdge_on_sides=1&amp;HandleEdge_radius=10.0&amp;HandleEdge_outset=1.0&amp;Flex_stretch=1.05&amp;Flex_connection=1.0&amp;Flex_distance=0.5&amp;Flex_width=5.0&amp;Lid_handle=none&amp;Lid_style=none&amp;Lid_handle_height=8.0&amp;Lid_height=4.0&amp;Lid_play=0.1&amp;top_edge=F&amp;bottom_edge=F&amp;x=80.0&amp;y=60.0&amp;h=120.0&amp;outside=0&amp;outside=1&amp;vertical_edges=finger+joints&amp;thickness=3.0&amp;format=svg&amp;tabs=0.0&amp;qr_code=0&amp;debug=0&amp;labels=0&amp;labels=1&amp;reference=0&amp;inner_corners=loop&amp;burn=0.11&amp;language=en&amp;render=2
Url short: https://boxes.hackerspace-bamberg.de/UniversalBox?top_edge=F&amp;bottom_edge=F&amp;x=80.0&amp;y=60.0&amp;h=120.0&amp;reference=0&amp;burn=0.11
SettingsUrl: https://boxes.hackerspace-bamberg.de/UniversalBox?FingerJoint_style=rectangular&amp;FingerJoint_surroundingspaces=2.0&amp;FingerJoint_bottom_lip=0.0&amp;FingerJoint_edge_width=1.0&amp;FingerJoint_extra_length=0.0&amp;FingerJoint_finger=2.0&amp;FingerJoint_play=0.0&amp;FingerJoint_space=2.0&amp;FingerJoint_width=1.0&amp;Stackable_angle=60&amp;Stackable_bottom_stabilizers=0.0&amp;Stackable_height=2.0&amp;Stackable_holedistance=1.0&amp;Stackable_width=4.0&amp;Hinge_grip_percentage=0&amp;Hinge_outset=0&amp;Hinge_outset=1&amp;Hinge_pinwidth=0.5&amp;Hinge_style=outset&amp;Hinge_axle=2.0&amp;Hinge_grip_length=0&amp;Hinge_hingestrength=1&amp;CabinetHinge_bore=3.2&amp;CabinetHinge_eyes_per_hinge=5&amp;CabinetHinge_hinges=2&amp;CabinetHinge_style=inside&amp;CabinetHinge_eye=1.5&amp;CabinetHinge_play=0.05&amp;CabinetHinge_spacing=2.0&amp;SlideOnLid_hole_width=0&amp;SlideOnLid_second_pin=0&amp;SlideOnLid_second_pin=1&amp;SlideOnLid_spring=both&amp;SlideOnLid_style=rectangular&amp;SlideOnLid_surroundingspaces=2.0&amp;SlideOnLid_bottom_lip=0.0&amp;SlideOnLid_edge_width=1.0&amp;SlideOnLid_extra_length=0.0&amp;SlideOnLid_finger=3.0&amp;SlideOnLid_play=0.05&amp;SlideOnLid_space=2.0&amp;SlideOnLid_width=1.0&amp;Click_angle=5.0&amp;Click_bottom_radius=0.1&amp;Click_depth=3.0&amp;RoundedTriangleEdge_height=50.0&amp;RoundedTriangleEdge_r_hole=2.0&amp;RoundedTriangleEdge_radius=30.0&amp;RoundedTriangleEdge_outset=1.0&amp;Mounting_d_head=6.5&amp;Mounting_d_shaft=3.0&amp;Mounting_margin=0.125&amp;Mounting_num=2&amp;Mounting_side=back&amp;Mounting_style=straight+edge%2C+within&amp;HandleEdge_height=20.0&amp;HandleEdge_hole_height=75.0&amp;HandleEdge_hole_width=40%3A40&amp;HandleEdge_on_sides=0&amp;HandleEdge_on_sides=1&amp;HandleEdge_radius=10.0&amp;HandleEdge_outset=1.0&amp;Flex_stretch=1.05&amp;Flex_connection=1.0&amp;Flex_distance=0.5&amp;Flex_width=5.0&amp;Lid_handle=none&amp;Lid_style=none&amp;Lid_handle_height=8.0&amp;Lid_height=4.0&amp;Lid_play=0.1&amp;top_edge=F&amp;bottom_edge=F&amp;x=80.0&amp;y=60.0&amp;h=120.0&amp;outside=0&amp;outside=1&amp;vertical_edges=finger+joints&amp;thickness=3.0&amp;format=svg&amp;tabs=0.0&amp;qr_code=0&amp;debug=0&amp;labels=0&amp;labels=1&amp;reference=0&amp;inner_corners=loop&amp;burn=0.11&amp;language=en&amp;render=2
SettingsUrl short: https://boxes.hackerspace-bamberg.de/UniversalBox?top_edge=F&amp;bottom_edge=F&amp;x=80.0&amp;y=60.0&amp;h=120.0&amp;reference=0&amp;burn=0.11
</dc:description>
</cc:Work></rdf:RDF></metadata>
<g id="p-0" style="fill:none;stroke-linecap:round;stroke-linejoin:round;">
  <text dominant-baseline="hanging" font-size="4px" style="font-family: sans-serif ; font-weight: normal; font-style: normal; fill: rgb(255,0,0)" text-anchor="middle" transform="matrix( 1.000 0.000 0.000 1.000 50.110 381.100 )">front</text><path d="M 13.110 443.100 H 23.110 C 23.171 443.100 23.220 443.051 23.220 442.990 V 440.100 C 23.220 439.990 23.110 440.100 23.220 440.100 H 29.000 C 29.110 440.100 29.000 439.990 29.000 440.100 V 442.990 C 29.000 443.051 29.049 443.100 29.110 443.100 H 35.110 C 35.171 443.100 35.220 443.051 35.220 442.990 V 440.100 C 35.220 439.990 35.110 440.100 35.220 440.100 H 41.000 C 41.110 440.100 41.000 439.990 41.000 440.100 V 442.990 C 41.000 443.051 41.049 443.100 41.110 443.100 H 47.110 C 47.171 443.100 47.220 443.051 47.220 442.990 V 440.100 C 47.220 439.990 47.110 440.100 47.220 440.100 H 53.000 C 53.110 440.100 53.000 439.990 53.000 440.100 V 442.990 C 53.000 443.051 53.049 443.100 53.110 443.100 H 59.110 C 59.171 443.100 59.220 443.051 59.220 442.990 V 440.100 C 59.220 439.990 59.110 440.100 59.220 440.100 H 65.000 C 65.110 440.100 65.000 439.990 65.000 440.100 V 442.990 C 65.000 443.051 65.049 443.100 65.110 443.100 H 71.110 C 71.171 443.100 71.220 443.051 71.220 442.990 V 440.100 C 71.220 439.990 71.110 440.100 71.220 440.100 H 77.000 C 77.110 440.100 77.000 439.990 77.000 440.100 V 442.990 C 77.000 443.051 77.049 443.100 77.110 443.100 H 87.110 H 90.110 C 90.171 443.100 90.220 443.051 90.220 442.990 V 435.490 C 90.220 435.429 90.171 435.380 90.110 435.380 H 87.220 C 87.110 435.380 87.220 435.490 87.220 435.380 V 429.600 C 87.220 429.490 87.110 429.600 87.220 429.600 H 90.110 C 90.171 429.600 90.220 429.551 90.220 429.490 V 423.490 C 90.220 423.429 90.171 423.380 90.110 423.380 H 87.220 C 87.110 423.380 87.220 423.490 87.220 423.380 V 417.600 C 87.220 417.490 87.110 417.600 87.220 417.600 H 90.110 C 90.171 417.600 90.220 417.551 90.220 417.490 V 411.490 C 90.220 411.429 90.171 411.380 90.110 411.380 H 87.220 C 87.110 411.380 87.220 411.490 87.220 411.380 V 405.600 C 87.220 405.490 87.110 405.600 87.220 405.600 H 90.110 C 90.171 405.600 90.220 405.551 90.220 405.490 V 399.490 C 90.220 399.429 90.171 399.380 90.110 399.380 H 87.220 C 87.110 399.380 87.220 399.490 87.220 399.380 V 393.600 C 87.220 393.490 87.110 393.600 87.220 393.600 H 90.110 C 90.171 393.600 90.220 393.551 90.220 393.490 V 387.490 C 90.220 387.429 90.171 387.380 90.110 387.380 H 87.220 C 87.110 387.380 87.220 387.490 87.220 387.380 V 381.600 C 87.220 381.490 87.110 381.600 87.220 381.600 H 90.110 C 90.171 381.600 90.220 381.551 90.220 381.490 V 375.490 C 90.220 375.429 90.171 375.380 90.110 375.380 H 87.220 C 87.110 375.380 87.220 375.490 87.220 375.380 V 369.600 C 87.220 369.490 87.110 369.600 87.220 369.600 H 90.110 C 90.171 369.600 90.220 369.551 90.220 369.490 V 363.490 C 90.220 363.429 90.171 363.380 90.110 363.380 H 87.220 C 87.110 363.380 87.220 363.490 87.220 363.380 V 357.600 C 87.220 357.490 87.110 357.600 87.220 357.600 H 90.110 C 90.171 357.600 90.220 357.551 90.220 357.490 V 351.490 C 90.220 351.429 90.171 351.380 90.110 351.380 H 87.220 C 87.110 351.380 87.220 351.490 87.220 351.380 V 345.600 C 87.220 345.490 87.110 345.600 87.220 345.600 H 90.110 C 90.171 345.600 90.220 345.551 90.220 345.490 V 339.490 C 90.220 339.429 90.171 339.380 90.110 339.380 H 87.220 C 87.110 339.380 87.220 339.490 87.220 339.380 V 333.600 C 87.220 333.490 87.110 333.600 87.220 333.600 H 90.110 C 90.171 333.600 90.220 333.551 90.220 333.490 V 325.990 V 322.990 C 90.220 322.929 90.171 322.880 90.110 322.880 H 87.110 H 77.110 C 77.049 322.880 77.000 322.929 77.000 322.990 V 325.880 C 77.000 325.990 77.110 325.880 77.000 325.880 H 71.220 C 71.110 325.880 71.220 325.990 71.220 325.880 V 322.990 C 71.220 322.929 71.171 322.880 71.110 322.880 H 65.110 C 65.049 322.880 65.000 322.929 65.000 322.990 V 325.880 C 65.000 325.990 65.110 325.880 65.000 325.880 H 59.220 C 59.110 325.880 59.220 325.990 59.220 325.880 V 322.990 C 59.220 322.929 59.171 322.880 59.110 322.880 H 53.110 C 53.049 322.880 53.000 322.929 53.000 322.990 V 325.880 C 53.000 325.990 53.110 325.880 53.000 325.880 H 47.220 C 47.110 325.880 47.220 325.990 47.220 325.880 V 322.990 C 47.220 322.929 47.171 322.880 47.110 322.880 H 41.110 C 41.049 322.880 41.000 322.929 41.000 322.990 V 325.880 C 41.000 325.990 41.110 325.880 41.000 325.880 H 35.220 C 35.110 325.880 35.220 325.990 35.220 325.880 V 322.990 C 35.220 322.929 35.171 322.880 35.110 322.880 H 29.110 C 29.049 322.880 29.000 322.929 29.000 322.990 V 325.880 C 29.000 325.990 29.110 325.880 29.000 325.880 H 23.220 C 23.110 325.880 23.220 325.990 23.220 325.880 V 322.990 C 23.220 322.929 23.171 322.880 23.110 322.880 H 13.110 H 10.110 C 10.049 322.880 10.000 322.929 10.000 322.990 V 325.990 V 333.490 C 10.000 333.551 10.049 333.600 10.110 333.600 H 13.000 C 13.110 333.600 13.000 333.490 13.000 333.600 V 339.380 C 13.000 339.490 13.110 339.380 13.000 339.380 H 10.110 C 10.049 339.380 10.000 339.429 10.000 339.490 V 345.490 C 10.000 345.551 10.049 345.600 10.110 345.600 H 13.000 C 13.110 345.600 13.000 345.490 13.000 345.600 V 351.380 C 13.000 351.490 13.110 351.380 13.000 351.380 H 10.110 C 10.049 351.380 10.000 351.429 10.000 351.490 V 357.490 C 10.000 357.551 10.049 357.600 10.110 357.600 H 13.000 C 13.110 357.600 13.000 357.490 13.000 357.600 V 363.380 C 13.000 363.490 13.110 363.380 13.000 363.380 H 10.110 C 10.049 363.380 10.000 363.429 10.000 363.490 V 369.490 C 10.000 369.551 10.049 369.600 10.110 369.600 H 13.000 C 13.110 369.600 13.000 369.490 13.000 369.600 V 375.380 C 13.000 375.490 13.110 375.380 13.000 375.380 H 10.110 C 10.049 375.380 10.000 375.429 10.000 375.490 V 381.490 C 10.000 381.551 10.049 381.600 10.110 381.600 H 13.000 C 13.110 381.600 13.000 381.490 13.000 381.600 V 387.380 C 13.000 387.490 13.110 387.380 13.000 387.380 H 10.110 C 10.049 387.380 10.000 387.429 10.000 387.490 V 393.490 C 10.000 393.551 10.049 393.600 10.110 393.600 H 13.000 C 13.110 393.600 13.000 393.490 13.000 393.600 V 399.380 C 13.000 399.490 13.110 399.380 13.000 399.380 H 10.110 C 10.049 399.380 10.000 399.429 10.000 399.490 V 405.490 C 10.000 405.551 10.049 405.600 10.110 405.600 H 13.000 C 13.110 405.600 13.000 405.490 13.000 405.600 V 411.380 C 13.000 411.490 13.110 411.380 13.000 411.380 H 10.110 C 10.049 411.380 10.000 411.429 10.000 411.490 V 417.490 C 10.000 417.551 10.049 417.600 10.110 417.600 H 13.000 C 13.110 417.600 13.000 417.490 13.000 417.600 V 423.380 C 13.000 423.490 13.110 423.380 13.000 423.380 H 10.110 C 10.049 423.380 10.000 423.429 10.000 423.490 V 429.490 C 10.000 429.551 10.049 429.600 10.110 429.600 H 13.000 C 13.110 429.600 13.000 429.490 13.000 429.600 V 435.380 C 13.000 435.490 13.110 435.380 13.000 435.380 H 10.110 C 10.049 435.380 10.000 435.429 10.000 435.490 V 442.990 C 10.000 443.051 10.049 443.100 10.110 443.100 H 13.110" stroke="rgb(0,0,0)" stroke-width="0.22" />
</g>
<g id="p-1" style="fill:none;stroke-linecap:round;stroke-linejoin:round;">
  <text dominant-baseline="hanging" font-size="4px" style="font-family: sans-serif ; font-weight: normal; font-style: normal; fill: rgb(255,0,0)" text-anchor="middle" transform="matrix( 1.000 0.000 0.000 1.000 50.110 259.380 )">back</text><path d="M 13.110 321.380 H 23.110 C 23.171 321.380 23.220 321.331 23.220 321.270 V 318.380 C 23.220 318.270 23.110 318.380 23.220 318.380 H 29.000 C 29.110 318.380 29.000 318.270 29.000 318.380 V 321.270 C 29.000 321.331 29.049 321.380 29.110 321.380 H 35.110 C 35.171 321.380 35.220 321.331 35.220 321.270 V 318.380 C 35.220 318.270 35.110 318.380 35.220 318.380 H 41.000 C 41.110 318.380 41.000 318.270 41.000 318.380 V 321.270 C 41.000 321.331 41.049 321.380 41.110 321.380 H 47.110 C 47.171 321.380 47.220 321.331 47.220 321.270 V 318.380 C 47.220 318.270 47.110 318.380 47.220 318.380 H 53.000 C 53.110 318.380 53.000 318.270 53.000 318.380 V 321.270 C 53.000 321.331 53.049 321.380 53.110 321.380 H 59.110 C 59.171 321.380 59.220 321.331 59.220 321.270 V 318.380 C 59.220 318.270 59.110 318.380 59.220 318.380 H 65.000 C 65.110 318.380 65.000 318.270 65.000 318.380 V 321.270 C 65.000 321.331 65.049 321.380 65.110 321.380 H 71.110 C 71.171 321.380 71.220 321.331 71.220 321.270 V 318.380 C 71.220 318.270 71.110 318.380 71.220 318.380 H 77.000 C 77.110 318.380 77.000 318.270 77.000 318.380 V 321.270 C 77.000 321.331 77.049 321.380 77.110 321.380 H 87.110 H 90.110 C 90.171 321.380 90.220 321.331 90.220 321.270 V 313.770 C 90.220 313.709 90.171 313.660 90.110 313.660 H 87.220 C 87.110 313.660 87.220 313.770 87.220 313.660 V 307.880 C 87.220 307.770 87.110 307.880 87.220 307.880 H 90.110 C 90.171 307.880 90.220 307.831 90.220 307.770 V 301.770 C 90.220 301.709 90.171 301.660 90.110 301.660 H 87.220 C 87.110 301.660 87.220 301.770 87.220 301.660 V 295.880 C 87.220 295.770 87.110 295.880 87.220 295.880 H 90.110 C 90.171 295.880 90.220 295.831 90.220 295.770 V 289.770 C 90.220 289.709 90.171 289.660 90.110 289.660 H 87.220 C 87.110 289.660 87.220 289.770 87.220 289.660 V 283.880 C 87.220 283.770 87.110 283.880 87.220 283.880 H 90.110 C 90.171 283.880 90.220 283.831 90.220 283.770 V 277.770 C 90.220 277.709 90.171 277.660 90.110 277.660 H 87.220 C 87.110 277.660 87.220 277.770 87.220 277.660 V 271.880 C 87.220 271.770 87.110 271.880 87.220 271.880 H 90.110 C 90.171 271.880 90.220 271.831 90.220 271.770 V 265.770 C 90.220 265.709 90.171 265.660 90.110 265.660 H 87.220 C 87.110 265.660 87.220 265.770 87.220 265.660 V 259.880 C 87.220 259.770 87.110 259.880 87.220 259.880 H 90.110 C 90.171 259.880 90.220 259.831 90.220 259.770 V 253.770 C 90.220 253.709 90.171 253.660 90.110 253.660 H 87.220 C 87.110 253.660 87.220 253.770 87.220 253.660 V 247.880 C 87.220 247.770 87.110 247.880 87.220 247.880 H 90.110 C 90.171 247.880 90.220 247.831 90.220 247.770 V 241.770 C 90.220 241.709 90.171 241.660 90.110 241.660 H 87.220 C 87.110 241.660 87.220 241.770 87.220 241.660 V 235.880 C 87.220 235.770 87.110 235.880 87.220 235.880 H 90.110 C 90.171 235.880 90.220 235.831 90.220 235.770 V 229.770 C 90.220 229.709 90.171 229.660 90.110 229.660 H 87.220 C 87.110 229.660 87.220 229.770 87.220 229.660 V 223.880 C 87.220 223.770 87.110 223.880 87.220 223.880 H 90.110 C 90.171 223.880 90.220 223.831 90.220 223.770 V 217.770 C 90.220 217.709 90.171 217.660 90.110 217.660 H 87.220 C 87.110 217.660 87.220 217.770 87.220 217.660 V 211.880 C 87.220 211.770 87.110 211.880 87.220 211.880 H 90.110 C 90.171 211.880 90.220 211.831 90.220 211.770 V 204.270 V 201.270 C 90.220 201.209 90.171 201.160 90.110 201.160 H 87.110 H 77.110 C 77.049 201.160 77.000 201.209 77.000 201.270 V 204.160 C 77.000 204.270 77.110 204.160 77.000 204.160 H 71.220 C 71.110 204.160 71.220 204.270 71.220 204.160 V 201.270 C 71.220 201.209 71.171 201.160 71.110 201.160 H 65.110 C 65.049 201.160 65.000 201.209 65.000 201.270 V 204.160 C 65.000 204.270 65.110 204.160 65.000 204.160 H 59.220 C 59.110 204.160 59.220 204.270 59.220 204.160 V 201.270 C 59.220 201.209 59.171 201.160 59.110 201.160 H 53.110 C 53.049 201.160 53.000 201.209 53.000 201.270 V 204.160 C 53.000 204.270 53.110 204.160 53.000 204.160 H 47.220 C 47.110 204.160 47.220 204.270 47.220 204.160 V 201.270 C 47.220 201.209 47.171 201.160 47.110 201.160 H 41.110 C 41.049 201.160 41.000 201.209 41.000 201.270 V 204.160 C 41.000 204.270 41.110 204.160 41.000 204.160 H 35.220 C 35.110 204.160 35.220 204.270 35.220 204.160 V 201.270 C 35.220 201.209 35.171 201.160 35.110 201.160 H 29.110 C 29.049 201.160 29.000 201.209 29.000 201.270 V 204.160 C 29.000 204.270 29.110 204.160 29.000 204.160 H 23.220 C 23.110 204.160 23.220 204.270 23.220 204.160 V 201.270 C 23.220 201.209 23.171 201.160 23.110 201.160 H 13.110 H 10.110 C 10.049 201.160 10.000 201.209 10.000 201.270 V 204.270 V 211.770 C 10.000 211.831 10.049 211.880 10.110 211.880 H 13.000 C 13.110 211.880 13.000 211.770 13.000 211.880 V 217.660 C 13.000 217.770 13.110 217.660 13.000 217.660 H 10.110 C 10.049 217.660 10.000 217.709 10.000 217.770 V 223.770 C 10.000 223.831 10.049 223.880 10.110 223.880 H 13.000 C 13.110 223.880 13.000 223.770 13.000 223.880 V 229.660 C 13.000 229.770 13.110 229.660 13.000 229.660 H 10.110 C 10.049 229.660 10.000 229.709 10.000 229.770 V 235.770 C 10.000 235.831 10.049 235.880 10.110 235.880 H 13.000 C 13.110 235.880 13.000 235.770 13.000 235.880 V 241.660 C 13.000 241.770 13.110 241.660 13.000 241.660 H 10.110 C 10.049 241.660 10.000 241.709 10.000 241.770 V 247.770 C 10.000 247.831 10.049 247.880 10.110 247.880 H 13.000 C 13.110 247.880 13.000 247.770 13.000 247.880 V 253.660 C 13.000 253.770 13.110 253.660 13.000 253.660 H 10.110 C 10.049 253.660 10.000 253.709 10.000 253.770 V 259.770 C 10.000 259.831 10.049 259.880 10.110 259.880 H 13.000 C 13.110 259.880 13.000 259.770 13.000 259.880 V 265.660 C 13.000 265.770 13.110 265.660 13.000 265.660 H 10.110 C 10.049 265.660 10.000 265.709 10.000 265.770 V 271.770 C 10.000 271.831 10.049 271.880 10.110 271.880 H 13.000 C 13.110 271.880 13.000 271.770 13.000 271.880 V 277.660 C 13.000 277.770 13.110 277.660 13.000 277.660 H 10.110 C 10.049 277.660 10.000 277.709 10.000 277.770 V 283.770 C 10.000 283.831 10.049 283.880 10.110 283.880 H 13.000 C 13.110 283.880 13.000 283.770 13.000 283.880 V 289.660 C 13.000 289.770 13.110 289.660 13.000 289.660 H 10.110 C 10.049 289.660 10.000 289.709 10.000 289.770 V 295.770 C 10.000 295.831 10.049 295.880 10.110 295.880 H 13.000 C 13.110 295.880 13.000 295.770 13.000 295.880 V 301.660 C 13.000 301.770 13.110 301.660 13.000 301.660 H 10.110 C 10.049 301.660 10.000 301.709 10.000 301.770 V 307.770 C 10.000 307.831 10.049 307.880 10.110 307.880 H 13.000 C 13.110 307.880 13.000 307.770 13.000 307.880 V 313.660 C 13.000 313.770 13.110 313.660 13.000 313.660 H 10.110 C 10.049 313.660 10.000 313.709 10.000 313.770 V 321.270 C 10.000 321.331 10.049 321.380 10.110 321.380 H 13.110" stroke="rgb(0,0,0)" stroke-width="0.22" />
</g>
<g id="p-2" style="fill:none;stroke-linecap:round;stroke-linejoin:round;">
  <text dominant-baseline="hanging" font-size="4px" style="font-family: sans-serif ; font-weight: normal; font-style: normal; fill: rgb(255,0,0)" text-anchor="middle" transform="matrix( 1.000 0.000 0.000 1.000 50.110 167.660 )">bottom</text><path d="M 13.110 196.660 H 23.000 C 23.110 196.660 23.000 196.550 23.000 196.660 V 199.550 C 23.000 199.611 23.049 199.660 23.110 199.660 H 29.110 C 29.171 199.660 29.220 199.611 29.220 199.550 V 196.660 C 29.220 196.550 29.110 196.660 29.220 196.660 H 35.000 C 35.110 196.660 35.000 196.550 35.000 196.660 V 199.550 C 35.000 199.611 35.049 199.660 35.110 199.660 H 41.110 C 41.171 199.660 41.220 199.611 41.220 199.550 V 196.660 C 41.220 196.550 41.110 196.660 41.220 196.660 H 47.000 C 47.110 196.660 47.000 196.550 47.000 196.660 V 199.550 C 47.000 199.611 47.049 199.660 47.110 199.660 H 53.110 C 53.171 199.660 53.220 199.611 53.220 199.550 V 196.660 C 53.220 196.550 53.110 196.660 53.220 196.660 H 59.000 C 59.110 196.660 59.000 196.550 59.000 196.660 V 199.550 C 59.000 199.611 59.049 199.660 59.110 199.660 H 65.110 C 65.171 199.660 65.220 199.611 65.220 199.550 V 196.660 C 65.220 196.550 65.110 196.660 65.220 196.660 H 71.000 C 71.110 196.660 71.000 196.550 71.000 196.660 V 199.550 C 71.000 199.611 71.049 199.660 71.110 199.660 H 77.110 C 77.171 199.660 77.220 199.611 77.220 199.550 V 196.660 C 77.220 196.550 77.110 196.660 77.220 196.660 H 87.110 C 87.171 196.660 87.220 196.611 87.220 196.550 V 190.660 C 87.220 190.550 87.110 190.660 87.220 190.660 H 90.110 C 90.171 190.660 90.220 190.611 90.220 190.550 V 184.550 C 90.220 184.489 90.171 184.440 90.110 184.440 H 87.220 C 87.110 184.440 87.220 184.550 87.220 184.440 V 178.660 C 87.220 178.550 87.110 178.660 87.220 178.660 H 90.110 C 90.171 178.660 90.220 178.611 90.220 178.550 V 172.550 C 90.220 172.489 90.171 172.440 90.110 172.440 H 87.220 C 87.110 172.440 87.220 172.550 87.220 172.440 V 166.660 C 87.220 166.550 87.110 166.660 87.220 166.660 H 90.110 C 90.171 166.660 90.220 166.611 90.220 166.550 V 160.550 C 90.220 160.489 90.171 160.440 90.110 160.440 H 87.220 C 87.110 160.440 87.220 160.550 87.220 160.440 V 154.660 C 87.220 154.550 87.110 154.660 87.220 154.660 H 90.110 C 90.171 154.660 90.220 154.611 90.220 154.550 V 148.550 C 90.220 148.489 90.171 148.440 90.110 148.440 H 87.220 C 87.110 148.440 87.220 148.550 87.220 148.440 V 142.550 C 87.220 142.489 87.171 142.440 87.110 142.440 H 77.220 C 77.110 142.440 77.220 142.550 77.220 142.440 V 139.550 C 77.220 139.489 77.171 139.440 77.110 139.440 H 71.110 C 71.049 139.440 71.000 139.489 71.000 139.550 V 142.440 C 71.000 142.550 71.110 142.440 71.000 142.440 H 65.220 C 65.110 142.440 65.220 142.550 65.220 142.440 V 139.550 C 65.220 139.489 65.171 139.440 65.110 139.440 H 59.110 C 59.049 139.440 59.000 139.489 59.000 139.550 V 142.440 C 59.000 142.550 59.110 142.440 59.000 142.440 H 53.220 C 53.110 142.440 53.220 142.550 53.220 142.440 V 139.550 C 53.220 139.489 53.171 139.440 53.110 139.440 H 47.110 C 47.049 139.440 47.000 139.489 47.000 139.550 V 142.440 C 47.000 142.550 47.110 142.440 47.000 142.440 H 41.220 C 41.110 142.440 41.220 142.550 41.220 142.440 V 139.550 C 41.220 139.489 41.171 139.440 41.110 139.440 H 35.110 C 35.049 139.440 35.000 139.489 35.000 139.550 V 142.440 C 35.000 142.550 35.110 142.440 35.000 142.440 H 29.220 C 29.110 142.440 29.220 142.550 29.220 142.440 V 139.550 C 29.220 139.489 29.171 139.440 29.110 139.440 H 23.110 C 23.049 139.440 23.000 139.489 23.000 139.550 V 142.440 C 23.000 142.550 23.110 142.440 23.000 142.440 H 13.110 C 13.049 142.440 13.000 142.489 13.000 142.550 V 148.440 C 13.000 148.550 13.110 148.440 13.000 148.440 H 10.110 C 10.049 148.440 10.000 148.489 10.000 148.550 V 154.550 C 10.000 154.611 10.049 154.660 10.110 154.660 H 13.000 C 13.110 154.660 13.000 154.550 13.000 154.660 V 160.440 C 13.000 160.550 13.110 160.440 13.000 160.440 H 10.110 C 10.049 160.440 10.000 160.489 10.000 160.550 V 166.550 C 10.000 166.611 10.049 166.660 10.110 166.660 H 13.000 C 13.110 166.660 13.000 166.550 13.000 166.660 V 172.440 C 13.000 172.550 13.110 172.440 13.000 172.440 H 10.110 C 10.049 172.440 10.000 172.489 10.000 172.550 V 178.550 C 10.000 178.611 10.049 178.660 10.110 178.660 H 13.000 C 13.110 178.660 13.000 178.550 13.000 178.660 V 184.440 C 13.000 184.550 13.110 184.440 13.000 184.440 H 10.110 C 10.049 184.440 10.000 184.489 10.000 184.550 V 190.550 C 10.000 190.611 10.049 190.660 10.110 190.660 H 13.000 C 13.110 190.660 13.000 190.550 13.000 190.660 V 196.550 C 13.000 196.611 13.049 196.660 13.110 196.660" stroke="rgb(0,0,0)" stroke-width="0.22" />
</g>
<g id="p-3" style="fill:none;stroke-linecap:round;stroke-linejoin:round;">
  <text dominant-baseline="hanging" font-size="4px" style="font-family: sans-serif ; font-weight: normal; font-style: normal; fill: rgb(255,0,0)" text-anchor="middle" transform="matrix( 1.000 0.000 0.000 1.000 53.110 102.940 )">top hole</text><path d="M 13.220 131.830 V 125.940 C 13.220 125.830 13.110 125.940 13.220 125.940 H 16.110 C 16.171 125.940 16.220 125.891 16.220 125.830 V 119.830 C 16.220 119.769 16.171 119.720 16.110 119.720 H 13.220 C 13.110 119.720 13.220 119.830 13.220 119.720 V 113.940 C 13.220 113.830 13.110 113.940 13.220 113.940 H 16.110 C 16.171 113.940 16.220 113.891 16.220 113.830 V 107.830 C 16.220 107.769 16.171 107.720 16.110 107.720 H 13.220 C 13.110 107.720 13.220 107.830 13.220 107.720 V 101.940 C 13.220 101.830 13.110 101.940 13.220 101.940 H 16.110 C 16.171 101.940 16.220 101.891 16.220 101.830 V 95.830 C 16.220 95.769 16.171 95.720 16.110 95.720 H 13.220 C 13.110 95.720 13.220 95.830 13.220 95.720 V 89.940 C 13.220 89.830 13.110 89.940 13.220 89.940 H 16.110 C 16.171 89.940 16.220 89.891 16.220 89.830 V 83.830 C 16.220 83.769 16.171 83.720 16.110 83.720 H 13.220 C 13.110 83.720 13.220 83.830 13.220 83.720 V 77.830 V 74.940 C 13.220 74.830 13.110 74.940 13.220 74.940 H 16.110 H 26.000 C 26.110 74.940 26.000 74.830 26.000 74.940 V 77.830 C 26.000 77.891 26.049 77.940 26.110 77.940 H 32.110 C 32.171 77.940 32.220 77.891 32.220 77.830 V 74.940 C 32.220 74.830 32.110 74.940 32.220 74.940 H 38.000 C 38.110 74.940 38.000 74.830 38.000 74.940 V 77.830 C 38.000 77.891 38.049 77.940 38.110 77.940 H 44.110 C 44.171 77.940 44.220 77.891 44.220 77.830 V 74.940 C 44.220 74.830 44.110 74.940 44.220 74.940 H 50.000 C 50.110 74.940 50.000 74.830 50.000 74.940 V 77.830 C 50.000 77.891 50.049 77.940 50.110 77.940 H 56.110 C 56.171 77.940 56.220 77.891 56.220 77.830 V 74.940 C 56.220 74.830 56.110 74.940 56.220 74.940 H 62.000 C 62.110 74.940 62.000 74.830 62.000 74.940 V 77.830 C 62.000 77.891 62.049 77.940 62.110 77.940 H 68.110 C 68.171 77.940 68.220 77.891 68.220 77.830 V 74.940 C 68.220 74.830 68.110 74.940 68.220 74.940 H 74.000 C 74.110 74.940 74.000 74.830 74.000 74.940 V 77.830 C 74.000 77.891 74.049 77.940 74.110 77.940 H 80.110 C 80.171 77.940 80.220 77.891 80.220 77.830 V 74.940 C 80.220 74.830 80.110 74.940 80.220 74.940 H 90.110 H 93.000 C 93.110 74.940 93.000 74.830 93.000 74.940 V 77.830 V 83.720 C 93.000 83.830 93.110 83.720 93.000 83.720 H 90.110 C 90.049 83.720 90.000 83.769 90.000 83.830 V 89.830 C 90.000 89.891 90.049 89.940 90.110 89.940 H 93.000 C 93.110 89.940 93.000 89.830 93.000 89.940 V 95.720 C 93.000 95.830 93.110 95.720 93.000 95.720 H 90.110 C 90.049 95.720 90.000 95.769 90.000 95.830 V 101.830 C 90.000 101.891 90.049 101.940 90.110 101.940 H 93.000 C 93.110 101.940 93.000 101.830 93.000 101.940 V 107.720 C 93.000 107.830 93.110 107.720 93.000 107.720 H 90.110 C 90.049 107.720 90.000 107.769 90.000 107.830 V 113.830 C 90.000 113.891 90.049 113.940 90.110 113.940 H 93.000 C 93.110 113.940 93.000 113.830 93.000 113.940 V 119.720 C 93.000 119.830 93.110 119.720 93.000 119.720 H 90.110 C 90.049 119.720 90.000 119.769 90.000 119.830 V 125.830 C 90.000 125.891 90.049 125.940 90.110 125.940 H 93.000 C 93.110 125.940 93.000 125.830 93.000 125.940 V 131.830 V 134.720 C 93.000 134.830 93.110 134.720 93.000 134.720 H 90.110 H 80.220 C 80.110 134.720 80.220 134.830 80.220 134.720 V 131.830 C 80.220 131.769 80.171 131.720 80.110 131.720 H 74.110 C 74.049 131.720 74.000 131.769 74.000 131.830 V 134.720 C 74.000 134.830 74.110 134.720 74.000 134.720 H 68.220 C 68.110 134.720 68.220 134.830 68.220 134.720 V 131.830 C 68.220 131.769 68.171 131.720 68.110 131.720 H 62.110 C 62.049 131.720 62.000 131.769 62.000 131.830 V 134.720 C 62.000 134.830 62.110 134.720 62.000 134.720 H 56.220 C 56.110 134.720 56.220 134.830 56.220 134.720 V 131.830 C 56.220 131.769 56.171 131.720 56.110 131.720 H 50.110 C 50.049 131.720 50.000 131.769 50.000 131.830 V 134.720 C 50.000 134.830 50.110 134.720 50.000 134.720 H 44.220 C 44.110 134.720 44.220 134.830 44.220 134.720 V 131.830 C 44.220 131.769 44.171 131.720 44.110 131.720 H 38.110 C 38.049 131.720 38.000 131.769 38.000 131.830 V 134.720 C 38.000 134.830 38.110 134.720 38.000 134.720 H 32.220 C 32.110 134.720 32.220 134.830 32.220 134.720 V 131.830 C 32.220 131.769 32.171 131.720 32.110 131.720 H 26.110 C 26.049 131.720 26.000 131.769 26.000 131.830 V 134.720 C 26.000 134.830 26.110 134.720 26.000 134.720 H 16.110 H 13.220 C 13.110 134.720 13.220 134.830 13.220 134.720 V 131.830 Z M 10.110 137.940 H 96.110 C 96.171 137.940 96.220 137.891 96.220 137.830 V 71.830 C 96.220 71.769 96.171 71.720 96.110 71.720 H 10.110 C 10.049 71.720 10.000 71.769 10.000 71.830 V 137.830 C 10.000 137.891 10.049 137.940 10.110 137.940" stroke="rgb(255,0,255)" stroke-width="0.22" />
</g>
<g id="p-4" style="fill:none;stroke-linecap:round;stroke-linejoin:round;">
  <text dominant-baseline="hanging" font-size="4px" style="font-family: sans-serif ; font-weight: normal; font-style: normal; fill: rgb(255,0,0)" text-anchor="middle" transform="matrix( 1.000 0.000 0.000 1.000 50.110 38.220 )">top</text><path d="M 13.110 67.220 H 23.000 C 23.110 67.220 23.000 67.110 23.000 67.220 V 70.110 C 23.000 70.171 23.049 70.220 23.110 70.220 H 29.110 C 29.171 70.220 29.220 70.171 29.220 70.110 V 67.220 C 29.220 67.110 29.110 67.220 29.220 67.220 H 35.000 C 35.110 67.220 35.000 67.110 35.000 67.220 V 70.110 C 35.000 70.171 35.049 70.220 35.110 70.220 H 41.110 C 41.171 70.220 41.220 70.171 41.220 70.110 V 67.220 C 41.220 67.110 41.110 67.220 41.220 67.220 H 47.000 C 47.110 67.220 47.000 67.110 47.000 67.220 V 70.110 C 47.000 70.171 47.049 70.220 47.110 70.220 H 53.110 C 53.171 70.220 53.220 70.171 53.220 70.110 V 67.220 C 53.220 67.110 53.110 67.220 53.220 67.220 H 59.000 C 59.110 67.220 59.000 67.110 59.000 67.220 V 70.110 C 59.000 70.171 59.049 70.220 59.110 70.220 H 65.110 C 65.171 70.220 65.220 70.171 65.220 70.110 V 67.220 C 65.220 67.110 65.110 67.220 65.220 67.220 H 71.000 C 71.110 67.220 71.000 67.110 71.000 67.220 V 70.110 C 71.000 70.171 71.049 70.220 71.110 70.220 H 77.110 C 77.171 70.220 77.220 70.171 77.220 70.110 V 67.220 C 77.220 67.110 77.110 67.220 77.220 67.220 H 87.110 C 87.171 67.220 87.220 67.171 87.220 67.110 V 61.220 C 87.220 61.110 87.110 61.220 87.220 61.220 H 90.110 C 90.171 61.220 90.220 61.171 90.220 61.110 V 55.110 C 90.220 55.049 90.171 55.000 90.110 55.000 H 87.220 C 87.110 55.000 87.220 55.110 87.220 55.000 V 49.220 C 87.220 49.110 87.110 49.220 87.220 49.220 H 90.110 C 90.171 49.220 90.220 49.171 90.220 49.110 V 43.110 C 90.220 43.049 90.171 43.000 90.110 43.000 H 87.220 C 87.110 43.000 87.220 43.110 87.220 43.000 V 37.220 C 87.220 37.110 87.110 37.220 87.220 37.220 H 90.110 C 90.171 37.220 90.220 37.171 90.220 37.110 V 31.110 C 90.220 31.049 90.171 31.000 90.110 31.000 H 87.220 C 87.110 31.000 87.220 31.110 87.220 31.000 V 25.220 C 87.220 25.110 87.110 25.220 87.220 25.220 H 90.110 C 90.171 25.220 90.220 25.171 90.220 25.110 V 19.110 C 90.220 19.049 90.171 19.000 90.110 19.000 H 87.220 C 87.110 19.000 87.220 19.110 87.220 19.000 V 13.110 C 87.220 13.049 87.171 13.000 87.110 13.000 H 77.220 C 77.110 13.000 77.220 13.110 77.220 13.000 V 10.110 C 77.220 10.049 77.171 10.000 77.110 10.000 H 71.110 C 71.049 10.000 71.000 10.049 71.000 10.110 V 13.000 C 71.000 13.110 71.110 13.000 71.000 13.000 H 65.220 C 65.110 13.000 65.220 13.110 65.220 13.000 V 10.110 C 65.220 10.049 65.171 10.000 65.110 10.000 H 59.110 C 59.049 10.000 59.000 10.049 59.000 10.110 V 13.000 C 59.000 13.110 59.110 13.000 59.000 13.000 H 53.220 C 53.110 13.000 53.220 13.110 53.220 13.000 V 10.110 C 53.220 10.049 53.171 10.000 53.110 10.000 H 47.110 C 47.049 10.000 47.000 10.049 47.000 10.110 V 13.000 C 47.000 13.110 47.110 13.000 47.000 13.000 H 41.220 C 41.110 13.000 41.220 13.110 41.220 13.000 V 10.110 C 41.220 10.049 41.171 10.000 41.110 10.000 H 35.110 C 35.049 10.000 35.000 10.049 35.000 10.110 V 13.000 C 35.000 13.110 35.110 13.000 35.000 13.000 H 29.220 C 29.110 13.000 29.220 13.110 29.220 13.000 V 10.110 C 29.220 10.049 29.171 10.000 29.110 10.000 H 23.110 C 23.049 10.000 23.000 10.049 23.000 10.110 V 13.000 C 23.000 13.110 23.110 13.000 23.000 13.000 H 13.110 C 13.049 13.000 13.000 13.049 13.000 13.110 V 19.000 C 13.000 19.110 13.110 19.000 13.000 19.000 H 10.110 C 10.049 19.000 10.000 19.049 10.000 19.110 V 25.110 C 10.000 25.171 10.049 25.220 10.110 25.220 H 13.000 C 13.110 25.220 13.000 25.110 13.000 25.220 V 31.000 C 13.000 31.110 13.110 31.000 13.000 31.000 H 10.110 C 10.049 31.000 10.000 31.049 10.000 31.110 V 37.110 C 10.000 37.171 10.049 37.220 10.110 37.220 H 13.000 C 13.110 37.220 13.000 37.110 13.000 37.220 V 43.000 C 13.000 43.110 13.110 43.000 13.000 43.000 H 10.110 C 10.049 43.000 10.000 43.049 10.000 43.110 V 49.110 C 10.000 49.171 10.049 49.220 10.110 49.220 H 13.000 C 13.110 49.220 13.000 49.110 13.000 49.220 V 55.000 C 13.000 55.110 13.110 55.000 13.000 55.000 H 10.110 C 10.049 55.000 10.000 55.049 10.000 55.110 V 61.110 C 10.000 61.171 10.049 61.220 10.110 61.220 H 13.000 C 13.110 61.220 13.000 61.110 13.000 61.220 V 67.110 C 13.000 67.171 13.049 67.220 13.110 67.220" stroke="rgb(0,0,0)" stroke-width="0.22" />
</g>
<g id="p-5" style="fill:none;stroke-linecap:round;stroke-linejoin:round;">
  <text dominant-baseline="hanging" font-size="4px" style="font-family: sans-serif ; font-weight: normal; font-style: normal; fill: rgb(255,0,0)" text-anchor="middle" transform="matrix( 1.000 0.000 0.000 1.000 121.830 381.100 )">left</text><path d="M 94.830 443.100 H 100.830 C 100.891 443.100 100.940 443.051 100.940 442.990 V 440.100 C 100.940 439.990 100.830 440.100 100.940 440.100 H 106.720 C 106.830 440.100 106.720 439.990 106.720 440.100 V 442.990 C 106.720 443.051 106.769 443.100 106.830 443.100 H 112.830 C 112.891 443.100 112.940 443.051 112.940 442.990 V 440.100 C 112.940 439.990 112.830 440.100 112.940 440.100 H 118.720 C 118.830 440.100 118.720 439.990 118.720 440.100 V 442.990 C 118.720 443.051 118.769 443.100 118.830 443.100 H 124.830 C 124.891 443.100 124.940 443.051 124.940 442.990 V 440.100 C 124.940 439.990 124.830 440.100 124.940 440.100 H 130.720 C 130.830 440.100 130.720 439.990 130.720 440.100 V 442.990 C 130.720 443.051 130.769 443.100 130.830 443.100 H 136.830 C 136.891 443.100 136.940 443.051 136.940 442.990 V 440.100 C 136.940 439.990 136.830 440.100 136.940 440.100 H 142.720 C 142.830 440.100 142.720 439.990 142.720 440.100 V 442.990 C 142.720 443.051 142.769 443.100 142.830 443.100 H 148.830 C 148.891 443.100 148.940 443.051 148.940 442.990 V 435.600 C 148.940 435.490 148.830 435.600 148.940 435.600 H 151.830 C 151.891 435.600 151.940 435.551 151.940 435.490 V 429.490 C 151.940 429.429 151.891 429.380 151.830 429.380 H 148.940 C 148.830 429.380 148.940 429.490 148.940 429.380 V 423.600 C 148.940 423.490 148.830 423.600 148.940 423.600 H 151.830 C 151.891 423.600 151.940 423.551 151.940 423.490 V 417.490 C 151.940 417.429 151.891 417.380 151.830 417.380 H 148.940 C 148.830 417.380 148.940 417.490 148.940 417.380 V 411.600 C 148.940 411.490 148.830 411.600 148.940 411.600 H 151.830 C 151.891 411.600 151.940 411.551 151.940 411.490 V 405.490 C 151.940 405.429 151.891 405.380 151.830 405.380 H 148.940 C 148.830 405.380 148.940 405.490 148.940 405.380 V 399.600 C 148.940 399.490 148.830 399.600 148.940 399.600 H 151.830 C 151.891 399.600 151.940 399.551 151.940 399.490 V 393.490 C 151.940 393.429 151.891 393.380 151.830 393.380 H 148.940 C 148.830 393.380 148.940 393.490 148.940 393.380 V 387.600 C 148.940 387.490 148.830 387.600 148.940 387.600 H 151.830 C 151.891 387.600 151.940 387.551 151.940 387.490 V 381.490 C 151.940 381.429 151.891 381.380 151.830 381.380 H 148.940 C 148.830 381.380 148.940 381.490 148.940 381.380 V 375.600 C 148.940 375.490 148.830 375.600 148.940 375.600 H 151.830 C 151.891 375.600 151.940 375.551 151.940 375.490 V 369.490 C 151.940 369.429 151.891 369.380 151.830 369.380 H 148.940 C 148.830 369.380 148.940 369.490 148.940 369.380 V 363.600 C 148.940 363.490 148.830 363.600 148.940 363.600 H 151.830 C 151.891 363.600 151.940 363.551 151.940 363.490 V 357.490 C 151.940 357.429 151.891 357.380 151.830 357.380 H 148.940 C 148.830 357.380 148.940 357.490 148.940 357.380 V 351.600 C 148.940 351.490 148.830 351.600 148.940 351.600 H 151.830 C 151.891 351.600 151.940 351.551 151.940 351.490 V 345.490 C 151.940 345.429 151.891 345.380 151.830 345.380 H 148.940 C 148.830 345.380 148.940 345.490 148.940 345.380 V 339.600 C 148.940 339.490 148.830 339.600 148.940 339.600 H 151.830 C 151.891 339.600 151.940 339.551 151.940 339.490 V 333.490 C 151.940 333.429 151.891 333.380 151.830 333.380 H 148.940 C 148.830 333.380 148.940 333.490 148.940 333.380 V 325.990 V 322.990 C 148.940 322.929 148.891 322.880 148.830 322.880 H 142.830 C 142.769 322.880 142.720 322.929 142.720 322.990 V 325.880 C 142.720 325.990 142.830 325.880 142.720 325.880 H 136.940 C 136.830 325.880 136.940 325.990 136.940 325.880 V 322.990 C 136.940 322.929 136.891 322.880 136.830 322.880 H 130.830 C 130.769 322.880 130.720 322.929 130.720 322.990 V 325.880 C 130.720 325.990 130.830 325.880 130.720 325.880 H 124.940 C 124.830 325.880 124.940 325.990 124.940 325.880 V 322.990 C 124.940 322.929 124.891 322.880 124.830 322.880 H 118.830 C 118.769 322.880 118.720 322.929 118.720 322.990 V 325.880 C 118.720 325.990 118.830 325.880 118.720 325.880 H 112.940 C 112.830 325.880 112.940 325.990 112.940 325.880 V 322.990 C 112.940 322.929 112.891 322.880 112.830 322.880 H 106.830 C 106.769 322.880 106.720 322.929 106.720 322.990 V 325.880 C 106.720 325.990 106.830 325.880 106.720 325.880 H 100.940 C 100.830 325.880 100.940 325.990 100.940 325.880 V 322.990 C 100.940 322.929 100.891 322.880 100.830 322.880 H 94.830 C 94.769 322.880 94.720 322.929 94.720 322.990 V 325.990 V 333.380 C 94.720 333.490 94.830 333.380 94.720 333.380 H 91.830 C 91.769 333.380 91.720 333.429 91.720 333.490 V 339.490 C 91.720 339.551 91.769 339.600 91.830 339.600 H 94.720 C 94.830 339.600 94.720 339.490 94.720 339.600 V 345.380 C 94.720 345.490 94.830 345.380 94.720 345.380 H 91.830 C 91.769 345.380 91.720 345.429 91.720 345.490 V 351.490 C 91.720 351.551 91.769 351.600 91.830 351.600 H 94.720 C 94.830 351.600 94.720 351.490 94.720 351.600 V 357.380 C 94.720 357.490 94.830 357.380 94.720 357.380 H 91.830 C 91.769 357.380 91.720 357.429 91.720 357.490 V 363.490 C 91.720 363.551 91.769 363.600 91.830 363.600 H 94.720 C 94.830 363.600 94.720 363.490 94.720 363.600 V 369.380 C 94.720 369.490 94.830 369.380 94.720 369.380 H 91.830 C 91.769 369.380 91.720 369.429 91.720 369.490 V 375.490 C 91.720 375.551 91.769 375.600 91.830 375.600 H 94.720 C 94.830 375.600 94.720 375.490 94.720 375.600 V 381.380 C 94.720 381.490 94.830 381.380 94.720 381.380 H 91.830 C 91.769 381.380 91.720 381.429 91.720 381.490 V 387.490 C 91.720 387.551 91.769 387.600 91.830 387.600 H 94.720 C 94.830 387.600 94.720 387.490 94.720 387.600 V 393.380 C 94.720 393.490 94.830 393.380 94.720 393.380 H 91.830 C 91.769 393.380 91.720 393.429 91.720 393.490 V 399.490 C 91.720 399.551 91.769 399.600 91.830 399.600 H 94.720 C 94.830 399.600 94.720 399.490 94.720 399.600 V 405.380 C 94.720 405.490 94.830 405.380 94.720 405.380 H 91.830 C 91.769 405.380 91.720 405.429 91.720 405.490 V 411.490 C 91.720 411.551 91.769 411.600 91.830 411.600 H 94.720 C 94.830 411.600 94.720 411.490 94.720 411.600 V 417.380 C 94.720 417.490 94.830 417.380 94.720 417.380 H 91.830 C 91.769 417.380 91.720 417.429 91.720 417.490 V 423.490 C 91.720 423.551 91.769 423.600 91.830 423.600 H 94.720 C 94.830 423.600 94.720 423.490 94.720 423.600 V 429.380 C 94.720 429.490 94.830 429.380 94.720 429.380 H 91.830 C 91.769 429.380 91.720 429.429 91.720 429.490 V 435.490 C 91.720 435.551 91.769 435.600 91.830 435.600 H 94.720 C 94.830 435.600 94.720 435.490 94.720 435.600 V 442.990 C 94.720 443.051 94.769 443.100 94.830 443.100" stroke="rgb(0,0,0)" stroke-width="0.22" />
</g>
<g id="p-6" style="fill:none;stroke-linecap:round;stroke-linejoin:round;">
  <text dominant-baseline="hanging" font-size="4px" style="font-family: sans-serif ; font-weight: normal; font-style: normal; fill: rgb(255,0,0)" text-anchor="middle" transform="matrix( 1.000 0.000 0.000 1.000 121.830 259.380 )">right</text><path d="M 94.830 321.380 H 100.830 C 100.891 321.380 100.940 321.331 100.940 321.270 V 318.380 C 100.940 318.270 100.830 318.380 100.940 318.380 H 106.720 C 106.830 318.380 106.720 318.270 106.720 318.380 V 321.270 C 106.720 321.331 106.769 321.380 106.830 321.380 H 112.830 C 112.891 321.380 112.940 321.331 112.940 321.270 V 318.380 C 112.940 318.270 112.830 318.380 112.940 318.380 H 118.720 C 118.830 318.380 118.720 318.270 118.720 318.380 V 321.270 C 118.720 321.331 118.769 321.380 118.830 321.380 H 124.830 C 124.891 321.380 124.940 321.331 124.940 321.270 V 318.380 C 124.940 318.270 124.830 318.380 124.940 318.380 H 130.720 C 130.830 318.380 130.720 318.270 130.720 318.380 V 321.270 C 130.720 321.331 130.769 321.380 130.830 321.380 H 136.830 C 136.891 321.380 136.940 321.331 136.940 321.270 V 318.380 C 136.940 318.270 136.830 318.380 136.940 318.380 H 142.720 C 142.830 318.380 142.720 318.270 142.720 318.380 V 321.270 C 142.720 321.331 142.769 321.380 142.830 321.380 H 148.830 C 148.891 321.380 148.940 321.331 148.940 321.270 V 313.880 C 148.940 313.770 148.830 313.880 148.940 313.880 H 151.830 C 151.891 313.880 151.940 313.831 151.940 313.770 V 307.770 C 151.940 307.709 151.891 307.660 151.830 307.660 H 148.940 C 148.830 307.660 148.940 307.770 148.940 307.660 V 301.880 C 148.940 301.770 148.830 301.880 148.940 301.880 H 151.830 C 151.891 301.880 151.940 301.831 151.940 301.770 V 295.770 C 151.940 295.709 151.891 295.660 151.830 295.660 H 148.940 C 148.830 295.660 148.940 295.770 148.940 295.660 V 289.880 C 148.940 289.770 148.830 289.880 148.940 289.880 H 151.830 C 151.891 289.880 151.940 289.831 151.940 289.770 V 283.770 C 151.940 283.709 151.891 283.660 151.830 283.660 H 148.940 C 148.830 283.660 148.940 283.770 148.940 283.660 V 277.880 C 148.940 277.770 148.830 277.880 148.940 277.880 H 151.830 C 151.891 277.880 151.940 277.831 151.940 277.770 V 271.770 C 151.940 271.709 151.891 271.660 151.830 271.660 H 148.940 C 148.830 271.660 148.940 271.770 148.940 271.660 V 265.880 C 148.940 265.770 148.830 265.880 148.940 265.880 H 151.830 C 151.891 265.880 151.940 265.831 151.940 265.770 V 259.770 C 151.940 259.709 151.891 259.660 151.830 259.660 H 148.940 C 148.830 259.660 148.940 259.770 148.940 259.660 V 253.880 C 148.940 253.770 148.830 253.880 148.940 253.880 H 151.830 C 151.891 253.880 151.940 253.831 151.940 253.770 V 247.770 C 151.940 247.709 151.891 247.660 151.830 247.660 H 148.940 C 148.830 247.660 148.940 247.770 148.940 247.660 V 241.880 C 148.940 241.770 148.830 241.880 148.940 241.880 H 151.830 C 151.891 241.880 151.940 241.831 151.940 241.770 V 235.770 C 151.940 235.709 151.891 235.660 151.830 235.660 H 148.940 C 148.830 235.660 148.940 235.770 148.940 235.660 V 229.880 C 148.940 229.770 148.830 229.880 148.940 229.880 H 151.830 C 151.891 229.880 151.940 229.831 151.940 229.770 V 223.770 C 151.940 223.709 151.891 223.660 151.830 223.660 H 148.940 C 148.830 223.660 148.940 223.770 148.940 223.660 V 217.880 C 148.940 217.770 148.830 217.880 148.940 217.880 H 151.830 C 151.891 217.880 151.940 217.831 151.940 217.770 V 211.770 C 151.940 211.709 151.891 211.660 151.830 211.660 H 148.940 C 148.830 211.660 148.940 211.770 148.940 211.660 V 204.270 V 201.270 C 148.940 201.209 148.891 201.160 148.830 201.160 H 142.830 C 142.769 201.160 142.720 201.209 142.720 201.270 V 204.160 C 142.720 204.270 142.830 204.160 142.720 204.160 H 136.940 C 136.830 204.160 136.940 204.270 136.940 204.160 V 201.270 C 136.940 201.209 136.891 201.160 136.830 201.160 H 130.830 C 130.769 201.160 130.720 201.209 130.720 201.270 V 204.160 C 130.720 204.270 130.830 204.160 130.720 204.160 H 124.940 C 124.830 204.160 124.940 204.270 124.940 204.160 V 201.270 C 124.940 201.209 124.891 201.160 124.830 201.160 H 118.830 C 118.769 201.160 118.720 201.209 118.720 201.270 V 204.160 C 118.720 204.270 118.830 204.160 118.720 204.160 H 112.940 C 112.830 204.160 112.940 204.270 112.940 204.160 V 201.270 C 112.940 201.209 112.891 201.160 112.830 201.160 H 106.830 C 106.769 201.160 106.720 201.209 106.720 201.270 V 204.160 C 106.720 204.270 106.830 204.160 106.720 204.160 H 100.940 C 100.830 204.160 100.940 204.270 100.940 204.160 V 201.270 C 100.940 201.209 100.891 201.160 100.830 201.160 H 94.830 C 94.769 201.160 94.720 201.209 94.720 201.270 V 204.270 V 211.660 C 94.720 211.770 94.830 211.660 94.720 211.660 H 91.830 C 91.769 211.660 91.720 211.709 91.720 211.770 V 217.770 C 91.720 217.831 91.769 217.880 91.830 217.880 H 94.720 C 94.830 217.880 94.720 217.770 94.720 217.880 V 223.660 C 94.720 223.770 94.830 223.660 94.720 223.660 H 91.830 C 91.769 223.660 91.720 223.709 91.720 223.770 V 229.770 C 91.720 229.831 91.769 229.880 91.830 229.880 H 94.720 C 94.830 229.880 94.720 229.770 94.720 229.880 V 235.660 C 94.720 235.770 94.830 235.660 94.720 235.660 H 91.830 C 91.769 235.660 91.720 235.709 91.720 235.770 V 241.770 C 91.720 241.831 91.769 241.880 91.830 241.880 H 94.720 C 94.830 241.880 94.720 241.770 94.720 241.880 V 247.660 C 94.720 247.770 94.830 247.660 94.720 247.660 H 91.830 C 91.769 247.660 91.720 247.709 91.720 247.770 V 253.770 C 91.720 253.831 91.769 253.880 91.830 253.880 H 94.720 C 94.830 253.880 94.720 253.770 94.720 253.880 V 259.660 C 94.720 259.770 94.830 259.660 94.720 259.660 H 91.830 C 91.769 259.660 91.720 259.709 91.720 259.770 V 265.770 C 91.720 265.831 91.769 265.880 91.830 265.880 H 94.720 C 94.830 265.880 94.720 265.770 94.720 265.880 V 271.660 C 94.720 271.770 94.830 271.660 94.720 271.660 H 91.830 C 91.769 271.660 91.720 271.709 91.720 271.770 V 277.770 C 91.720 277.831 91.769 277.880 91.830 277.880 H 94.720 C 94.830 277.880 94.720 277.770 94.720 277.880 V 283.660 C 94.720 283.770 94.830 283.660 94.720 283.660 H 91.830 C 91.769 283.660 91.720 283.709 91.720 283.770 V 289.770 C 91.720 289.831 91.769 289.880 91.830 289.880 H 94.720 C 94.830 289.880 94.720 289.770 94.720 289.880 V 295.660 C 94.720 295.770 94.830 295.660 94.720 295.660 H 91.830 C 91.769 295.660 91.720 295.709 91.720 295.770 V 301.770 C 91.720 301.831 91.769 301.880 91.830 301.880 H 94.720 C 94.830 301.880 94.720 301.770 94.720 301.880 V 307.660 C 94.720 307.770 94.830 307.660 94.720 307.660 H 91.830 C 91.769 307.660 91.720 307.709 91.720 307.770 V 313.770 C 91.720 313.831 91.769 313.880 91.830 313.880 H 94.720 C 94.830 313.880 94.720 313.770 94.720 313.880 V 321.270 C 94.720 321.331 94.769 321.380 94.830 321.380" stroke="rgb(0,0,0)" stroke-width="0.22" />
</g>
</svg>