<?xml version='1.0' encoding='utf-8'?>
<svg height="433.10mm" viewBox="0.0 0.0 181.94 433.10" width="181.94mm" xmlns="http://www.w3.org/2000/svg" xmlns:cc="http://creativecommons.org/ns#" xmlns:dc="http://purl.org/dc/elements/1.1/" xmlns:inkscape="http://www.inkscape.org/namespaces/inkscape" xmlns:rdf="http://www.w3.org/1999/02/22-rdf-syntax-ns#" xmlns:svg="http://www.w3.org/2000/svg" xmlns:xlink="http://www.w3.org/1999/xlink">
<!--
UniversalBox - Box with various options for different styles and lids

Created with Boxes.py (https://boxes.hackerspace-bamberg.de/)
Creation date: 2024-09-26 11:11:01
Command line (remove spaces between dashes): boxes UniversalBox - -top_edge=F - -bottom_edge=F - -x=80.0 - -y=80.0 - -h=80.0 - -reference=0 - -burn=0.11
Url: https://boxes.hackerspace-bamberg.de/UniversalBox?FingerJoint_style=rectangular&FingerJoint_surroundingspaces=2.0&FingerJoint_bottom_lip=0.0&FingerJoint_edge_width=1.0&FingerJoint_extra_length=0.0&FingerJoint_finger=2.0&FingerJoint_play=0.0&FingerJoint_space=2.0&FingerJoint_width=1.0&Stackable_angle=60&Stackable_bottom_stabilizers=0.0&Stackable_height=2.0&Stackable_holedistance=1.0&Stackable_width=4.0&Hinge_grip_percentage=0&Hinge_outset=0&Hinge_outset=1&Hinge_pinwidth=0.5&Hinge_style=outset&Hinge_axle=2.0&Hinge_grip_length=0&Hinge_hingestrength=1&CabinetHinge_bore=3.2&CabinetHinge_eyes_per_hinge=5&CabinetHinge_hinges=2&CabinetHinge_style=inside&CabinetHinge_eye=1.5&CabinetHinge_play=0.05&CabinetHinge_spacing=2.0&SlideOnLid_hole_width=0&SlideOnLid_second_pin=0&SlideOnLid_second_pin=1&SlideOnLid_spring=both&SlideOnLid_style=rectangular&SlideOnLid_surroundingspaces=2.0&SlideOnLid_bottom_lip=0.0&SlideOnLid_edge_width=1.0&SlideOnLid_extra_length=0.0&SlideOnLid_finger=3.0&SlideOnLid_play=0.05&SlideOnLid_space=2.0&SlideOnLid_width=1.0&Click_angle=5.0&Click_bottom_radius=0.1&Click_depth=3.0&RoundedTriangleEdge_height=50.0&RoundedTriangleEdge_r_hole=2.0&RoundedTriangleEdge_radius=30.0&RoundedTriangleEdge_outset=1.0&Mounting_d_head=6.5&Mounting_d_shaft=3.0&Mounting_margin=0.125&Mounting_num=2&Mounting_side=back&Mounting_style=straight+edge%2C+within&HandleEdge_height=20.0&HandleEdge_hole_height=75.0&HandleEdge_hole_width=40%3A40&HandleEdge_on_sides=0&HandleEdge_on_sides=1&HandleEdge_radius=10.0&HandleEdge_outset=1.0&Flex_stretch=1.05&Flex_connection=1.0&Flex_distance=0.5&Flex_width=5.0&Lid_handle=none&Lid_style=none&Lid_handle_height=8.0&Lid_height=4.0&Lid_play=0.1&top_edge=F&bottom_edge=F&x=80.0&y=80.0&h=80.0&outside=0&outside=1&vertical_edges=finger+joints&thickness=3.0&format=svg&tabs=0.0&qr_code=0&debug=0&labels=0&labels=1&reference=0&inner_corners=loop&burn=0.11&language=en&render=2
Url short: https://boxes.hackerspace-bamberg.de/UniversalBox?top_edge=F&bottom_edge=F&x=80.0&y=80.0&h=80.0&reference=0&burn=0.11
SettingsUrl: https://boxes.hackerspace-bamberg.de/UniversalBox?FingerJoint_style=rectangular&FingerJoint_surroundingspaces=2.0&FingerJoint_bottom_lip=0.0&FingerJoint_edge_width=1.0&FingerJoint_extra_length=0.0&FingerJoint_finger=2.0&FingerJoint_play=0.0&FingerJoint_space=2.0&FingerJoint_width=1.0&Stackable_angle=60&Stackable_bottom_stabilizers=0.0&Stackable_height=2.0&Stackable_holedistance=1.0&Stackable_width=4.0&Hinge_grip_percentage=0&Hinge_outset=0&Hinge_outset=1&Hinge_pinwidth=0.5&Hinge_style=outset&Hinge_axle=2.0&Hinge_grip_length=0&Hinge_hingestrength=1&CabinetHinge_bore=3.2&CabinetHinge_eyes_per_hinge=5&CabinetHinge_hinges=2&CabinetHinge_style=inside&CabinetHinge_eye=1.5&CabinetHinge_play=0.05&CabinetHinge_spacing=2.0&SlideOnLid_hole_width=0&SlideOnLid_second_pin=0&SlideOnLid_second_pin=1&SlideOnLid_spring=both&SlideOnLid_style=rectangular&SlideOnLid_surroundingspaces=2.0&SlideOnLid_bottom_lip=0.0&SlideOnLid_edge_width=1.0&SlideOnLid_extra_length=0.0&SlideOnLid_finger=3.0&SlideOnLid_play=0.05&SlideOnLid_space=2.0&SlideOnLid_width=1.0&Click_angle=5.0&Click_bottom_radius=0.1&Click_depth=3.0&RoundedTriangleEdge_height=50.0&RoundedTriangleEdge_r_hole=2.0&RoundedTriangleEdge_radius=30.0&RoundedTriangleEdge_outset=1.0&Mounting_d_head=6.5&Mounting_d_shaft=3.0&Mounting_margin=0.125&Mounting_num=2&Mounting_side=back&Mounting_style=straight+edge%2C+within&HandleEdge_height=20.0&HandleEdge_hole_height=75.0&HandleEdge_hole_width=40%3A40&HandleEdge_on_sides=0&HandleEdge_on_sides=1&HandleEdge_radius=10.0&HandleEdge_outset=1.0&Flex_stretch=1.05&Flex_connection=1.0&Flex_distance=0.5&Flex_width=5.0&Lid_handle=none&Lid_style=none&Lid_handle_height=8.0&Lid_height=4.0&Lid_play=0.1&top_edge=F&bottom_edge=F&x=80.0&y=80.0&h=80.0&outside=0&outside=1&vertical_edges=finger+joints&thickness=3.0&format=svg&tabs=0.0&qr_code=0&debug=0&labels=0&labels=1&reference=0&inner_corners=loop&burn=0.11&language=en&render=2
SettingsUrl short: https://boxes.hackerspace-bamberg.de/UniversalBox?top_edge=F&bottom_edge=F&x=80.0&y=80.0&h=80.0&reference=0&burn=0.11
-->
<title>UniversalBox</title>
<metadata>
<rdf:RDF><cc:Work>
<dc:title>Box - UniversalBox</dc:title>
<dc:date>2024-09-26 11:11:01</dc:date>
<dc:source>https://boxes.hackerspace-bamberg.de/UniversalBox?FingerJoint_style=rectangular&amp;FingerJoint_surroundingspaces=2.0&amp;FingerJoint_bottom_lip=0.0&amp;FingerJoint_edge_width=1.0&amp;FingerJoint_extra_length=0.0&amp;FingerJoint_finger=2.0&amp;FingerJoint_play=0.0&amp;FingerJoint_space=2.0&amp;FingerJoint_width=1.0&amp;Stackable_angle=60&amp;Stackable_bottom_stabilizers=0.0&amp;Stackable_height=2.0&amp;Stackable_holedistance=1.0&amp;Stackable_width=4.0&amp;Hinge_grip_percentage=0&amp;Hinge_outset=0&amp;Hinge_outset=1&amp;Hinge_pinwidth=0.5&amp;Hinge_style=outset&amp;Hinge_axle=2.0&amp;Hinge_grip_length=0&amp;Hinge_hingestrength=1&amp;CabinetHinge_bore=3.2&amp;CabinetHinge_eyes_per_hinge=5&amp;CabinetHinge_hinges=2&amp;CabinetHinge_style=inside&amp;CabinetHinge_eye=1.5&amp;CabinetHinge_play=0.05&amp;CabinetHinge_spacing=2.0&amp;SlideOnLid_hole_width=0&amp;SlideOnLid_second_pin=0&amp;SlideOnLid_second_pin=1&amp;SlideOnLid_spring=both&amp;SlideOnLid_style=rectangular&amp;SlideOnLid_surroundingspaces=2.0&amp;SlideOnLid_bottom_lip=0.0&amp;SlideOnLid_edge_width=1.0&amp;SlideOnLid_extra_length=0.0&amp;SlideOnLid_finger=3.0&amp;SlideOnLid_play=0.05&amp;SlideOnLid_space=2.0&amp;SlideOnLid_width=1.0&amp;Click_angle=5.0&amp;Click_bottom_radius=0.1&amp;Click_depth=3.0&amp;RoundedTriangleEdge_height=50.0&amp;RoundedTriangleEdge_r_hole=2.0&amp;RoundedTriangleEdge_radius=30.0&amp;RoundedTriangleEdge_outset=1.0&amp;Mounting_d_head=6.5&amp;Mounting_d_shaft=3.0&amp;Mounting_margin=0.125&amp;Mounting_num=2&amp;Mounting_side=back&amp;Mounting_style=straight+edge%2C+within&amp;HandleEdge_height=20.0&amp;HandleEdge_hole_height=75.0&amp;HandleEdge_hole_width=40%3A40&amp;HandleEdge_on_sides=0&amp;HandleEdge_on_sides=1&amp;HandleEdge_radius=10.0&amp;HandleEdge_outset=1.0&amp;Flex_stretch=1.05&amp;Flex_connection=1.0&amp;Flex_distance=0.5&amp;Flex_width=5.0&amp;Lid_handle=none&amp;Lid_style=none&amp;Lid_handle_height=8.0&amp;Lid_height=4.0&amp;Lid_play=0.1&amp;top_edge=F&amp;bottom_edge=F&amp;x=80.0&amp;y=80.0&amp;h=80.0&amp;outside=0&amp;outside=1&amp;vertical_edges=finger+joints&amp;thickness=3.0&amp;format=svg&amp;tabs=0.0&amp;qr_code=0&amp;debug=0&amp;labels=0&amp;labels=1&amp;reference=0&amp;inner_corners=loop&amp;burn=0.11&amp;language=en&amp;render=2</dc:source>
<dc:source>https://boxes.hackerspace-bamberg.de/UniversalBox?top_edge=F&amp;bottom_edge=F&amp;x=80.0&amp;y=80.0&amp;h=80.0&amp;reference=0&amp;burn=0.11</dc:source>
<dc:description>Box with various options for different styles and lids

Created with Boxes.py (https://boxes.hackerspace-bamberg.de/)
Command line: boxes UniversalBox --FingerJoint_style=rectangular --FingerJoint_surroundingspaces=2.0 --FingerJoint_bottom_lip=0.0 --FingerJoint_edge_width=1.0 --FingerJoint_extra_length=0.0 --FingerJoint_finger=2.0 --FingerJoint_play=0.0 --FingerJoint_space=2.0 --FingerJoint_width=1.0 --Stackable_angle=60 --Stackable_bottom_stabilizers=0.0 --Stackable_height=2.0 --Stackable_holedistance=1.0 --Stackable_width=4.0 --Hinge_grip_percentage=0 --Hinge_outset=0 --Hinge_outset=1 --Hinge_pinwidth=0.5 --Hinge_style=outset --Hinge_axle=2.0 --Hinge_grip_length=0 --Hinge_hingestrength=1 --CabinetHinge_bore=3.2 --CabinetHinge_eyes_per_hinge=5 --CabinetHinge_hinges=2 --CabinetHinge_style=inside --CabinetHinge_eye=1.5 --CabinetHinge_play=0.05 --CabinetHinge_spacing=2.0 --SlideOnLid_hole_width=0 --SlideOnLid_second_pin=0 --SlideOnLid_second_pin=1 --SlideOnLid_spring=both --SlideOnLid_style=rectangular --SlideOnLid_surroundingspaces=2.0 --SlideOnLid_bottom_lip=0.0 --SlideOnLid_edge_width=1.0 --SlideOnLid_extra_length=0.0 --SlideOnLid_finger=3.0 --SlideOnLid_play=0.05 --SlideOnLid_space=2.0 --SlideOnLid_width=1.0 --Click_angle=5.0 --Click_bottom_radius=0.1 --Click_depth=3.0 --RoundedTriangleEdge_height=50.0 --RoundedTriangleEdge_r_hole=2.0 --RoundedTriangleEdge_radius=30.0 --RoundedTriangleEdge_outset=1.0 --Mounting_d_head=6.5 --Mounting_d_shaft=3.0 --Mounting_margin=0.125 --Mounting_num=2 --Mounting_side=back '--Mounting_style=straight edge, within' --HandleEdge_height=20.0 --HandleEdge_hole_height=75.0 --HandleEdge_hole_width=40:40 --HandleEdge_on_sides=0 --HandleEdge_on_sides=1 --HandleEdge_radius=10.0 --HandleEdge_outset=1.0 --Flex_stretch=1.05 --Flex_connection=1.0 --Flex_distance=0.5 --Flex_width=5.0 --Lid_handle=none --Lid_style=none --Lid_handle_height=8.0 --Lid_height=4.0 --Lid_play=0.1 --top_edge=F --bottom_edge=F --x=80.0 --y=80.0 --h=80.0 --outside=0 --outside=1 '--vertical_edges=finger joints' --thickness=3.0 --format=svg --tabs=0.0 --qr_code=0 --debug=0 --labels=0 --labels=1 --reference=0 --inner_corners=loop --burn=0.11
Command line short: boxes UniversalBox --top_edge=F --bottom_edge=F --x=80.0 --y=80.0 --h=80.0 --reference=0 --burn=0.11
Url: https://boxes.hackerspace-bamberg.de/UniversalBox?FingerJoint_style=rectangular&amp;FingerJoint_surroundingspaces=2.0&amp;FingerJoint_bottom_lip=0.0&amp;FingerJoint_edge_width=1.0&amp;FingerJoint_extra_length=0.0&amp;FingerJoint_finger=2.0&amp;FingerJoint_play=0.0&amp;FingerJoint_space=2.0&amp;FingerJoint_width=1.0&amp;Stackable_angle=60&amp;Stackable_bottom_stabilizers=0.0&amp;Stackable_height=2.0&amp;Stackable_holedistance=1.0&amp;Stackable_width=4.0&amp;Hinge_grip_percentage=0&amp;Hinge_outset=0&amp;Hinge_outset=1&amp;Hinge_pinwidth=0.5&amp;Hinge_style=outset&amp;Hinge_axle=2.0&amp;Hinge_grip_length=0&amp;Hinge_hingestrength=1&amp;CabinetHinge_bore=3.2&amp;CabinetHinge_eyes_per_hinge=5&amp;CabinetHinge_hinges=2&amp;CabinetHinge_style=inside&amp;CabinetHinge_eye=1.5&amp;CabinetHinge_play=0.05&amp;CabinetHinge_spacing=2.0&amp;SlideOnLid_hole_width=0&amp;SlideOnLid_second_pin=0&amp;SlideOnLid_second_pin=1&amp;SlideOnLid_spring=both&amp;SlideOnLid_style=rectangular&amp;SlideOnLid_surroundingspaces=2.0&amp;SlideOnLid_bottom_lip=0.0&amp;SlideOnLid_edge_width=1.0&amp;SlideOnLid_extra_length=0.0&amp;SlideOnLid_finger=3.0&amp;SlideOnLid_play=0.05&amp;SlideOnLid_space=2.0&amp;SlideOnLid_width=1.0&amp;Click_angle=5.0&amp;Click_bottom_radius=0.1&amp;Click_depth=3.0&amp;RoundedTriangleEdge_height=50.0&amp;RoundedTriangleEdge_r_hole=2.0&amp;RoundedTriangleEdge_radius=30.0&amp;RoundedTriangleEdge_outset=1.0&amp;Mounting_d_head=6.5&amp;Mounting_d_shaft=3.0&amp;Mounting_margin=0.125&amp;Mounting_num=2&amp;Mounting_side=back&amp;Mounting_style=straight+edge%2C+within&amp;HandleEdge_height=20.0&amp;HandleEdge_hole_height=75.0&amp;HandleEdge_hole_width=40%3A40&amp;HandleEdge_on_sides=0&amp;HandleEdge_on_sides=1&amp;HandleEdge_radius=10.0&amp;HandleEdge_outset=1.0&amp;Flex_stretch=1.05&amp;Flex_connection=1.0&amp;Flex_distance=0.5&amp;Flex_width=5.0&amp;Lid_handle=none&amp;Lid_style=none&amp;Lid_handle_height=8.0&amp;Lid_height=4.0&amp;Lid_play=0.1&amp;top_edge=F&amp;bottom_edge=F&amp;x=80.0&amp;y=80.0&amp;h=80.0&amp;outside=0&amp;outside=1&amp;vertical_edges=finger+joints&amp;thickness=3.0&amp;format=svg&amp;tabs=0.0&amp;qr_code=0&amp;debug=0&amp;labels=0&amp;labels=1&amp;reference=0&amp;inner_corners=loop&amp;burn=0.11&amp;language=en&amp;render=2
Url short: https://boxes.hackerspace-bamberg.de/UniversalBox?top_edge=F&amp;bottom_edge=F&amp;x=80.0&amp;y=80.0&amp;h=80.0&amp;reference=0&amp;burn=0.11
SettingsUrl: https://boxes.hackerspace-bamberg.de/UniversalBox?FingerJoint_style=rectangular&amp;FingerJoint_surroundingspaces=2.0&amp;FingerJoint_bottom_lip=0.0&amp;FingerJoint_edge_width=1.0&amp;FingerJoint_extra_length=0.0&amp;FingerJoint_finger=2.0&amp;FingerJoint_play=0.0&amp;FingerJoint_space=2.0&amp;FingerJoint_width=1.0&amp;Stackable_angle=60&amp;Stackable_bottom_stabilizers=0.0&amp;Stackable_height=2.0&amp;Stackable_holedistance=1.0&amp;Stackable_width=4.0&amp;Hinge_grip_percentage=0&amp;Hinge_outset=0&amp;Hinge_outset=1&amp;Hinge_pinwidth=0.5&amp;Hinge_style=outset&amp;Hinge_axle=2.0&amp;Hinge_grip_length=0&amp;Hinge_hingestrength=1&amp;CabinetHinge_bore=3.2&amp;CabinetHinge_eyes_per_hinge=5&amp;CabinetHinge_hinges=2&amp;CabinetHinge_style=inside&amp;CabinetHinge_eye=1.5&amp;CabinetHinge_play=0.05&amp;CabinetHinge_spacing=2.0&amp;SlideOnLid_hole_width=0&amp;SlideOnLid_second_pin=0&amp;SlideOnLid_second_pin=1&amp;SlideOnLid_spring=both&amp;SlideOnLid_style=rectangular&amp;SlideOnLid_surroundingspaces=2.0&amp;SlideOnLid_bottom_lip=0.0&amp;SlideOnLid_edge_width=1.0&amp;SlideOnLid_extra_length=0.0&amp;SlideOnLid_finger=3.0&amp;SlideOnLid_play=0.05&amp;SlideOnLid_space=2.0&amp;SlideOnLid_width=1.0&amp;Click_angle=5.0&amp;Click_bottom_radius=0.1&amp;Click_depth=3.0&amp;RoundedTriangleEdge_height=50.0&amp;RoundedTriangleEdge_r_hole=2.0&amp;RoundedTriangleEdge_radius=30.0&amp;RoundedTriangleEdge_outset=1.0&amp;Mounting_d_head=6.5&amp;Mounting_d_shaft=3.0&amp;Mounting_margin=0.125&amp;Mounting_num=2&amp;Mounting_side=back&amp;Mounting_style=straight+edge%2C+within&amp;HandleEdge_height=20.0&amp;HandleEdge_hole_height=75.0&amp;HandleEdge_hole_width=40%3A40&amp;HandleEdge_on_sides=0&amp;HandleEdge_on_sides=1&amp;HandleEdge_radius=10.0&amp;HandleEdge_outset=1.0&amp;Flex_stretch=1.05&amp;Flex_connection=1.0&amp;Flex_distance=0.5&amp;Flex_width=5.0&amp;Lid_handle=none&amp;Lid_style=none&amp;Lid_handle_height=8.0&amp;Lid_height=4.0&amp;Lid_play=0.1&amp;top_edge=F&amp;bottom_edge=F&amp;x=80.0&amp;y=80.0&amp;h=80.0&amp;outside=0&amp;outside=1&amp;vertical_edges=finger+joints&amp;thickness=3.0&amp;format=svg&amp;tabs=0.0&amp;qr_code=0&amp;debug=0&amp;labels=0&amp;labels=1&amp;reference=0&amp;inner_corners=loop&amp;burn=0.11&amp;language=en&amp;render=2
SettingsUrl short: https://boxes.hackerspace-bamberg.de/UniversalBox?top_edge=F&amp;bottom_edge=F&amp;x=80.0&amp;y=80.0&amp;h=80.0&amp;reference=0&amp;burn=0.11
</dc:description>
</cc:Work></rdf:RDF></metadata>
<g id="p-0" style="fill:none;stroke-linecap:round;stroke-linejoin:round;">
  <text dominant-baseline="hanging" font-size="4px" style="font-family: sans-serif ; font-weight: normal; font-style: normal; fill: rgb(255,0,0)" text-anchor="middle" transform="matrix( 1.000 0.000 0.000 1.000 50.110 381.100 )">front</text><path d="M 13.110 423.100 H 23.110 C 23.171 423.100 23.220 423.051 23.220 422.990 V 420.100 C 23.220 419.990 23.110 420.100 23.220 420.100 H 29.000 C 29.110 420.100 29.000 419.990 29.000 420.100 V 422.990 C 29.000 423.051 29.049 423.100 29.110 423.100 H 35.110 C 35.171 423.100 35.220 423.051 35.220 422.990 V 420.100 C 35.220 419.990 35.110 420.100 35.220 420.100 H 41.000 C 41.110 420.100 41.000 419.990 41.000 420.100 V 422.990 C 41.000 423.051 41.049 423.100 41.110 423.100 H 47.110 C 47.171 423.100 47.220 423.051 47.220 422.990 V 420.100 C 47.220 419.990 47.110 420.100 47.220 420.100 H 53.000 C 53.110 420.100 53.000 419.990 53.000 420.100 V 422.990 C 53.000 423.051 53.049 423.100 53.110 423.100 H 59.110 C 59.171 423.100 59.220 423.051 59.220 422.990 V 420.100 C 59.220 419.990 59.110 420.100 59.220 420.100 H 65.000 C 65.110 420.100 65.000 419.990 65.000 420.100 V 422.990 C 65.000 423.051 65.049 423.100 65.110 423.100 H 71.110 C 71.171 423.100 71.220 423.051 71.220 422.990 V 420.100 C 71.220 419.990 71.110 420.100 71.220 420.100 H 77.000 C 77.110 420.100 77.000 419.990 77.000 420.100 V 422.990 C 77.000 423.051 77.049 423.100 77.110 423.100 H 87.110 H 90.110 C 90.171 423.100 90.220 423.051 90.220 422.990 V 411.490 C 90.220 411.429 90.171 411.380 90.110 411.380 H 87.220 C 87.110 411.380 87.220 411.490 87.220 411.380 V 405.600 C 87.220 405.490 87.110 405.600 87.220 405.600 H 90.110 C 90.171 405.600 90.220 405.551 90.220 405.490 V 399.490 C 90.220 399.429 90.171 399.380 90.110 399.380 H 87.220 C 87.110 399.380 87.220 399.490 87.220 399.380 V 393.600 C 87.220 393.490 87.110 393.600 87.220 393.600 H 90.110 C 90.171 393.600 90.220 393.551 90.220 393.490 V 387.490 C 90.220 387.429 90.171 387.380 90.110 387.380 H 87.220 C 87.110 387.380 87.220 387.490 87.220 387.380 V 381.600 C 87.220 381.490 87.110 381.600 87.220 381.600 H 90.110 C 90.171 381.600 90.220 381.551 90.220 381.490 V 375.490 C 90.220 375.429 90.171 375.380 90.110 375.380 H 87.220 C 87.110 375.380 87.220 375.490 87.220 375.380 V 369.600 C 87.220 369.490 87.110 369.600 87.220 369.600 H 90.110 C 90.171 369.600 90.220 369.551 90.220 369.490 V 363.490 C 90.220 363.429 90.171 363.380 90.110 363.380 H 87.220 C 87.110 363.380 87.220 363.490 87.220 363.380 V 357.600 C 87.220 357.490 87.110 357.600 87.220 357.600 H 90.110 C 90.171 357.600 90.220 357.551 90.220 357.490 V 345.990 V 342.990 C 90.220 342.929 90.171 342.880 90.110 342.880 H 87.110 H 77.110 C 77.049 342.880 77.000 342.929 77.000 342.990 V 345.880 C 77.000 345.990 77.110 345.880 77.000 345.880 H 71.220 C 71.110 345.880 71.220 345.990 71.220 345.880 V 342.990 C 71.220 342.929 71.171 342.880 71.110 342.880 H 65.110 C 65.049 342.880 65.000 342.929 65.000 342.990 V 345.880 C 65.000 345.990 65.110 345.880 65.000 345.880 H 59.220 C 59.110 345.880 59.220 345.990 59.220 345.880 V 342.990 C 59.220 342.929 59.171 342.880 59.110 342.880 H 53.110 C 53.049 342.880 53.000 342.929 53.000 342.990 V 345.880 C 53.000 345.990 53.110 345.880 53.000 345.880 H 47.220 C 47.110 345.880 47.220 345.990 47.220 345.880 V 342.990 C 47.220 342.929 47.171 342.880 47.110 342.880 H 41.110 C 41.049 342.880 41.000 342.929 41.000 342.990 V 345.880 C 41.000 345.990 41.110 345.880 41.000 345.880 H 35.220 C 35.110 345.880 35.220 345.990 35.220 345.880 V 342.990 C 35.220 342.929 35.171 342.880 35.110 342.880 H 29.110 C 29.049 342.880 29.000 342.929 29.000 342.990 V 345.880 C 29.000 345.990 29.110 345.880 29.000 345.880 H 23.220 C 23.110 345.880 23.220 345.990 23.220 345.880 V 342.990 C 23.220 342.929 23.171 342.880 23.110 342.880 H 13.110 H 10.110 C 10.049 342.880 10.000 342.929 10.000 342.990 V 345.990 V 357.490 C 10.000 357.551 10.049 357.600 10.110 357.600 H 13.000 C 13.110 357.600 13.000 357.490 13.000 357.600 V 363.380 C 13.000 363.490 13.110 363.380 13.000 363.380 H 10.110 C 10.049 363.380 10.000 363.429 10.000 363.490 V 369.490 C 10.000 369.551 10.049 369.600 10.110 369.600 H 13.000 C 13.110 369.600 13.000 369.490 13.000 369.600 V 375.380 C 13.000 375.490 13.110 375.380 13.000 375.380 H 10.110 C 10.049 375.380 10.000 375.429 10.000 375.490 V 381.490 C 10.000 381.551 10.049 381.600 10.110 381.600 H 13.000 C 13.110 381.600 13.000 381.490 13.000 381.600 V 387.380 C 13.000 387.490 13.110 387.380 13.000 387.380 H 10.110 C 10.049 387.380 10.000 387.429 10.000 387.490 V 393.490 C 10.000 393.551 10.049 393.600 10.110 393.600 H 13.000 C 13.110 393.600 13.000 393.490 13.000 393.600 V 399.380 C 13.000 399.490 13.110 399.380 13.000 399.380 H 10.110 C 10.049 399.380 10.000 399.429 10.000 399.490 V 405.490 C 10.000 405.551 10.049 405.600 10.110 405.600 H 13.000 C 13.110 405.600 13.000 405.490 13.000 405.600 V 411.380 C 13.000 411.490 13.110 411.380 13.000 411.380 H 10.110 C 10.049 411.380 10.000 411.429 10.000 411.490 V 422.990 C 10.000 423.051 10.049 423.100 10.110 423.100 H 13.110" stroke="rgb(0,0,0)" stroke-width="0.22" />
</g>
<g id="p-1" style="fill:none;stroke-linecap:round;stroke-linejoin:round;">
  <text dominant-baseline="hanging" font-size="4px" style="font-family: sans-serif ; font-weight: normal; font-style: normal; fill: rgb(255,0,0)" text-anchor="middle" transform="matrix( 1.000 0.000 0.000 1.000 50.110 299.380 )">back</text><path d="M 13.110 341.380 H 23.110 C 23.171 341.380 23.220 341.331 23.220 341.270 V 338.380 C 23.220 338.270 23.110 338.380 23.220 338.380 H 29.000 C 29.110 338.380 29.000 338.270 29.000 338.380 V 341.270 C 29.000 341.331 29.049 341.380 29.110 341.380 H 35.110 C 35.171 341.380 35.220 341.331 35.220 341.270 V 338.380 C 35.220 338.270 35.110 338.380 35.220 338.380 H 41.000 C 41.110 338.380 41.000 338.270 41.000 338.380 V 341.270 C 41.000 341.331 41.049 341.380 41.110 341.380 H 47.110 C 47.171 341.380 47.220 341.331 47.220 341.270 V 338.380 C 47.220 338.270 47.110 338.380 47.220 338.380 H 53.000 C 53.110 338.380 53.000 338.270 53.000 338.380 V 341.270 C 53.000 341.331 53.049 341.380 53.110 341.380 H 59.110 C 59.171 341.380 59.220 341.331 59.220 341.270 V 338.380 C 59.220 338.270 59.110 338.380 59.220 338.380 H 65.000 C 65.110 338.380 65.000 338.270 65.000 338.380 V 341.270 C 65.000 341.331 65.049 341.380 65.110 341.380 H 71.110 C 71.171 341.380 71.220 341.331 71.220 341.270 V 338.380 C 71.220 338.270 71.110 338.380 71.220 338.380 H 77.000 C 77.110 338.380 77.000 338.270 77.000 338.380 V 341.270 C 77.000 341.331 77.049 341.380 77.110 341.380 H 87.110 H 90.110 C 90.171 341.380 90.220 341.331 90.220 341.270 V 329.770 C 90.220 329.709 90.171 329.660 90.110 329.660 H 87.220 C 87.110 329.660 87.220 329.770 87.220 329.660 V 323.880 C 87.220 323.770 87.110 323.880 87.220 323.880 H 90.110 C 90.171 323.880 90.220 323.831 90.220 323.770 V 317.770 C 90.220 317.709 90.171 317.660 90.110 317.660 H 87.220 C 87.110 317.660 87.220 317.770 87.220 317.660 V 311.880 C 87.220 311.770 87.110 311.880 87.220 311.880 H 90.110 C 90.171 311.880 90.220 311.831 90.220 311.770 V 305.770 C 90.220 305.709 90.171 305.660 90.110 305.660 H 87.220 C 87.110 305.660 87.220 305.770 87.220 305.660 V 299.880 C 87.220 299.770 87.110 299.880 87.220 299.880 H 90.110 C 90.171 299.880 90.220 299.831 90.220 299.770 V 293.770 C 90.220 293.709 90.171 293.660 90.110 293.660 H 87.220 C 87.110 293.660 87.220 293.770 87.220 293.660 V 287.880 C 87.220 287.770 87.110 287.880 87.220 287.880 H 90.110 C 90.171 287.880 90.220 287.831 90.220 287.770 V 281.770 C 90.220 281.709 90.171 281.660 90.110 281.660 H 87.220 C 87.110 281.660 87.220 281.770 87.220 281.660 V 275.880 C 87.220 275.770 87.110 275.880 87.220 275.880 H 90.110 C 90.171 275.880 90.220 275.831 90.220 275.770 V 264.270 V 261.270 C 90.220 261.209 90.171 261.160 90.110 261.160 H 87.110 H 77.110 C 77.049 261.160 77.000 261.209 77.000 261.270 V 264.160 C 77.000 264.270 77.110 264.160 77.000 264.160 H 71.220 C 71.110 264.160 71.220 264.270 71.220 264.160 V 261.270 C 71.220 261.209 71.171 261.160 71.110 261.160 H 65.110 C 65.049 261.160 65.000 261.209 65.000 261.270 V 264.160 C 65.000 264.270 65.110 264.160 65.000 264.160 H 59.220 C 59.110 264.160 59.220 264.270 59.220 264.160 V 261.270 C 59.220 261.209 59.171 261.160 59.110 261.160 H 53.110 C 53.049 261.160 53.000 261.209 53.000 261.270 V 264.160 C 53.000 264.270 53.110 264.160 53.000 264.160 H 47.220 C 47.110 264.160 47.220 264.270 47.220 264.160 V 261.270 C 47.220 261.209 47.171 261.160 47.110 261.160 H 41.110 C 41.049 261.160 41.000 261.209 41.000 261.270 V 264.160 C 41.000 264.270 41.110 264.160 41.000 264.160 H 35.220 C 35.110 264.160 35.220 264.270 35.220 264.160 V 261.270 C 35.220 261.209 35.171 261.160 35.110 261.160 H 29.110 C 29.049 261.160 29.000 261.209 29.000 261.270 V 264.160 C 29.000 264.270 29.110 264.160 29.000 264.160 H 23.220 C 23.110 264.160 23.220 264.270 23.220 264.160 V 261.270 C 23.220 261.209 23.171 261.160 23.110 261.160 H 13.110 H 10.110 C 10.049 261.160 10.000 261.209 10.000 261.270 V 264.270 V 275.770 C 10.000 275.831 10.049 275.880 10.110 275.880 H 13.000 C 13.110 275.880 13.000 275.770 13.000 275.880 V 281.660 C 13.000 281.770 13.110 281.660 13.000 281.660 H 10.110 C 10.049 281.660 10.000 281.709 10.000 281.770 V 287.770 C 10.000 287.831 10.049 287.880 10.110 287.880 H 13.000 C 13.110 287.880 13.000 287.770 13.000 287.880 V 293.660 C 13.000 293.770 13.110 293.660 13.000 293.660 H 10.110 C 10.049 293.660 10.000 293.709 10.000 293.770 V 299.770 C 10.000 299.831 10.049 299.880 10.110 299.880 H 13.000 C 13.110 299.880 13.000 299.770 13.000 299.880 V 305.660 C 13.000 305.770 13.110 305.660 13.000 305.660 H 10.110 C 10.049 305.660 10.000 305.709 10.000 305.770 V 311.770 C 10.000 311.831 10.049 311.880 10.110 311.880 H 13.000 C 13.110 311.880 13.000 311.770 13.000 311.880 V 317.660 C 13.000 317.770 13.110 317.660 13.000 317.660 H 10.110 C 10.049 317.660 10.000 317.709 10.000 317.770 V 323.770 C 10.000 323.831 10.049 323.880 10.110 323.880 H 13.000 C 13.110 323.880 13.000 323.770 13.000 323.880 V 329.660 C 13.000 329.770 13.110 329.660 13.000 329.660 H 10.110 C 10.049 329.660 10.000 329.709 10.000 329.770 V 341.270 C 10.000 341.331 10.049 341.380 10.110 341.380 H 13.110" stroke="rgb(0,0,0)" stroke-width="0.22" />
</g>
<g id="p-2" style="fill:none;stroke-linecap:round;stroke-linejoin:round;">
  <text dominant-baseline="hanging" font-size="4px" style="font-family: sans-serif ; font-weight: normal; font-style: normal; fill: rgb(255,0,0)" text-anchor="middle" transform="matrix( 1.000 0.000 0.000 1.000 50.110 217.660 )">bottom</text><path d="M 13.110 256.660 H 23.000 C 23.110 256.660 23.000 256.550 23.000 256.660 V 259.550 C 23.000 259.611 23.049 259.660 23.110 259.660 H 29.110 C 29.171 259.660 29.220 259.611 29.220 259.550 V 256.660 C 29.220 256.550 29.110 256.660 29.220 256.660 H 35.000 C 35.110 256.660 35.000 256.550 35.000 256.660 V 259.550 C 35.000 259.611 35.049 259.660 35.110 259.660 H 41.110 C 41.171 259.660 41.220 259.611 41.220 259.550 V 256.660 C 41.220 256.550 41.110 256.660 41.220 256.660 H 47.000 C 47.110 256.660 47.000 256.550 47.000 256.660 V 259.550 C 47.000 259.611 47.049 259.660 47.110 259.660 H 53.110 C 53.171 259.660 53.220 259.611 53.220 259.550 V 256.660 C 53.220 256.550 53.110 256.660 53.220 256.660 H 59.000 C 59.110 256.660 59.000 256.550 59.000 256.660 V 259.550 C 59.000 259.611 59.049 259.660 59.110 259.660 H 65.110 C 65.171 259.660 65.220 259.611 65.220 259.550 V 256.660 C 65.220 256.550 65.110 256.660 65.220 256.660 H 71.000 C 71.110 256.660 71.000 256.550 71.000 256.660 V 259.550 C 71.000 259.611 71.049 259.660 71.110 259.660 H 77.110 C 77.171 259.660 77.220 259.611 77.220 259.550 V 256.660 C 77.220 256.550 77.110 256.660 77.220 256.660 H 87.110 C 87.171 256.660 87.220 256.611 87.220 256.550 V 246.660 C 87.220 246.550 87.110 246.660 87.220 246.660 H 90.110 C 90.171 246.660 90.220 246.611 90.220 246.550 V 240.550 C 90.220 240.489 90.171 240.440 90.110 240.440 H 87.220 C 87.110 240.440 87.220 240.550 87.220 240.440 V 234.660 C 87.220 234.550 87.110 234.660 87.220 234.660 H 90.110 C 90.171 234.660 90.220 234.611 90.220 234.550 V 228.550 C 90.220 228.489 90.171 228.440 90.110 228.440 H 87.220 C 87.110 228.440 87.220 228.550 87.220 228.440 V 222.660 C 87.220 222.550 87.110 222.660 87.220 222.660 H 90.110 C 90.171 222.660 90.220 222.611 90.220 222.550 V 216.550 C 90.220 216.489 90.171 216.440 90.110 216.440 H 87.220 C 87.110 216.440 87.220 216.550 87.220 216.440 V 210.660 C 87.220 210.550 87.110 210.660 87.220 210.660 H 90.110 C 90.171 210.660 90.220 210.611 90.220 210.550 V 204.550 C 90.220 204.489 90.171 204.440 90.110 204.440 H 87.220 C 87.110 204.440 87.220 204.550 87.220 204.440 V 198.660 C 87.220 198.550 87.110 198.660 87.220 198.660 H 90.110 C 90.171 198.660 90.220 198.611 90.220 198.550 V 192.550 C 90.220 192.489 90.171 192.440 90.110 192.440 H 87.220 C 87.110 192.440 87.220 192.550 87.220 192.440 V 182.550 C 87.220 182.489 87.171 182.440 87.110 182.440 H 77.220 C 77.110 182.440 77.220 182.550 77.220 182.440 V 179.550 C 77.220 179.489 77.171 179.440 77.110 179.440 H 71.110 C 71.049 179.440 71.000 179.489 71.000 179.550 V 182.440 C 71.000 182.550 71.110 182.440 71.000 182.440 H 65.220 C 65.110 182.440 65.220 182.550 65.220 182.440 V 179.550 C 65.220 179.489 65.171 179.440 65.110 179.440 H 59.110 C 59.049 179.440 59.000 179.489 59.000 179.550 V 182.440 C 59.000 182.550 59.110 182.440 59.000 182.440 H 53.220 C 53.110 182.440 53.220 182.550 53.220 182.440 V 179.550 C 53.220 179.489 53.171 179.440 53.110 179.440 H 47.110 C 47.049 179.440 47.000 179.489 47.000 179.550 V 182.440 C 47.000 182.550 47.110 182.440 47.000 182.440 H 41.220 C 41.110 182.440 41.220 182.550 41.220 182.440 V 179.550 C 41.220 179.489 41.171 179.440 41.110 179.440 H 35.110 C 35.049 179.440 35.000 179.489 35.000 179.550 V 182.440 C 35.000 182.550 35.110 182.440 35.000 182.440 H 29.220 C 29.110 182.440 29.220 182.550 29.220 182.440 V 179.550 C 29.220 179.489 29.171 179.440 29.110 179.440 H 23.110 C 23.049 179.440 23.000 179.489 23.000 179.550 V 182.440 C 23.000 182.550 23.110 182.440 23.000 182.440 H 13.110 C 13.049 182.440 13.000 182.489 13.000 182.550 V 192.440 C 13.000 192.550 13.110 192.440 13.000 192.440 H 10.110 C 10.049 192.440 10.000 192.489 10.000 192.550 V 198.550 C 10.000 198.611 10.049 198.660 10.110 198.660 H 13.000 C 13.110 198.660 13.000 198.550 13.000 198.660 V 204.440 C 13.000 204.550 13.110 204.440 13.000 204.440 H 10.110 C 10.049 204.440 10.000 204.489 10.000 204.550 V 210.550 C 10.000 210.611 10.049 210.660 10.110 210.660 H 13.000 C 13.110 210.660 13.000 210.550 13.000 210.660 V 216.440 C 13.000 216.550 13.110 216.440 13.000 216.440 H 10.110 C 10.049 216.440 10.000 216.489 10.000 216.550 V 222.550 C 10.000 222.611 10.049 222.660 10.110 222.660 H 13.000 C 13.110 222.660 13.000 222.550 13.000 222.660 V 228.440 C 13.000 228.550 13.110 228.440 13.000 228.440 H 10.110 C 10.049 228.440 10.000 228.489 10.000 228.550 V 234.550 C 10.000 234.611 10.049 234.660 10.110 234.660 H 13.000 C 13.110 234.660 13.000 234.550 13.000 234.660 V 240.440 C 13.000 240.550 13.110 240.440 13.000 240.440 H 10.110 C 10.049 240.440 10.000 240.489 10.000 240.550 V 246.550 C 10.000 246.611 10.049 246.660 10.110 246.660 H 13.000 C 13.110 246.660 13.000 246.550 13.000 246.660 V 256.550 C 13.000 256.611 13.049 256.660 13.110 256.660" stroke="rgb(0,0,0)" stroke-width="0.22" />
</g>
<g id="p-3" style="fill:none;stroke-linecap:round;stroke-linejoin:round;">
  <text dominant-baseline="hanging" font-size="4px" style="font-family: sans-serif ; font-weight: normal; font-style: normal; fill: rgb(255,0,0)" text-anchor="middle" transform="matrix( 1.000 0.000 0.000 1.000 53.110 132.940 )">top hole</text><path d="M 13.220 171.830 V 161.940 C 13.220 161.830 13.110 161.940 13.220 161.940 H 16.110 C 16.171 161.940 16.220 161.891 16.220 161.830 V 155.830 C 16.220 155.769 16.171 155.720 16.110 155.720 H 13.220 C 13.110 155.720 13.220 155.830 13.220 155.720 V 149.940 C 13.220 149.830 13.110 149.940 13.220 149.940 H 16.110 C 16.171 149.940 16.220 149.891 16.220 149.830 V 143.830 C 16.220 143.769 16.171 143.720 16.110 143.720 H 13.220 C 13.110 143.720 13.220 143.830 13.220 143.720 V 137.940 C 13.220 137.830 13.110 137.940 13.220 137.940 H 16.110 C 16.171 137.940 16.220 137.891 16.220 137.830 V 131.830 C 16.220 131.769 16.171 131.720 16.110 131.720 H 13.220 C 13.110 131.720 13.220 131.830 13.220 131.720 V 125.940 C 13.220 125.830 13.110 125.940 13.220 125.940 H 16.110 C 16.171 125.940 16.220 125.891 16.220 125.830 V 119.830 C 16.220 119.769 16.171 119.720 16.110 119.720 H 13.220 C 13.110 119.720 13.220 119.830 13.220 119.720 V 113.940 C 13.220 113.830 13.110 113.940 13.220 113.940 H 16.110 C 16.171 113.940 16.220 113.891 16.220 113.830 V 107.830 C 16.220 107.769 16.171 107.720 16.110 107.720 H 13.220 C 13.110 107.720 13.220 107.830 13.220 107.720 V 97.830 V 94.940 C 13.220 94.830 13.110 94.940 13.220 94.940 H 16.110 H 26.000 C 26.110 94.940 26.000 94.830 26.000 94.940 V 97.830 C 26.000 97.891 26.049 97.940 26.110 97.940 H 32.110 C 32.171 97.940 32.220 97.891 32.220 97.830 V 94.940 C 32.220 94.830 32.110 94.940 32.220 94.940 H 38.000 C 38.110 94.940 38.000 94.830 38.000 94.940 V 97.830 C 38.000 97.891 38.049 97.940 38.110 97.940 H 44.110 C 44.171 97.940 44.220 97.891 44.220 97.830 V 94.940 C 44.220 94.830 44.110 94.940 44.220 94.940 H 50.000 C 50.110 94.940 50.000 94.830 50.000 94.940 V 97.830 C 50.000 97.891 50.049 97.940 50.110 97.940 H 56.110 C 56.171 97.940 56.220 97.891 56.220 97.830 V 94.940 C 56.220 94.830 56.110 94.940 56.220 94.940 H 62.000 C 62.110 94.940 62.000 94.830 62.000 94.940 V 97.830 C 62.000 97.891 62.049 97.940 62.110 97.940 H 68.110 C 68.171 97.940 68.220 97.891 68.220 97.830 V 94.940 C 68.220 94.830 68.110 94.940 68.220 94.940 H 74.000 C 74.110 94.940 74.000 94.830 74.000 94.940 V 97.830 C 74.000 97.891 74.049 97.940 74.110 97.940 H 80.110 C 80.171 97.940 80.220 97.891 80.220 97.830 V 94.940 C 80.220 94.830 80.110 94.940 80.220 94.940 H 90.110 H 93.000 C 93.110 94.940 93.000 94.830 93.000 94.940 V 97.830 V 107.720 C 93.000 107.830 93.110 107.720 93.000 107.720 H 90.110 C 90.049 107.720 90.000 107.769 90.000 107.830 V 113.830 C 90.000 113.891 90.049 113.940 90.110 113.940 H 93.000 C 93.110 113.940 93.000 113.830 93.000 113.940 V 119.720 C 93.000 119.830 93.110 119.720 93.000 119.720 H 90.110 C 90.049 119.720 90.000 119.769 90.000 119.830 V 125.830 C 90.000 125.891 90.049 125.940 90.110 125.940 H 93.000 C 93.110 125.940 93.000 125.830 93.000 125.940 V 131.720 C 93.000 131.830 93.110 131.720 93.000 131.720 H 90.110 C 90.049 131.720 90.000 131.769 90.000 131.830 V 137.830 C 90.000 137.891 90.049 137.940 90.110 137.940 H 93.000 C 93.110 137.940 93.000 137.830 93.000 137.940 V 143.720 C 93.000 143.830 93.110 143.720 93.000 143.720 H 90.110 C 90.049 143.720 90.000 143.769 90.000 143.830 V 149.830 C 90.000 149.891 90.049 149.940 90.110 149.940 H 93.000 C 93.110 149.940 93.000 149.830 93.000 149.940 V 155.720 C 93.000 155.830 93.110 155.720 93.000 155.720 H 90.110 C 90.049 155.720 90.000 155.769 90.000 155.830 V 161.830 C 90.000 161.891 90.049 161.940 90.110 161.940 H 93.000 C 93.110 161.940 93.000 161.830 93.000 161.940 V 171.830 V 174.720 C 93.000 174.830 93.110 174.720 93.000 174.720 H 90.110 H 80.220 C 80.110 174.720 80.220 174.830 80.220 174.720 V 171.830 C 80.220 171.769 80.171 171.720 80.110 171.720 H 74.110 C 74.049 171.720 74.000 171.769 74.000 171.830 V 174.720 C 74.000 174.830 74.110 174.720 74.000 174.720 H 68.220 C 68.110 174.720 68.220 174.830 68.220 174.720 V 171.830 C 68.220 171.769 68.171 171.720 68.110 171.720 H 62.110 C 62.049 171.720 62.000 171.769 62.000 171.830 V 174.720 C 62.000 174.830 62.110 174.720 62.000 174.720 H 56.220 C 56.110 174.720 56.220 174.830 56.220 174.720 V 171.830 C 56.220 171.769 56.171 171.720 56.110 171.720 H 50.110 C 50.049 171.720 50.000 171.769 50.000 171.830 V 174.720 C 50.000 174.830 50.110 174.720 50.000 174.720 H 44.220 C 44.110 174.720 44.220 174.830 44.220 174.720 V 171.830 C 44.220 171.769 44.171 171.720 44.110 171.720 H 38.110 C 38.049 171.720 38.000 171.769 38.000 171.830 V 174.720 C 38.000 174.830 38.110 174.720 38.000 174.720 H 32.220 C 32.110 174.720 32.220 174.830 32.220 174.720 V 171.830 C 32.220 171.769 32.171 171.720 32.110 171.720 H 26.110 C 26.049 171.720 26.000 171.769 26.000 171.830 V 174.720 C 26.000 174.830 26.110 174.720 26.000 174.720 H 16.110 H 13.220 C 13.110 174.720 13.220 174.830 13.220 174.720 V 171.830 Z M 10.110 177.940 H 96.110 C 96.171 177.940 96.220 177.891 96.220 177.830 V 91.830 C 96.220 91.769 96.171 91.720 96.110 91.720 H 10.110 C 10.049 91.720 10.000 91.769 10.000 91.830 V 177.830 C 10.000 177.891 10.049 177.940 10.110 177.940" stroke="rgb(255,0,255)" stroke-width="0.22" />
</g>
<g id="p-4" style="fill:none;stroke-linecap:round;stroke-linejoin:round;">
  <text dominant-baseline="hanging" font-size="4px" style="font-family: sans-serif ; font-weight: normal; font-style: normal; fill: rgb(255,0,0)" text-anchor="middle" transform="matrix( 1.000 0.000 0.000 1.000 50.110 48.220 )">top</text><path d="M 13.110 87.220 H 23.000 C 23.110 87.220 23.000 87.110 23.000 87.220 V 90.110 C 23.000 90.171 23.049 90.220 23.110 90.220 H 29.110 C 29.171 90.220 29.220 90.171 29.220 90.110 V 87.220 C 29.220 87.110 29.110 87.220 29.220 87.220 H 35.000 C 35.110 87.220 35.000 87.110 35.000 87.220 V 90.110 C 35.000 90.171 35.049 90.220 35.110 90.220 H 41.110 C 41.171 90.220 41.220 90.171 41.220 90.110 V 87.220 C 41.220 87.110 41.110 87.220 41.220 87.220 H 47.000 C 47.110 87.220 47.000 87.110 47.000 87.220 V 90.110 C 47.000 90.171 47.049 90.220 47.110 90.220 H 53.110 C 53.171 90.220 53.220 90.171 53.220 90.110 V 87.220 C 53.220 87.110 53.110 87.220 53.220 87.220 H 59.000 C 59.110 87.220 59.000 87.110 59.000 87.220 V 90.110 C 59.000 90.171 59.049 90.220 59.110 90.220 H 65.110 C 65.171 90.220 65.220 90.171 65.220 90.110 V 87.220 C 65.220 87.110 65.110 87.220 65.220 87.220 H 71.000 C 71.110 87.220 71.000 87.110 71.000 87.220 V 90.110 C 71.000 90.171 71.049 90.220 71.110 90.220 H 77.110 C 77.171 90.220 77.220 90.171 77.220 90.110 V 87.220 C 77.220 87.110 77.110 87.220 77.220 87.220 H 87.110 C 87.171 87.220 87.220 87.171 87.220 87.110 V 77.220 C 87.220 77.110 87.110 77.220 87.220 77.220 H 90.110 C 90.171 77.220 90.220 77.171 90.220 77.110 V 71.110 C 90.220 71.049 90.171 71.000 90.110 71.000 H 87.220 C 87.110 71.000 87.220 71.110 87.220 71.000 V 65.220 C 87.220 65.110 87.110 65.220 87.220 65.220 H 90.110 C 90.171 65.220 90.220 65.171 90.220 65.110 V 59.110 C 90.220 59.049 90.171 59.000 90.110 59.000 H 87.220 C 87.110 59.000 87.220 59.110 87.220 59.000 V 53.220 C 87.220 53.110 87.110 53.220 87.220 53.220 H 90.110 C 90.171 53.220 90.220 53.171 90.220 53.110 V 47.110 C 90.220 47.049 90.171 47.000 90.110 47.000 H 87.220 C 87.110 47.000 87.220 47.110 87.220 47.000 V 41.220 C 87.220 41.110 87.110 41.220 87.220 41.220 H 90.110 C 90.171 41.220 90.220 41.171 90.220 41.110 V 35.110 C 90.220 35.049 90.171 35.000 90.110 35.000 H 87.220 C 87.110 35.000 87.220 35.110 87.220 35.000 V 29.220 C 87.220 29.110 87.110 29.220 87.220 29.220 H 90.110 C 90.171 29.220 90.220 29.171 90.220 29.110 V 23.110 C 90.220 23.049 90.171 23.000 90.110 23.000 H 87.220 C 87.110 23.000 87.220 23.110 87.220 23.000 V 13.110 C 87.220 13.049 87.171 13.000 87.110 13.000 H 77.220 C 77.110 13.000 77.220 13.110 77.220 13.000 V 10.110 C 77.220 10.049 77.171 10.000 77.110 10.000 H 71.110 C 71.049 10.000 71.000 10.049 71.000 10.110 V 13.000 C 71.000 13.110 71.110 13.000 71.000 13.000 H 65.220 C 65.110 13.000 65.220 13.110 65.220 13.000 V 10.110 C 65.220 10.049 65.171 10.000 65.110 10.000 H 59.110 C 59.049 10.000 59.000 10.049 59.000 10.110 V 13.000 C 59.000 13.110 59.110 13.000 59.000 13.000 H 53.220 C 53.110 13.000 53.220 13.110 53.220 13.000 V 10.110 C 53.220 10.049 53.171 10.000 53.110 10.000 H 47.110 C 47.049 10.000 47.000 10.049 47.000 10.110 V 13.000 C 47.000 13.110 47.110 13.000 47.000 13.000 H 41.220 C 41.110 13.000 41.220 13.110 41.220 13.000 V 10.110 C 41.220 10.049 41.171 10.000 41.110 10.000 H 35.110 C 35.049 10.000 35.000 10.049 35.000 10.110 V 13.000 C 35.000 13.110 35.110 13.000 35.000 13.000 H 29.220 C 29.110 13.000 29.220 13.110 29.220 13.000 V 10.110 C 29.220 10.049 29.171 10.000 29.110 10.000 H 23.110 C 23.049 10.000 23.000 10.049 23.000 10.110 V 13.000 C 23.000 13.110 23.110 13.000 23.000 13.000 H 13.110 C 13.049 13.000 13.000 13.049 13.000 13.110 V 23.000 C 13.000 23.110 13.110 23.000 13.000 23.000 H 10.110 C 10.049 23.000 10.000 23.049 10.000 23.110 V 29.110 C 10.000 29.171 10.049 29.220 10.110 29.220 H 13.000 C 13.110 29.220 13.000 29.110 13.000 29.220 V 35.000 C 13.000 35.110 13.110 35.000 13.000 35.000 H 10.110 C 10.049 35.000 10.000 35.049 10.000 35.110 V 41.110 C 10.000 41.171 10.049 41.220 10.110 41.220 H 13.000 C 13.110 41.220 13.000 41.110 13.000 41.220 V 47.000 C 13.000 47.110 13.110 47.000 13.000 47.000 H 10.110 C 10.049 47.000 10.000 47.049 10.000 47.110 V 53.110 C 10.000 53.171 10.049 53.220 10.110 53.220 H 13.000 C 13.110 53.220 13.000 53.110 13.000 53.220 V 59.000 C 13.000 59.110 13.110 59.000 13.000 59.000 H 10.110 C 10.049 59.000 10.000 59.049 10.000 59.110 V 65.110 C 10.000 65.171 10.049 65.220 10.110 65.220 H 13.000 C 13.110 65.220 13.000 65.110 13.000 65.220 V 71.000 C 13.000 71.110 13.110 71.000 13.000 71.000 H 10.110 C 10.049 71.000 10.000 71.049 10.000 71.110 V 77.110 C 10.000 77.171 10.049 77.220 10.110 77.220 H 13.000 C 13.110 77.220 13.000 77.110 13.000 77.220 V 87.110 C 13.000 87.171 13.049 87.220 13.110 87.220" stroke="rgb(0,0,0)" stroke-width="0.22" />
</g>
<g id="p-5" style="fill:none;stroke-linecap:round;stroke-linejoin:round;">
  <text dominant-baseline="hanging" font-size="4px" style="font-family: sans-serif ; font-weight: normal; font-style: normal; fill: rgb(255,0,0)" text-anchor="middle" transform="matrix( 1.000 0.000 0.000 1.000 131.830 381.100 )">left</text><path d="M 94.830 423.100 H 104.830 C 104.891 423.100 104.940 423.051 104.940 422.990 V 420.100 C 104.940 419.990 104.830 420.100 104.940 420.100 H 110.720 C 110.830 420.100 110.720 419.990 110.720 420.100 V 422.990 C 110.720 423.051 110.769 423.100 110.830 423.100 H 116.830 C 116.891 423.100 116.940 423.051 116.940 422.990 V 420.100 C 116.940 419.990 116.830 420.100 116.940 420.100 H 122.720 C 122.830 420.100 122.720 419.990 122.720 420.100 V 422.990 C 122.720 423.051 122.769 423.100 122.830 423.100 H 128.830 C 128.891 423.100 128.940 423.051 128.940 422.990 V 420.100 C 128.940 419.990 128.830 420.100 128.940 420.100 H 134.720 C 134.830 420.100 134.720 419.990 134.720 420.100 V 422.990 C 134.720 423.051 134.769 423.100 134.830 423.100 H 140.830 C 140.891 423.100 140.940 423.051 140.940 422.990 V 420.100 C 140.940 419.990 140.830 420.100 140.940 420.100 H 146.720 C 146.830 420.100 146.720 419.990 146.720 420.100 V 422.990 C 146.720 423.051 146.769 423.100 146.830 423.100 H 152.830 C 152.891 423.100 152.940 423.051 152.940 422.990 V 420.100 C 152.940 419.990 152.830 420.100 152.940 420.100 H 158.720 C 158.830 420.100 158.720 419.990 158.720 420.100 V 422.990 C 158.720 423.051 158.769 423.100 158.830 423.100 H 168.830 C 168.891 423.100 168.940 423.051 168.940 422.990 V 411.600 C 168.940 411.490 168.830 411.600 168.940 411.600 H 171.830 C 171.891 411.600 171.940 411.551 171.940 411.490 V 405.490 C 171.940 405.429 171.891 405.380 171.830 405.380 H 168.940 C 168.830 405.380 168.940 405.490 168.940 405.380 V 399.600 C 168.940 399.490 168.830 399.600 168.940 399.600 H 171.830 C 171.891 399.600 171.940 399.551 171.940 399.490 V 393.490 C 171.940 393.429 171.891 393.380 171.830 393.380 H 168.940 C 168.830 393.380 168.940 393.490 168.940 393.380 V 387.600 C 168.940 387.490 168.830 387.600 168.940 387.600 H 171.830 C 171.891 387.600 171.940 387.551 171.940 387.490 V 381.490 C 171.940 381.429 171.891 381.380 171.830 381.380 H 168.940 C 168.830 381.380 168.940 381.490 168.940 381.380 V 375.600 C 168.940 375.490 168.830 375.600 168.940 375.600 H 171.830 C 171.891 375.600 171.940 375.551 171.940 375.490 V 369.490 C 171.940 369.429 171.891 369.380 171.830 369.380 H 168.940 C 168.830 369.380 168.940 369.490 168.940 369.380 V 363.600 C 168.940 363.490 168.830 363.600 168.940 363.600 H 171.830 C 171.891 363.600 171.940 363.551 171.940 363.490 V 357.490 C 171.940 357.429 171.891 357.380 171.830 357.380 H 168.940 C 168.830 357.380 168.940 357.490 168.940 357.380 V 345.990 V 342.990 C 168.940 342.929 168.891 342.880 168.830 342.880 H 158.830 C 158.769 342.880 158.720 342.929 158.720 342.990 V 345.880 C 158.720 345.990 158.830 345.880 158.720 345.880 H 152.940 C 152.830 345.880 152.940 345.990 152.940 345.880 V 342.990 C 152.940 342.929 152.891 342.880 152.830 342.880 H 146.830 C 146.769 342.880 146.720 342.929 146.720 342.990 V 345.880 C 146.720 345.990 146.830 345.880 146.720 345.880 H 140.940 C 140.830 345.880 140.940 345.990 140.940 345.880 V 342.990 C 140.940 342.929 140.891 342.880 140.830 342.880 H 134.830 C 134.769 342.880 134.720 342.929 134.720 342.990 V 345.880 C 134.720 345.990 134.830 345.880 134.720 345.880 H 128.940 C 128.830 345.880 128.940 345.990 128.940 345.880 V 342.990 C 128.940 342.929 128.891 342.880 128.830 342.880 H 122.830 C 122.769 342.880 122.720 342.929 122.720 342.990 V 345.880 C 122.720 345.990 122.830 345.880 122.720 345.880 H 116.940 C 116.830 345.880 116.940 345.990 116.940 345.880 V 342.990 C 116.940 342.929 116.891 342.880 116.830 342.880 H 110.830 C 110.769 342.880 110.720 342.929 110.720 342.990 V 345.880 C 110.720 345.990 110.830 345.880 110.720 345.880 H 104.940 C 104.830 345.880 104.940 345.990 104.940 345.880 V 342.990 C 104.940 342.929 104.891 342.880 104.830 342.880 H 94.830 C 94.769 342.880 94.720 342.929 94.720 342.990 V 345.990 V 357.380 C 94.720 357.490 94.830 357.380 94.720 357.380 H 91.830 C 91.769 357.380 91.720 357.429 91.720 357.490 V 363.490 C 91.720 363.551 91.769 363.600 91.830 363.600 H 94.720 C 94.830 363.600 94.720 363.490 94.720 363.600 V 369.380 C 94.720 369.490 94.830 369.380 94.720 369.380 H 91.830 C 91.769 369.380 91.720 369.429 91.720 369.490 V 375.490 C 91.720 375.551 91.769 375.600 91.830 375.600 H 94.720 C 94.830 375.600 94.720 375.490 94.720 375.600 V 381.380 C 94.720 381.490 94.830 381.380 94.720 381.380 H 91.830 C 91.769 381.380 91.720 381.429 91.720 381.490 V 387.490 C 91.720 387.551 91.769 387.600 91.830 387.600 H 94.720 C 94.830 387.600 94.720 387.490 94.720 387.600 V 393.380 C 94.720 393.490 94.830 393.380 94.720 393.380 H 91.830 C 91.769 393.380 91.720 393.429 91.720 393.490 V 399.490 C 91.720 399.551 91.769 399.600 91.830 399.600 H 94.720 C 94.830 399.600 94.720 399.490 94.720 399.600 V 405.380 C 94.720 405.490 94.830 405.380 94.720 405.380 H 91.830 C 91.769 405.380 91.720 405.429 91.720 405.490 V 411.490 C 91.720 411.551 91.769 411.600 91.830 411.600 H 94.720 C 94.830 411.600 94.720 411.490 94.720 411.600 V 422.990 C 94.720 423.051 94.769 423.100 94.830 423.100" stroke="rgb(0,0,0)" stroke-width="0.22" />
</g>
<g id="p-6" style="fill:none;stroke-linecap:round;stroke-linejoin:round;">
  <text dominant-baseline="hanging" font-size="4px" style="font-family: sans-serif ; font-weight: normal; font-style: normal; fill: rgb(255,0,0)" text-anchor="middle" transform="matrix( 1.000 0.000 0.000 1.000 131.830 299.380 )">right</text><path d="M 94.830 341.380 H 104.830 C 104.891 341.380 104.940 341.331 104.940 341.270 V 338.380 C 104.940 338.270 104.830 338.380 104.940 338.380 H 110.720 C 110.830 338.380 110.720 338.270 110.720 338.380 V 341.270 C 110.720 341.331 110.769 341.380 110.830 341.380 H 116.830 C 116.891 341.380 116.940 341.331 116.940 341.270 V 338.380 C 116.940 338.270 116.830 338.380 116.940 338.380 H 122.720 C 122.830 338.380 122.720 338.270 122.720 338.380 V 341.270 C 122.720 341.331 122.769 341.380 122.830 341.380 H 128.830 C 128.891 341.380 128.940 341.331 128.940 341.270 V 338.380 C 128.940 338.270 128.830 338.380 128.940 338.380 H 134.720 C 134.830 338.380 134.720 338.270 134.720 338.380 V 341.270 C 134.720 341.331 134.769 341.380 134.830 341.380 H 140.830 C 140.891 341.380 140.940 341.331 140.940 341.270 V 338.380 C 140.940 338.270 140.830 338.380 140.940 338.380 H 146.720 C 146.830 338.380 146.720 338.270 146.720 338.380 V 341.270 C 146.720 341.331 146.769 341.380 146.830 341.380 H 152.830 C 152.891 341.380 152.940 341.331 152.940 341.270 V 338.380 C 152.940 338.270 152.830 338.380 152.940 338.380 H 158.720 C 158.830 338.380 158.720 338.270 158.720 338.380 V 341.270 C 158.720 341.331 158.769 341.380 158.830 341.380 H 168.830 C 168.891 341.380 168.940 341.331 168.940 341.270 V 329.880 C 168.940 329.770 168.830 329.880 168.940 329.880 H 171.830 C 171.891 329.880 171.940 329.831 171.940 329.770 V 323.770 C 171.940 323.709 171.891 323.660 171.830 323.660 H 168.940 C 168.830 323.660 168.940 323.770 168.940 323.660 V 317.880 C 168.940 317.770 168.830 317.880 168.940 317.880 H 171.830 C 171.891 317.880 171.940 317.831 171.940 317.770 V 311.770 C 171.940 311.709 171.891 311.660 171.830 311.660 H 168.940 C 168.830 311.660 168.940 311.770 168.940 311.660 V 305.880 C 168.940 305.770 168.830 305.880 168.940 305.880 H 171.830 C 171.891 305.880 171.940 305.831 171.940 305.770 V 299.770 C 171.940 299.709 171.891 299.660 171.830 299.660 H 168.940 C 168.830 299.660 168.940 299.770 168.940 299.660 V 293.880 C 168.940 293.770 168.830 293.880 168.940 293.880 H 171.830 C 171.891 293.880 171.940 293.831 171.940 293.770 V 287.770 C 171.940 287.709 171.891 287.660 171.830 287.660 H 168.940 C 168.830 287.660 168.940 287.770 168.940 287.660 V 281.880 C 168.940 281.770 168.830 281.880 168.940 281.880 H 171.830 C 171.891 281.880 171.940 281.831 171.940 281.770 V 275.770 C 171.940 275.709 171.891 275.660 171.830 275.660 H 168.940 C 168.830 275.660 168.940 275.770 168.940 275.660 V 264.270 V 261.270 C 168.940 261.209 168.891 261.160 168.830 261.160 H 158.830 C 158.769 261.160 158.720 261.209 158.720 261.270 V 264.160 C 158.720 264.270 158.830 264.160 158.720 264.160 H 152.940 C 152.830 264.160 152.940 264.270 152.940 264.160 V 261.270 C 152.940 261.209 152.891 261.160 152.830 261.160 H 146.830 C 146.769 261.160 146.720 261.209 146.720 261.270 V 264.160 C 146.720 264.270 146.830 264.160 146.720 264.160 H 140.940 C 140.830 264.160 140.940 264.270 140.940 264.160 V 261.270 C 140.940 261.209 140.891 261.160 140.830 261.160 H 134.830 C 134.769 261.160 134.720 261.209 134.720 261.270 V 264.160 C 134.720 264.270 134.830 264.160 134.720 264.160 H 128.940 C 128.830 264.160 128.940 264.270 128.940 264.160 V 261.270 C 128.940 261.209 128.891 261.160 128.830 261.160 H 122.830 C 122.769 261.160 122.720 261.209 122.720 261.270 V 264.160 C 122.720 264.270 122.830 264.160 122.720 264.160 H 116.940 C 116.830 264.160 116.940 264.270 116.940 264.160 V 261.270 C 116.940 261.209 116.891 261.160 116.830 261.160 H 110.830 C 110.769 261.160 110.720 261.209 110.720 261.270 V 264.160 C 110.720 264.270 110.830 264.160 110.720 264.160 H 104.940 C 104.830 264.160 104.940 264.270 104.940 264.160 V 261.270 C 104.940 261.209 104.891 261.160 104.830 261.160 H 94.830 C 94.769 261.160 94.720 261.209 94.720 261.270 V 264.270 V 275.660 C 94.720 275.770 94.830 275.660 94.720 275.660 H 91.830 C 91.769 275.660 91.720 275.709 91.720 275.770 V 281.770 C 91.720 281.831 91.769 281.880 91.830 281.880 H 94.720 C 94.830 281.880 94.720 281.770 94.720 281.880 V 287.660 C 94.720 287.770 94.830 287.660 94.720 287.660 H 91.830 C 91.769 287.660 91.720 287.709 91.720 287.770 V 293.770 C 91.720 293.831 91.769 293.880 91.830 293.880 H 94.720 C 94.830 293.880 94.720 293.770 94.720 293.880 V 299.660 C 94.720 299.770 94.830 299.660 94.720 299.660 H 91.830 C 91.769 299.660 91.720 299.709 91.720 299.770 V 305.770 C 91.720 305.831 91.769 305.880 91.830 305.880 H 94.720 C 94.830 305.880 94.720 305.770 94.720 305.880 V 311.660 C 94.720 311.770 94.830 311.660 94.720 311.660 H 91.830 C 91.769 311.660 91.720 311.709 91.720 311.770 V 317.770 C 91.720 317.831 91.769 317.880 91.830 317.880 H 94.720 C 94.830 317.880 94.720 317.770 94.720 317.880 V 323.660 C 94.720 323.770 94.830 323.660 94.720 323.660 H 91.830 C 91.769 323.660 91.720 323.709 91.720 323.770 V 329.770 C 91.720 329.831 91.769 329.880 91.830 329.880 H 94.720 C 94.830 329.880 94.720 329.770 94.720 329.880 V 341.270 C 94.720 341.331 94.769 341.380 94.830 341.380" stroke="rgb(0,0,0)" stroke-width="0.22" />
</g>
</svg>