<?xml version='1.0' encoding='utf-8'?>
<svg height="553.10mm" viewBox="0.0 0.0 61.94 553.10" width="61.94mm" xmlns="http://www.w3.org/2000/svg" xmlns:cc="http://creativecommons.org/ns#" xmlns:dc="http://purl.org/dc/elements/1.1/" xmlns:inkscape="http://www.inkscape.org/namespaces/inkscape" xmlns:rdf="http://www.w3.org/1999/02/22-rdf-syntax-ns#" xmlns:svg="http://www.w3.org/2000/svg" xmlns:xlink="http://www.w3.org/1999/xlink">
<!--
UniversalBox - Box with various options for different styles and lids

Created with Boxes.py (https://boxes.hackerspace-bamberg.de/)
Creation date: 2024-09-28 12:57:19
Command line (remove spaces between dashes): boxes UniversalBox - -top_edge=F - -bottom_edge=F - -x=20.0 - -y=20.0 - -h=230.0 - -reference=0 - -burn=0.11
Url: https://boxes.hackerspace-bamberg.de/UniversalBox?FingerJoint_style=rectangular&FingerJoint_surroundingspaces=2.0&FingerJoint_bottom_lip=0.0&FingerJoint_edge_width=1.0&FingerJoint_extra_length=0.0&FingerJoint_finger=2.0&FingerJoint_play=0.0&FingerJoint_space=2.0&FingerJoint_width=1.0&Stackable_angle=60&Stackable_bottom_stabilizers=0.0&Stackable_height=2.0&Stackable_holedistance=1.0&Stackable_width=4.0&Hinge_grip_percentage=0&Hinge_outset=0&Hinge_outset=1&Hinge_pinwidth=0.5&Hinge_style=outset&Hinge_axle=2.0&Hinge_grip_length=0&Hinge_hingestrength=1&CabinetHinge_bore=3.2&CabinetHinge_eyes_per_hinge=5&CabinetHinge_hinges=2&CabinetHinge_style=inside&CabinetHinge_eye=1.5&CabinetHinge_play=0.05&CabinetHinge_spacing=2.0&SlideOnLid_hole_width=0&SlideOnLid_second_pin=0&SlideOnLid_second_pin=1&SlideOnLid_spring=both&SlideOnLid_style=rectangular&SlideOnLid_surroundingspaces=2.0&SlideOnLid_bottom_lip=0.0&SlideOnLid_edge_width=1.0&SlideOnLid_extra_length=0.0&SlideOnLid_finger=3.0&SlideOnLid_play=0.05&SlideOnLid_space=2.0&SlideOnLid_width=1.0&Click_angle=5.0&Click_bottom_radius=0.1&Click_depth=3.0&RoundedTriangleEdge_height=50.0&RoundedTriangleEdge_r_hole=2.0&RoundedTriangleEdge_radius=30.0&RoundedTriangleEdge_outset=1.0&Mounting_d_head=6.5&Mounting_d_shaft=3.0&Mounting_margin=0.125&Mounting_num=2&Mounting_side=back&Mounting_style=straight+edge%2C+within&HandleEdge_height=20.0&HandleEdge_hole_height=75.0&HandleEdge_hole_width=40%3A40&HandleEdge_on_sides=0&HandleEdge_on_sides=1&HandleEdge_radius=10.0&HandleEdge_outset=1.0&Flex_stretch=1.05&Flex_connection=1.0&Flex_distance=0.5&Flex_width=5.0&Lid_handle=none&Lid_style=none&Lid_handle_height=8.0&Lid_height=4.0&Lid_play=0.1&top_edge=F&bottom_edge=F&x=20.0&y=20.0&h=230.0&outside=0&outside=1&vertical_edges=finger+joints&thickness=3.0&format=svg&tabs=0.0&qr_code=0&debug=0&labels=0&labels=1&reference=0&inner_corners=loop&burn=0.11&language=en&render=2
Url short: https://boxes.hackerspace-bamberg.de/UniversalBox?top_edge=F&bottom_edge=F&x=20.0&y=20.0&h=230.0&reference=0&burn=0.11
SettingsUrl: https://boxes.hackerspace-bamberg.de/UniversalBox?FingerJoint_style=rectangular&FingerJoint_surroundingspaces=2.0&FingerJoint_bottom_lip=0.0&FingerJoint_edge_width=1.0&FingerJoint_extra_length=0.0&FingerJoint_finger=2.0&FingerJoint_play=0.0&FingerJoint_space=2.0&FingerJoint_width=1.0&Stackable_angle=60&Stackable_bottom_stabilizers=0.0&Stackable_height=2.0&Stackable_holedistance=1.0&Stackable_width=4.0&Hinge_grip_percentage=0&Hinge_outset=0&Hinge_outset=1&Hinge_pinwidth=0.5&Hinge_style=outset&Hinge_axle=2.0&Hinge_grip_length=0&Hinge_hingestrength=1&CabinetHinge_bore=3.2&CabinetHinge_eyes_per_hinge=5&CabinetHinge_hinges=2&CabinetHinge_style=inside&CabinetHinge_eye=1.5&CabinetHinge_play=0.05&CabinetHinge_spacing=2.0&SlideOnLid_hole_width=0&SlideOnLid_second_pin=0&SlideOnLid_second_pin=1&SlideOnLid_spring=both&SlideOnLid_style=rectangular&SlideOnLid_surroundingspaces=2.0&SlideOnLid_bottom_lip=0.0&SlideOnLid_edge_width=1.0&SlideOnLid_extra_length=0.0&SlideOnLid_finger=3.0&SlideOnLid_play=0.05&SlideOnLid_space=2.0&SlideOnLid_width=1.0&Click_angle=5.0&Click_bottom_radius=0.1&Click_depth=3.0&RoundedTriangleEdge_height=50.0&RoundedTriangleEdge_r_hole=2.0&RoundedTriangleEdge_radius=30.0&RoundedTriangleEdge_outset=1.0&Mounting_d_head=6.5&Mounting_d_shaft=3.0&Mounting_margin=0.125&Mounting_num=2&Mounting_side=back&Mounting_style=straight+edge%2C+within&HandleEdge_height=20.0&HandleEdge_hole_height=75.0&HandleEdge_hole_width=40%3A40&HandleEdge_on_sides=0&HandleEdge_on_sides=1&HandleEdge_radius=10.0&HandleEdge_outset=1.0&Flex_stretch=1.05&Flex_connection=1.0&Flex_distance=0.5&Flex_width=5.0&Lid_handle=none&Lid_style=none&Lid_handle_height=8.0&Lid_height=4.0&Lid_play=0.1&top_edge=F&bottom_edge=F&x=20.0&y=20.0&h=230.0&outside=0&outside=1&vertical_edges=finger+joints&thickness=3.0&format=svg&tabs=0.0&qr_code=0&debug=0&labels=0&labels=1&reference=0&inner_corners=loop&burn=0.11&language=en&render=2
SettingsUrl short: https://boxes.hackerspace-bamberg.de/UniversalBox?top_edge=F&bottom_edge=F&x=20.0&y=20.0&h=230.0&reference=0&burn=0.11
-->
<title>UniversalBox</title>
<metadata>
<rdf:RDF><cc:Work>
<dc:title>Box - UniversalBox</dc:title>
<dc:date>2024-09-28 12:57:19</dc:date>
<dc:source>https://boxes.hackerspace-bamberg.de/UniversalBox?FingerJoint_style=rectangular&amp;FingerJoint_surroundingspaces=2.0&amp;FingerJoint_bottom_lip=0.0&amp;FingerJoint_edge_width=1.0&amp;FingerJoint_extra_length=0.0&amp;FingerJoint_finger=2.0&amp;FingerJoint_play=0.0&amp;FingerJoint_space=2.0&amp;FingerJoint_width=1.0&amp;Stackable_angle=60&amp;Stackable_bottom_stabilizers=0.0&amp;Stackable_height=2.0&amp;Stackable_holedistance=1.0&amp;Stackable_width=4.0&amp;Hinge_grip_percentage=0&amp;Hinge_outset=0&amp;Hinge_outset=1&amp;Hinge_pinwidth=0.5&amp;Hinge_style=outset&amp;Hinge_axle=2.0&amp;Hinge_grip_length=0&amp;Hinge_hingestrength=1&amp;CabinetHinge_bore=3.2&amp;CabinetHinge_eyes_per_hinge=5&amp;CabinetHinge_hinges=2&amp;CabinetHinge_style=inside&amp;CabinetHinge_eye=1.5&amp;CabinetHinge_play=0.05&amp;CabinetHinge_spacing=2.0&amp;SlideOnLid_hole_width=0&amp;SlideOnLid_second_pin=0&amp;SlideOnLid_second_pin=1&amp;SlideOnLid_spring=both&amp;SlideOnLid_style=rectangular&amp;SlideOnLid_surroundingspaces=2.0&amp;SlideOnLid_bottom_lip=0.0&amp;SlideOnLid_edge_width=1.0&amp;SlideOnLid_extra_length=0.0&amp;SlideOnLid_finger=3.0&amp;SlideOnLid_play=0.05&amp;SlideOnLid_space=2.0&amp;SlideOnLid_width=1.0&amp;Click_angle=5.0&amp;Click_bottom_radius=0.1&amp;Click_depth=3.0&amp;RoundedTriangleEdge_height=50.0&amp;RoundedTriangleEdge_r_hole=2.0&amp;RoundedTriangleEdge_radius=30.0&amp;RoundedTriangleEdge_outset=1.0&amp;Mounting_d_head=6.5&amp;Mounting_d_shaft=3.0&amp;Mounting_margin=0.125&amp;Mounting_num=2&amp;Mounting_side=back&amp;Mounting_style=straight+edge%2C+within&amp;HandleEdge_height=20.0&amp;HandleEdge_hole_height=75.0&amp;HandleEdge_hole_width=40%3A40&amp;HandleEdge_on_sides=0&amp;HandleEdge_on_sides=1&amp;HandleEdge_radius=10.0&amp;HandleEdge_outset=1.0&amp;Flex_stretch=1.05&amp;Flex_connection=1.0&amp;Flex_distance=0.5&amp;Flex_width=5.0&amp;Lid_handle=none&amp;Lid_style=none&amp;Lid_handle_height=8.0&amp;Lid_height=4.0&amp;Lid_play=0.1&amp;top_edge=F&amp;bottom_edge=F&amp;x=20.0&amp;y=20.0&amp;h=230.0&amp;outside=0&amp;outside=1&amp;vertical_edges=finger+joints&amp;thickness=3.0&amp;format=svg&amp;tabs=0.0&amp;qr_code=0&amp;debug=0&amp;labels=0&amp;labels=1&amp;reference=0&amp;inner_corners=loop&amp;burn=0.11&amp;language=en&amp;render=2</dc:source>
<dc:source>https://boxes.hackerspace-bamberg.de/UniversalBox?top_edge=F&amp;bottom_edge=F&amp;x=20.0&amp;y=20.0&amp;h=230.0&amp;reference=0&amp;burn=0.11</dc:source>
<dc:description>Box with various options for different styles and lids

Created with Boxes.py (https://boxes.hackerspace-bamberg.de/)
Command line: boxes UniversalBox --FingerJoint_style=rectangular --FingerJoint_surroundingspaces=2.0 --FingerJoint_bottom_lip=0.0 --FingerJoint_edge_width=1.0 --FingerJoint_extra_length=0.0 --FingerJoint_finger=2.0 --FingerJoint_play=0.0 --FingerJoint_space=2.0 --FingerJoint_width=1.0 --Stackable_angle=60 --Stackable_bottom_stabilizers=0.0 --Stackable_height=2.0 --Stackable_holedistance=1.0 --Stackable_width=4.0 --Hinge_grip_percentage=0 --Hinge_outset=0 --Hinge_outset=1 --Hinge_pinwidth=0.5 --Hinge_style=outset --Hinge_axle=2.0 --Hinge_grip_length=0 --Hinge_hingestrength=1 --CabinetHinge_bore=3.2 --CabinetHinge_eyes_per_hinge=5 --CabinetHinge_hinges=2 --CabinetHinge_style=inside --CabinetHinge_eye=1.5 --CabinetHinge_play=0.05 --CabinetHinge_spacing=2.0 --SlideOnLid_hole_width=0 --SlideOnLid_second_pin=0 --SlideOnLid_second_pin=1 --SlideOnLid_spring=both --SlideOnLid_style=rectangular --SlideOnLid_surroundingspaces=2.0 --SlideOnLid_bottom_lip=0.0 --SlideOnLid_edge_width=1.0 --SlideOnLid_extra_length=0.0 --SlideOnLid_finger=3.0 --SlideOnLid_play=0.05 --SlideOnLid_space=2.0 --SlideOnLid_width=1.0 --Click_angle=5.0 --Click_bottom_radius=0.1 --Click_depth=3.0 --RoundedTriangleEdge_height=50.0 --RoundedTriangleEdge_r_hole=2.0 --RoundedTriangleEdge_radius=30.0 --RoundedTriangleEdge_outset=1.0 --Mounting_d_head=6.5 --Mounting_d_shaft=3.0 --Mounting_margin=0.125 --Mounting_num=2 --Mounting_side=back '--Mounting_style=straight edge, within' --HandleEdge_height=20.0 --HandleEdge_hole_height=75.0 --HandleEdge_hole_width=40:40 --HandleEdge_on_sides=0 --HandleEdge_on_sides=1 --HandleEdge_radius=10.0 --HandleEdge_outset=1.0 --Flex_stretch=1.05 --Flex_connection=1.0 --Flex_distance=0.5 --Flex_width=5.0 --Lid_handle=none --Lid_style=none --Lid_handle_height=8.0 --Lid_height=4.0 --Lid_play=0.1 --top_edge=F --bottom_edge=F --x=20.0 --y=20.0 --h=230.0 --outside=0 --outside=1 '--vertical_edges=finger joints' --thickness=3.0 --format=svg --tabs=0.0 --qr_code=0 --debug=0 --labels=0 --labels=1 --reference=0 --inner_corners=loop --burn=0.11
Command line short: boxes UniversalBox --top_edge=F --bottom_edge=F --x=20.0 --y=20.0 --h=230.0 --reference=0 --burn=0.11
Url: https://boxes.hackerspace-bamberg.de/UniversalBox?FingerJoint_style=rectangular&amp;FingerJoint_surroundingspaces=2.0&amp;FingerJoint_bottom_lip=0.0&amp;FingerJoint_edge_width=1.0&amp;FingerJoint_extra_length=0.0&amp;FingerJoint_finger=2.0&amp;FingerJoint_play=0.0&amp;FingerJoint_space=2.0&amp;FingerJoint_width=1.0&amp;Stackable_angle=60&amp;Stackable_bottom_stabilizers=0.0&amp;Stackable_height=2.0&amp;Stackable_holedistance=1.0&amp;Stackable_width=4.0&amp;Hinge_grip_percentage=0&amp;Hinge_outset=0&amp;Hinge_outset=1&amp;Hinge_pinwidth=0.5&amp;Hinge_style=outset&amp;Hinge_axle=2.0&amp;Hinge_grip_length=0&amp;Hinge_hingestrength=1&amp;CabinetHinge_bore=3.2&amp;CabinetHinge_eyes_per_hinge=5&amp;CabinetHinge_hinges=2&amp;CabinetHinge_style=inside&amp;CabinetHinge_eye=1.5&amp;CabinetHinge_play=0.05&amp;CabinetHinge_spacing=2.0&amp;SlideOnLid_hole_width=0&amp;SlideOnLid_second_pin=0&amp;SlideOnLid_second_pin=1&amp;SlideOnLid_spring=both&amp;SlideOnLid_style=rectangular&amp;SlideOnLid_surroundingspaces=2.0&amp;SlideOnLid_bottom_lip=0.0&amp;SlideOnLid_edge_width=1.0&amp;SlideOnLid_extra_length=0.0&amp;SlideOnLid_finger=3.0&amp;SlideOnLid_play=0.05&amp;SlideOnLid_space=2.0&amp;SlideOnLid_width=1.0&amp;Click_angle=5.0&amp;Click_bottom_radius=0.1&amp;Click_depth=3.0&amp;RoundedTriangleEdge_height=50.0&amp;RoundedTriangleEdge_r_hole=2.0&amp;RoundedTriangleEdge_radius=30.0&amp;RoundedTriangleEdge_outset=1.0&amp;Mounting_d_head=6.5&amp;Mounting_d_shaft=3.0&amp;Mounting_margin=0.125&amp;Mounting_num=2&amp;Mounting_side=back&amp;Mounting_style=straight+edge%2C+within&amp;HandleEdge_height=20.0&amp;HandleEdge_hole_height=75.0&amp;HandleEdge_hole_width=40%3A40&amp;HandleEdge_on_sides=0&amp;HandleEdge_on_sides=1&amp;HandleEdge_radius=10.0&amp;HandleEdge_outset=1.0&amp;Flex_stretch=1.05&amp;Flex_connection=1.0&amp;Flex_distance=0.5&amp;Flex_width=5.0&amp;Lid_handle=none&amp;Lid_style=none&amp;Lid_handle_height=8.0&amp;Lid_height=4.0&amp;Lid_play=0.1&amp;top_edge=F&amp;bottom_edge=F&amp;x=20.0&amp;y=20.0&amp;h=230.0&amp;outside=0&amp;outside=1&amp;vertical_edges=finger+joints&amp;thickness=3.0&amp;format=svg&amp;tabs=0.0&amp;qr_code=0&amp;debug=0&amp;labels=0&amp;labels=1&amp;reference=0&amp;inner_corners=loop&amp;burn=0.11&amp;language=en&amp;render=2
Url short: https://boxes.hackerspace-bamberg.de/UniversalBox?top_edge=F&amp;bottom_edge=F&amp;x=20.0&amp;y=20.0&amp;h=230.0&amp;reference=0&amp;burn=0.11
SettingsUrl: https://boxes.hackerspace-bamberg.de/UniversalBox?FingerJoint_style=rectangular&amp;FingerJoint_surroundingspaces=2.0&amp;FingerJoint_bottom_lip=0.0&amp;FingerJoint_edge_width=1.0&amp;FingerJoint_extra_length=0.0&amp;FingerJoint_finger=2.0&amp;FingerJoint_play=0.0&amp;FingerJoint_space=2.0&amp;FingerJoint_width=1.0&amp;Stackable_angle=60&amp;Stackable_bottom_stabilizers=0.0&amp;Stackable_height=2.0&amp;Stackable_holedistance=1.0&amp;Stackable_width=4.0&amp;Hinge_grip_percentage=0&amp;Hinge_outset=0&amp;Hinge_outset=1&amp;Hinge_pinwidth=0.5&amp;Hinge_style=outset&amp;Hinge_axle=2.0&amp;Hinge_grip_length=0&amp;Hinge_hingestrength=1&amp;CabinetHinge_bore=3.2&amp;CabinetHinge_eyes_per_hinge=5&amp;CabinetHinge_hinges=2&amp;CabinetHinge_style=inside&amp;CabinetHinge_eye=1.5&amp;CabinetHinge_play=0.05&amp;CabinetHinge_spacing=2.0&amp;SlideOnLid_hole_width=0&amp;SlideOnLid_second_pin=0&amp;SlideOnLid_second_pin=1&amp;SlideOnLid_spring=both&amp;SlideOnLid_style=rectangular&amp;SlideOnLid_surroundingspaces=2.0&amp;SlideOnLid_bottom_lip=0.0&amp;SlideOnLid_edge_width=1.0&amp;SlideOnLid_extra_length=0.0&amp;SlideOnLid_finger=3.0&amp;SlideOnLid_play=0.05&amp;SlideOnLid_space=2.0&amp;SlideOnLid_width=1.0&amp;Click_angle=5.0&amp;Click_bottom_radius=0.1&amp;Click_depth=3.0&amp;RoundedTriangleEdge_height=50.0&amp;RoundedTriangleEdge_r_hole=2.0&amp;RoundedTriangleEdge_radius=30.0&amp;RoundedTriangleEdge_outset=1.0&amp;Mounting_d_head=6.5&amp;Mounting_d_shaft=3.0&amp;Mounting_margin=0.125&amp;Mounting_num=2&amp;Mounting_side=back&amp;Mounting_style=straight+edge%2C+within&amp;HandleEdge_height=20.0&amp;HandleEdge_hole_height=75.0&amp;HandleEdge_hole_width=40%3A40&amp;HandleEdge_on_sides=0&amp;HandleEdge_on_sides=1&amp;HandleEdge_radius=10.0&amp;HandleEdge_outset=1.0&amp;Flex_stretch=1.05&amp;Flex_connection=1.0&amp;Flex_distance=0.5&amp;Flex_width=5.0&amp;Lid_handle=none&amp;Lid_style=none&amp;Lid_handle_height=8.0&amp;Lid_height=4.0&amp;Lid_play=0.1&amp;top_edge=F&amp;bottom_edge=F&amp;x=20.0&amp;y=20.0&amp;h=230.0&amp;outside=0&amp;outside=1&amp;vertical_edges=finger+joints&amp;thickness=3.0&amp;format=svg&amp;tabs=0.0&amp;qr_code=0&amp;debug=0&amp;labels=0&amp;labels=1&amp;reference=0&amp;inner_corners=loop&amp;burn=0.11&amp;language=en&amp;render=2
SettingsUrl short: https://boxes.hackerspace-bamberg.de/UniversalBox?top_edge=F&amp;bottom_edge=F&amp;x=20.0&amp;y=20.0&amp;h=230.0&amp;reference=0&amp;burn=0.11
</dc:description>
</cc:Work></rdf:RDF></metadata>
<g id="p-0" style="fill:none;stroke-linecap:round;stroke-linejoin:round;">
  <text dominant-baseline="hanging" font-size="4px" style="font-family: sans-serif ; font-weight: normal; font-style: normal; fill: rgb(255,0,0)" text-anchor="middle" transform="matrix( 1.000 0.000 0.000 1.000 20.110 426.100 )">front</text><path d="M 13.110 543.100 H 17.110 C 17.171 543.100 17.220 543.051 17.220 542.990 V 540.100 C 17.220 539.990 17.110 540.100 17.220 540.100 H 23.000 C 23.110 540.100 23.000 539.990 23.000 540.100 V 542.990 C 23.000 543.051 23.049 543.100 23.110 543.100 H 27.110 H 30.110 C 30.171 543.100 30.220 543.051 30.220 542.990 V 534.490 C 30.220 534.429 30.171 534.380 30.110 534.380 H 27.220 C 27.110 534.380 27.220 534.490 27.220 534.380 V 528.600 C 27.220 528.490 27.110 528.600 27.220 528.600 H 30.110 C 30.171 528.600 30.220 528.551 30.220 528.490 V 522.490 C 30.220 522.429 30.171 522.380 30.110 522.380 H 27.220 C 27.110 522.380 27.220 522.490 27.220 522.380 V 516.600 C 27.220 516.490 27.110 516.600 27.220 516.600 H 30.110 C 30.171 516.600 30.220 516.551 30.220 516.490 V 510.490 C 30.220 510.429 30.171 510.380 30.110 510.380 H 27.220 C 27.110 510.380 27.220 510.490 27.220 510.380 V 504.600 C 27.220 504.490 27.110 504.600 27.220 504.600 H 30.110 C 30.171 504.600 30.220 504.551 30.220 504.490 V 498.490 C 30.220 498.429 30.171 498.380 30.110 498.380 H 27.220 C 27.110 498.380 27.220 498.490 27.220 498.380 V 492.600 C 27.220 492.490 27.110 492.600 27.220 492.600 H 30.110 C 30.171 492.600 30.220 492.551 30.220 492.490 V 486.490 C 30.220 486.429 30.171 486.380 30.110 486.380 H 27.220 C 27.110 486.380 27.220 486.490 27.220 486.380 V 480.600 C 27.220 480.490 27.110 480.600 27.220 480.600 H 30.110 C 30.171 480.600 30.220 480.551 30.220 480.490 V 474.490 C 30.220 474.429 30.171 474.380 30.110 474.380 H 27.220 C 27.110 474.380 27.220 474.490 27.220 474.380 V 468.600 C 27.220 468.490 27.110 468.600 27.220 468.600 H 30.110 C 30.171 468.600 30.220 468.551 30.220 468.490 V 462.490 C 30.220 462.429 30.171 462.380 30.110 462.380 H 27.220 C 27.110 462.380 27.220 462.490 27.220 462.380 V 456.600 C 27.220 456.490 27.110 456.600 27.220 456.600 H 30.110 C 30.171 456.600 30.220 456.551 30.220 456.490 V 450.490 C 30.220 450.429 30.171 450.380 30.110 450.380 H 27.220 C 27.110 450.380 27.220 450.490 27.220 450.380 V 444.600 C 27.220 444.490 27.110 444.600 27.220 444.600 H 30.110 C 30.171 444.600 30.220 444.551 30.220 444.490 V 438.490 C 30.220 438.429 30.171 438.380 30.110 438.380 H 27.220 C 27.110 438.380 27.220 438.490 27.220 438.380 V 432.600 C 27.220 432.490 27.110 432.600 27.220 432.600 H 30.110 C 30.171 432.600 30.220 432.551 30.220 432.490 V 426.490 C 30.220 426.429 30.171 426.380 30.110 426.380 H 27.220 C 27.110 426.380 27.220 426.490 27.220 426.380 V 420.600 C 27.220 420.490 27.110 420.600 27.220 420.600 H 30.110 C 30.171 420.600 30.220 420.551 30.220 420.490 V 414.490 C 30.220 414.429 30.171 414.380 30.110 414.380 H 27.220 C 27.110 414.380 27.220 414.490 27.220 414.380 V 408.600 C 27.220 408.490 27.110 408.600 27.220 408.600 H 30.110 C 30.171 408.600 30.220 408.551 30.220 408.490 V 402.490 C 30.220 402.429 30.171 402.380 30.110 402.380 H 27.220 C 27.110 402.380 27.220 402.490 27.220 402.380 V 396.600 C 27.220 396.490 27.110 396.600 27.220 396.600 H 30.110 C 30.171 396.600 30.220 396.551 30.220 396.490 V 390.490 C 30.220 390.429 30.171 390.380 30.110 390.380 H 27.220 C 27.110 390.380 27.220 390.490 27.220 390.380 V 384.600 C 27.220 384.490 27.110 384.600 27.220 384.600 H 30.110 C 30.171 384.600 30.220 384.551 30.220 384.490 V 378.490 C 30.220 378.429 30.171 378.380 30.110 378.380 H 27.220 C 27.110 378.380 27.220 378.490 27.220 378.380 V 372.600 C 27.220 372.490 27.110 372.600 27.220 372.600 H 30.110 C 30.171 372.600 30.220 372.551 30.220 372.490 V 366.490 C 30.220 366.429 30.171 366.380 30.110 366.380 H 27.220 C 27.110 366.380 27.220 366.490 27.220 366.380 V 360.600 C 27.220 360.490 27.110 360.600 27.220 360.600 H 30.110 C 30.171 360.600 30.220 360.551 30.220 360.490 V 354.490 C 30.220 354.429 30.171 354.380 30.110 354.380 H 27.220 C 27.110 354.380 27.220 354.490 27.220 354.380 V 348.600 C 27.220 348.490 27.110 348.600 27.220 348.600 H 30.110 C 30.171 348.600 30.220 348.551 30.220 348.490 V 342.490 C 30.220 342.429 30.171 342.380 30.110 342.380 H 27.220 C 27.110 342.380 27.220 342.490 27.220 342.380 V 336.600 C 27.220 336.490 27.110 336.600 27.220 336.600 H 30.110 C 30.171 336.600 30.220 336.551 30.220 336.490 V 330.490 C 30.220 330.429 30.171 330.380 30.110 330.380 H 27.220 C 27.110 330.380 27.220 330.490 27.220 330.380 V 324.600 C 27.220 324.490 27.110 324.600 27.220 324.600 H 30.110 C 30.171 324.600 30.220 324.551 30.220 324.490 V 315.990 V 312.990 C 30.220 312.929 30.171 312.880 30.110 312.880 H 27.110 H 23.110 C 23.049 312.880 23.000 312.929 23.000 312.990 V 315.880 C 23.000 315.990 23.110 315.880 23.000 315.880 H 17.220 C 17.110 315.880 17.220 315.990 17.220 315.880 V 312.990 C 17.220 312.929 17.171 312.880 17.110 312.880 H 13.110 H 10.110 C 10.049 312.880 10.000 312.929 10.000 312.990 V 315.990 V 324.490 C 10.000 324.551 10.049 324.600 10.110 324.600 H 13.000 C 13.110 324.600 13.000 324.490 13.000 324.600 V 330.380 C 13.000 330.490 13.110 330.380 13.000 330.380 H 10.110 C 10.049 330.380 10.000 330.429 10.000 330.490 V 336.490 C 10.000 336.551 10.049 336.600 10.110 336.600 H 13.000 C 13.110 336.600 13.000 336.490 13.000 336.600 V 342.380 C 13.000 342.490 13.110 342.380 13.000 342.380 H 10.110 C 10.049 342.380 10.000 342.429 10.000 342.490 V 348.490 C 10.000 348.551 10.049 348.600 10.110 348.600 H 13.000 C 13.110 348.600 13.000 348.490 13.000 348.600 V 354.380 C 13.000 354.490 13.110 354.380 13.000 354.380 H 10.110 C 10.049 354.380 10.000 354.429 10.000 354.490 V 360.490 C 10.000 360.551 10.049 360.600 10.110 360.600 H 13.000 C 13.110 360.600 13.000 360.490 13.000 360.600 V 366.380 C 13.000 366.490 13.110 366.380 13.000 366.380 H 10.110 C 10.049 366.380 10.000 366.429 10.000 366.490 V 372.490 C 10.000 372.551 10.049 372.600 10.110 372.600 H 13.000 C 13.110 372.600 13.000 372.490 13.000 372.600 V 378.380 C 13.000 378.490 13.110 378.380 13.000 378.380 H 10.110 C 10.049 378.380 10.000 378.429 10.000 378.490 V 384.490 C 10.000 384.551 10.049 384.600 10.110 384.600 H 13.000 C 13.110 384.600 13.000 384.490 13.000 384.600 V 390.380 C 13.000 390.490 13.110 390.380 13.000 390.380 H 10.110 C 10.049 390.380 10.000 390.429 10.000 390.490 V 396.490 C 10.000 396.551 10.049 396.600 10.110 396.600 H 13.000 C 13.110 396.600 13.000 396.490 13.000 396.600 V 402.380 C 13.000 402.490 13.110 402.380 13.000 402.380 H 10.110 C 10.049 402.380 10.000 402.429 10.000 402.490 V 408.490 C 10.000 408.551 10.049 408.600 10.110 408.600 H 13.000 C 13.110 408.600 13.000 408.490 13.000 408.600 V 414.380 C 13.000 414.490 13.110 414.380 13.000 414.380 H 10.110 C 10.049 414.380 10.000 414.429 10.000 414.490 V 420.490 C 10.000 420.551 10.049 420.600 10.110 420.600 H 13.000 C 13.110 420.600 13.000 420.490 13.000 420.600 V 426.380 C 13.000 426.490 13.110 426.380 13.000 426.380 H 10.110 C 10.049 426.380 10.000 426.429 10.000 426.490 V 432.490 C 10.000 432.551 10.049 432.600 10.110 432.600 H 13.000 C 13.110 432.600 13.000 432.490 13.000 432.600 V 438.380 C 13.000 438.490 13.110 438.380 13.000 438.380 H 10.110 C 10.049 438.380 10.000 438.429 10.000 438.490 V 444.490 C 10.000 444.551 10.049 444.600 10.110 444.600 H 13.000 C 13.110 444.600 13.000 444.490 13.000 444.600 V 450.380 C 13.000 450.490 13.110 450.380 13.000 450.380 H 10.110 C 10.049 450.380 10.000 450.429 10.000 450.490 V 456.490 C 10.000 456.551 10.049 456.600 10.110 456.600 H 13.000 C 13.110 456.600 13.000 456.490 13.000 456.600 V 462.380 C 13.000 462.490 13.110 462.380 13.000 462.380 H 10.110 C 10.049 462.380 10.000 462.429 10.000 462.490 V 468.490 C 10.000 468.551 10.049 468.600 10.110 468.600 H 13.000 C 13.110 468.600 13.000 468.490 13.000 468.600 V 474.380 C 13.000 474.490 13.110 474.380 13.000 474.380 H 10.110 C 10.049 474.380 10.000 474.429 10.000 474.490 V 480.490 C 10.000 480.551 10.049 480.600 10.110 480.600 H 13.000 C 13.110 480.600 13.000 480.490 13.000 480.600 V 486.380 C 13.000 486.490 13.110 486.380 13.000 486.380 H 10.110 C 10.049 486.380 10.000 486.429 10.000 486.490 V 492.490 C 10.000 492.551 10.049 492.600 10.110 492.600 H 13.000 C 13.110 492.600 13.000 492.490 13.000 492.600 V 498.380 C 13.000 498.490 13.110 498.380 13.000 498.380 H 10.110 C 10.049 498.380 10.000 498.429 10.000 498.490 V 504.490 C 10.000 504.551 10.049 504.600 10.110 504.600 H 13.000 C 13.110 504.600 13.000 504.490 13.000 504.600 V 510.380 C 13.000 510.490 13.110 510.380 13.000 510.380 H 10.110 C 10.049 510.380 10.000 510.429 10.000 510.490 V 516.490 C 10.000 516.551 10.049 516.600 10.110 516.600 H 13.000 C 13.110 516.600 13.000 516.490 13.000 516.600 V 522.380 C 13.000 522.490 13.110 522.380 13.000 522.380 H 10.110 C 10.049 522.380 10.000 522.429 10.000 522.490 V 528.490 C 10.000 528.551 10.049 528.600 10.110 528.600 H 13.000 C 13.110 528.600 13.000 528.490 13.000 528.600 V 534.380 C 13.000 534.490 13.110 534.380 13.000 534.380 H 10.110 C 10.049 534.380 10.000 534.429 10.000 534.490 V 542.990 C 10.000 543.051 10.049 543.100 10.110 543.100 H 13.110" stroke="rgb(0,0,0)" stroke-width="0.22" />
</g>
<g id="p-1" style="fill:none;stroke-linecap:round;stroke-linejoin:round;">
  <text dominant-baseline="hanging" font-size="4px" style="font-family: sans-serif ; font-weight: normal; font-style: normal; fill: rgb(255,0,0)" text-anchor="middle" transform="matrix( 1.000 0.000 0.000 1.000 20.110 194.380 )">back</text><path d="M 13.110 311.380 H 17.110 C 17.171 311.380 17.220 311.331 17.220 311.270 V 308.380 C 17.220 308.270 17.110 308.380 17.220 308.380 H 23.000 C 23.110 308.380 23.000 308.270 23.000 308.380 V 311.270 C 23.000 311.331 23.049 311.380 23.110 311.380 H 27.110 H 30.110 C 30.171 311.380 30.220 311.331 30.220 311.270 V 302.770 C 30.220 302.709 30.171 302.660 30.110 302.660 H 27.220 C 27.110 302.660 27.220 302.770 27.220 302.660 V 296.880 C 27.220 296.770 27.110 296.880 27.220 296.880 H 30.110 C 30.171 296.880 30.220 296.831 30.220 296.770 V 290.770 C 30.220 290.709 30.171 290.660 30.110 290.660 H 27.220 C 27.110 290.660 27.220 290.770 27.220 290.660 V 284.880 C 27.220 284.770 27.110 284.880 27.220 284.880 H 30.110 C 30.171 284.880 30.220 284.831 30.220 284.770 V 278.770 C 30.220 278.709 30.171 278.660 30.110 278.660 H 27.220 C 27.110 278.660 27.220 278.770 27.220 278.660 V 272.880 C 27.220 272.770 27.110 272.880 27.220 272.880 H 30.110 C 30.171 272.880 30.220 272.831 30.220 272.770 V 266.770 C 30.220 266.709 30.171 266.660 30.110 266.660 H 27.220 C 27.110 266.660 27.220 266.770 27.220 266.660 V 260.880 C 27.220 260.770 27.110 260.880 27.220 260.880 H 30.110 C 30.171 260.880 30.220 260.831 30.220 260.770 V 254.770 C 30.220 254.709 30.171 254.660 30.110 254.660 H 27.220 C 27.110 254.660 27.220 254.770 27.220 254.660 V 248.880 C 27.220 248.770 27.110 248.880 27.220 248.880 H 30.110 C 30.171 248.880 30.220 248.831 30.220 248.770 V 242.770 C 30.220 242.709 30.171 242.660 30.110 242.660 H 27.220 C 27.110 242.660 27.220 242.770 27.220 242.660 V 236.880 C 27.220 236.770 27.110 236.880 27.220 236.880 H 30.110 C 30.171 236.880 30.220 236.831 30.220 236.770 V 230.770 C 30.220 230.709 30.171 230.660 30.110 230.660 H 27.220 C 27.110 230.660 27.220 230.770 27.220 230.660 V 224.880 C 27.220 224.770 27.110 224.880 27.220 224.880 H 30.110 C 30.171 224.880 30.220 224.831 30.220 224.770 V 218.770 C 30.220 218.709 30.171 218.660 30.110 218.660 H 27.220 C 27.110 218.660 27.220 218.770 27.220 218.660 V 212.880 C 27.220 212.770 27.110 212.880 27.220 212.880 H 30.110 C 30.171 212.880 30.220 212.831 30.220 212.770 V 206.770 C 30.220 206.709 30.171 206.660 30.110 206.660 H 27.220 C 27.110 206.660 27.220 206.770 27.220 206.660 V 200.880 C 27.220 200.770 27.110 200.880 27.220 200.880 H 30.110 C 30.171 200.880 30.220 200.831 30.220 200.770 V 194.770 C 30.220 194.709 30.171 194.660 30.110 194.660 H 27.220 C 27.110 194.660 27.220 194.770 27.220 194.660 V 188.880 C 27.220 188.770 27.110 188.880 27.220 188.880 H 30.110 C 30.171 188.880 30.220 188.831 30.220 188.770 V 182.770 C 30.220 182.709 30.171 182.660 30.110 182.660 H 27.220 C 27.110 182.660 27.220 182.770 27.220 182.660 V 176.880 C 27.220 176.770 27.110 176.880 27.220 176.880 H 30.110 C 30.171 176.880 30.220 176.831 30.220 176.770 V 170.770 C 30.220 170.709 30.171 170.660 30.110 170.660 H 27.220 C 27.110 170.660 27.220 170.770 27.220 170.660 V 164.880 C 27.220 164.770 27.110 164.880 27.220 164.880 H 30.110 C 30.171 164.880 30.220 164.831 30.220 164.770 V 158.770 C 30.220 158.709 30.171 158.660 30.110 158.660 H 27.220 C 27.110 158.660 27.220 158.770 27.220 158.660 V 152.880 C 27.220 152.770 27.110 152.880 27.220 152.880 H 30.110 C 30.171 152.880 30.220 152.831 30.220 152.770 V 146.770 C 30.220 146.709 30.171 146.660 30.110 146.660 H 27.220 C 27.110 146.660 27.220 146.770 27.220 146.660 V 140.880 C 27.220 140.770 27.110 140.880 27.220 140.880 H 30.110 C 30.171 140.880 30.220 140.831 30.220 140.770 V 134.770 C 30.220 134.709 30.171 134.660 30.110 134.660 H 27.220 C 27.110 134.660 27.220 134.770 27.220 134.660 V 128.880 C 27.220 128.770 27.110 128.880 27.220 128.880 H 30.110 C 30.171 128.880 30.220 128.831 30.220 128.770 V 122.770 C 30.220 122.709 30.171 122.660 30.110 122.660 H 27.220 C 27.110 122.660 27.220 122.770 27.220 122.660 V 116.880 C 27.220 116.770 27.110 116.880 27.220 116.880 H 30.110 C 30.171 116.880 30.220 116.831 30.220 116.770 V 110.770 C 30.220 110.709 30.171 110.660 30.110 110.660 H 27.220 C 27.110 110.660 27.220 110.770 27.220 110.660 V 104.880 C 27.220 104.770 27.110 104.880 27.220 104.880 H 30.110 C 30.171 104.880 30.220 104.831 30.220 104.770 V 98.770 C 30.220 98.709 30.171 98.660 30.110 98.660 H 27.220 C 27.110 98.660 27.220 98.770 27.220 98.660 V 92.880 C 27.220 92.770 27.110 92.880 27.220 92.880 H 30.110 C 30.171 92.880 30.220 92.831 30.220 92.770 V 84.270 V 81.270 C 30.220 81.209 30.171 81.160 30.110 81.160 H 27.110 H 23.110 C 23.049 81.160 23.000 81.209 23.000 81.270 V 84.160 C 23.000 84.270 23.110 84.160 23.000 84.160 H 17.220 C 17.110 84.160 17.220 84.270 17.220 84.160 V 81.270 C 17.220 81.209 17.171 81.160 17.110 81.160 H 13.110 H 10.110 C 10.049 81.160 10.000 81.209 10.000 81.270 V 84.270 V 92.770 C 10.000 92.831 10.049 92.880 10.110 92.880 H 13.000 C 13.110 92.880 13.000 92.770 13.000 92.880 V 98.660 C 13.000 98.770 13.110 98.660 13.000 98.660 H 10.110 C 10.049 98.660 10.000 98.709 10.000 98.770 V 104.770 C 10.000 104.831 10.049 104.880 10.110 104.880 H 13.000 C 13.110 104.880 13.000 104.770 13.000 104.880 V 110.660 C 13.000 110.770 13.110 110.660 13.000 110.660 H 10.110 C 10.049 110.660 10.000 110.709 10.000 110.770 V 116.770 C 10.000 116.831 10.049 116.880 10.110 116.880 H 13.000 C 13.110 116.880 13.000 116.770 13.000 116.880 V 122.660 C 13.000 122.770 13.110 122.660 13.000 122.660 H 10.110 C 10.049 122.660 10.000 122.709 10.000 122.770 V 128.770 C 10.000 128.831 10.049 128.880 10.110 128.880 H 13.000 C 13.110 128.880 13.000 128.770 13.000 128.880 V 134.660 C 13.000 134.770 13.110 134.660 13.000 134.660 H 10.110 C 10.049 134.660 10.000 134.709 10.000 134.770 V 140.770 C 10.000 140.831 10.049 140.880 10.110 140.880 H 13.000 C 13.110 140.880 13.000 140.770 13.000 140.880 V 146.660 C 13.000 146.770 13.110 146.660 13.000 146.660 H 10.110 C 10.049 146.660 10.000 146.709 10.000 146.770 V 152.770 C 10.000 152.831 10.049 152.880 10.110 152.880 H 13.000 C 13.110 152.880 13.000 152.770 13.000 152.880 V 158.660 C 13.000 158.770 13.110 158.660 13.000 158.660 H 10.110 C 10.049 158.660 10.000 158.709 10.000 158.770 V 164.770 C 10.000 164.831 10.049 164.880 10.110 164.880 H 13.000 C 13.110 164.880 13.000 164.770 13.000 164.880 V 170.660 C 13.000 170.770 13.110 170.660 13.000 170.660 H 10.110 C 10.049 170.660 10.000 170.709 10.000 170.770 V 176.770 C 10.000 176.831 10.049 176.880 10.110 176.880 H 13.000 C 13.110 176.880 13.000 176.770 13.000 176.880 V 182.660 C 13.000 182.770 13.110 182.660 13.000 182.660 H 10.110 C 10.049 182.660 10.000 182.709 10.000 182.770 V 188.770 C 10.000 188.831 10.049 188.880 10.110 188.880 H 13.000 C 13.110 188.880 13.000 188.770 13.000 188.880 V 194.660 C 13.000 194.770 13.110 194.660 13.000 194.660 H 10.110 C 10.049 194.660 10.000 194.709 10.000 194.770 V 200.770 C 10.000 200.831 10.049 200.880 10.110 200.880 H 13.000 C 13.110 200.880 13.000 200.770 13.000 200.880 V 206.660 C 13.000 206.770 13.110 206.660 13.000 206.660 H 10.110 C 10.049 206.660 10.000 206.709 10.000 206.770 V 212.770 C 10.000 212.831 10.049 212.880 10.110 212.880 H 13.000 C 13.110 212.880 13.000 212.770 13.000 212.880 V 218.660 C 13.000 218.770 13.110 218.660 13.000 218.660 H 10.110 C 10.049 218.660 10.000 218.709 10.000 218.770 V 224.770 C 10.000 224.831 10.049 224.880 10.110 224.880 H 13.000 C 13.110 224.880 13.000 224.770 13.000 224.880 V 230.660 C 13.000 230.770 13.110 230.660 13.000 230.660 H 10.110 C 10.049 230.660 10.000 230.709 10.000 230.770 V 236.770 C 10.000 236.831 10.049 236.880 10.110 236.880 H 13.000 C 13.110 236.880 13.000 236.770 13.000 236.880 V 242.660 C 13.000 242.770 13.110 242.660 13.000 242.660 H 10.110 C 10.049 242.660 10.000 242.709 10.000 242.770 V 248.770 C 10.000 248.831 10.049 248.880 10.110 248.880 H 13.000 C 13.110 248.880 13.000 248.770 13.000 248.880 V 254.660 C 13.000 254.770 13.110 254.660 13.000 254.660 H 10.110 C 10.049 254.660 10.000 254.709 10.000 254.770 V 260.770 C 10.000 260.831 10.049 260.880 10.110 260.880 H 13.000 C 13.110 260.880 13.000 260.770 13.000 260.880 V 266.660 C 13.000 266.770 13.110 266.660 13.000 266.660 H 10.110 C 10.049 266.660 10.000 266.709 10.000 266.770 V 272.770 C 10.000 272.831 10.049 272.880 10.110 272.880 H 13.000 C 13.110 272.880 13.000 272.770 13.000 272.880 V 278.660 C 13.000 278.770 13.110 278.660 13.000 278.660 H 10.110 C 10.049 278.660 10.000 278.709 10.000 278.770 V 284.770 C 10.000 284.831 10.049 284.880 10.110 284.880 H 13.000 C 13.110 284.880 13.000 284.770 13.000 284.880 V 290.660 C 13.000 290.770 13.110 290.660 13.000 290.660 H 10.110 C 10.049 290.660 10.000 290.709 10.000 290.770 V 296.770 C 10.000 296.831 10.049 296.880 10.110 296.880 H 13.000 C 13.110 296.880 13.000 296.770 13.000 296.880 V 302.660 C 13.000 302.770 13.110 302.660 13.000 302.660 H 10.110 C 10.049 302.660 10.000 302.709 10.000 302.770 V 311.270 C 10.000 311.331 10.049 311.380 10.110 311.380 H 13.110" stroke="rgb(0,0,0)" stroke-width="0.22" />
</g>
<g id="p-2" style="fill:none;stroke-linecap:round;stroke-linejoin:round;">
  <text dominant-baseline="hanging" font-size="4px" style="font-family: sans-serif ; font-weight: normal; font-style: normal; fill: rgb(255,0,0)" text-anchor="middle" transform="matrix( 1.000 0.000 0.000 1.000 20.110 67.660 )">bottom</text><path d="M 13.110 76.660 H 17.000 C 17.110 76.660 17.000 76.550 17.000 76.660 V 79.550 C 17.000 79.611 17.049 79.660 17.110 79.660 H 23.110 C 23.171 79.660 23.220 79.611 23.220 79.550 V 76.660 C 23.220 76.550 23.110 76.660 23.220 76.660 H 27.110 C 27.171 76.660 27.220 76.611 27.220 76.550 V 72.660 C 27.220 72.550 27.110 72.660 27.220 72.660 H 30.110 C 30.171 72.660 30.220 72.611 30.220 72.550 V 66.550 C 30.220 66.489 30.171 66.440 30.110 66.440 H 27.220 C 27.110 66.440 27.220 66.550 27.220 66.440 V 62.550 C 27.220 62.489 27.171 62.440 27.110 62.440 H 23.220 C 23.110 62.440 23.220 62.550 23.220 62.440 V 59.550 C 23.220 59.489 23.171 59.440 23.110 59.440 H 17.110 C 17.049 59.440 17.000 59.489 17.000 59.550 V 62.440 C 17.000 62.550 17.110 62.440 17.000 62.440 H 13.110 C 13.049 62.440 13.000 62.489 13.000 62.550 V 66.440 C 13.000 66.550 13.110 66.440 13.000 66.440 H 10.110 C 10.049 66.440 10.000 66.489 10.000 66.550 V 72.550 C 10.000 72.611 10.049 72.660 10.110 72.660 H 13.000 C 13.110 72.660 13.000 72.550 13.000 72.660 V 76.550 C 13.000 76.611 13.049 76.660 13.110 76.660" stroke="rgb(0,0,0)" stroke-width="0.22" />
</g>
<g id="p-3" style="fill:none;stroke-linecap:round;stroke-linejoin:round;">
  <text dominant-baseline="hanging" font-size="4px" style="font-family: sans-serif ; font-weight: normal; font-style: normal; fill: rgb(255,0,0)" text-anchor="middle" transform="matrix( 1.000 0.000 0.000 1.000 23.110 42.940 )">top hole</text><path d="M 13.220 51.830 V 47.940 C 13.220 47.830 13.110 47.940 13.220 47.940 H 16.110 C 16.171 47.940 16.220 47.891 16.220 47.830 V 41.830 C 16.220 41.769 16.171 41.720 16.110 41.720 H 13.220 C 13.110 41.720 13.220 41.830 13.220 41.720 V 37.830 V 34.940 C 13.220 34.830 13.110 34.940 13.220 34.940 H 16.110 H 20.000 C 20.110 34.940 20.000 34.830 20.000 34.940 V 37.830 C 20.000 37.891 20.049 37.940 20.110 37.940 H 26.110 C 26.171 37.940 26.220 37.891 26.220 37.830 V 34.940 C 26.220 34.830 26.110 34.940 26.220 34.940 H 30.110 H 33.000 C 33.110 34.940 33.000 34.830 33.000 34.940 V 37.830 V 41.720 C 33.000 41.830 33.110 41.720 33.000 41.720 H 30.110 C 30.049 41.720 30.000 41.769 30.000 41.830 V 47.830 C 30.000 47.891 30.049 47.940 30.110 47.940 H 33.000 C 33.110 47.940 33.000 47.830 33.000 47.940 V 51.830 V 54.720 C 33.000 54.830 33.110 54.720 33.000 54.720 H 30.110 H 26.220 C 26.110 54.720 26.220 54.830 26.220 54.720 V 51.830 C 26.220 51.769 26.171 51.720 26.110 51.720 H 20.110 C 20.049 51.720 20.000 51.769 20.000 51.830 V 54.720 C 20.000 54.830 20.110 54.720 20.000 54.720 H 16.110 H 13.220 C 13.110 54.720 13.220 54.830 13.220 54.720 V 51.830 Z M 10.110 57.940 H 36.110 C 36.171 57.940 36.220 57.891 36.220 57.830 V 31.830 C 36.220 31.769 36.171 31.720 36.110 31.720 H 10.110 C 10.049 31.720 10.000 31.769 10.000 31.830 V 57.830 C 10.000 57.891 10.049 57.940 10.110 57.940" stroke="rgb(255,0,255)" stroke-width="0.22" />
</g>
<g id="p-4" style="fill:none;stroke-linecap:round;stroke-linejoin:round;">
  <text dominant-baseline="hanging" font-size="4px" style="font-family: sans-serif ; font-weight: normal; font-style: normal; fill: rgb(255,0,0)" text-anchor="middle" transform="matrix( 1.000 0.000 0.000 1.000 20.110 18.220 )">top</text><path d="M 13.110 27.220 H 17.000 C 17.110 27.220 17.000 27.110 17.000 27.220 V 30.110 C 17.000 30.171 17.049 30.220 17.110 30.220 H 23.110 C 23.171 30.220 23.220 30.171 23.220 30.110 V 27.220 C 23.220 27.110 23.110 27.220 23.220 27.220 H 27.110 C 27.171 27.220 27.220 27.171 27.220 27.110 V 23.220 C 27.220 23.110 27.110 23.220 27.220 23.220 H 30.110 C 30.171 23.220 30.220 23.171 30.220 23.110 V 17.110 C 30.220 17.049 30.171 17.000 30.110 17.000 H 27.220 C 27.110 17.000 27.220 17.110 27.220 17.000 V 13.110 C 27.220 13.049 27.171 13.000 27.110 13.000 H 23.220 C 23.110 13.000 23.220 13.110 23.220 13.000 V 10.110 C 23.220 10.049 23.171 10.000 23.110 10.000 H 17.110 C 17.049 10.000 17.000 10.049 17.000 10.110 V 13.000 C 17.000 13.110 17.110 13.000 17.000 13.000 H 13.110 C 13.049 13.000 13.000 13.049 13.000 13.110 V 17.000 C 13.000 17.110 13.110 17.000 13.000 17.000 H 10.110 C 10.049 17.000 10.000 17.049 10.000 17.110 V 23.110 C 10.000 23.171 10.049 23.220 10.110 23.220 H 13.000 C 13.110 23.220 13.000 23.110 13.000 23.220 V 27.110 C 13.000 27.171 13.049 27.220 13.110 27.220" stroke="rgb(0,0,0)" stroke-width="0.22" />
</g>
<g id="p-5" style="fill:none;stroke-linecap:round;stroke-linejoin:round;">
  <text dominant-baseline="hanging" font-size="4px" style="font-family: sans-serif ; font-weight: normal; font-style: normal; fill: rgb(255,0,0)" text-anchor="middle" transform="matrix( 1.000 0.000 0.000 1.000 41.830 426.100 )">left</text><path d="M 34.830 543.100 H 38.830 C 38.891 543.100 38.940 543.051 38.940 542.990 V 540.100 C 38.940 539.990 38.830 540.100 38.940 540.100 H 44.720 C 44.830 540.100 44.720 539.990 44.720 540.100 V 542.990 C 44.720 543.051 44.769 543.100 44.830 543.100 H 48.830 C 48.891 543.100 48.940 543.051 48.940 542.990 V 534.600 C 48.940 534.490 48.830 534.600 48.940 534.600 H 51.830 C 51.891 534.600 51.940 534.551 51.940 534.490 V 528.490 C 51.940 528.429 51.891 528.380 51.830 528.380 H 48.940 C 48.830 528.380 48.940 528.490 48.940 528.380 V 522.600 C 48.940 522.490 48.830 522.600 48.940 522.600 H 51.830 C 51.891 522.600 51.940 522.551 51.940 522.490 V 516.490 C 51.940 516.429 51.891 516.380 51.830 516.380 H 48.940 C 48.830 516.380 48.940 516.490 48.940 516.380 V 510.600 C 48.940 510.490 48.830 510.600 48.940 510.600 H 51.830 C 51.891 510.600 51.940 510.551 51.940 510.490 V 504.490 C 51.940 504.429 51.891 504.380 51.830 504.380 H 48.940 C 48.830 504.380 48.940 504.490 48.940 504.380 V 498.600 C 48.940 498.490 48.830 498.600 48.940 498.600 H 51.830 C 51.891 498.600 51.940 498.551 51.940 498.490 V 492.490 C 51.940 492.429 51.891 492.380 51.830 492.380 H 48.940 C 48.830 492.380 48.940 492.490 48.940 492.380 V 486.600 C 48.940 486.490 48.830 486.600 48.940 486.600 H 51.830 C 51.891 486.600 51.940 486.551 51.940 486.490 V 480.490 C 51.940 480.429 51.891 480.380 51.830 480.380 H 48.940 C 48.830 480.380 48.940 480.490 48.940 480.380 V 474.600 C 48.940 474.490 48.830 474.600 48.940 474.600 H 51.830 C 51.891 474.600 51.940 474.551 51.940 474.490 V 468.490 C 51.940 468.429 51.891 468.380 51.830 468.380 H 48.940 C 48.830 468.380 48.940 468.490 48.940 468.380 V 462.600 C 48.940 462.490 48.830 462.600 48.940 462.600 H 51.830 C 51.891 462.600 51.940 462.551 51.940 462.490 V 456.490 C 51.940 456.429 51.891 456.380 51.830 456.380 H 48.940 C 48.830 456.380 48.940 456.490 48.940 456.380 V 450.600 C 48.940 450.490 48.830 450.600 48.940 450.600 H 51.830 C 51.891 450.600 51.940 450.551 51.940 450.490 V 444.490 C 51.940 444.429 51.891 444.380 51.830 444.380 H 48.940 C 48.830 444.380 48.940 444.490 48.940 444.380 V 438.600 C 48.940 438.490 48.830 438.600 48.940 438.600 H 51.830 C 51.891 438.600 51.940 438.551 51.940 438.490 V 432.490 C 51.940 432.429 51.891 432.380 51.830 432.380 H 48.940 C 48.830 432.380 48.940 432.490 48.940 432.380 V 426.600 C 48.940 426.490 48.830 426.600 48.940 426.600 H 51.830 C 51.891 426.600 51.940 426.551 51.940 426.490 V 420.490 C 51.940 420.429 51.891 420.380 51.830 420.380 H 48.940 C 48.830 420.380 48.940 420.490 48.940 420.380 V 414.600 C 48.940 414.490 48.830 414.600 48.940 414.600 H 51.830 C 51.891 414.600 51.940 414.551 51.940 414.490 V 408.490 C 51.940 408.429 51.891 408.380 51.830 408.380 H 48.940 C 48.830 408.380 48.940 408.490 48.940 408.380 V 402.600 C 48.940 402.490 48.830 402.600 48.940 402.600 H 51.830 C 51.891 402.600 51.940 402.551 51.940 402.490 V 396.490 C 51.940 396.429 51.891 396.380 51.830 396.380 H 48.940 C 48.830 396.380 48.940 396.490 48.940 396.380 V 390.600 C 48.940 390.490 48.830 390.600 48.940 390.600 H 51.830 C 51.891 390.600 51.940 390.551 51.940 390.490 V 384.490 C 51.940 384.429 51.891 384.380 51.830 384.380 H 48.940 C 48.830 384.380 48.940 384.490 48.940 384.380 V 378.600 C 48.940 378.490 48.830 378.600 48.940 378.600 H 51.830 C 51.891 378.600 51.940 378.551 51.940 378.490 V 372.490 C 51.940 372.429 51.891 372.380 51.830 372.380 H 48.940 C 48.830 372.380 48.940 372.490 48.940 372.380 V 366.600 C 48.940 366.490 48.830 366.600 48.940 366.600 H 51.830 C 51.891 366.600 51.940 366.551 51.940 366.490 V 360.490 C 51.940 360.429 51.891 360.380 51.830 360.380 H 48.940 C 48.830 360.380 48.940 360.490 48.940 360.380 V 354.600 C 48.940 354.490 48.830 354.600 48.940 354.600 H 51.830 C 51.891 354.600 51.940 354.551 51.940 354.490 V 348.490 C 51.940 348.429 51.891 348.380 51.830 348.380 H 48.940 C 48.830 348.380 48.940 348.490 48.940 348.380 V 342.600 C 48.940 342.490 48.830 342.600 48.940 342.600 H 51.830 C 51.891 342.600 51.940 342.551 51.940 342.490 V 336.490 C 51.940 336.429 51.891 336.380 51.830 336.380 H 48.940 C 48.830 336.380 48.940 336.490 48.940 336.380 V 330.600 C 48.940 330.490 48.830 330.600 48.940 330.600 H 51.830 C 51.891 330.600 51.940 330.551 51.940 330.490 V 324.490 C 51.940 324.429 51.891 324.380 51.830 324.380 H 48.940 C 48.830 324.380 48.940 324.490 48.940 324.380 V 315.990 V 312.990 C 48.940 312.929 48.891 312.880 48.830 312.880 H 44.830 C 44.769 312.880 44.720 312.929 44.720 312.990 V 315.880 C 44.720 315.990 44.830 315.880 44.720 315.880 H 38.940 C 38.830 315.880 38.940 315.990 38.940 315.880 V 312.990 C 38.940 312.929 38.891 312.880 38.830 312.880 H 34.830 C 34.769 312.880 34.720 312.929 34.720 312.990 V 315.990 V 324.380 C 34.720 324.490 34.830 324.380 34.720 324.380 H 31.830 C 31.769 324.380 31.720 324.429 31.720 324.490 V 330.490 C 31.720 330.551 31.769 330.600 31.830 330.600 H 34.720 C 34.830 330.600 34.720 330.490 34.720 330.600 V 336.380 C 34.720 336.490 34.830 336.380 34.720 336.380 H 31.830 C 31.769 336.380 31.720 336.429 31.720 336.490 V 342.490 C 31.720 342.551 31.769 342.600 31.830 342.600 H 34.720 C 34.830 342.600 34.720 342.490 34.720 342.600 V 348.380 C 34.720 348.490 34.830 348.380 34.720 348.380 H 31.830 C 31.769 348.380 31.720 348.429 31.720 348.490 V 354.490 C 31.720 354.551 31.769 354.600 31.830 354.600 H 34.720 C 34.830 354.600 34.720 354.490 34.720 354.600 V 360.380 C 34.720 360.490 34.830 360.380 34.720 360.380 H 31.830 C 31.769 360.380 31.720 360.429 31.720 360.490 V 366.490 C 31.720 366.551 31.769 366.600 31.830 366.600 H 34.720 C 34.830 366.600 34.720 366.490 34.720 366.600 V 372.380 C 34.720 372.490 34.830 372.380 34.720 372.380 H 31.830 C 31.769 372.380 31.720 372.429 31.720 372.490 V 378.490 C 31.720 378.551 31.769 378.600 31.830 378.600 H 34.720 C 34.830 378.600 34.720 378.490 34.720 378.600 V 384.380 C 34.720 384.490 34.830 384.380 34.720 384.380 H 31.830 C 31.769 384.380 31.720 384.429 31.720 384.490 V 390.490 C 31.720 390.551 31.769 390.600 31.830 390.600 H 34.720 C 34.830 390.600 34.720 390.490 34.720 390.600 V 396.380 C 34.720 396.490 34.830 396.380 34.720 396.380 H 31.830 C 31.769 396.380 31.720 396.429 31.720 396.490 V 402.490 C 31.720 402.551 31.769 402.600 31.830 402.600 H 34.720 C 34.830 402.600 34.720 402.490 34.720 402.600 V 408.380 C 34.720 408.490 34.830 408.380 34.720 408.380 H 31.830 C 31.769 408.380 31.720 408.429 31.720 408.490 V 414.490 C 31.720 414.551 31.769 414.600 31.830 414.600 H 34.720 C 34.830 414.600 34.720 414.490 34.720 414.600 V 420.380 C 34.720 420.490 34.830 420.380 34.720 420.380 H 31.830 C 31.769 420.380 31.720 420.429 31.720 420.490 V 426.490 C 31.720 426.551 31.769 426.600 31.830 426.600 H 34.720 C 34.830 426.600 34.720 426.490 34.720 426.600 V 432.380 C 34.720 432.490 34.830 432.380 34.720 432.380 H 31.830 C 31.769 432.380 31.720 432.429 31.720 432.490 V 438.490 C 31.720 438.551 31.769 438.600 31.830 438.600 H 34.720 C 34.830 438.600 34.720 438.490 34.720 438.600 V 444.380 C 34.720 444.490 34.830 444.380 34.720 444.380 H 31.830 C 31.769 444.380 31.720 444.429 31.720 444.490 V 450.490 C 31.720 450.551 31.769 450.600 31.830 450.600 H 34.720 C 34.830 450.600 34.720 450.490 34.720 450.600 V 456.380 C 34.720 456.490 34.830 456.380 34.720 456.380 H 31.830 C 31.769 456.380 31.720 456.429 31.720 456.490 V 462.490 C 31.720 462.551 31.769 462.600 31.830 462.600 H 34.720 C 34.830 462.600 34.720 462.490 34.720 462.600 V 468.380 C 34.720 468.490 34.830 468.380 34.720 468.380 H 31.830 C 31.769 468.380 31.720 468.429 31.720 468.490 V 474.490 C 31.720 474.551 31.769 474.600 31.830 474.600 H 34.720 C 34.830 474.600 34.720 474.490 34.720 474.600 V 480.380 C 34.720 480.490 34.830 480.380 34.720 480.380 H 31.830 C 31.769 480.380 31.720 480.429 31.720 480.490 V 486.490 C 31.720 486.551 31.769 486.600 31.830 486.600 H 34.720 C 34.830 486.600 34.720 486.490 34.720 486.600 V 492.380 C 34.720 492.490 34.830 492.380 34.720 492.380 H 31.830 C 31.769 492.380 31.720 492.429 31.720 492.490 V 498.490 C 31.720 498.551 31.769 498.600 31.830 498.600 H 34.720 C 34.830 498.600 34.720 498.490 34.720 498.600 V 504.380 C 34.720 504.490 34.830 504.380 34.720 504.380 H 31.830 C 31.769 504.380 31.720 504.429 31.720 504.490 V 510.490 C 31.720 510.551 31.769 510.600 31.830 510.600 H 34.720 C 34.830 510.600 34.720 510.490 34.720 510.600 V 516.380 C 34.720 516.490 34.830 516.380 34.720 516.380 H 31.830 C 31.769 516.380 31.720 516.429 31.720 516.490 V 522.490 C 31.720 522.551 31.769 522.600 31.830 522.600 H 34.720 C 34.830 522.600 34.720 522.490 34.720 522.600 V 528.380 C 34.720 528.490 34.830 528.380 34.720 528.380 H 31.830 C 31.769 528.380 31.720 528.429 31.720 528.490 V 534.490 C 31.720 534.551 31.769 534.600 31.830 534.600 H 34.720 C 34.830 534.600 34.720 534.490 34.720 534.600 V 542.990 C 34.720 543.051 34.769 543.100 34.830 543.100" stroke="rgb(0,0,0)" stroke-width="0.22" />
</g>
<g id="p-6" style="fill:none;stroke-linecap:round;stroke-linejoin:round;">
  <text dominant-baseline="hanging" font-size="4px" style="font-family: sans-serif ; font-weight: normal; font-style: normal; fill: rgb(255,0,0)" text-anchor="middle" transform="matrix( 1.000 0.000 0.000 1.000 41.830 194.380 )">right</text><path d="M 34.830 311.380 H 38.830 C 38.891 311.380 38.940 311.331 38.940 311.270 V 308.380 C 38.940 308.270 38.830 308.380 38.940 308.380 H 44.720 C 44.830 308.380 44.720 308.270 44.720 308.380 V 311.270 C 44.720 311.331 44.769 311.380 44.830 311.380 H 48.830 C 48.891 311.380 48.940 311.331 48.940 311.270 V 302.880 C 48.940 302.770 48.830 302.880 48.940 302.880 H 51.830 C 51.891 302.880 51.940 302.831 51.940 302.770 V 296.770 C 51.940 296.709 51.891 296.660 51.830 296.660 H 48.940 C 48.830 296.660 48.940 296.770 48.940 296.660 V 290.880 C 48.940 290.770 48.830 290.880 48.940 290.880 H 51.830 C 51.891 290.880 51.940 290.831 51.940 290.770 V 284.770 C 51.940 284.709 51.891 284.660 51.830 284.660 H 48.940 C 48.830 284.660 48.940 284.770 48.940 284.660 V 278.880 C 48.940 278.770 48.830 278.880 48.940 278.880 H 51.830 C 51.891 278.880 51.940 278.831 51.940 278.770 V 272.770 C 51.940 272.709 51.891 272.660 51.830 272.660 H 48.940 C 48.830 272.660 48.940 272.770 48.940 272.660 V 266.880 C 48.940 266.770 48.830 266.880 48.940 266.880 H 51.830 C 51.891 266.880 51.940 266.831 51.940 266.770 V 260.770 C 51.940 260.709 51.891 260.660 51.830 260.660 H 48.940 C 48.830 260.660 48.940 260.770 48.940 260.660 V 254.880 C 48.940 254.770 48.830 254.880 48.940 254.880 H 51.830 C 51.891 254.880 51.940 254.831 51.940 254.770 V 248.770 C 51.940 248.709 51.891 248.660 51.830 248.660 H 48.940 C 48.830 248.660 48.940 248.770 48.940 248.660 V 242.880 C 48.940 242.770 48.830 242.880 48.940 242.880 H 51.830 C 51.891 242.880 51.940 242.831 51.940 242.770 V 236.770 C 51.940 236.709 51.891 236.660 51.830 236.660 H 48.940 C 48.830 236.660 48.940 236.770 48.940 236.660 V 230.880 C 48.940 230.770 48.830 230.880 48.940 230.880 H 51.830 C 51.891 230.880 51.940 230.831 51.940 230.770 V 224.770 C 51.940 224.709 51.891 224.660 51.830 224.660 H 48.940 C 48.830 224.660 48.940 224.770 48.940 224.660 V 218.880 C 48.940 218.770 48.830 218.880 48.940 218.880 H 51.830 C 51.891 218.880 51.940 218.831 51.940 218.770 V 212.770 C 51.940 212.709 51.891 212.660 51.830 212.660 H 48.940 C 48.830 212.660 48.940 212.770 48.940 212.660 V 206.880 C 48.940 206.770 48.830 206.880 48.940 206.880 H 51.830 C 51.891 206.880 51.940 206.831 51.940 206.770 V 200.770 C 51.940 200.709 51.891 200.660 51.830 200.660 H 48.940 C 48.830 200.660 48.940 200.770 48.940 200.660 V 194.880 C 48.940 194.770 48.830 194.880 48.940 194.880 H 51.830 C 51.891 194.880 51.940 194.831 51.940 194.770 V 188.770 C 51.940 188.709 51.891 188.660 51.830 188.660 H 48.940 C 48.830 188.660 48.940 188.770 48.940 188.660 V 182.880 C 48.940 182.770 48.830 182.880 48.940 182.880 H 51.830 C 51.891 182.880 51.940 182.831 51.940 182.770 V 176.770 C 51.940 176.709 51.891 176.660 51.830 176.660 H 48.940 C 48.830 176.660 48.940 176.770 48.940 176.660 V 170.880 C 48.940 170.770 48.830 170.880 48.940 170.880 H 51.830 C 51.891 170.880 51.940 170.831 51.940 170.770 V 164.770 C 51.940 164.709 51.891 164.660 51.830 164.660 H 48.940 C 48.830 164.660 48.940 164.770 48.940 164.660 V 158.880 C 48.940 158.770 48.830 158.880 48.940 158.880 H 51.830 C 51.891 158.880 51.940 158.831 51.940 158.770 V 152.770 C 51.940 152.709 51.891 152.660 51.830 152.660 H 48.940 C 48.830 152.660 48.940 152.770 48.940 152.660 V 146.880 C 48.940 146.770 48.830 146.880 48.940 146.880 H 51.830 C 51.891 146.880 51.940 146.831 51.940 146.770 V 140.770 C 51.940 140.709 51.891 140.660 51.830 140.660 H 48.940 C 48.830 140.660 48.940 140.770 48.940 140.660 V 134.880 C 48.940 134.770 48.830 134.880 48.940 134.880 H 51.830 C 51.891 134.880 51.940 134.831 51.940 134.770 V 128.770 C 51.940 128.709 51.891 128.660 51.830 128.660 H 48.940 C 48.830 128.660 48.940 128.770 48.940 128.660 V 122.880 C 48.940 122.770 48.830 122.880 48.940 122.880 H 51.830 C 51.891 122.880 51.940 122.831 51.940 122.770 V 116.770 C 51.940 116.709 51.891 116.660 51.830 116.660 H 48.940 C 48.830 116.660 48.940 116.770 48.940 116.660 V 110.880 C 48.940 110.770 48.830 110.880 48.940 110.880 H 51.830 C 51.891 110.880 51.940 110.831 51.940 110.770 V 104.770 C 51.940 104.709 51.891 104.660 51.830 104.660 H 48.940 C 48.830 104.660 48.940 104.770 48.940 104.660 V 98.880 C 48.940 98.770 48.830 98.880 48.940 98.880 H 51.830 C 51.891 98.880 51.940 98.831 51.940 98.770 V 92.770 C 51.940 92.709 51.891 92.660 51.830 92.660 H 48.940 C 48.830 92.660 48.940 92.770 48.940 92.660 V 84.270 V 81.270 C 48.940 81.209 48.891 81.160 48.830 81.160 H 44.830 C 44.769 81.160 44.720 81.209 44.720 81.270 V 84.160 C 44.720 84.270 44.830 84.160 44.720 84.160 H 38.940 C 38.830 84.160 38.940 84.270 38.940 84.160 V 81.270 C 38.940 81.209 38.891 81.160 38.830 81.160 H 34.830 C 34.769 81.160 34.720 81.209 34.720 81.270 V 84.270 V 92.660 C 34.720 92.770 34.830 92.660 34.720 92.660 H 31.830 C 31.769 92.660 31.720 92.709 31.720 92.770 V 98.770 C 31.720 98.831 31.769 98.880 31.830 98.880 H 34.720 C 34.830 98.880 34.720 98.770 34.720 98.880 V 104.660 C 34.720 104.770 34.830 104.660 34.720 104.660 H 31.830 C 31.769 104.660 31.720 104.709 31.720 104.770 V 110.770 C 31.720 110.831 31.769 110.880 31.830 110.880 H 34.720 C 34.830 110.880 34.720 110.770 34.720 110.880 V 116.660 C 34.720 116.770 34.830 116.660 34.720 116.660 H 31.830 C 31.769 116.660 31.720 116.709 31.720 116.770 V 122.770 C 31.720 122.831 31.769 122.880 31.830 122.880 H 34.720 C 34.830 122.880 34.720 122.770 34.720 122.880 V 128.660 C 34.720 128.770 34.830 128.660 34.720 128.660 H 31.830 C 31.769 128.660 31.720 128.709 31.720 128.770 V 134.770 C 31.720 134.831 31.769 134.880 31.830 134.880 H 34.720 C 34.830 134.880 34.720 134.770 34.720 134.880 V 140.660 C 34.720 140.770 34.830 140.660 34.720 140.660 H 31.830 C 31.769 140.660 31.720 140.709 31.720 140.770 V 146.770 C 31.720 146.831 31.769 146.880 31.830 146.880 H 34.720 C 34.830 146.880 34.720 146.770 34.720 146.880 V 152.660 C 34.720 152.770 34.830 152.660 34.720 152.660 H 31.830 C 31.769 152.660 31.720 152.709 31.720 152.770 V 158.770 C 31.720 158.831 31.769 158.880 31.830 158.880 H 34.720 C 34.830 158.880 34.720 158.770 34.720 158.880 V 164.660 C 34.720 164.770 34.830 164.660 34.720 164.660 H 31.830 C 31.769 164.660 31.720 164.709 31.720 164.770 V 170.770 C 31.720 170.831 31.769 170.880 31.830 170.880 H 34.720 C 34.830 170.880 34.720 170.770 34.720 170.880 V 176.660 C 34.720 176.770 34.830 176.660 34.720 176.660 H 31.830 C 31.769 176.660 31.720 176.709 31.720 176.770 V 182.770 C 31.720 182.831 31.769 182.880 31.830 182.880 H 34.720 C 34.830 182.880 34.720 182.770 34.720 182.880 V 188.660 C 34.720 188.770 34.830 188.660 34.720 188.660 H 31.830 C 31.769 188.660 31.720 188.709 31.720 188.770 V 194.770 C 31.720 194.831 31.769 194.880 31.830 194.880 H 34.720 C 34.830 194.880 34.720 194.770 34.720 194.880 V 200.660 C 34.720 200.770 34.830 200.660 34.720 200.660 H 31.830 C 31.769 200.660 31.720 200.709 31.720 200.770 V 206.770 C 31.720 206.831 31.769 206.880 31.830 206.880 H 34.720 C 34.830 206.880 34.720 206.770 34.720 206.880 V 212.660 C 34.720 212.770 34.830 212.660 34.720 212.660 H 31.830 C 31.769 212.660 31.720 212.709 31.720 212.770 V 218.770 C 31.720 218.831 31.769 218.880 31.830 218.880 H 34.720 C 34.830 218.880 34.720 218.770 34.720 218.880 V 224.660 C 34.720 224.770 34.830 224.660 34.720 224.660 H 31.830 C 31.769 224.660 31.720 224.709 31.720 224.770 V 230.770 C 31.720 230.831 31.769 230.880 31.830 230.880 H 34.720 C 34.830 230.880 34.720 230.770 34.720 230.880 V 236.660 C 34.720 236.770 34.830 236.660 34.720 236.660 H 31.830 C 31.769 236.660 31.720 236.709 31.720 236.770 V 242.770 C 31.720 242.831 31.769 242.880 31.830 242.880 H 34.720 C 34.830 242.880 34.720 242.770 34.720 242.880 V 248.660 C 34.720 248.770 34.830 248.660 34.720 248.660 H 31.830 C 31.769 248.660 31.720 248.709 31.720 248.770 V 254.770 C 31.720 254.831 31.769 254.880 31.830 254.880 H 34.720 C 34.830 254.880 34.720 254.770 34.720 254.880 V 260.660 C 34.720 260.770 34.830 260.660 34.720 260.660 H 31.830 C 31.769 260.660 31.720 260.709 31.720 260.770 V 266.770 C 31.720 266.831 31.769 266.880 31.830 266.880 H 34.720 C 34.830 266.880 34.720 266.770 34.720 266.880 V 272.660 C 34.720 272.770 34.830 272.660 34.720 272.660 H 31.830 C 31.769 272.660 31.720 272.709 31.720 272.770 V 278.770 C 31.720 278.831 31.769 278.880 31.830 278.880 H 34.720 C 34.830 278.880 34.720 278.770 34.720 278.880 V 284.660 C 34.720 284.770 34.830 284.660 34.720 284.660 H 31.830 C 31.769 284.660 31.720 284.709 31.720 284.770 V 290.770 C 31.720 290.831 31.769 290.880 31.830 290.880 H 34.720 C 34.830 290.880 34.720 290.770 34.720 290.880 V 296.660 C 34.720 296.770 34.830 296.660 34.720 296.660 H 31.830 C 31.769 296.660 31.720 296.709 31.720 296.770 V 302.770 C 31.720 302.831 31.769 302.880 31.830 302.880 H 34.720 C 34.830 302.880 34.720 302.770 34.720 302.880 V 311.270 C 34.720 311.331 34.769 311.380 34.830 311.380" stroke="rgb(0,0,0)" stroke-width="0.22" />
</g>
</svg>