<?xml version='1.0' encoding='utf-8'?>
<svg height="283.60mm" viewBox="0.0 0.0 281.90 283.60" width="281.90mm" xmlns="http://www.w3.org/2000/svg" xmlns:cc="http://creativecommons.org/ns#" xmlns:dc="http://purl.org/dc/elements/1.1/" xmlns:inkscape="http://www.inkscape.org/namespaces/inkscape" xmlns:rdf="http://www.w3.org/1999/02/22-rdf-syntax-ns#" xmlns:svg="http://www.w3.org/2000/svg" xmlns:xlink="http://www.w3.org/1999/xlink">
<!--
UniversalBox - Box with various options for different styles and lids

Created with Boxes.py (https://boxes.hackerspace-bamberg.de/)
Creation date: 2024-09-28 13:57:33
Command line (remove spaces between dashes): boxes UniversalBox - -bottom_edge=F - -x=160.0 - -h=80.0 - -reference=0
Url: https://boxes.hackerspace-bamberg.de/UniversalBox?FingerJoint_style=rectangular&FingerJoint_surroundingspaces=2.0&FingerJoint_bottom_lip=0.0&FingerJoint_edge_width=1.0&FingerJoint_extra_length=0.0&FingerJoint_finger=2.0&FingerJoint_play=0.0&FingerJoint_space=2.0&FingerJoint_width=1.0&Stackable_angle=60&Stackable_bottom_stabilizers=0.0&Stackable_height=2.0&Stackable_holedistance=1.0&Stackable_width=4.0&Hinge_grip_percentage=0&Hinge_outset=0&Hinge_outset=1&Hinge_pinwidth=0.5&Hinge_style=outset&Hinge_axle=2.0&Hinge_grip_length=0&Hinge_hingestrength=1&CabinetHinge_bore=3.2&CabinetHinge_eyes_per_hinge=5&CabinetHinge_hinges=2&CabinetHinge_style=inside&CabinetHinge_eye=1.5&CabinetHinge_play=0.05&CabinetHinge_spacing=2.0&SlideOnLid_hole_width=0&SlideOnLid_second_pin=0&SlideOnLid_second_pin=1&SlideOnLid_spring=both&SlideOnLid_style=rectangular&SlideOnLid_surroundingspaces=2.0&SlideOnLid_bottom_lip=0.0&SlideOnLid_edge_width=1.0&SlideOnLid_extra_length=0.0&SlideOnLid_finger=3.0&SlideOnLid_play=0.05&SlideOnLid_space=2.0&SlideOnLid_width=1.0&Click_angle=5.0&Click_bottom_radius=0.1&Click_depth=3.0&RoundedTriangleEdge_height=50.0&RoundedTriangleEdge_r_hole=2.0&RoundedTriangleEdge_radius=30.0&RoundedTriangleEdge_outset=1.0&Mounting_d_head=6.5&Mounting_d_shaft=3.0&Mounting_margin=0.125&Mounting_num=2&Mounting_side=back&Mounting_style=straight+edge%2C+within&HandleEdge_height=20.0&HandleEdge_hole_height=75.0&HandleEdge_hole_width=40%3A40&HandleEdge_on_sides=0&HandleEdge_on_sides=1&HandleEdge_radius=10.0&HandleEdge_outset=1.0&Flex_stretch=1.05&Flex_connection=1.0&Flex_distance=0.5&Flex_width=5.0&Lid_handle=none&Lid_style=none&Lid_handle_height=8.0&Lid_height=4.0&Lid_play=0.1&top_edge=e&bottom_edge=F&x=160.0&y=100.0&h=80.0&outside=0&outside=1&vertical_edges=finger+joints&thickness=3.0&format=svg&tabs=0.0&qr_code=0&debug=0&labels=0&labels=1&reference=0&inner_corners=loop&burn=0.10&language=en&render=2
Url short: https://boxes.hackerspace-bamberg.de/UniversalBox?bottom_edge=F&x=160.0&h=80.0&reference=0
SettingsUrl: https://boxes.hackerspace-bamberg.de/UniversalBox?FingerJoint_style=rectangular&FingerJoint_surroundingspaces=2.0&FingerJoint_bottom_lip=0.0&FingerJoint_edge_width=1.0&FingerJoint_extra_length=0.0&FingerJoint_finger=2.0&FingerJoint_play=0.0&FingerJoint_space=2.0&FingerJoint_width=1.0&Stackable_angle=60&Stackable_bottom_stabilizers=0.0&Stackable_height=2.0&Stackable_holedistance=1.0&Stackable_width=4.0&Hinge_grip_percentage=0&Hinge_outset=0&Hinge_outset=1&Hinge_pinwidth=0.5&Hinge_style=outset&Hinge_axle=2.0&Hinge_grip_length=0&Hinge_hingestrength=1&CabinetHinge_bore=3.2&CabinetHinge_eyes_per_hinge=5&CabinetHinge_hinges=2&CabinetHinge_style=inside&CabinetHinge_eye=1.5&CabinetHinge_play=0.05&CabinetHinge_spacing=2.0&SlideOnLid_hole_width=0&SlideOnLid_second_pin=0&SlideOnLid_second_pin=1&SlideOnLid_spring=both&SlideOnLid_style=rectangular&SlideOnLid_surroundingspaces=2.0&SlideOnLid_bottom_lip=0.0&SlideOnLid_edge_width=1.0&SlideOnLid_extra_length=0.0&SlideOnLid_finger=3.0&SlideOnLid_play=0.05&SlideOnLid_space=2.0&SlideOnLid_width=1.0&Click_angle=5.0&Click_bottom_radius=0.1&Click_depth=3.0&RoundedTriangleEdge_height=50.0&RoundedTriangleEdge_r_hole=2.0&RoundedTriangleEdge_radius=30.0&RoundedTriangleEdge_outset=1.0&Mounting_d_head=6.5&Mounting_d_shaft=3.0&Mounting_margin=0.125&Mounting_num=2&Mounting_side=back&Mounting_style=straight+edge%2C+within&HandleEdge_height=20.0&HandleEdge_hole_height=75.0&HandleEdge_hole_width=40%3A40&HandleEdge_on_sides=0&HandleEdge_on_sides=1&HandleEdge_radius=10.0&HandleEdge_outset=1.0&Flex_stretch=1.05&Flex_connection=1.0&Flex_distance=0.5&Flex_width=5.0&Lid_handle=none&Lid_style=none&Lid_handle_height=8.0&Lid_height=4.0&Lid_play=0.1&top_edge=e&bottom_edge=F&x=160.0&y=100.0&h=80.0&outside=0&outside=1&vertical_edges=finger+joints&thickness=3.0&format=svg&tabs=0.0&qr_code=0&debug=0&labels=0&labels=1&reference=0&inner_corners=loop&burn=0.10&language=en&render=2
SettingsUrl short: https://boxes.hackerspace-bamberg.de/UniversalBox?bottom_edge=F&x=160.0&h=80.0&reference=0
-->
<title>UniversalBox</title>
<metadata>
<rdf:RDF><cc:Work>
<dc:title>Box - UniversalBox</dc:title>
<dc:date>2024-09-28 13:57:33</dc:date>
<dc:source>https://boxes.hackerspace-bamberg.de/UniversalBox?FingerJoint_style=rectangular&amp;FingerJoint_surroundingspaces=2.0&amp;FingerJoint_bottom_lip=0.0&amp;FingerJoint_edge_width=1.0&amp;FingerJoint_extra_length=0.0&amp;FingerJoint_finger=2.0&amp;FingerJoint_play=0.0&amp;FingerJoint_space=2.0&amp;FingerJoint_width=1.0&amp;Stackable_angle=60&amp;Stackable_bottom_stabilizers=0.0&amp;Stackable_height=2.0&amp;Stackable_holedistance=1.0&amp;Stackable_width=4.0&amp;Hinge_grip_percentage=0&amp;Hinge_outset=0&amp;Hinge_outset=1&amp;Hinge_pinwidth=0.5&amp;Hinge_style=outset&amp;Hinge_axle=2.0&amp;Hinge_grip_length=0&amp;Hinge_hingestrength=1&amp;CabinetHinge_bore=3.2&amp;CabinetHinge_eyes_per_hinge=5&amp;CabinetHinge_hinges=2&amp;CabinetHinge_style=inside&amp;CabinetHinge_eye=1.5&amp;CabinetHinge_play=0.05&amp;CabinetHinge_spacing=2.0&amp;SlideOnLid_hole_width=0&amp;SlideOnLid_second_pin=0&amp;SlideOnLid_second_pin=1&amp;SlideOnLid_spring=both&amp;SlideOnLid_style=rectangular&amp;SlideOnLid_surroundingspaces=2.0&amp;SlideOnLid_bottom_lip=0.0&amp;SlideOnLid_edge_width=1.0&amp;SlideOnLid_extra_length=0.0&amp;SlideOnLid_finger=3.0&amp;SlideOnLid_play=0.05&amp;SlideOnLid_space=2.0&amp;SlideOnLid_width=1.0&amp;Click_angle=5.0&amp;Click_bottom_radius=0.1&amp;Click_depth=3.0&amp;RoundedTriangleEdge_height=50.0&amp;RoundedTriangleEdge_r_hole=2.0&amp;RoundedTriangleEdge_radius=30.0&amp;RoundedTriangleEdge_outset=1.0&amp;Mounting_d_head=6.5&amp;Mounting_d_shaft=3.0&amp;Mounting_margin=0.125&amp;Mounting_num=2&amp;Mounting_side=back&amp;Mounting_style=straight+edge%2C+within&amp;HandleEdge_height=20.0&amp;HandleEdge_hole_height=75.0&amp;HandleEdge_hole_width=40%3A40&amp;HandleEdge_on_sides=0&amp;HandleEdge_on_sides=1&amp;HandleEdge_radius=10.0&amp;HandleEdge_outset=1.0&amp;Flex_stretch=1.05&amp;Flex_connection=1.0&amp;Flex_distance=0.5&amp;Flex_width=5.0&amp;Lid_handle=none&amp;Lid_style=none&amp;Lid_handle_height=8.0&amp;Lid_height=4.0&amp;Lid_play=0.1&amp;top_edge=e&amp;bottom_edge=F&amp;x=160.0&amp;y=100.0&amp;h=80.0&amp;outside=0&amp;outside=1&amp;vertical_edges=finger+joints&amp;thickness=3.0&amp;format=svg&amp;tabs=0.0&amp;qr_code=0&amp;debug=0&amp;labels=0&amp;labels=1&amp;reference=0&amp;inner_corners=loop&amp;burn=0.10&amp;language=en&amp;render=2</dc:source>
<dc:source>https://boxes.hackerspace-bamberg.de/UniversalBox?bottom_edge=F&amp;x=160.0&amp;h=80.0&amp;reference=0</dc:source>
<dc:description>Box with various options for different styles and lids

Created with Boxes.py (https://boxes.hackerspace-bamberg.de/)
Command line: boxes UniversalBox --FingerJoint_style=rectangular --FingerJoint_surroundingspaces=2.0 --FingerJoint_bottom_lip=0.0 --FingerJoint_edge_width=1.0 --FingerJoint_extra_length=0.0 --FingerJoint_finger=2.0 --FingerJoint_play=0.0 --FingerJoint_space=2.0 --FingerJoint_width=1.0 --Stackable_angle=60 --Stackable_bottom_stabilizers=0.0 --Stackable_height=2.0 --Stackable_holedistance=1.0 --Stackable_width=4.0 --Hinge_grip_percentage=0 --Hinge_outset=0 --Hinge_outset=1 --Hinge_pinwidth=0.5 --Hinge_style=outset --Hinge_axle=2.0 --Hinge_grip_length=0 --Hinge_hingestrength=1 --CabinetHinge_bore=3.2 --CabinetHinge_eyes_per_hinge=5 --CabinetHinge_hinges=2 --CabinetHinge_style=inside --CabinetHinge_eye=1.5 --CabinetHinge_play=0.05 --CabinetHinge_spacing=2.0 --SlideOnLid_hole_width=0 --SlideOnLid_second_pin=0 --SlideOnLid_second_pin=1 --SlideOnLid_spring=both --SlideOnLid_style=rectangular --SlideOnLid_surroundingspaces=2.0 --SlideOnLid_bottom_lip=0.0 --SlideOnLid_edge_width=1.0 --SlideOnLid_extra_length=0.0 --SlideOnLid_finger=3.0 --SlideOnLid_play=0.05 --SlideOnLid_space=2.0 --SlideOnLid_width=1.0 --Click_angle=5.0 --Click_bottom_radius=0.1 --Click_depth=3.0 --RoundedTriangleEdge_height=50.0 --RoundedTriangleEdge_r_hole=2.0 --RoundedTriangleEdge_radius=30.0 --RoundedTriangleEdge_outset=1.0 --Mounting_d_head=6.5 --Mounting_d_shaft=3.0 --Mounting_margin=0.125 --Mounting_num=2 --Mounting_side=back '--Mounting_style=straight edge, within' --HandleEdge_height=20.0 --HandleEdge_hole_height=75.0 --HandleEdge_hole_width=40:40 --HandleEdge_on_sides=0 --HandleEdge_on_sides=1 --HandleEdge_radius=10.0 --HandleEdge_outset=1.0 --Flex_stretch=1.05 --Flex_connection=1.0 --Flex_distance=0.5 --Flex_width=5.0 --Lid_handle=none --Lid_style=none --Lid_handle_height=8.0 --Lid_height=4.0 --Lid_play=0.1 --top_edge=e --bottom_edge=F --x=160.0 --y=100.0 --h=80.0 --outside=0 --outside=1 '--vertical_edges=finger joints' --thickness=3.0 --format=svg --tabs=0.0 --qr_code=0 --debug=0 --labels=0 --labels=1 --reference=0 --inner_corners=loop --burn=0.10
Command line short: boxes UniversalBox --bottom_edge=F --x=160.0 --h=80.0 --reference=0
Url: https://boxes.hackerspace-bamberg.de/UniversalBox?FingerJoint_style=rectangular&amp;FingerJoint_surroundingspaces=2.0&amp;FingerJoint_bottom_lip=0.0&amp;FingerJoint_edge_width=1.0&amp;FingerJoint_extra_length=0.0&amp;FingerJoint_finger=2.0&amp;FingerJoint_play=0.0&amp;FingerJoint_space=2.0&amp;FingerJoint_width=1.0&amp;Stackable_angle=60&amp;Stackable_bottom_stabilizers=0.0&amp;Stackable_height=2.0&amp;Stackable_holedistance=1.0&amp;Stackable_width=4.0&amp;Hinge_grip_percentage=0&amp;Hinge_outset=0&amp;Hinge_outset=1&amp;Hinge_pinwidth=0.5&amp;Hinge_style=outset&amp;Hinge_axle=2.0&amp;Hinge_grip_length=0&amp;Hinge_hingestrength=1&amp;CabinetHinge_bore=3.2&amp;CabinetHinge_eyes_per_hinge=5&amp;CabinetHinge_hinges=2&amp;CabinetHinge_style=inside&amp;CabinetHinge_eye=1.5&amp;CabinetHinge_play=0.05&amp;CabinetHinge_spacing=2.0&amp;SlideOnLid_hole_width=0&amp;SlideOnLid_second_pin=0&amp;SlideOnLid_second_pin=1&amp;SlideOnLid_spring=both&amp;SlideOnLid_style=rectangular&amp;SlideOnLid_surroundingspaces=2.0&amp;SlideOnLid_bottom_lip=0.0&amp;SlideOnLid_edge_width=1.0&amp;SlideOnLid_extra_length=0.0&amp;SlideOnLid_finger=3.0&amp;SlideOnLid_play=0.05&amp;SlideOnLid_space=2.0&amp;SlideOnLid_width=1.0&amp;Click_angle=5.0&amp;Click_bottom_radius=0.1&amp;Click_depth=3.0&amp;RoundedTriangleEdge_height=50.0&amp;RoundedTriangleEdge_r_hole=2.0&amp;RoundedTriangleEdge_radius=30.0&amp;RoundedTriangleEdge_outset=1.0&amp;Mounting_d_head=6.5&amp;Mounting_d_shaft=3.0&amp;Mounting_margin=0.125&amp;Mounting_num=2&amp;Mounting_side=back&amp;Mounting_style=straight+edge%2C+within&amp;HandleEdge_height=20.0&amp;HandleEdge_hole_height=75.0&amp;HandleEdge_hole_width=40%3A40&amp;HandleEdge_on_sides=0&amp;HandleEdge_on_sides=1&amp;HandleEdge_radius=10.0&amp;HandleEdge_outset=1.0&amp;Flex_stretch=1.05&amp;Flex_connection=1.0&amp;Flex_distance=0.5&amp;Flex_width=5.0&amp;Lid_handle=none&amp;Lid_style=none&amp;Lid_handle_height=8.0&amp;Lid_height=4.0&amp;Lid_play=0.1&amp;top_edge=e&amp;bottom_edge=F&amp;x=160.0&amp;y=100.0&amp;h=80.0&amp;outside=0&amp;outside=1&amp;vertical_edges=finger+joints&amp;thickness=3.0&amp;format=svg&amp;tabs=0.0&amp;qr_code=0&amp;debug=0&amp;labels=0&amp;labels=1&amp;reference=0&amp;inner_corners=loop&amp;burn=0.10&amp;language=en&amp;render=2
Url short: https://boxes.hackerspace-bamberg.de/UniversalBox?bottom_edge=F&amp;x=160.0&amp;h=80.0&amp;reference=0
SettingsUrl: https://boxes.hackerspace-bamberg.de/UniversalBox?FingerJoint_style=rectangular&amp;FingerJoint_surroundingspaces=2.0&amp;FingerJoint_bottom_lip=0.0&amp;FingerJoint_edge_width=1.0&amp;FingerJoint_extra_length=0.0&amp;FingerJoint_finger=2.0&amp;FingerJoint_play=0.0&amp;FingerJoint_space=2.0&amp;FingerJoint_width=1.0&amp;Stackable_angle=60&amp;Stackable_bottom_stabilizers=0.0&amp;Stackable_height=2.0&amp;Stackable_holedistance=1.0&amp;Stackable_width=4.0&amp;Hinge_grip_percentage=0&amp;Hinge_outset=0&amp;Hinge_outset=1&amp;Hinge_pinwidth=0.5&amp;Hinge_style=outset&amp;Hinge_axle=2.0&amp;Hinge_grip_length=0&amp;Hinge_hingestrength=1&amp;CabinetHinge_bore=3.2&amp;CabinetHinge_eyes_per_hinge=5&amp;CabinetHinge_hinges=2&amp;CabinetHinge_style=inside&amp;CabinetHinge_eye=1.5&amp;CabinetHinge_play=0.05&amp;CabinetHinge_spacing=2.0&amp;SlideOnLid_hole_width=0&amp;SlideOnLid_second_pin=0&amp;SlideOnLid_second_pin=1&amp;SlideOnLid_spring=both&amp;SlideOnLid_style=rectangular&amp;SlideOnLid_surroundingspaces=2.0&amp;SlideOnLid_bottom_lip=0.0&amp;SlideOnLid_edge_width=1.0&amp;SlideOnLid_extra_length=0.0&amp;SlideOnLid_finger=3.0&amp;SlideOnLid_play=0.05&amp;SlideOnLid_space=2.0&amp;SlideOnLid_width=1.0&amp;Click_angle=5.0&amp;Click_bottom_radius=0.1&amp;Click_depth=3.0&amp;RoundedTriangleEdge_height=50.0&amp;RoundedTriangleEdge_r_hole=2.0&amp;RoundedTriangleEdge_radius=30.0&amp;RoundedTriangleEdge_outset=1.0&amp;Mounting_d_head=6.5&amp;Mounting_d_shaft=3.0&amp;Mounting_margin=0.125&amp;Mounting_num=2&amp;Mounting_side=back&amp;Mounting_style=straight+edge%2C+within&amp;HandleEdge_height=20.0&amp;HandleEdge_hole_height=75.0&amp;HandleEdge_hole_width=40%3A40&amp;HandleEdge_on_sides=0&amp;HandleEdge_on_sides=1&amp;HandleEdge_radius=10.0&amp;HandleEdge_outset=1.0&amp;Flex_stretch=1.05&amp;Flex_connection=1.0&amp;Flex_distance=0.5&amp;Flex_width=5.0&amp;Lid_handle=none&amp;Lid_style=none&amp;Lid_handle_height=8.0&amp;Lid_height=4.0&amp;Lid_play=0.1&amp;top_edge=e&amp;bottom_edge=F&amp;x=160.0&amp;y=100.0&amp;h=80.0&amp;outside=0&amp;outside=1&amp;vertical_edges=finger+joints&amp;thickness=3.0&amp;format=svg&amp;tabs=0.0&amp;qr_code=0&amp;debug=0&amp;labels=0&amp;labels=1&amp;reference=0&amp;inner_corners=loop&amp;burn=0.10&amp;language=en&amp;render=2
SettingsUrl short: https://boxes.hackerspace-bamberg.de/UniversalBox?bottom_edge=F&amp;x=160.0&amp;h=80.0&amp;reference=0
</dc:description>
</cc:Work></rdf:RDF></metadata>
<g id="p-0" style="fill:none;stroke-linecap:round;stroke-linejoin:round;">
  <text dominant-baseline="hanging" font-size="4px" style="font-family: sans-serif ; font-weight: normal; font-style: normal; fill: rgb(255,0,0)" text-anchor="middle" transform="matrix( 1.000 0.000 0.000 1.000 90.100 231.600 )">front</text><path d="M 13.100 273.600 H 21.100 C 21.155 273.600 21.200 273.555 21.200 273.500 V 270.600 C 21.200 270.500 21.100 270.600 21.200 270.600 H 27.000 C 27.100 270.600 27.000 270.500 27.000 270.600 V 273.500 C 27.000 273.555 27.045 273.600 27.100 273.600 H 33.100 C 33.155 273.600 33.200 273.555 33.200 273.500 V 270.600 C 33.200 270.500 33.100 270.600 33.200 270.600 H 39.000 C 39.100 270.600 39.000 270.500 39.000 270.600 V 273.500 C 39.000 273.555 39.045 273.600 39.100 273.600 H 45.100 C 45.155 273.600 45.200 273.555 45.200 273.500 V 270.600 C 45.200 270.500 45.100 270.600 45.200 270.600 H 51.000 C 51.100 270.600 51.000 270.500 51.000 270.600 V 273.500 C 51.000 273.555 51.045 273.600 51.100 273.600 H 57.100 C 57.155 273.600 57.200 273.555 57.200 273.500 V 270.600 C 57.200 270.500 57.100 270.600 57.200 270.600 H 63.000 C 63.100 270.600 63.000 270.500 63.000 270.600 V 273.500 C 63.000 273.555 63.045 273.600 63.100 273.600 H 69.100 C 69.155 273.600 69.200 273.555 69.200 273.500 V 270.600 C 69.200 270.500 69.100 270.600 69.200 270.600 H 75.000 C 75.100 270.600 75.000 270.500 75.000 270.600 V 273.500 C 75.000 273.555 75.045 273.600 75.100 273.600 H 81.100 C 81.155 273.600 81.200 273.555 81.200 273.500 V 270.600 C 81.200 270.500 81.100 270.600 81.200 270.600 H 87.000 C 87.100 270.600 87.000 270.500 87.000 270.600 V 273.500 C 87.000 273.555 87.045 273.600 87.100 273.600 H 93.100 C 93.155 273.600 93.200 273.555 93.200 273.500 V 270.600 C 93.200 270.500 93.100 270.600 93.200 270.600 H 99.000 C 99.100 270.600 99.000 270.500 99.000 270.600 V 273.500 C 99.000 273.555 99.045 273.600 99.100 273.600 H 105.100 C 105.155 273.600 105.200 273.555 105.200 273.500 V 270.600 C 105.200 270.500 105.100 270.600 105.200 270.600 H 111.000 C 111.100 270.600 111.000 270.500 111.000 270.600 V 273.500 C 111.000 273.555 111.045 273.600 111.100 273.600 H 117.100 C 117.155 273.600 117.200 273.555 117.200 273.500 V 270.600 C 117.200 270.500 117.100 270.600 117.200 270.600 H 123.000 C 123.100 270.600 123.000 270.500 123.000 270.600 V 273.500 C 123.000 273.555 123.045 273.600 123.100 273.600 H 129.100 C 129.155 273.600 129.200 273.555 129.200 273.500 V 270.600 C 129.200 270.500 129.100 270.600 129.200 270.600 H 135.000 C 135.100 270.600 135.000 270.500 135.000 270.600 V 273.500 C 135.000 273.555 135.045 273.600 135.100 273.600 H 141.100 C 141.155 273.600 141.200 273.555 141.200 273.500 V 270.600 C 141.200 270.500 141.100 270.600 141.200 270.600 H 147.000 C 147.100 270.600 147.000 270.500 147.000 270.600 V 273.500 C 147.000 273.555 147.045 273.600 147.100 273.600 H 153.100 C 153.155 273.600 153.200 273.555 153.200 273.500 V 270.600 C 153.200 270.500 153.100 270.600 153.200 270.600 H 159.000 C 159.100 270.600 159.000 270.500 159.000 270.600 V 273.500 C 159.000 273.555 159.045 273.600 159.100 273.600 H 167.100 H 170.100 C 170.155 273.600 170.200 273.555 170.200 273.500 V 266.500 C 170.200 266.445 170.155 266.400 170.100 266.400 H 167.200 C 167.100 266.400 167.200 266.500 167.200 266.400 V 260.600 C 167.200 260.500 167.100 260.600 167.200 260.600 H 170.100 C 170.155 260.600 170.200 260.555 170.200 260.500 V 254.500 C 170.200 254.445 170.155 254.400 170.100 254.400 H 167.200 C 167.100 254.400 167.200 254.500 167.200 254.400 V 248.600 C 167.200 248.500 167.100 248.600 167.200 248.600 H 170.100 C 170.155 248.600 170.200 248.555 170.200 248.500 V 242.500 C 170.200 242.445 170.155 242.400 170.100 242.400 H 167.200 C 167.100 242.400 167.200 242.500 167.200 242.400 V 236.600 C 167.200 236.500 167.100 236.600 167.200 236.600 H 170.100 C 170.155 236.600 170.200 236.555 170.200 236.500 V 230.500 C 170.200 230.445 170.155 230.400 170.100 230.400 H 167.200 C 167.100 230.400 167.200 230.500 167.200 230.400 V 224.600 C 167.200 224.500 167.100 224.600 167.200 224.600 H 170.100 C 170.155 224.600 170.200 224.555 170.200 224.500 V 218.500 C 170.200 218.445 170.155 218.400 170.100 218.400 H 167.200 C 167.100 218.400 167.200 218.500 167.200 218.400 V 212.600 C 167.200 212.500 167.100 212.600 167.200 212.600 H 170.100 C 170.155 212.600 170.200 212.555 170.200 212.500 V 206.500 C 170.200 206.445 170.155 206.400 170.100 206.400 H 167.200 C 167.100 206.400 167.200 206.500 167.200 206.400 V 200.600 C 167.200 200.500 167.100 200.600 167.200 200.600 H 170.100 C 170.155 200.600 170.200 200.555 170.200 200.500 V 193.500 C 170.200 193.445 170.155 193.400 170.100 193.400 H 167.100 H 13.100 H 10.100 C 10.045 193.400 10.000 193.445 10.000 193.500 V 200.500 C 10.000 200.555 10.045 200.600 10.100 200.600 H 13.000 C 13.100 200.600 13.000 200.500 13.000 200.600 V 206.400 C 13.000 206.500 13.100 206.400 13.000 206.400 H 10.100 C 10.045 206.400 10.000 206.445 10.000 206.500 V 212.500 C 10.000 212.555 10.045 212.600 10.100 212.600 H 13.000 C 13.100 212.600 13.000 212.500 13.000 212.600 V 218.400 C 13.000 218.500 13.100 218.400 13.000 218.400 H 10.100 C 10.045 218.400 10.000 218.445 10.000 218.500 V 224.500 C 10.000 224.555 10.045 224.600 10.100 224.600 H 13.000 C 13.100 224.600 13.000 224.500 13.000 224.600 V 230.400 C 13.000 230.500 13.100 230.400 13.000 230.400 H 10.100 C 10.045 230.400 10.000 230.445 10.000 230.500 V 236.500 C 10.000 236.555 10.045 236.600 10.100 236.600 H 13.000 C 13.100 236.600 13.000 236.500 13.000 236.600 V 242.400 C 13.000 242.500 13.100 242.400 13.000 242.400 H 10.100 C 10.045 242.400 10.000 242.445 10.000 242.500 V 248.500 C 10.000 248.555 10.045 248.600 10.100 248.600 H 13.000 C 13.100 248.600 13.000 248.500 13.000 248.600 V 254.400 C 13.000 254.500 13.100 254.400 13.000 254.400 H 10.100 C 10.045 254.400 10.000 254.445 10.000 254.500 V 260.500 C 10.000 260.555 10.045 260.600 10.100 260.600 H 13.000 C 13.100 260.600 13.000 260.500 13.000 260.600 V 266.400 C 13.000 266.500 13.100 266.400 13.000 266.400 H 10.100 C 10.045 266.400 10.000 266.445 10.000 266.500 V 273.500 C 10.000 273.555 10.045 273.600 10.100 273.600 H 13.100" stroke="rgb(0,0,0)" stroke-width="0.20" />
</g>
<g id="p-1" style="fill:none;stroke-linecap:round;stroke-linejoin:round;">
  <text dominant-baseline="hanging" font-size="4px" style="font-family: sans-serif ; font-weight: normal; font-style: normal; fill: rgb(255,0,0)" text-anchor="middle" transform="matrix( 1.000 0.000 0.000 1.000 90.100 149.900 )">back</text><path d="M 13.100 191.900 H 21.100 C 21.155 191.900 21.200 191.855 21.200 191.800 V 188.900 C 21.200 188.800 21.100 188.900 21.200 188.900 H 27.000 C 27.100 188.900 27.000 188.800 27.000 188.900 V 191.800 C 27.000 191.855 27.045 191.900 27.100 191.900 H 33.100 C 33.155 191.900 33.200 191.855 33.200 191.800 V 188.900 C 33.200 188.800 33.100 188.900 33.200 188.900 H 39.000 C 39.100 188.900 39.000 188.800 39.000 188.900 V 191.800 C 39.000 191.855 39.045 191.900 39.100 191.900 H 45.100 C 45.155 191.900 45.200 191.855 45.200 191.800 V 188.900 C 45.200 188.800 45.100 188.900 45.200 188.900 H 51.000 C 51.100 188.900 51.000 188.800 51.000 188.900 V 191.800 C 51.000 191.855 51.045 191.900 51.100 191.900 H 57.100 C 57.155 191.900 57.200 191.855 57.200 191.800 V 188.900 C 57.200 188.800 57.100 188.900 57.200 188.900 H 63.000 C 63.100 188.900 63.000 188.800 63.000 188.900 V 191.800 C 63.000 191.855 63.045 191.900 63.100 191.900 H 69.100 C 69.155 191.900 69.200 191.855 69.200 191.800 V 188.900 C 69.200 188.800 69.100 188.900 69.200 188.900 H 75.000 C 75.100 188.900 75.000 188.800 75.000 188.900 V 191.800 C 75.000 191.855 75.045 191.900 75.100 191.900 H 81.100 C 81.155 191.900 81.200 191.855 81.200 191.800 V 188.900 C 81.200 188.800 81.100 188.900 81.200 188.900 H 87.000 C 87.100 188.900 87.000 188.800 87.000 188.900 V 191.800 C 87.000 191.855 87.045 191.900 87.100 191.900 H 93.100 C 93.155 191.900 93.200 191.855 93.200 191.800 V 188.900 C 93.200 188.800 93.100 188.900 93.200 188.900 H 99.000 C 99.100 188.900 99.000 188.800 99.000 188.900 V 191.800 C 99.000 191.855 99.045 191.900 99.100 191.900 H 105.100 C 105.155 191.900 105.200 191.855 105.200 191.800 V 188.900 C 105.200 188.800 105.100 188.900 105.200 188.900 H 111.000 C 111.100 188.900 111.000 188.800 111.000 188.900 V 191.800 C 111.000 191.855 111.045 191.900 111.100 191.900 H 117.100 C 117.155 191.900 117.200 191.855 117.200 191.800 V 188.900 C 117.200 188.800 117.100 188.900 117.200 188.900 H 123.000 C 123.100 188.900 123.000 188.800 123.000 188.900 V 191.800 C 123.000 191.855 123.045 191.900 123.100 191.900 H 129.100 C 129.155 191.900 129.200 191.855 129.200 191.800 V 188.900 C 129.200 188.800 129.100 188.900 129.200 188.900 H 135.000 C 135.100 188.900 135.000 188.800 135.000 188.900 V 191.800 C 135.000 191.855 135.045 191.900 135.100 191.900 H 141.100 C 141.155 191.900 141.200 191.855 141.200 191.800 V 188.900 C 141.200 188.800 141.100 188.900 141.200 188.900 H 147.000 C 147.100 188.900 147.000 188.800 147.000 188.900 V 191.800 C 147.000 191.855 147.045 191.900 147.100 191.900 H 153.100 C 153.155 191.900 153.200 191.855 153.200 191.800 V 188.900 C 153.200 188.800 153.100 188.900 153.200 188.900 H 159.000 C 159.100 188.900 159.000 188.800 159.000 188.900 V 191.800 C 159.000 191.855 159.045 191.900 159.100 191.900 H 167.100 H 170.100 C 170.155 191.900 170.200 191.855 170.200 191.800 V 184.800 C 170.200 184.745 170.155 184.700 170.100 184.700 H 167.200 C 167.100 184.700 167.200 184.800 167.200 184.700 V 178.900 C 167.200 178.800 167.100 178.900 167.200 178.900 H 170.100 C 170.155 178.900 170.200 178.855 170.200 178.800 V 172.800 C 170.200 172.745 170.155 172.700 170.100 172.700 H 167.200 C 167.100 172.700 167.200 172.800 167.200 172.700 V 166.900 C 167.200 166.800 167.100 166.900 167.200 166.900 H 170.100 C 170.155 166.900 170.200 166.855 170.200 166.800 V 160.800 C 170.200 160.745 170.155 160.700 170.100 160.700 H 167.200 C 167.100 160.700 167.200 160.800 167.200 160.700 V 154.900 C 167.200 154.800 167.100 154.900 167.200 154.900 H 170.100 C 170.155 154.900 170.200 154.855 170.200 154.800 V 148.800 C 170.200 148.745 170.155 148.700 170.100 148.700 H 167.200 C 167.100 148.700 167.200 148.800 167.200 148.700 V 142.900 C 167.200 142.800 167.100 142.900 167.200 142.900 H 170.100 C 170.155 142.900 170.200 142.855 170.200 142.800 V 136.800 C 170.200 136.745 170.155 136.700 170.100 136.700 H 167.200 C 167.100 136.700 167.200 136.800 167.200 136.700 V 130.900 C 167.200 130.800 167.100 130.900 167.200 130.900 H 170.100 C 170.155 130.900 170.200 130.855 170.200 130.800 V 124.800 C 170.200 124.745 170.155 124.700 170.100 124.700 H 167.200 C 167.100 124.700 167.200 124.800 167.200 124.700 V 118.900 C 167.200 118.800 167.100 118.900 167.200 118.900 H 170.100 C 170.155 118.900 170.200 118.855 170.200 118.800 V 111.800 C 170.200 111.745 170.155 111.700 170.100 111.700 H 167.100 H 13.100 H 10.100 C 10.045 111.700 10.000 111.745 10.000 111.800 V 118.800 C 10.000 118.855 10.045 118.900 10.100 118.900 H 13.000 C 13.100 118.900 13.000 118.800 13.000 118.900 V 124.700 C 13.000 124.800 13.100 124.700 13.000 124.700 H 10.100 C 10.045 124.700 10.000 124.745 10.000 124.800 V 130.800 C 10.000 130.855 10.045 130.900 10.100 130.900 H 13.000 C 13.100 130.900 13.000 130.800 13.000 130.900 V 136.700 C 13.000 136.800 13.100 136.700 13.000 136.700 H 10.100 C 10.045 136.700 10.000 136.745 10.000 136.800 V 142.800 C 10.000 142.855 10.045 142.900 10.100 142.900 H 13.000 C 13.100 142.900 13.000 142.800 13.000 142.900 V 148.700 C 13.000 148.800 13.100 148.700 13.000 148.700 H 10.100 C 10.045 148.700 10.000 148.745 10.000 148.800 V 154.800 C 10.000 154.855 10.045 154.900 10.100 154.900 H 13.000 C 13.100 154.900 13.000 154.800 13.000 154.900 V 160.700 C 13.000 160.800 13.100 160.700 13.000 160.700 H 10.100 C 10.045 160.700 10.000 160.745 10.000 160.800 V 166.800 C 10.000 166.855 10.045 166.900 10.100 166.900 H 13.000 C 13.100 166.900 13.000 166.800 13.000 166.900 V 172.700 C 13.000 172.800 13.100 172.700 13.000 172.700 H 10.100 C 10.045 172.700 10.000 172.745 10.000 172.800 V 178.800 C 10.000 178.855 10.045 178.900 10.100 178.900 H 13.000 C 13.100 178.900 13.000 178.800 13.000 178.900 V 184.700 C 13.000 184.800 13.100 184.700 13.000 184.700 H 10.100 C 10.045 184.700 10.000 184.745 10.000 184.800 V 191.800 C 10.000 191.855 10.045 191.900 10.100 191.900 H 13.100" stroke="rgb(0,0,0)" stroke-width="0.20" />
</g>
<g id="p-2" style="fill:none;stroke-linecap:round;stroke-linejoin:round;">
  <text dominant-baseline="hanging" font-size="4px" style="font-family: sans-serif ; font-weight: normal; font-style: normal; fill: rgb(255,0,0)" text-anchor="middle" transform="matrix( 1.000 0.000 0.000 1.000 90.100 58.200 )">bottom</text><path d="M 13.100 107.200 H 21.000 C 21.100 107.200 21.000 107.100 21.000 107.200 V 110.100 C 21.000 110.155 21.045 110.200 21.100 110.200 H 27.100 C 27.155 110.200 27.200 110.155 27.200 110.100 V 107.200 C 27.200 107.100 27.100 107.200 27.200 107.200 H 33.000 C 33.100 107.200 33.000 107.100 33.000 107.200 V 110.100 C 33.000 110.155 33.045 110.200 33.100 110.200 H 39.100 C 39.155 110.200 39.200 110.155 39.200 110.100 V 107.200 C 39.200 107.100 39.100 107.200 39.200 107.200 H 45.000 C 45.100 107.200 45.000 107.100 45.000 107.200 V 110.100 C 45.000 110.155 45.045 110.200 45.100 110.200 H 51.100 C 51.155 110.200 51.200 110.155 51.200 110.100 V 107.200 C 51.200 107.100 51.100 107.200 51.200 107.200 H 57.000 C 57.100 107.200 57.000 107.100 57.000 107.200 V 110.100 C 57.000 110.155 57.045 110.200 57.100 110.200 H 63.100 C 63.155 110.200 63.200 110.155 63.200 110.100 V 107.200 C 63.200 107.100 63.100 107.200 63.200 107.200 H 69.000 C 69.100 107.200 69.000 107.100 69.000 107.200 V 110.100 C 69.000 110.155 69.045 110.200 69.100 110.200 H 75.100 C 75.155 110.200 75.200 110.155 75.200 110.100 V 107.200 C 75.200 107.100 75.100 107.200 75.200 107.200 H 81.000 C 81.100 107.200 81.000 107.100 81.000 107.200 V 110.100 C 81.000 110.155 81.045 110.200 81.100 110.200 H 87.100 C 87.155 110.200 87.200 110.155 87.200 110.100 V 107.200 C 87.200 107.100 87.100 107.200 87.200 107.200 H 93.000 C 93.100 107.200 93.000 107.100 93.000 107.200 V 110.100 C 93.000 110.155 93.045 110.200 93.100 110.200 H 99.100 C 99.155 110.200 99.200 110.155 99.200 110.100 V 107.200 C 99.200 107.100 99.100 107.200 99.200 107.200 H 105.000 C 105.100 107.200 105.000 107.100 105.000 107.200 V 110.100 C 105.000 110.155 105.045 110.200 105.100 110.200 H 111.100 C 111.155 110.200 111.200 110.155 111.200 110.100 V 107.200 C 111.200 107.100 111.100 107.200 111.200 107.200 H 117.000 C 117.100 107.200 117.000 107.100 117.000 107.200 V 110.100 C 117.000 110.155 117.045 110.200 117.100 110.200 H 123.100 C 123.155 110.200 123.200 110.155 123.200 110.100 V 107.200 C 123.200 107.100 123.100 107.200 123.200 107.200 H 129.000 C 129.100 107.200 129.000 107.100 129.000 107.200 V 110.100 C 129.000 110.155 129.045 110.200 129.100 110.200 H 135.100 C 135.155 110.200 135.200 110.155 135.200 110.100 V 107.200 C 135.200 107.100 135.100 107.200 135.200 107.200 H 141.000 C 141.100 107.200 141.000 107.100 141.000 107.200 V 110.100 C 141.000 110.155 141.045 110.200 141.100 110.200 H 147.100 C 147.155 110.200 147.200 110.155 147.200 110.100 V 107.200 C 147.200 107.100 147.100 107.200 147.200 107.200 H 153.000 C 153.100 107.200 153.000 107.100 153.000 107.200 V 110.100 C 153.000 110.155 153.045 110.200 153.100 110.200 H 159.100 C 159.155 110.200 159.200 110.155 159.200 110.100 V 107.200 C 159.200 107.100 159.100 107.200 159.200 107.200 H 167.100 C 167.155 107.200 167.200 107.155 167.200 107.100 V 99.200 C 167.200 99.100 167.100 99.200 167.200 99.200 H 170.100 C 170.155 99.200 170.200 99.155 170.200 99.100 V 93.100 C 170.200 93.045 170.155 93.000 170.100 93.000 H 167.200 C 167.100 93.000 167.200 93.100 167.200 93.000 V 87.200 C 167.200 87.100 167.100 87.200 167.200 87.200 H 170.100 C 170.155 87.200 170.200 87.155 170.200 87.100 V 81.100 C 170.200 81.045 170.155 81.000 170.100 81.000 H 167.200 C 167.100 81.000 167.200 81.100 167.200 81.000 V 75.200 C 167.200 75.100 167.100 75.200 167.200 75.200 H 170.100 C 170.155 75.200 170.200 75.155 170.200 75.100 V 69.100 C 170.200 69.045 170.155 69.000 170.100 69.000 H 167.200 C 167.100 69.000 167.200 69.100 167.200 69.000 V 63.200 C 167.200 63.100 167.100 63.200 167.200 63.200 H 170.100 C 170.155 63.200 170.200 63.155 170.200 63.100 V 57.100 C 170.200 57.045 170.155 57.000 170.100 57.000 H 167.200 C 167.100 57.000 167.200 57.100 167.200 57.000 V 51.200 C 167.200 51.100 167.100 51.200 167.200 51.200 H 170.100 C 170.155 51.200 170.200 51.155 170.200 51.100 V 45.100 C 170.200 45.045 170.155 45.000 170.100 45.000 H 167.200 C 167.100 45.000 167.200 45.100 167.200 45.000 V 39.200 C 167.200 39.100 167.100 39.200 167.200 39.200 H 170.100 C 170.155 39.200 170.200 39.155 170.200 39.100 V 33.100 C 170.200 33.045 170.155 33.000 170.100 33.000 H 167.200 C 167.100 33.000 167.200 33.100 167.200 33.000 V 27.200 C 167.200 27.100 167.100 27.200 167.200 27.200 H 170.100 C 170.155 27.200 170.200 27.155 170.200 27.100 V 21.100 C 170.200 21.045 170.155 21.000 170.100 21.000 H 167.200 C 167.100 21.000 167.200 21.100 167.200 21.000 V 13.100 C 167.200 13.045 167.155 13.000 167.100 13.000 H 159.200 C 159.100 13.000 159.200 13.100 159.200 13.000 V 10.100 C 159.200 10.045 159.155 10.000 159.100 10.000 H 153.100 C 153.045 10.000 153.000 10.045 153.000 10.100 V 13.000 C 153.000 13.100 153.100 13.000 153.000 13.000 H 147.200 C 147.100 13.000 147.200 13.100 147.200 13.000 V 10.100 C 147.200 10.045 147.155 10.000 147.100 10.000 H 141.100 C 141.045 10.000 141.000 10.045 141.000 10.100 V 13.000 C 141.000 13.100 141.100 13.000 141.000 13.000 H 135.200 C 135.100 13.000 135.200 13.100 135.200 13.000 V 10.100 C 135.200 10.045 135.155 10.000 135.100 10.000 H 129.100 C 129.045 10.000 129.000 10.045 129.000 10.100 V 13.000 C 129.000 13.100 129.100 13.000 129.000 13.000 H 123.200 C 123.100 13.000 123.200 13.100 123.200 13.000 V 10.100 C 123.200 10.045 123.155 10.000 123.100 10.000 H 117.100 C 117.045 10.000 117.000 10.045 117.000 10.100 V 13.000 C 117.000 13.100 117.100 13.000 117.000 13.000 H 111.200 C 111.100 13.000 111.200 13.100 111.200 13.000 V 10.100 C 111.200 10.045 111.155 10.000 111.100 10.000 H 105.100 C 105.045 10.000 105.000 10.045 105.000 10.100 V 13.000 C 105.000 13.100 105.100 13.000 105.000 13.000 H 99.200 C 99.100 13.000 99.200 13.100 99.200 13.000 V 10.100 C 99.200 10.045 99.155 10.000 99.100 10.000 H 93.100 C 93.045 10.000 93.000 10.045 93.000 10.100 V 13.000 C 93.000 13.100 93.100 13.000 93.000 13.000 H 87.200 C 87.100 13.000 87.200 13.100 87.200 13.000 V 10.100 C 87.200 10.045 87.155 10.000 87.100 10.000 H 81.100 C 81.045 10.000 81.000 10.045 81.000 10.100 V 13.000 C 81.000 13.100 81.100 13.000 81.000 13.000 H 75.200 C 75.100 13.000 75.200 13.100 75.200 13.000 V 10.100 C 75.200 10.045 75.155 10.000 75.100 10.000 H 69.100 C 69.045 10.000 69.000 10.045 69.000 10.100 V 13.000 C 69.000 13.100 69.100 13.000 69.000 13.000 H 63.200 C 63.100 13.000 63.200 13.100 63.200 13.000 V 10.100 C 63.200 10.045 63.155 10.000 63.100 10.000 H 57.100 C 57.045 10.000 57.000 10.045 57.000 10.100 V 13.000 C 57.000 13.100 57.100 13.000 57.000 13.000 H 51.200 C 51.100 13.000 51.200 13.100 51.200 13.000 V 10.100 C 51.200 10.045 51.155 10.000 51.100 10.000 H 45.100 C 45.045 10.000 45.000 10.045 45.000 10.100 V 13.000 C 45.000 13.100 45.100 13.000 45.000 13.000 H 39.200 C 39.100 13.000 39.200 13.100 39.200 13.000 V 10.100 C 39.200 10.045 39.155 10.000 39.100 10.000 H 33.100 C 33.045 10.000 33.000 10.045 33.000 10.100 V 13.000 C 33.000 13.100 33.100 13.000 33.000 13.000 H 27.200 C 27.100 13.000 27.200 13.100 27.200 13.000 V 10.100 C 27.200 10.045 27.155 10.000 27.100 10.000 H 21.100 C 21.045 10.000 21.000 10.045 21.000 10.100 V 13.000 C 21.000 13.100 21.100 13.000 21.000 13.000 H 13.100 C 13.045 13.000 13.000 13.045 13.000 13.100 V 21.000 C 13.000 21.100 13.100 21.000 13.000 21.000 H 10.100 C 10.045 21.000 10.000 21.045 10.000 21.100 V 27.100 C 10.000 27.155 10.045 27.200 10.100 27.200 H 13.000 C 13.100 27.200 13.000 27.100 13.000 27.200 V 33.000 C 13.000 33.100 13.100 33.000 13.000 33.000 H 10.100 C 10.045 33.000 10.000 33.045 10.000 33.100 V 39.100 C 10.000 39.155 10.045 39.200 10.100 39.200 H 13.000 C 13.100 39.200 13.000 39.100 13.000 39.200 V 45.000 C 13.000 45.100 13.100 45.000 13.000 45.000 H 10.100 C 10.045 45.000 10.000 45.045 10.000 45.100 V 51.100 C 10.000 51.155 10.045 51.200 10.100 51.200 H 13.000 C 13.100 51.200 13.000 51.100 13.000 51.200 V 57.000 C 13.000 57.100 13.100 57.000 13.000 57.000 H 10.100 C 10.045 57.000 10.000 57.045 10.000 57.100 V 63.100 C 10.000 63.155 10.045 63.200 10.100 63.200 H 13.000 C 13.100 63.200 13.000 63.100 13.000 63.200 V 69.000 C 13.000 69.100 13.100 69.000 13.000 69.000 H 10.100 C 10.045 69.000 10.000 69.045 10.000 69.100 V 75.100 C 10.000 75.155 10.045 75.200 10.100 75.200 H 13.000 C 13.100 75.200 13.000 75.100 13.000 75.200 V 81.000 C 13.000 81.100 13.100 81.000 13.000 81.000 H 10.100 C 10.045 81.000 10.000 81.045 10.000 81.100 V 87.100 C 10.000 87.155 10.045 87.200 10.100 87.200 H 13.000 C 13.100 87.200 13.000 87.100 13.000 87.200 V 93.000 C 13.000 93.100 13.100 93.000 13.000 93.000 H 10.100 C 10.045 93.000 10.000 93.045 10.000 93.100 V 99.100 C 10.000 99.155 10.045 99.200 10.100 99.200 H 13.000 C 13.100 99.200 13.000 99.100 13.000 99.200 V 107.100 C 13.000 107.155 13.045 107.200 13.100 107.200" stroke="rgb(0,0,0)" stroke-width="0.20" />
</g>
<g id="p-3" style="fill:none;stroke-linecap:round;stroke-linejoin:round;">
  <text dominant-baseline="hanging" font-size="4px" style="font-family: sans-serif ; font-weight: normal; font-style: normal; fill: rgb(255,0,0)" text-anchor="middle" transform="matrix( 1.000 0.000 0.000 1.000 221.800 231.600 )">left</text><path d="M 174.800 273.600 H 182.800 C 182.855 273.600 182.900 273.555 182.900 273.500 V 270.600 C 182.900 270.500 182.800 270.600 182.900 270.600 H 188.700 C 188.800 270.600 188.700 270.500 188.700 270.600 V 273.500 C 188.700 273.555 188.745 273.600 188.800 273.600 H 194.800 C 194.855 273.600 194.900 273.555 194.900 273.500 V 270.600 C 194.900 270.500 194.800 270.600 194.900 270.600 H 200.700 C 200.800 270.600 200.700 270.500 200.700 270.600 V 273.500 C 200.700 273.555 200.745 273.600 200.800 273.600 H 206.800 C 206.855 273.600 206.900 273.555 206.900 273.500 V 270.600 C 206.900 270.500 206.800 270.600 206.900 270.600 H 212.700 C 212.800 270.600 212.700 270.500 212.700 270.600 V 273.500 C 212.700 273.555 212.745 273.600 212.800 273.600 H 218.800 C 218.855 273.600 218.900 273.555 218.900 273.500 V 270.600 C 218.900 270.500 218.800 270.600 218.900 270.600 H 224.700 C 224.800 270.600 224.700 270.500 224.700 270.600 V 273.500 C 224.700 273.555 224.745 273.600 224.800 273.600 H 230.800 C 230.855 273.600 230.900 273.555 230.900 273.500 V 270.600 C 230.900 270.500 230.800 270.600 230.900 270.600 H 236.700 C 236.800 270.600 236.700 270.500 236.700 270.600 V 273.500 C 236.700 273.555 236.745 273.600 236.800 273.600 H 242.800 C 242.855 273.600 242.900 273.555 242.900 273.500 V 270.600 C 242.900 270.500 242.800 270.600 242.900 270.600 H 248.700 C 248.800 270.600 248.700 270.500 248.700 270.600 V 273.500 C 248.700 273.555 248.745 273.600 248.800 273.600 H 254.800 C 254.855 273.600 254.900 273.555 254.900 273.500 V 270.600 C 254.900 270.500 254.800 270.600 254.900 270.600 H 260.700 C 260.800 270.600 260.700 270.500 260.700 270.600 V 273.500 C 260.700 273.555 260.745 273.600 260.800 273.600 H 268.800 C 268.855 273.600 268.900 273.555 268.900 273.500 V 266.600 C 268.900 266.500 268.800 266.600 268.900 266.600 H 271.800 C 271.855 266.600 271.900 266.555 271.900 266.500 V 260.500 C 271.900 260.445 271.855 260.400 271.800 260.400 H 268.900 C 268.800 260.400 268.900 260.500 268.900 260.400 V 254.600 C 268.900 254.500 268.800 254.600 268.900 254.600 H 271.800 C 271.855 254.600 271.900 254.555 271.900 254.500 V 248.500 C 271.900 248.445 271.855 248.400 271.800 248.400 H 268.900 C 268.800 248.400 268.900 248.500 268.900 248.400 V 242.600 C 268.900 242.500 268.800 242.600 268.900 242.600 H 271.800 C 271.855 242.600 271.900 242.555 271.900 242.500 V 236.500 C 271.900 236.445 271.855 236.400 271.800 236.400 H 268.900 C 268.800 236.400 268.900 236.500 268.900 236.400 V 230.600 C 268.900 230.500 268.800 230.600 268.900 230.600 H 271.800 C 271.855 230.600 271.900 230.555 271.900 230.500 V 224.500 C 271.900 224.445 271.855 224.400 271.800 224.400 H 268.900 C 268.800 224.400 268.900 224.500 268.900 224.400 V 218.600 C 268.900 218.500 268.800 218.600 268.900 218.600 H 271.800 C 271.855 218.600 271.900 218.555 271.900 218.500 V 212.500 C 271.900 212.445 271.855 212.400 271.800 212.400 H 268.900 C 268.800 212.400 268.900 212.500 268.900 212.400 V 206.600 C 268.900 206.500 268.800 206.600 268.900 206.600 H 271.800 C 271.855 206.600 271.900 206.555 271.900 206.500 V 200.500 C 271.900 200.445 271.855 200.400 271.800 200.400 H 268.900 C 268.800 200.400 268.900 200.500 268.900 200.400 V 193.500 C 268.900 193.445 268.855 193.400 268.800 193.400 H 174.800 C 174.745 193.400 174.700 193.445 174.700 193.500 V 200.400 C 174.700 200.500 174.800 200.400 174.700 200.400 H 171.800 C 171.745 200.400 171.700 200.445 171.700 200.500 V 206.500 C 171.700 206.555 171.745 206.600 171.800 206.600 H 174.700 C 174.800 206.600 174.700 206.500 174.700 206.600 V 212.400 C 174.700 212.500 174.800 212.400 174.700 212.400 H 171.800 C 171.745 212.400 171.700 212.445 171.700 212.500 V 218.500 C 171.700 218.555 171.745 218.600 171.800 218.600 H 174.700 C 174.800 218.600 174.700 218.500 174.700 218.600 V 224.400 C 174.700 224.500 174.800 224.400 174.700 224.400 H 171.800 C 171.745 224.400 171.700 224.445 171.700 224.500 V 230.500 C 171.700 230.555 171.745 230.600 171.800 230.600 H 174.700 C 174.800 230.600 174.700 230.500 174.700 230.600 V 236.400 C 174.700 236.500 174.800 236.400 174.700 236.400 H 171.800 C 171.745 236.400 171.700 236.445 171.700 236.500 V 242.500 C 171.700 242.555 171.745 242.600 171.800 242.600 H 174.700 C 174.800 242.600 174.700 242.500 174.700 242.600 V 248.400 C 174.700 248.500 174.800 248.400 174.700 248.400 H 171.800 C 171.745 248.400 171.700 248.445 171.700 248.500 V 254.500 C 171.700 254.555 171.745 254.600 171.800 254.600 H 174.700 C 174.800 254.600 174.700 254.500 174.700 254.600 V 260.400 C 174.700 260.500 174.800 260.400 174.700 260.400 H 171.800 C 171.745 260.400 171.700 260.445 171.700 260.500 V 266.500 C 171.700 266.555 171.745 266.600 171.800 266.600 H 174.700 C 174.800 266.600 174.700 266.500 174.700 266.600 V 273.500 C 174.700 273.555 174.745 273.600 174.800 273.600" stroke="rgb(0,0,0)" stroke-width="0.20" />
</g>
<g id="p-4" style="fill:none;stroke-linecap:round;stroke-linejoin:round;">
  <text dominant-baseline="hanging" font-size="4px" style="font-family: sans-serif ; font-weight: normal; font-style: normal; fill: rgb(255,0,0)" text-anchor="middle" transform="matrix( 1.000 0.000 0.000 1.000 221.800 149.900 )">right</text><path d="M 174.800 191.900 H 182.800 C 182.855 191.900 182.900 191.855 182.900 191.800 V 188.900 C 182.900 188.800 182.800 188.900 182.900 188.900 H 188.700 C 188.800 188.900 188.700 188.800 188.700 188.900 V 191.800 C 188.700 191.855 188.745 191.900 188.800 191.900 H 194.800 C 194.855 191.900 194.900 191.855 194.900 191.800 V 188.900 C 194.900 188.800 194.800 188.900 194.900 188.900 H 200.700 C 200.800 188.900 200.700 188.800 200.700 188.900 V 191.800 C 200.700 191.855 200.745 191.900 200.800 191.900 H 206.800 C 206.855 191.900 206.900 191.855 206.900 191.800 V 188.900 C 206.900 188.800 206.800 188.900 206.900 188.900 H 212.700 C 212.800 188.900 212.700 188.800 212.700 188.900 V 191.800 C 212.700 191.855 212.745 191.900 212.800 191.900 H 218.800 C 218.855 191.900 218.900 191.855 218.900 191.800 V 188.900 C 218.900 188.800 218.800 188.900 218.900 188.900 H 224.700 C 224.800 188.900 224.700 188.800 224.700 188.900 V 191.800 C 224.700 191.855 224.745 191.900 224.800 191.900 H 230.800 C 230.855 191.900 230.900 191.855 230.900 191.800 V 188.900 C 230.900 188.800 230.800 188.900 230.900 188.900 H 236.700 C 236.800 188.900 236.700 188.800 236.700 188.900 V 191.800 C 236.700 191.855 236.745 191.900 236.800 191.900 H 242.800 C 242.855 191.900 242.900 191.855 242.900 191.800 V 188.900 C 242.900 188.800 242.800 188.900 242.900 188.900 H 248.700 C 248.800 188.900 248.700 188.800 248.700 188.900 V 191.800 C 248.700 191.855 248.745 191.900 248.800 191.900 H 254.800 C 254.855 191.900 254.900 191.855 254.900 191.800 V 188.900 C 254.900 188.800 254.800 188.900 254.900 188.900 H 260.700 C 260.800 188.900 260.700 188.800 260.700 188.900 V 191.800 C 260.700 191.855 260.745 191.900 260.800 191.900 H 268.800 C 268.855 191.900 268.900 191.855 268.900 191.800 V 184.900 C 268.900 184.800 268.800 184.900 268.900 184.900 H 271.800 C 271.855 184.900 271.900 184.855 271.900 184.800 V 178.800 C 271.900 178.745 271.855 178.700 271.800 178.700 H 268.900 C 268.800 178.700 268.900 178.800 268.900 178.700 V 172.900 C 268.900 172.800 268.800 172.900 268.900 172.900 H 271.800 C 271.855 172.900 271.900 172.855 271.900 172.800 V 166.800 C 271.900 166.745 271.855 166.700 271.800 166.700 H 268.900 C 268.800 166.700 268.900 166.800 268.900 166.700 V 160.900 C 268.900 160.800 268.800 160.900 268.900 160.900 H 271.800 C 271.855 160.900 271.900 160.855 271.900 160.800 V 154.800 C 271.900 154.745 271.855 154.700 271.800 154.700 H 268.900 C 268.800 154.700 268.900 154.800 268.900 154.700 V 148.900 C 268.900 148.800 268.800 148.900 268.900 148.900 H 271.800 C 271.855 148.900 271.900 148.855 271.900 148.800 V 142.800 C 271.900 142.745 271.855 142.700 271.800 142.700 H 268.900 C 268.800 142.700 268.900 142.800 268.900 142.700 V 136.900 C 268.900 136.800 268.800 136.900 268.900 136.900 H 271.800 C 271.855 136.900 271.900 136.855 271.900 136.800 V 130.800 C 271.900 130.745 271.855 130.700 271.800 130.700 H 268.900 C 268.800 130.700 268.900 130.800 268.900 130.700 V 124.900 C 268.900 124.800 268.800 124.900 268.900 124.900 H 271.800 C 271.855 124.900 271.900 124.855 271.900 124.800 V 118.800 C 271.900 118.745 271.855 118.700 271.800 118.700 H 268.900 C 268.800 118.700 268.900 118.800 268.900 118.700 V 111.800 C 268.900 111.745 268.855 111.700 268.800 111.700 H 174.800 C 174.745 111.700 174.700 111.745 174.700 111.800 V 118.700 C 174.700 118.800 174.800 118.700 174.700 118.700 H 171.800 C 171.745 118.700 171.700 118.745 171.700 118.800 V 124.800 C 171.700 124.855 171.745 124.900 171.800 124.900 H 174.700 C 174.800 124.900 174.700 124.800 174.700 124.900 V 130.700 C 174.700 130.800 174.800 130.700 174.700 130.700 H 171.800 C 171.745 130.700 171.700 130.745 171.700 130.800 V 136.800 C 171.700 136.855 171.745 136.900 171.800 136.900 H 174.700 C 174.800 136.900 174.700 136.800 174.700 136.900 V 142.700 C 174.700 142.800 174.800 142.700 174.700 142.700 H 171.800 C 171.745 142.700 171.700 142.745 171.700 142.800 V 148.800 C 171.700 148.855 171.745 148.900 171.800 148.900 H 174.700 C 174.800 148.900 174.700 148.800 174.700 148.900 V 154.700 C 174.700 154.800 174.800 154.700 174.700 154.700 H 171.800 C 171.745 154.700 171.700 154.745 171.700 154.800 V 160.800 C 171.700 160.855 171.745 160.900 171.800 160.900 H 174.700 C 174.800 160.900 174.700 160.800 174.700 160.900 V 166.700 C 174.700 166.800 174.800 166.700 174.700 166.700 H 171.800 C 171.745 166.700 171.700 166.745 171.700 166.800 V 172.800 C 171.700 172.855 171.745 172.900 171.800 172.900 H 174.700 C 174.800 172.900 174.700 172.800 174.700 172.900 V 178.700 C 174.700 178.800 174.800 178.700 174.700 178.700 H 171.800 C 171.745 178.700 171.700 178.745 171.700 178.800 V 184.800 C 171.700 184.855 171.745 184.900 171.800 184.900 H 174.700 C 174.800 184.900 174.700 184.800 174.700 184.900 V 191.800 C 174.700 191.855 174.745 191.900 174.800 191.900" stroke="rgb(0,0,0)" stroke-width="0.20" />
</g>
</svg>