<?xml version='1.0' encoding='utf-8'?>
<svg height="677.00mm" viewBox="0.0 0.0 62.40 677.00" width="62.40mm" xmlns="http://www.w3.org/2000/svg" xmlns:cc="http://creativecommons.org/ns#" xmlns:dc="http://purl.org/dc/elements/1.1/" xmlns:inkscape="http://www.inkscape.org/namespaces/inkscape" xmlns:rdf="http://www.w3.org/1999/02/22-rdf-syntax-ns#" xmlns:svg="http://www.w3.org/2000/svg" xmlns:xlink="http://www.w3.org/1999/xlink">
<!--
UniversalBox - Box with various options for different styles and lids

Created with Boxes.py (https://boxes.hackerspace-bamberg.de/)
Creation date: 2024-09-28 13:11:03
Command line (remove spaces between dashes): boxes UniversalBox - -top_edge=F - -bottom_edge=F - -x=20.0 - -y=20.0 - -h=290.0 - -thickness=4.0 - -reference=0
Url: https://boxes.hackerspace-bamberg.de/UniversalBox?FingerJoint_style=rectangular&FingerJoint_surroundingspaces=2.0&FingerJoint_bottom_lip=0.0&FingerJoint_edge_width=1.0&FingerJoint_extra_length=0.0&FingerJoint_finger=2.0&FingerJoint_play=0.0&FingerJoint_space=2.0&FingerJoint_width=1.0&Stackable_angle=60&Stackable_bottom_stabilizers=0.0&Stackable_height=2.0&Stackable_holedistance=1.0&Stackable_width=4.0&Hinge_grip_percentage=0&Hinge_outset=0&Hinge_outset=1&Hinge_pinwidth=0.5&Hinge_style=outset&Hinge_axle=2.0&Hinge_grip_length=0&Hinge_hingestrength=1&CabinetHinge_bore=3.2&CabinetHinge_eyes_per_hinge=5&CabinetHinge_hinges=2&CabinetHinge_style=inside&CabinetHinge_eye=1.5&CabinetHinge_play=0.05&CabinetHinge_spacing=2.0&SlideOnLid_hole_width=0&SlideOnLid_second_pin=0&SlideOnLid_second_pin=1&SlideOnLid_spring=both&SlideOnLid_style=rectangular&SlideOnLid_surroundingspaces=2.0&SlideOnLid_bottom_lip=0.0&SlideOnLid_edge_width=1.0&SlideOnLid_extra_length=0.0&SlideOnLid_finger=3.0&SlideOnLid_play=0.05&SlideOnLid_space=2.0&SlideOnLid_width=1.0&Click_angle=5.0&Click_bottom_radius=0.1&Click_depth=3.0&RoundedTriangleEdge_height=50.0&RoundedTriangleEdge_r_hole=2.0&RoundedTriangleEdge_radius=30.0&RoundedTriangleEdge_outset=1.0&Mounting_d_head=6.5&Mounting_d_shaft=3.0&Mounting_margin=0.125&Mounting_num=2&Mounting_side=back&Mounting_style=straight+edge%2C+within&HandleEdge_height=20.0&HandleEdge_hole_height=75.0&HandleEdge_hole_width=40%3A40&HandleEdge_on_sides=0&HandleEdge_on_sides=1&HandleEdge_radius=10.0&HandleEdge_outset=1.0&Flex_stretch=1.05&Flex_connection=1.0&Flex_distance=0.5&Flex_width=5.0&Lid_handle=none&Lid_style=none&Lid_handle_height=8.0&Lid_height=4.0&Lid_play=0.1&top_edge=F&bottom_edge=F&x=20.0&y=20.0&h=290.0&outside=0&outside=1&vertical_edges=finger+joints&thickness=4.0&format=svg&tabs=0.0&qr_code=0&debug=0&labels=0&labels=1&reference=0&inner_corners=loop&burn=0.10&language=en&render=2
Url short: https://boxes.hackerspace-bamberg.de/UniversalBox?top_edge=F&bottom_edge=F&x=20.0&y=20.0&h=290.0&thickness=4.0&reference=0
SettingsUrl: https://boxes.hackerspace-bamberg.de/UniversalBox?FingerJoint_style=rectangular&FingerJoint_surroundingspaces=2.0&FingerJoint_bottom_lip=0.0&FingerJoint_edge_width=1.0&FingerJoint_extra_length=0.0&FingerJoint_finger=2.0&FingerJoint_play=0.0&FingerJoint_space=2.0&FingerJoint_width=1.0&Stackable_angle=60&Stackable_bottom_stabilizers=0.0&Stackable_height=2.0&Stackable_holedistance=1.0&Stackable_width=4.0&Hinge_grip_percentage=0&Hinge_outset=0&Hinge_outset=1&Hinge_pinwidth=0.5&Hinge_style=outset&Hinge_axle=2.0&Hinge_grip_length=0&Hinge_hingestrength=1&CabinetHinge_bore=3.2&CabinetHinge_eyes_per_hinge=5&CabinetHinge_hinges=2&CabinetHinge_style=inside&CabinetHinge_eye=1.5&CabinetHinge_play=0.05&CabinetHinge_spacing=2.0&SlideOnLid_hole_width=0&SlideOnLid_second_pin=0&SlideOnLid_second_pin=1&SlideOnLid_spring=both&SlideOnLid_style=rectangular&SlideOnLid_surroundingspaces=2.0&SlideOnLid_bottom_lip=0.0&SlideOnLid_edge_width=1.0&SlideOnLid_extra_length=0.0&SlideOnLid_finger=3.0&SlideOnLid_play=0.05&SlideOnLid_space=2.0&SlideOnLid_width=1.0&Click_angle=5.0&Click_bottom_radius=0.1&Click_depth=3.0&RoundedTriangleEdge_height=50.0&RoundedTriangleEdge_r_hole=2.0&RoundedTriangleEdge_radius=30.0&RoundedTriangleEdge_outset=1.0&Mounting_d_head=6.5&Mounting_d_shaft=3.0&Mounting_margin=0.125&Mounting_num=2&Mounting_side=back&Mounting_style=straight+edge%2C+within&HandleEdge_height=20.0&HandleEdge_hole_height=75.0&HandleEdge_hole_width=40%3A40&HandleEdge_on_sides=0&HandleEdge_on_sides=1&HandleEdge_radius=10.0&HandleEdge_outset=1.0&Flex_stretch=1.05&Flex_connection=1.0&Flex_distance=0.5&Flex_width=5.0&Lid_handle=none&Lid_style=none&Lid_handle_height=8.0&Lid_height=4.0&Lid_play=0.1&top_edge=F&bottom_edge=F&x=20.0&y=20.0&h=290.0&outside=0&outside=1&vertical_edges=finger+joints&thickness=4.0&format=svg&tabs=0.0&qr_code=0&debug=0&labels=0&labels=1&reference=0&inner_corners=loop&burn=0.10&language=en&render=2
SettingsUrl short: https://boxes.hackerspace-bamberg.de/UniversalBox?top_edge=F&bottom_edge=F&x=20.0&y=20.0&h=290.0&thickness=4.0&reference=0
-->
<title>UniversalBox</title>
<metadata>
<rdf:RDF><cc:Work>
<dc:title>Box - UniversalBox</dc:title>
<dc:date>2024-09-28 13:11:03</dc:date>
<dc:source>https://boxes.hackerspace-bamberg.de/UniversalBox?FingerJoint_style=rectangular&amp;FingerJoint_surroundingspaces=2.0&amp;FingerJoint_bottom_lip=0.0&amp;FingerJoint_edge_width=1.0&amp;FingerJoint_extra_length=0.0&amp;FingerJoint_finger=2.0&amp;FingerJoint_play=0.0&amp;FingerJoint_space=2.0&amp;FingerJoint_width=1.0&amp;Stackable_angle=60&amp;Stackable_bottom_stabilizers=0.0&amp;Stackable_height=2.0&amp;Stackable_holedistance=1.0&amp;Stackable_width=4.0&amp;Hinge_grip_percentage=0&amp;Hinge_outset=0&amp;Hinge_outset=1&amp;Hinge_pinwidth=0.5&amp;Hinge_style=outset&amp;Hinge_axle=2.0&amp;Hinge_grip_length=0&amp;Hinge_hingestrength=1&amp;CabinetHinge_bore=3.2&amp;CabinetHinge_eyes_per_hinge=5&amp;CabinetHinge_hinges=2&amp;CabinetHinge_style=inside&amp;CabinetHinge_eye=1.5&amp;CabinetHinge_play=0.05&amp;CabinetHinge_spacing=2.0&amp;SlideOnLid_hole_width=0&amp;SlideOnLid_second_pin=0&amp;SlideOnLid_second_pin=1&amp;SlideOnLid_spring=both&amp;SlideOnLid_style=rectangular&amp;SlideOnLid_surroundingspaces=2.0&amp;SlideOnLid_bottom_lip=0.0&amp;SlideOnLid_edge_width=1.0&amp;SlideOnLid_extra_length=0.0&amp;SlideOnLid_finger=3.0&amp;SlideOnLid_play=0.05&amp;SlideOnLid_space=2.0&amp;SlideOnLid_width=1.0&amp;Click_angle=5.0&amp;Click_bottom_radius=0.1&amp;Click_depth=3.0&amp;RoundedTriangleEdge_height=50.0&amp;RoundedTriangleEdge_r_hole=2.0&amp;RoundedTriangleEdge_radius=30.0&amp;RoundedTriangleEdge_outset=1.0&amp;Mounting_d_head=6.5&amp;Mounting_d_shaft=3.0&amp;Mounting_margin=0.125&amp;Mounting_num=2&amp;Mounting_side=back&amp;Mounting_style=straight+edge%2C+within&amp;HandleEdge_height=20.0&amp;HandleEdge_hole_height=75.0&amp;HandleEdge_hole_width=40%3A40&amp;HandleEdge_on_sides=0&amp;HandleEdge_on_sides=1&amp;HandleEdge_radius=10.0&amp;HandleEdge_outset=1.0&amp;Flex_stretch=1.05&amp;Flex_connection=1.0&amp;Flex_distance=0.5&amp;Flex_width=5.0&amp;Lid_handle=none&amp;Lid_style=none&amp;Lid_handle_height=8.0&amp;Lid_height=4.0&amp;Lid_play=0.1&amp;top_edge=F&amp;bottom_edge=F&amp;x=20.0&amp;y=20.0&amp;h=290.0&amp;outside=0&amp;outside=1&amp;vertical_edges=finger+joints&amp;thickness=4.0&amp;format=svg&amp;tabs=0.0&amp;qr_code=0&amp;debug=0&amp;labels=0&amp;labels=1&amp;reference=0&amp;inner_corners=loop&amp;burn=0.10&amp;language=en&amp;render=2</dc:source>
<dc:source>https://boxes.hackerspace-bamberg.de/UniversalBox?top_edge=F&amp;bottom_edge=F&amp;x=20.0&amp;y=20.0&amp;h=290.0&amp;thickness=4.0&amp;reference=0</dc:source>
<dc:description>Box with various options for different styles and lids

Created with Boxes.py (https://boxes.hackerspace-bamberg.de/)
Command line: boxes UniversalBox --FingerJoint_style=rectangular --FingerJoint_surroundingspaces=2.0 --FingerJoint_bottom_lip=0.0 --FingerJoint_edge_width=1.0 --FingerJoint_extra_length=0.0 --FingerJoint_finger=2.0 --FingerJoint_play=0.0 --FingerJoint_space=2.0 --FingerJoint_width=1.0 --Stackable_angle=60 --Stackable_bottom_stabilizers=0.0 --Stackable_height=2.0 --Stackable_holedistance=1.0 --Stackable_width=4.0 --Hinge_grip_percentage=0 --Hinge_outset=0 --Hinge_outset=1 --Hinge_pinwidth=0.5 --Hinge_style=outset --Hinge_axle=2.0 --Hinge_grip_length=0 --Hinge_hingestrength=1 --CabinetHinge_bore=3.2 --CabinetHinge_eyes_per_hinge=5 --CabinetHinge_hinges=2 --CabinetHinge_style=inside --CabinetHinge_eye=1.5 --CabinetHinge_play=0.05 --CabinetHinge_spacing=2.0 --SlideOnLid_hole_width=0 --SlideOnLid_second_pin=0 --SlideOnLid_second_pin=1 --SlideOnLid_spring=both --SlideOnLid_style=rectangular --SlideOnLid_surroundingspaces=2.0 --SlideOnLid_bottom_lip=0.0 --SlideOnLid_edge_width=1.0 --SlideOnLid_extra_length=0.0 --SlideOnLid_finger=3.0 --SlideOnLid_play=0.05 --SlideOnLid_space=2.0 --SlideOnLid_width=1.0 --Click_angle=5.0 --Click_bottom_radius=0.1 --Click_depth=3.0 --RoundedTriangleEdge_height=50.0 --RoundedTriangleEdge_r_hole=2.0 --RoundedTriangleEdge_radius=30.0 --RoundedTriangleEdge_outset=1.0 --Mounting_d_head=6.5 --Mounting_d_shaft=3.0 --Mounting_margin=0.125 --Mounting_num=2 --Mounting_side=back '--Mounting_style=straight edge, within' --HandleEdge_height=20.0 --HandleEdge_hole_height=75.0 --HandleEdge_hole_width=40:40 --HandleEdge_on_sides=0 --HandleEdge_on_sides=1 --HandleEdge_radius=10.0 --HandleEdge_outset=1.0 --Flex_stretch=1.05 --Flex_connection=1.0 --Flex_distance=0.5 --Flex_width=5.0 --Lid_handle=none --Lid_style=none --Lid_handle_height=8.0 --Lid_height=4.0 --Lid_play=0.1 --top_edge=F --bottom_edge=F --x=20.0 --y=20.0 --h=290.0 --outside=0 --outside=1 '--vertical_edges=finger joints' --thickness=4.0 --format=svg --tabs=0.0 --qr_code=0 --debug=0 --labels=0 --labels=1 --reference=0 --inner_corners=loop --burn=0.10
Command line short: boxes UniversalBox --top_edge=F --bottom_edge=F --x=20.0 --y=20.0 --h=290.0 --thickness=4.0 --reference=0
Url: https://boxes.hackerspace-bamberg.de/UniversalBox?FingerJoint_style=rectangular&amp;FingerJoint_surroundingspaces=2.0&amp;FingerJoint_bottom_lip=0.0&amp;FingerJoint_edge_width=1.0&amp;FingerJoint_extra_length=0.0&amp;FingerJoint_finger=2.0&amp;FingerJoint_play=0.0&amp;FingerJoint_space=2.0&amp;FingerJoint_width=1.0&amp;Stackable_angle=60&amp;Stackable_bottom_stabilizers=0.0&amp;Stackable_height=2.0&amp;Stackable_holedistance=1.0&amp;Stackable_width=4.0&amp;Hinge_grip_percentage=0&amp;Hinge_outset=0&amp;Hinge_outset=1&amp;Hinge_pinwidth=0.5&amp;Hinge_style=outset&amp;Hinge_axle=2.0&amp;Hinge_grip_length=0&amp;Hinge_hingestrength=1&amp;CabinetHinge_bore=3.2&amp;CabinetHinge_eyes_per_hinge=5&amp;CabinetHinge_hinges=2&amp;CabinetHinge_style=inside&amp;CabinetHinge_eye=1.5&amp;CabinetHinge_play=0.05&amp;CabinetHinge_spacing=2.0&amp;SlideOnLid_hole_width=0&amp;SlideOnLid_second_pin=0&amp;SlideOnLid_second_pin=1&amp;SlideOnLid_spring=both&amp;SlideOnLid_style=rectangular&amp;SlideOnLid_surroundingspaces=2.0&amp;SlideOnLid_bottom_lip=0.0&amp;SlideOnLid_edge_width=1.0&amp;SlideOnLid_extra_length=0.0&amp;SlideOnLid_finger=3.0&amp;SlideOnLid_play=0.05&amp;SlideOnLid_space=2.0&amp;SlideOnLid_width=1.0&amp;Click_angle=5.0&amp;Click_bottom_radius=0.1&amp;Click_depth=3.0&amp;RoundedTriangleEdge_height=50.0&amp;RoundedTriangleEdge_r_hole=2.0&amp;RoundedTriangleEdge_radius=30.0&amp;RoundedTriangleEdge_outset=1.0&amp;Mounting_d_head=6.5&amp;Mounting_d_shaft=3.0&amp;Mounting_margin=0.125&amp;Mounting_num=2&amp;Mounting_side=back&amp;Mounting_style=straight+edge%2C+within&amp;HandleEdge_height=20.0&amp;HandleEdge_hole_height=75.0&amp;HandleEdge_hole_width=40%3A40&amp;HandleEdge_on_sides=0&amp;HandleEdge_on_sides=1&amp;HandleEdge_radius=10.0&amp;HandleEdge_outset=1.0&amp;Flex_stretch=1.05&amp;Flex_connection=1.0&amp;Flex_distance=0.5&amp;Flex_width=5.0&amp;Lid_handle=none&amp;Lid_style=none&amp;Lid_handle_height=8.0&amp;Lid_height=4.0&amp;Lid_play=0.1&amp;top_edge=F&amp;bottom_edge=F&amp;x=20.0&amp;y=20.0&amp;h=290.0&amp;outside=0&amp;outside=1&amp;vertical_edges=finger+joints&amp;thickness=4.0&amp;format=svg&amp;tabs=0.0&amp;qr_code=0&amp;debug=0&amp;labels=0&amp;labels=1&amp;reference=0&amp;inner_corners=loop&amp;burn=0.10&amp;language=en&amp;render=2
Url short: https://boxes.hackerspace-bamberg.de/UniversalBox?top_edge=F&amp;bottom_edge=F&amp;x=20.0&amp;y=20.0&amp;h=290.0&amp;thickness=4.0&amp;reference=0
SettingsUrl: https://boxes.hackerspace-bamberg.de/UniversalBox?FingerJoint_style=rectangular&amp;FingerJoint_surroundingspaces=2.0&amp;FingerJoint_bottom_lip=0.0&amp;FingerJoint_edge_width=1.0&amp;FingerJoint_extra_length=0.0&amp;FingerJoint_finger=2.0&amp;FingerJoint_play=0.0&amp;FingerJoint_space=2.0&amp;FingerJoint_width=1.0&amp;Stackable_angle=60&amp;Stackable_bottom_stabilizers=0.0&amp;Stackable_height=2.0&amp;Stackable_holedistance=1.0&amp;Stackable_width=4.0&amp;Hinge_grip_percentage=0&amp;Hinge_outset=0&amp;Hinge_outset=1&amp;Hinge_pinwidth=0.5&amp;Hinge_style=outset&amp;Hinge_axle=2.0&amp;Hinge_grip_length=0&amp;Hinge_hingestrength=1&amp;CabinetHinge_bore=3.2&amp;CabinetHinge_eyes_per_hinge=5&amp;CabinetHinge_hinges=2&amp;CabinetHinge_style=inside&amp;CabinetHinge_eye=1.5&amp;CabinetHinge_play=0.05&amp;CabinetHinge_spacing=2.0&amp;SlideOnLid_hole_width=0&amp;SlideOnLid_second_pin=0&amp;SlideOnLid_second_pin=1&amp;SlideOnLid_spring=both&amp;SlideOnLid_style=rectangular&amp;SlideOnLid_surroundingspaces=2.0&amp;SlideOnLid_bottom_lip=0.0&amp;SlideOnLid_edge_width=1.0&amp;SlideOnLid_extra_length=0.0&amp;SlideOnLid_finger=3.0&amp;SlideOnLid_play=0.05&amp;SlideOnLid_space=2.0&amp;SlideOnLid_width=1.0&amp;Click_angle=5.0&amp;Click_bottom_radius=0.1&amp;Click_depth=3.0&amp;RoundedTriangleEdge_height=50.0&amp;RoundedTriangleEdge_r_hole=2.0&amp;RoundedTriangleEdge_radius=30.0&amp;RoundedTriangleEdge_outset=1.0&amp;Mounting_d_head=6.5&amp;Mounting_d_shaft=3.0&amp;Mounting_margin=0.125&amp;Mounting_num=2&amp;Mounting_side=back&amp;Mounting_style=straight+edge%2C+within&amp;HandleEdge_height=20.0&amp;HandleEdge_hole_height=75.0&amp;HandleEdge_hole_width=40%3A40&amp;HandleEdge_on_sides=0&amp;HandleEdge_on_sides=1&amp;HandleEdge_radius=10.0&amp;HandleEdge_outset=1.0&amp;Flex_stretch=1.05&amp;Flex_connection=1.0&amp;Flex_distance=0.5&amp;Flex_width=5.0&amp;Lid_handle=none&amp;Lid_style=none&amp;Lid_handle_height=8.0&amp;Lid_height=4.0&amp;Lid_play=0.1&amp;top_edge=F&amp;bottom_edge=F&amp;x=20.0&amp;y=20.0&amp;h=290.0&amp;outside=0&amp;outside=1&amp;vertical_edges=finger+joints&amp;thickness=4.0&amp;format=svg&amp;tabs=0.0&amp;qr_code=0&amp;debug=0&amp;labels=0&amp;labels=1&amp;reference=0&amp;inner_corners=loop&amp;burn=0.10&amp;language=en&amp;render=2
SettingsUrl short: https://boxes.hackerspace-bamberg.de/UniversalBox?top_edge=F&amp;bottom_edge=F&amp;x=20.0&amp;y=20.0&amp;h=290.0&amp;thickness=4.0&amp;reference=0
</dc:description>
</cc:Work></rdf:RDF></metadata>
<g id="p-0" style="fill:none;stroke-linecap:round;stroke-linejoin:round;">
  <text dominant-baseline="hanging" font-size="4px" style="font-family: sans-serif ; font-weight: normal; font-style: normal; fill: rgb(255,0,0)" text-anchor="middle" transform="matrix( 1.000 0.000 0.000 1.000 20.100 520.000 )">front</text><path d="M 14.100 667.000 H 17.100 C 17.155 667.000 17.200 666.955 17.200 666.900 V 663.000 C 17.200 662.900 17.100 663.000 17.200 663.000 H 23.000 C 23.100 663.000 23.000 662.900 23.000 663.000 V 666.900 C 23.000 666.955 23.045 667.000 23.100 667.000 H 26.100 H 30.100 C 30.155 667.000 30.200 666.955 30.200 666.900 V 655.900 C 30.200 655.845 30.155 655.800 30.100 655.800 H 26.200 C 26.100 655.800 26.200 655.900 26.200 655.800 V 648.000 C 26.200 647.900 26.100 648.000 26.200 648.000 H 30.100 C 30.155 648.000 30.200 647.955 30.200 647.900 V 639.900 C 30.200 639.845 30.155 639.800 30.100 639.800 H 26.200 C 26.100 639.800 26.200 639.900 26.200 639.800 V 632.000 C 26.200 631.900 26.100 632.000 26.200 632.000 H 30.100 C 30.155 632.000 30.200 631.955 30.200 631.900 V 623.900 C 30.200 623.845 30.155 623.800 30.100 623.800 H 26.200 C 26.100 623.800 26.200 623.900 26.200 623.800 V 616.000 C 26.200 615.900 26.100 616.000 26.200 616.000 H 30.100 C 30.155 616.000 30.200 615.955 30.200 615.900 V 607.900 C 30.200 607.845 30.155 607.800 30.100 607.800 H 26.200 C 26.100 607.800 26.200 607.900 26.200 607.800 V 600.000 C 26.200 599.900 26.100 600.000 26.200 600.000 H 30.100 C 30.155 600.000 30.200 599.955 30.200 599.900 V 591.900 C 30.200 591.845 30.155 591.800 30.100 591.800 H 26.200 C 26.100 591.800 26.200 591.900 26.200 591.800 V 584.000 C 26.200 583.900 26.100 584.000 26.200 584.000 H 30.100 C 30.155 584.000 30.200 583.955 30.200 583.900 V 575.900 C 30.200 575.845 30.155 575.800 30.100 575.800 H 26.200 C 26.100 575.800 26.200 575.900 26.200 575.800 V 568.000 C 26.200 567.900 26.100 568.000 26.200 568.000 H 30.100 C 30.155 568.000 30.200 567.955 30.200 567.900 V 559.900 C 30.200 559.845 30.155 559.800 30.100 559.800 H 26.200 C 26.100 559.800 26.200 559.900 26.200 559.800 V 552.000 C 26.200 551.900 26.100 552.000 26.200 552.000 H 30.100 C 30.155 552.000 30.200 551.955 30.200 551.900 V 543.900 C 30.200 543.845 30.155 543.800 30.100 543.800 H 26.200 C 26.100 543.800 26.200 543.900 26.200 543.800 V 536.000 C 26.200 535.900 26.100 536.000 26.200 536.000 H 30.100 C 30.155 536.000 30.200 535.955 30.200 535.900 V 527.900 C 30.200 527.845 30.155 527.800 30.100 527.800 H 26.200 C 26.100 527.800 26.200 527.900 26.200 527.800 V 520.000 C 26.200 519.900 26.100 520.000 26.200 520.000 H 30.100 C 30.155 520.000 30.200 519.955 30.200 519.900 V 511.900 C 30.200 511.845 30.155 511.800 30.100 511.800 H 26.200 C 26.100 511.800 26.200 511.900 26.200 511.800 V 504.000 C 26.200 503.900 26.100 504.000 26.200 504.000 H 30.100 C 30.155 504.000 30.200 503.955 30.200 503.900 V 495.900 C 30.200 495.845 30.155 495.800 30.100 495.800 H 26.200 C 26.100 495.800 26.200 495.900 26.200 495.800 V 488.000 C 26.200 487.900 26.100 488.000 26.200 488.000 H 30.100 C 30.155 488.000 30.200 487.955 30.200 487.900 V 479.900 C 30.200 479.845 30.155 479.800 30.100 479.800 H 26.200 C 26.100 479.800 26.200 479.900 26.200 479.800 V 472.000 C 26.200 471.900 26.100 472.000 26.200 472.000 H 30.100 C 30.155 472.000 30.200 471.955 30.200 471.900 V 463.900 C 30.200 463.845 30.155 463.800 30.100 463.800 H 26.200 C 26.100 463.800 26.200 463.900 26.200 463.800 V 456.000 C 26.200 455.900 26.100 456.000 26.200 456.000 H 30.100 C 30.155 456.000 30.200 455.955 30.200 455.900 V 447.900 C 30.200 447.845 30.155 447.800 30.100 447.800 H 26.200 C 26.100 447.800 26.200 447.900 26.200 447.800 V 440.000 C 26.200 439.900 26.100 440.000 26.200 440.000 H 30.100 C 30.155 440.000 30.200 439.955 30.200 439.900 V 431.900 C 30.200 431.845 30.155 431.800 30.100 431.800 H 26.200 C 26.100 431.800 26.200 431.900 26.200 431.800 V 424.000 C 26.200 423.900 26.100 424.000 26.200 424.000 H 30.100 C 30.155 424.000 30.200 423.955 30.200 423.900 V 415.900 C 30.200 415.845 30.155 415.800 30.100 415.800 H 26.200 C 26.100 415.800 26.200 415.900 26.200 415.800 V 408.000 C 26.200 407.900 26.100 408.000 26.200 408.000 H 30.100 C 30.155 408.000 30.200 407.955 30.200 407.900 V 399.900 C 30.200 399.845 30.155 399.800 30.100 399.800 H 26.200 C 26.100 399.800 26.200 399.900 26.200 399.800 V 392.000 C 26.200 391.900 26.100 392.000 26.200 392.000 H 30.100 C 30.155 392.000 30.200 391.955 30.200 391.900 V 380.900 V 376.900 C 30.200 376.845 30.155 376.800 30.100 376.800 H 26.100 H 23.100 C 23.045 376.800 23.000 376.845 23.000 376.900 V 380.800 C 23.000 380.900 23.100 380.800 23.000 380.800 H 17.200 C 17.100 380.800 17.200 380.900 17.200 380.800 V 376.900 C 17.200 376.845 17.155 376.800 17.100 376.800 H 14.100 H 10.100 C 10.045 376.800 10.000 376.845 10.000 376.900 V 380.900 V 391.900 C 10.000 391.955 10.045 392.000 10.100 392.000 H 14.000 C 14.100 392.000 14.000 391.900 14.000 392.000 V 399.800 C 14.000 399.900 14.100 399.800 14.000 399.800 H 10.100 C 10.045 399.800 10.000 399.845 10.000 399.900 V 407.900 C 10.000 407.955 10.045 408.000 10.100 408.000 H 14.000 C 14.100 408.000 14.000 407.900 14.000 408.000 V 415.800 C 14.000 415.900 14.100 415.800 14.000 415.800 H 10.100 C 10.045 415.800 10.000 415.845 10.000 415.900 V 423.900 C 10.000 423.955 10.045 424.000 10.100 424.000 H 14.000 C 14.100 424.000 14.000 423.900 14.000 424.000 V 431.800 C 14.000 431.900 14.100 431.800 14.000 431.800 H 10.100 C 10.045 431.800 10.000 431.845 10.000 431.900 V 439.900 C 10.000 439.955 10.045 440.000 10.100 440.000 H 14.000 C 14.100 440.000 14.000 439.900 14.000 440.000 V 447.800 C 14.000 447.900 14.100 447.800 14.000 447.800 H 10.100 C 10.045 447.800 10.000 447.845 10.000 447.900 V 455.900 C 10.000 455.955 10.045 456.000 10.100 456.000 H 14.000 C 14.100 456.000 14.000 455.900 14.000 456.000 V 463.800 C 14.000 463.900 14.100 463.800 14.000 463.800 H 10.100 C 10.045 463.800 10.000 463.845 10.000 463.900 V 471.900 C 10.000 471.955 10.045 472.000 10.100 472.000 H 14.000 C 14.100 472.000 14.000 471.900 14.000 472.000 V 479.800 C 14.000 479.900 14.100 479.800 14.000 479.800 H 10.100 C 10.045 479.800 10.000 479.845 10.000 479.900 V 487.900 C 10.000 487.955 10.045 488.000 10.100 488.000 H 14.000 C 14.100 488.000 14.000 487.900 14.000 488.000 V 495.800 C 14.000 495.900 14.100 495.800 14.000 495.800 H 10.100 C 10.045 495.800 10.000 495.845 10.000 495.900 V 503.900 C 10.000 503.955 10.045 504.000 10.100 504.000 H 14.000 C 14.100 504.000 14.000 503.900 14.000 504.000 V 511.800 C 14.000 511.900 14.100 511.800 14.000 511.800 H 10.100 C 10.045 511.800 10.000 511.845 10.000 511.900 V 519.900 C 10.000 519.955 10.045 520.000 10.100 520.000 H 14.000 C 14.100 520.000 14.000 519.900 14.000 520.000 V 527.800 C 14.000 527.900 14.100 527.800 14.000 527.800 H 10.100 C 10.045 527.800 10.000 527.845 10.000 527.900 V 535.900 C 10.000 535.955 10.045 536.000 10.100 536.000 H 14.000 C 14.100 536.000 14.000 535.900 14.000 536.000 V 543.800 C 14.000 543.900 14.100 543.800 14.000 543.800 H 10.100 C 10.045 543.800 10.000 543.845 10.000 543.900 V 551.900 C 10.000 551.955 10.045 552.000 10.100 552.000 H 14.000 C 14.100 552.000 14.000 551.900 14.000 552.000 V 559.800 C 14.000 559.900 14.100 559.800 14.000 559.800 H 10.100 C 10.045 559.800 10.000 559.845 10.000 559.900 V 567.900 C 10.000 567.955 10.045 568.000 10.100 568.000 H 14.000 C 14.100 568.000 14.000 567.900 14.000 568.000 V 575.800 C 14.000 575.900 14.100 575.800 14.000 575.800 H 10.100 C 10.045 575.800 10.000 575.845 10.000 575.900 V 583.900 C 10.000 583.955 10.045 584.000 10.100 584.000 H 14.000 C 14.100 584.000 14.000 583.900 14.000 584.000 V 591.800 C 14.000 591.900 14.100 591.800 14.000 591.800 H 10.100 C 10.045 591.800 10.000 591.845 10.000 591.900 V 599.900 C 10.000 599.955 10.045 600.000 10.100 600.000 H 14.000 C 14.100 600.000 14.000 599.900 14.000 600.000 V 607.800 C 14.000 607.900 14.100 607.800 14.000 607.800 H 10.100 C 10.045 607.800 10.000 607.845 10.000 607.900 V 615.900 C 10.000 615.955 10.045 616.000 10.100 616.000 H 14.000 C 14.100 616.000 14.000 615.900 14.000 616.000 V 623.800 C 14.000 623.900 14.100 623.800 14.000 623.800 H 10.100 C 10.045 623.800 10.000 623.845 10.000 623.900 V 631.900 C 10.000 631.955 10.045 632.000 10.100 632.000 H 14.000 C 14.100 632.000 14.000 631.900 14.000 632.000 V 639.800 C 14.000 639.900 14.100 639.800 14.000 639.800 H 10.100 C 10.045 639.800 10.000 639.845 10.000 639.900 V 647.900 C 10.000 647.955 10.045 648.000 10.100 648.000 H 14.000 C 14.100 648.000 14.000 647.900 14.000 648.000 V 655.800 C 14.000 655.900 14.100 655.800 14.000 655.800 H 10.100 C 10.045 655.800 10.000 655.845 10.000 655.900 V 666.900 C 10.000 666.955 10.045 667.000 10.100 667.000 H 14.100" stroke="rgb(0,0,0)" stroke-width="0.20" />
</g>
<g id="p-1" style="fill:none;stroke-linecap:round;stroke-linejoin:round;">
  <text dominant-baseline="hanging" font-size="4px" style="font-family: sans-serif ; font-weight: normal; font-style: normal; fill: rgb(255,0,0)" text-anchor="middle" transform="matrix( 1.000 0.000 0.000 1.000 20.100 227.800 )">back</text><path d="M 14.100 374.800 H 17.100 C 17.155 374.800 17.200 374.755 17.200 374.700 V 370.800 C 17.200 370.700 17.100 370.800 17.200 370.800 H 23.000 C 23.100 370.800 23.000 370.700 23.000 370.800 V 374.700 C 23.000 374.755 23.045 374.800 23.100 374.800 H 26.100 H 30.100 C 30.155 374.800 30.200 374.755 30.200 374.700 V 363.700 C 30.200 363.645 30.155 363.600 30.100 363.600 H 26.200 C 26.100 363.600 26.200 363.700 26.200 363.600 V 355.800 C 26.200 355.700 26.100 355.800 26.200 355.800 H 30.100 C 30.155 355.800 30.200 355.755 30.200 355.700 V 347.700 C 30.200 347.645 30.155 347.600 30.100 347.600 H 26.200 C 26.100 347.600 26.200 347.700 26.200 347.600 V 339.800 C 26.200 339.700 26.100 339.800 26.200 339.800 H 30.100 C 30.155 339.800 30.200 339.755 30.200 339.700 V 331.700 C 30.200 331.645 30.155 331.600 30.100 331.600 H 26.200 C 26.100 331.600 26.200 331.700 26.200 331.600 V 323.800 C 26.200 323.700 26.100 323.800 26.200 323.800 H 30.100 C 30.155 323.800 30.200 323.755 30.200 323.700 V 315.700 C 30.200 315.645 30.155 315.600 30.100 315.600 H 26.200 C 26.100 315.600 26.200 315.700 26.200 315.600 V 307.800 C 26.200 307.700 26.100 307.800 26.200 307.800 H 30.100 C 30.155 307.800 30.200 307.755 30.200 307.700 V 299.700 C 30.200 299.645 30.155 299.600 30.100 299.600 H 26.200 C 26.100 299.600 26.200 299.700 26.200 299.600 V 291.800 C 26.200 291.700 26.100 291.800 26.200 291.800 H 30.100 C 30.155 291.800 30.200 291.755 30.200 291.700 V 283.700 C 30.200 283.645 30.155 283.600 30.100 283.600 H 26.200 C 26.100 283.600 26.200 283.700 26.200 283.600 V 275.800 C 26.200 275.700 26.100 275.800 26.200 275.800 H 30.100 C 30.155 275.800 30.200 275.755 30.200 275.700 V 267.700 C 30.200 267.645 30.155 267.600 30.100 267.600 H 26.200 C 26.100 267.600 26.200 267.700 26.200 267.600 V 259.800 C 26.200 259.700 26.100 259.800 26.200 259.800 H 30.100 C 30.155 259.800 30.200 259.755 30.200 259.700 V 251.700 C 30.200 251.645 30.155 251.600 30.100 251.600 H 26.200 C 26.100 251.600 26.200 251.700 26.200 251.600 V 243.800 C 26.200 243.700 26.100 243.800 26.200 243.800 H 30.100 C 30.155 243.800 30.200 243.755 30.200 243.700 V 235.700 C 30.200 235.645 30.155 235.600 30.100 235.600 H 26.200 C 26.100 235.600 26.200 235.700 26.200 235.600 V 227.800 C 26.200 227.700 26.100 227.800 26.200 227.800 H 30.100 C 30.155 227.800 30.200 227.755 30.200 227.700 V 219.700 C 30.200 219.645 30.155 219.600 30.100 219.600 H 26.200 C 26.100 219.600 26.200 219.700 26.200 219.600 V 211.800 C 26.200 211.700 26.100 211.800 26.200 211.800 H 30.100 C 30.155 211.800 30.200 211.755 30.200 211.700 V 203.700 C 30.200 203.645 30.155 203.600 30.100 203.600 H 26.200 C 26.100 203.600 26.200 203.700 26.200 203.600 V 195.800 C 26.200 195.700 26.100 195.800 26.200 195.800 H 30.100 C 30.155 195.800 30.200 195.755 30.200 195.700 V 187.700 C 30.200 187.645 30.155 187.600 30.100 187.600 H 26.200 C 26.100 187.600 26.200 187.700 26.200 187.600 V 179.800 C 26.200 179.700 26.100 179.800 26.200 179.800 H 30.100 C 30.155 179.800 30.200 179.755 30.200 179.700 V 171.700 C 30.200 171.645 30.155 171.600 30.100 171.600 H 26.200 C 26.100 171.600 26.200 171.700 26.200 171.600 V 163.800 C 26.200 163.700 26.100 163.800 26.200 163.800 H 30.100 C 30.155 163.800 30.200 163.755 30.200 163.700 V 155.700 C 30.200 155.645 30.155 155.600 30.100 155.600 H 26.200 C 26.100 155.600 26.200 155.700 26.200 155.600 V 147.800 C 26.200 147.700 26.100 147.800 26.200 147.800 H 30.100 C 30.155 147.800 30.200 147.755 30.200 147.700 V 139.700 C 30.200 139.645 30.155 139.600 30.100 139.600 H 26.200 C 26.100 139.600 26.200 139.700 26.200 139.600 V 131.800 C 26.200 131.700 26.100 131.800 26.200 131.800 H 30.100 C 30.155 131.800 30.200 131.755 30.200 131.700 V 123.700 C 30.200 123.645 30.155 123.600 30.100 123.600 H 26.200 C 26.100 123.600 26.200 123.700 26.200 123.600 V 115.800 C 26.200 115.700 26.100 115.800 26.200 115.800 H 30.100 C 30.155 115.800 30.200 115.755 30.200 115.700 V 107.700 C 30.200 107.645 30.155 107.600 30.100 107.600 H 26.200 C 26.100 107.600 26.200 107.700 26.200 107.600 V 99.800 C 26.200 99.700 26.100 99.800 26.200 99.800 H 30.100 C 30.155 99.800 30.200 99.755 30.200 99.700 V 88.700 V 84.700 C 30.200 84.645 30.155 84.600 30.100 84.600 H 26.100 H 23.100 C 23.045 84.600 23.000 84.645 23.000 84.700 V 88.600 C 23.000 88.700 23.100 88.600 23.000 88.600 H 17.200 C 17.100 88.600 17.200 88.700 17.200 88.600 V 84.700 C 17.200 84.645 17.155 84.600 17.100 84.600 H 14.100 H 10.100 C 10.045 84.600 10.000 84.645 10.000 84.700 V 88.700 V 99.700 C 10.000 99.755 10.045 99.800 10.100 99.800 H 14.000 C 14.100 99.800 14.000 99.700 14.000 99.800 V 107.600 C 14.000 107.700 14.100 107.600 14.000 107.600 H 10.100 C 10.045 107.600 10.000 107.645 10.000 107.700 V 115.700 C 10.000 115.755 10.045 115.800 10.100 115.800 H 14.000 C 14.100 115.800 14.000 115.700 14.000 115.800 V 123.600 C 14.000 123.700 14.100 123.600 14.000 123.600 H 10.100 C 10.045 123.600 10.000 123.645 10.000 123.700 V 131.700 C 10.000 131.755 10.045 131.800 10.100 131.800 H 14.000 C 14.100 131.800 14.000 131.700 14.000 131.800 V 139.600 C 14.000 139.700 14.100 139.600 14.000 139.600 H 10.100 C 10.045 139.600 10.000 139.645 10.000 139.700 V 147.700 C 10.000 147.755 10.045 147.800 10.100 147.800 H 14.000 C 14.100 147.800 14.000 147.700 14.000 147.800 V 155.600 C 14.000 155.700 14.100 155.600 14.000 155.600 H 10.100 C 10.045 155.600 10.000 155.645 10.000 155.700 V 163.700 C 10.000 163.755 10.045 163.800 10.100 163.800 H 14.000 C 14.100 163.800 14.000 163.700 14.000 163.800 V 171.600 C 14.000 171.700 14.100 171.600 14.000 171.600 H 10.100 C 10.045 171.600 10.000 171.645 10.000 171.700 V 179.700 C 10.000 179.755 10.045 179.800 10.100 179.800 H 14.000 C 14.100 179.800 14.000 179.700 14.000 179.800 V 187.600 C 14.000 187.700 14.100 187.600 14.000 187.600 H 10.100 C 10.045 187.600 10.000 187.645 10.000 187.700 V 195.700 C 10.000 195.755 10.045 195.800 10.100 195.800 H 14.000 C 14.100 195.800 14.000 195.700 14.000 195.800 V 203.600 C 14.000 203.700 14.100 203.600 14.000 203.600 H 10.100 C 10.045 203.600 10.000 203.645 10.000 203.700 V 211.700 C 10.000 211.755 10.045 211.800 10.100 211.800 H 14.000 C 14.100 211.800 14.000 211.700 14.000 211.800 V 219.600 C 14.000 219.700 14.100 219.600 14.000 219.600 H 10.100 C 10.045 219.600 10.000 219.645 10.000 219.700 V 227.700 C 10.000 227.755 10.045 227.800 10.100 227.800 H 14.000 C 14.100 227.800 14.000 227.700 14.000 227.800 V 235.600 C 14.000 235.700 14.100 235.600 14.000 235.600 H 10.100 C 10.045 235.600 10.000 235.645 10.000 235.700 V 243.700 C 10.000 243.755 10.045 243.800 10.100 243.800 H 14.000 C 14.100 243.800 14.000 243.700 14.000 243.800 V 251.600 C 14.000 251.700 14.100 251.600 14.000 251.600 H 10.100 C 10.045 251.600 10.000 251.645 10.000 251.700 V 259.700 C 10.000 259.755 10.045 259.800 10.100 259.800 H 14.000 C 14.100 259.800 14.000 259.700 14.000 259.800 V 267.600 C 14.000 267.700 14.100 267.600 14.000 267.600 H 10.100 C 10.045 267.600 10.000 267.645 10.000 267.700 V 275.700 C 10.000 275.755 10.045 275.800 10.100 275.800 H 14.000 C 14.100 275.800 14.000 275.700 14.000 275.800 V 283.600 C 14.000 283.700 14.100 283.600 14.000 283.600 H 10.100 C 10.045 283.600 10.000 283.645 10.000 283.700 V 291.700 C 10.000 291.755 10.045 291.800 10.100 291.800 H 14.000 C 14.100 291.800 14.000 291.700 14.000 291.800 V 299.600 C 14.000 299.700 14.100 299.600 14.000 299.600 H 10.100 C 10.045 299.600 10.000 299.645 10.000 299.700 V 307.700 C 10.000 307.755 10.045 307.800 10.100 307.800 H 14.000 C 14.100 307.800 14.000 307.700 14.000 307.800 V 315.600 C 14.000 315.700 14.100 315.600 14.000 315.600 H 10.100 C 10.045 315.600 10.000 315.645 10.000 315.700 V 323.700 C 10.000 323.755 10.045 323.800 10.100 323.800 H 14.000 C 14.100 323.800 14.000 323.700 14.000 323.800 V 331.600 C 14.000 331.700 14.100 331.600 14.000 331.600 H 10.100 C 10.045 331.600 10.000 331.645 10.000 331.700 V 339.700 C 10.000 339.755 10.045 339.800 10.100 339.800 H 14.000 C 14.100 339.800 14.000 339.700 14.000 339.800 V 347.600 C 14.000 347.700 14.100 347.600 14.000 347.600 H 10.100 C 10.045 347.600 10.000 347.645 10.000 347.700 V 355.700 C 10.000 355.755 10.045 355.800 10.100 355.800 H 14.000 C 14.100 355.800 14.000 355.700 14.000 355.800 V 363.600 C 14.000 363.700 14.100 363.600 14.000 363.600 H 10.100 C 10.045 363.600 10.000 363.645 10.000 363.700 V 374.700 C 10.000 374.755 10.045 374.800 10.100 374.800 H 14.100" stroke="rgb(0,0,0)" stroke-width="0.20" />
</g>
<g id="p-2" style="fill:none;stroke-linecap:round;stroke-linejoin:round;">
  <text dominant-baseline="hanging" font-size="4px" style="font-family: sans-serif ; font-weight: normal; font-style: normal; fill: rgb(255,0,0)" text-anchor="middle" transform="matrix( 1.000 0.000 0.000 1.000 20.100 70.600 )">bottom</text><path d="M 14.100 78.600 H 17.000 C 17.100 78.600 17.000 78.500 17.000 78.600 V 82.500 C 17.000 82.555 17.045 82.600 17.100 82.600 H 23.100 C 23.155 82.600 23.200 82.555 23.200 82.500 V 78.600 C 23.200 78.500 23.100 78.600 23.200 78.600 H 26.100 C 26.155 78.600 26.200 78.555 26.200 78.500 V 75.600 C 26.200 75.500 26.100 75.600 26.200 75.600 H 30.100 C 30.155 75.600 30.200 75.555 30.200 75.500 V 69.500 C 30.200 69.445 30.155 69.400 30.100 69.400 H 26.200 C 26.100 69.400 26.200 69.500 26.200 69.400 V 66.500 C 26.200 66.445 26.155 66.400 26.100 66.400 H 23.200 C 23.100 66.400 23.200 66.500 23.200 66.400 V 62.500 C 23.200 62.445 23.155 62.400 23.100 62.400 H 17.100 C 17.045 62.400 17.000 62.445 17.000 62.500 V 66.400 C 17.000 66.500 17.100 66.400 17.000 66.400 H 14.100 C 14.045 66.400 14.000 66.445 14.000 66.500 V 69.400 C 14.000 69.500 14.100 69.400 14.000 69.400 H 10.100 C 10.045 69.400 10.000 69.445 10.000 69.500 V 75.500 C 10.000 75.555 10.045 75.600 10.100 75.600 H 14.000 C 14.100 75.600 14.000 75.500 14.000 75.600 V 78.500 C 14.000 78.555 14.045 78.600 14.100 78.600" stroke="rgb(0,0,0)" stroke-width="0.20" />
</g>
<g id="p-3" style="fill:none;stroke-linecap:round;stroke-linejoin:round;">
  <text dominant-baseline="hanging" font-size="4px" style="font-family: sans-serif ; font-weight: normal; font-style: normal; fill: rgb(255,0,0)" text-anchor="middle" transform="matrix( 1.000 0.000 0.000 1.000 24.100 44.400 )">top hole</text><path d="M 14.200 52.300 V 49.400 C 14.200 49.300 14.100 49.400 14.200 49.400 H 18.100 C 18.155 49.400 18.200 49.355 18.200 49.300 V 43.300 C 18.200 43.245 18.155 43.200 18.100 43.200 H 14.200 C 14.100 43.200 14.200 43.300 14.200 43.200 V 40.300 V 36.400 C 14.200 36.300 14.100 36.400 14.200 36.400 H 18.100 H 21.000 C 21.100 36.400 21.000 36.300 21.000 36.400 V 40.300 C 21.000 40.355 21.045 40.400 21.100 40.400 H 27.100 C 27.155 40.400 27.200 40.355 27.200 40.300 V 36.400 C 27.200 36.300 27.100 36.400 27.200 36.400 H 30.100 H 34.000 C 34.100 36.400 34.000 36.300 34.000 36.400 V 40.300 V 43.200 C 34.000 43.300 34.100 43.200 34.000 43.200 H 30.100 C 30.045 43.200 30.000 43.245 30.000 43.300 V 49.300 C 30.000 49.355 30.045 49.400 30.100 49.400 H 34.000 C 34.100 49.400 34.000 49.300 34.000 49.400 V 52.300 V 56.200 C 34.000 56.300 34.100 56.200 34.000 56.200 H 30.100 H 27.200 C 27.100 56.200 27.200 56.300 27.200 56.200 V 52.300 C 27.200 52.245 27.155 52.200 27.100 52.200 H 21.100 C 21.045 52.200 21.000 52.245 21.000 52.300 V 56.200 C 21.000 56.300 21.100 56.200 21.000 56.200 H 18.100 H 14.200 C 14.100 56.200 14.200 56.300 14.200 56.200 V 52.300 Z M 10.100 60.400 H 38.100 C 38.155 60.400 38.200 60.355 38.200 60.300 V 32.300 C 38.200 32.245 38.155 32.200 38.100 32.200 H 10.100 C 10.045 32.200 10.000 32.245 10.000 32.300 V 60.300 C 10.000 60.355 10.045 60.400 10.100 60.400" stroke="rgb(255,0,255)" stroke-width="0.20" />
</g>
<g id="p-4" style="fill:none;stroke-linecap:round;stroke-linejoin:round;">
  <text dominant-baseline="hanging" font-size="4px" style="font-family: sans-serif ; font-weight: normal; font-style: normal; fill: rgb(255,0,0)" text-anchor="middle" transform="matrix( 1.000 0.000 0.000 1.000 20.100 18.200 )">top</text><path d="M 14.100 26.200 H 17.000 C 17.100 26.200 17.000 26.100 17.000 26.200 V 30.100 C 17.000 30.155 17.045 30.200 17.100 30.200 H 23.100 C 23.155 30.200 23.200 30.155 23.200 30.100 V 26.200 C 23.200 26.100 23.100 26.200 23.200 26.200 H 26.100 C 26.155 26.200 26.200 26.155 26.200 26.100 V 23.200 C 26.200 23.100 26.100 23.200 26.200 23.200 H 30.100 C 30.155 23.200 30.200 23.155 30.200 23.100 V 17.100 C 30.200 17.045 30.155 17.000 30.100 17.000 H 26.200 C 26.100 17.000 26.200 17.100 26.200 17.000 V 14.100 C 26.200 14.045 26.155 14.000 26.100 14.000 H 23.200 C 23.100 14.000 23.200 14.100 23.200 14.000 V 10.100 C 23.200 10.045 23.155 10.000 23.100 10.000 H 17.100 C 17.045 10.000 17.000 10.045 17.000 10.100 V 14.000 C 17.000 14.100 17.100 14.000 17.000 14.000 H 14.100 C 14.045 14.000 14.000 14.045 14.000 14.100 V 17.000 C 14.000 17.100 14.100 17.000 14.000 17.000 H 10.100 C 10.045 17.000 10.000 17.045 10.000 17.100 V 23.100 C 10.000 23.155 10.045 23.200 10.100 23.200 H 14.000 C 14.100 23.200 14.000 23.100 14.000 23.200 V 26.100 C 14.000 26.155 14.045 26.200 14.100 26.200" stroke="rgb(0,0,0)" stroke-width="0.20" />
</g>
<g id="p-5" style="fill:none;stroke-linecap:round;stroke-linejoin:round;">
  <text dominant-baseline="hanging" font-size="4px" style="font-family: sans-serif ; font-weight: normal; font-style: normal; fill: rgb(255,0,0)" text-anchor="middle" transform="matrix( 1.000 0.000 0.000 1.000 42.300 520.000 )">left</text><path d="M 36.300 667.000 H 39.300 C 39.355 667.000 39.400 666.955 39.400 666.900 V 663.000 C 39.400 662.900 39.300 663.000 39.400 663.000 H 45.200 C 45.300 663.000 45.200 662.900 45.200 663.000 V 666.900 C 45.200 666.955 45.245 667.000 45.300 667.000 H 48.300 C 48.355 667.000 48.400 666.955 48.400 666.900 V 656.000 C 48.400 655.900 48.300 656.000 48.400 656.000 H 52.300 C 52.355 656.000 52.400 655.955 52.400 655.900 V 647.900 C 52.400 647.845 52.355 647.800 52.300 647.800 H 48.400 C 48.300 647.800 48.400 647.900 48.400 647.800 V 640.000 C 48.400 639.900 48.300 640.000 48.400 640.000 H 52.300 C 52.355 640.000 52.400 639.955 52.400 639.900 V 631.900 C 52.400 631.845 52.355 631.800 52.300 631.800 H 48.400 C 48.300 631.800 48.400 631.900 48.400 631.800 V 624.000 C 48.400 623.900 48.300 624.000 48.400 624.000 H 52.300 C 52.355 624.000 52.400 623.955 52.400 623.900 V 615.900 C 52.400 615.845 52.355 615.800 52.300 615.800 H 48.400 C 48.300 615.800 48.400 615.900 48.400 615.800 V 608.000 C 48.400 607.900 48.300 608.000 48.400 608.000 H 52.300 C 52.355 608.000 52.400 607.955 52.400 607.900 V 599.900 C 52.400 599.845 52.355 599.800 52.300 599.800 H 48.400 C 48.300 599.800 48.400 599.900 48.400 599.800 V 592.000 C 48.400 591.900 48.300 592.000 48.400 592.000 H 52.300 C 52.355 592.000 52.400 591.955 52.400 591.900 V 583.900 C 52.400 583.845 52.355 583.800 52.300 583.800 H 48.400 C 48.300 583.800 48.400 583.900 48.400 583.800 V 576.000 C 48.400 575.900 48.300 576.000 48.400 576.000 H 52.300 C 52.355 576.000 52.400 575.955 52.400 575.900 V 567.900 C 52.400 567.845 52.355 567.800 52.300 567.800 H 48.400 C 48.300 567.800 48.400 567.900 48.400 567.800 V 560.000 C 48.400 559.900 48.300 560.000 48.400 560.000 H 52.300 C 52.355 560.000 52.400 559.955 52.400 559.900 V 551.900 C 52.400 551.845 52.355 551.800 52.300 551.800 H 48.400 C 48.300 551.800 48.400 551.900 48.400 551.800 V 544.000 C 48.400 543.900 48.300 544.000 48.400 544.000 H 52.300 C 52.355 544.000 52.400 543.955 52.400 543.900 V 535.900 C 52.400 535.845 52.355 535.800 52.300 535.800 H 48.400 C 48.300 535.800 48.400 535.900 48.400 535.800 V 528.000 C 48.400 527.900 48.300 528.000 48.400 528.000 H 52.300 C 52.355 528.000 52.400 527.955 52.400 527.900 V 519.900 C 52.400 519.845 52.355 519.800 52.300 519.800 H 48.400 C 48.300 519.800 48.400 519.900 48.400 519.800 V 512.000 C 48.400 511.900 48.300 512.000 48.400 512.000 H 52.300 C 52.355 512.000 52.400 511.955 52.400 511.900 V 503.900 C 52.400 503.845 52.355 503.800 52.300 503.800 H 48.400 C 48.300 503.800 48.400 503.900 48.400 503.800 V 496.000 C 48.400 495.900 48.300 496.000 48.400 496.000 H 52.300 C 52.355 496.000 52.400 495.955 52.400 495.900 V 487.900 C 52.400 487.845 52.355 487.800 52.300 487.800 H 48.400 C 48.300 487.800 48.400 487.900 48.400 487.800 V 480.000 C 48.400 479.900 48.300 480.000 48.400 480.000 H 52.300 C 52.355 480.000 52.400 479.955 52.400 479.900 V 471.900 C 52.400 471.845 52.355 471.800 52.300 471.800 H 48.400 C 48.300 471.800 48.400 471.900 48.400 471.800 V 464.000 C 48.400 463.900 48.300 464.000 48.400 464.000 H 52.300 C 52.355 464.000 52.400 463.955 52.400 463.900 V 455.900 C 52.400 455.845 52.355 455.800 52.300 455.800 H 48.400 C 48.300 455.800 48.400 455.900 48.400 455.800 V 448.000 C 48.400 447.900 48.300 448.000 48.400 448.000 H 52.300 C 52.355 448.000 52.400 447.955 52.400 447.900 V 439.900 C 52.400 439.845 52.355 439.800 52.300 439.800 H 48.400 C 48.300 439.800 48.400 439.900 48.400 439.800 V 432.000 C 48.400 431.900 48.300 432.000 48.400 432.000 H 52.300 C 52.355 432.000 52.400 431.955 52.400 431.900 V 423.900 C 52.400 423.845 52.355 423.800 52.300 423.800 H 48.400 C 48.300 423.800 48.400 423.900 48.400 423.800 V 416.000 C 48.400 415.900 48.300 416.000 48.400 416.000 H 52.300 C 52.355 416.000 52.400 415.955 52.400 415.900 V 407.900 C 52.400 407.845 52.355 407.800 52.300 407.800 H 48.400 C 48.300 407.800 48.400 407.900 48.400 407.800 V 400.000 C 48.400 399.900 48.300 400.000 48.400 400.000 H 52.300 C 52.355 400.000 52.400 399.955 52.400 399.900 V 391.900 C 52.400 391.845 52.355 391.800 52.300 391.800 H 48.400 C 48.300 391.800 48.400 391.900 48.400 391.800 V 380.900 V 376.900 C 48.400 376.845 48.355 376.800 48.300 376.800 H 45.300 C 45.245 376.800 45.200 376.845 45.200 376.900 V 380.800 C 45.200 380.900 45.300 380.800 45.200 380.800 H 39.400 C 39.300 380.800 39.400 380.900 39.400 380.800 V 376.900 C 39.400 376.845 39.355 376.800 39.300 376.800 H 36.300 C 36.245 376.800 36.200 376.845 36.200 376.900 V 380.900 V 391.800 C 36.200 391.900 36.300 391.800 36.200 391.800 H 32.300 C 32.245 391.800 32.200 391.845 32.200 391.900 V 399.900 C 32.200 399.955 32.245 400.000 32.300 400.000 H 36.200 C 36.300 400.000 36.200 399.900 36.200 400.000 V 407.800 C 36.200 407.900 36.300 407.800 36.200 407.800 H 32.300 C 32.245 407.800 32.200 407.845 32.200 407.900 V 415.900 C 32.200 415.955 32.245 416.000 32.300 416.000 H 36.200 C 36.300 416.000 36.200 415.900 36.200 416.000 V 423.800 C 36.200 423.900 36.300 423.800 36.200 423.800 H 32.300 C 32.245 423.800 32.200 423.845 32.200 423.900 V 431.900 C 32.200 431.955 32.245 432.000 32.300 432.000 H 36.200 C 36.300 432.000 36.200 431.900 36.200 432.000 V 439.800 C 36.200 439.900 36.300 439.800 36.200 439.800 H 32.300 C 32.245 439.800 32.200 439.845 32.200 439.900 V 447.900 C 32.200 447.955 32.245 448.000 32.300 448.000 H 36.200 C 36.300 448.000 36.200 447.900 36.200 448.000 V 455.800 C 36.200 455.900 36.300 455.800 36.200 455.800 H 32.300 C 32.245 455.800 32.200 455.845 32.200 455.900 V 463.900 C 32.200 463.955 32.245 464.000 32.300 464.000 H 36.200 C 36.300 464.000 36.200 463.900 36.200 464.000 V 471.800 C 36.200 471.900 36.300 471.800 36.200 471.800 H 32.300 C 32.245 471.800 32.200 471.845 32.200 471.900 V 479.900 C 32.200 479.955 32.245 480.000 32.300 480.000 H 36.200 C 36.300 480.000 36.200 479.900 36.200 480.000 V 487.800 C 36.200 487.900 36.300 487.800 36.200 487.800 H 32.300 C 32.245 487.800 32.200 487.845 32.200 487.900 V 495.900 C 32.200 495.955 32.245 496.000 32.300 496.000 H 36.200 C 36.300 496.000 36.200 495.900 36.200 496.000 V 503.800 C 36.200 503.900 36.300 503.800 36.200 503.800 H 32.300 C 32.245 503.800 32.200 503.845 32.200 503.900 V 511.900 C 32.200 511.955 32.245 512.000 32.300 512.000 H 36.200 C 36.300 512.000 36.200 511.900 36.200 512.000 V 519.800 C 36.200 519.900 36.300 519.800 36.200 519.800 H 32.300 C 32.245 519.800 32.200 519.845 32.200 519.900 V 527.900 C 32.200 527.955 32.245 528.000 32.300 528.000 H 36.200 C 36.300 528.000 36.200 527.900 36.200 528.000 V 535.800 C 36.200 535.900 36.300 535.800 36.200 535.800 H 32.300 C 32.245 535.800 32.200 535.845 32.200 535.900 V 543.900 C 32.200 543.955 32.245 544.000 32.300 544.000 H 36.200 C 36.300 544.000 36.200 543.900 36.200 544.000 V 551.800 C 36.200 551.900 36.300 551.800 36.200 551.800 H 32.300 C 32.245 551.800 32.200 551.845 32.200 551.900 V 559.900 C 32.200 559.955 32.245 560.000 32.300 560.000 H 36.200 C 36.300 560.000 36.200 559.900 36.200 560.000 V 567.800 C 36.200 567.900 36.300 567.800 36.200 567.800 H 32.300 C 32.245 567.800 32.200 567.845 32.200 567.900 V 575.900 C 32.200 575.955 32.245 576.000 32.300 576.000 H 36.200 C 36.300 576.000 36.200 575.900 36.200 576.000 V 583.800 C 36.200 583.900 36.300 583.800 36.200 583.800 H 32.300 C 32.245 583.800 32.200 583.845 32.200 583.900 V 591.900 C 32.200 591.955 32.245 592.000 32.300 592.000 H 36.200 C 36.300 592.000 36.200 591.900 36.200 592.000 V 599.800 C 36.200 599.900 36.300 599.800 36.200 599.800 H 32.300 C 32.245 599.800 32.200 599.845 32.200 599.900 V 607.900 C 32.200 607.955 32.245 608.000 32.300 608.000 H 36.200 C 36.300 608.000 36.200 607.900 36.200 608.000 V 615.800 C 36.200 615.900 36.300 615.800 36.200 615.800 H 32.300 C 32.245 615.800 32.200 615.845 32.200 615.900 V 623.900 C 32.200 623.955 32.245 624.000 32.300 624.000 H 36.200 C 36.300 624.000 36.200 623.900 36.200 624.000 V 631.800 C 36.200 631.900 36.300 631.800 36.200 631.800 H 32.300 C 32.245 631.800 32.200 631.845 32.200 631.900 V 639.900 C 32.200 639.955 32.245 640.000 32.300 640.000 H 36.200 C 36.300 640.000 36.200 639.900 36.200 640.000 V 647.800 C 36.200 647.900 36.300 647.800 36.200 647.800 H 32.300 C 32.245 647.800 32.200 647.845 32.200 647.900 V 655.900 C 32.200 655.955 32.245 656.000 32.300 656.000 H 36.200 C 36.300 656.000 36.200 655.900 36.200 656.000 V 666.900 C 36.200 666.955 36.245 667.000 36.300 667.000" stroke="rgb(0,0,0)" stroke-width="0.20" />
</g>
<g id="p-6" style="fill:none;stroke-linecap:round;stroke-linejoin:round;">
  <text dominant-baseline="hanging" font-size="4px" style="font-family: sans-serif ; font-weight: normal; font-style: normal; fill: rgb(255,0,0)" text-anchor="middle" transform="matrix( 1.000 0.000 0.000 1.000 42.300 227.800 )">right</text><path d="M 36.300 374.800 H 39.300 C 39.355 374.800 39.400 374.755 39.400 374.700 V 370.800 C 39.400 370.700 39.300 370.800 39.400 370.800 H 45.200 C 45.300 370.800 45.200 370.700 45.200 370.800 V 374.700 C 45.200 374.755 45.245 374.800 45.300 374.800 H 48.300 C 48.355 374.800 48.400 374.755 48.400 374.700 V 363.800 C 48.400 363.700 48.300 363.800 48.400 363.800 H 52.300 C 52.355 363.800 52.400 363.755 52.400 363.700 V 355.700 C 52.400 355.645 52.355 355.600 52.300 355.600 H 48.400 C 48.300 355.600 48.400 355.700 48.400 355.600 V 347.800 C 48.400 347.700 48.300 347.800 48.400 347.800 H 52.300 C 52.355 347.800 52.400 347.755 52.400 347.700 V 339.700 C 52.400 339.645 52.355 339.600 52.300 339.600 H 48.400 C 48.300 339.600 48.400 339.700 48.400 339.600 V 331.800 C 48.400 331.700 48.300 331.800 48.400 331.800 H 52.300 C 52.355 331.800 52.400 331.755 52.400 331.700 V 323.700 C 52.400 323.645 52.355 323.600 52.300 323.600 H 48.400 C 48.300 323.600 48.400 323.700 48.400 323.600 V 315.800 C 48.400 315.700 48.300 315.800 48.400 315.800 H 52.300 C 52.355 315.800 52.400 315.755 52.400 315.700 V 307.700 C 52.400 307.645 52.355 307.600 52.300 307.600 H 48.400 C 48.300 307.600 48.400 307.700 48.400 307.600 V 299.800 C 48.400 299.700 48.300 299.800 48.400 299.800 H 52.300 C 52.355 299.800 52.400 299.755 52.400 299.700 V 291.700 C 52.400 291.645 52.355 291.600 52.300 291.600 H 48.400 C 48.300 291.600 48.400 291.700 48.400 291.600 V 283.800 C 48.400 283.700 48.300 283.800 48.400 283.800 H 52.300 C 52.355 283.800 52.400 283.755 52.400 283.700 V 275.700 C 52.400 275.645 52.355 275.600 52.300 275.600 H 48.400 C 48.300 275.600 48.400 275.700 48.400 275.600 V 267.800 C 48.400 267.700 48.300 267.800 48.400 267.800 H 52.300 C 52.355 267.800 52.400 267.755 52.400 267.700 V 259.700 C 52.400 259.645 52.355 259.600 52.300 259.600 H 48.400 C 48.300 259.600 48.400 259.700 48.400 259.600 V 251.800 C 48.400 251.700 48.300 251.800 48.400 251.800 H 52.300 C 52.355 251.800 52.400 251.755 52.400 251.700 V 243.700 C 52.400 243.645 52.355 243.600 52.300 243.600 H 48.400 C 48.300 243.600 48.400 243.700 48.400 243.600 V 235.800 C 48.400 235.700 48.300 235.800 48.400 235.800 H 52.300 C 52.355 235.800 52.400 235.755 52.400 235.700 V 227.700 C 52.400 227.645 52.355 227.600 52.300 227.600 H 48.400 C 48.300 227.600 48.400 227.700 48.400 227.600 V 219.800 C 48.400 219.700 48.300 219.800 48.400 219.800 H 52.300 C 52.355 219.800 52.400 219.755 52.400 219.700 V 211.700 C 52.400 211.645 52.355 211.600 52.300 211.600 H 48.400 C 48.300 211.600 48.400 211.700 48.400 211.600 V 203.800 C 48.400 203.700 48.300 203.800 48.400 203.800 H 52.300 C 52.355 203.800 52.400 203.755 52.400 203.700 V 195.700 C 52.400 195.645 52.355 195.600 52.300 195.600 H 48.400 C 48.300 195.600 48.400 195.700 48.400 195.600 V 187.800 C 48.400 187.700 48.300 187.800 48.400 187.800 H 52.300 C 52.355 187.800 52.400 187.755 52.400 187.700 V 179.700 C 52.400 179.645 52.355 179.600 52.300 179.600 H 48.400 C 48.300 179.600 48.400 179.700 48.400 179.600 V 171.800 C 48.400 171.700 48.300 171.800 48.400 171.800 H 52.300 C 52.355 171.800 52.400 171.755 52.400 171.700 V 163.700 C 52.400 163.645 52.355 163.600 52.300 163.600 H 48.400 C 48.300 163.600 48.400 163.700 48.400 163.600 V 155.800 C 48.400 155.700 48.300 155.800 48.400 155.800 H 52.300 C 52.355 155.800 52.400 155.755 52.400 155.700 V 147.700 C 52.400 147.645 52.355 147.600 52.300 147.600 H 48.400 C 48.300 147.600 48.400 147.700 48.400 147.600 V 139.800 C 48.400 139.700 48.300 139.800 48.400 139.800 H 52.300 C 52.355 139.800 52.400 139.755 52.400 139.700 V 131.700 C 52.400 131.645 52.355 131.600 52.300 131.600 H 48.400 C 48.300 131.600 48.400 131.700 48.400 131.600 V 123.800 C 48.400 123.700 48.300 123.800 48.400 123.800 H 52.300 C 52.355 123.800 52.400 123.755 52.400 123.700 V 115.700 C 52.400 115.645 52.355 115.600 52.300 115.600 H 48.400 C 48.300 115.600 48.400 115.700 48.400 115.600 V 107.800 C 48.400 107.700 48.300 107.800 48.400 107.800 H 52.300 C 52.355 107.800 52.400 107.755 52.400 107.700 V 99.700 C 52.400 99.645 52.355 99.600 52.300 99.600 H 48.400 C 48.300 99.600 48.400 99.700 48.400 99.600 V 88.700 V 84.700 C 48.400 84.645 48.355 84.600 48.300 84.600 H 45.300 C 45.245 84.600 45.200 84.645 45.200 84.700 V 88.600 C 45.200 88.700 45.300 88.600 45.200 88.600 H 39.400 C 39.300 88.600 39.400 88.700 39.400 88.600 V 84.700 C 39.400 84.645 39.355 84.600 39.300 84.600 H 36.300 C 36.245 84.600 36.200 84.645 36.200 84.700 V 88.700 V 99.600 C 36.200 99.700 36.300 99.600 36.200 99.600 H 32.300 C 32.245 99.600 32.200 99.645 32.200 99.700 V 107.700 C 32.200 107.755 32.245 107.800 32.300 107.800 H 36.200 C 36.300 107.800 36.200 107.700 36.200 107.800 V 115.600 C 36.200 115.700 36.300 115.600 36.200 115.600 H 32.300 C 32.245 115.600 32.200 115.645 32.200 115.700 V 123.700 C 32.200 123.755 32.245 123.800 32.300 123.800 H 36.200 C 36.300 123.800 36.200 123.700 36.200 123.800 V 131.600 C 36.200 131.700 36.300 131.600 36.200 131.600 H 32.300 C 32.245 131.600 32.200 131.645 32.200 131.700 V 139.700 C 32.200 139.755 32.245 139.800 32.300 139.800 H 36.200 C 36.300 139.800 36.200 139.700 36.200 139.800 V 147.600 C 36.200 147.700 36.300 147.600 36.200 147.600 H 32.300 C 32.245 147.600 32.200 147.645 32.200 147.700 V 155.700 C 32.200 155.755 32.245 155.800 32.300 155.800 H 36.200 C 36.300 155.800 36.200 155.700 36.200 155.800 V 163.600 C 36.200 163.700 36.300 163.600 36.200 163.600 H 32.300 C 32.245 163.600 32.200 163.645 32.200 163.700 V 171.700 C 32.200 171.755 32.245 171.800 32.300 171.800 H 36.200 C 36.300 171.800 36.200 171.700 36.200 171.800 V 179.600 C 36.200 179.700 36.300 179.600 36.200 179.600 H 32.300 C 32.245 179.600 32.200 179.645 32.200 179.700 V 187.700 C 32.200 187.755 32.245 187.800 32.300 187.800 H 36.200 C 36.300 187.800 36.200 187.700 36.200 187.800 V 195.600 C 36.200 195.700 36.300 195.600 36.200 195.600 H 32.300 C 32.245 195.600 32.200 195.645 32.200 195.700 V 203.700 C 32.200 203.755 32.245 203.800 32.300 203.800 H 36.200 C 36.300 203.800 36.200 203.700 36.200 203.800 V 211.600 C 36.200 211.700 36.300 211.600 36.200 211.600 H 32.300 C 32.245 211.600 32.200 211.645 32.200 211.700 V 219.700 C 32.200 219.755 32.245 219.800 32.300 219.800 H 36.200 C 36.300 219.800 36.200 219.700 36.200 219.800 V 227.600 C 36.200 227.700 36.300 227.600 36.200 227.600 H 32.300 C 32.245 227.600 32.200 227.645 32.200 227.700 V 235.700 C 32.200 235.755 32.245 235.800 32.300 235.800 H 36.200 C 36.300 235.800 36.200 235.700 36.200 235.800 V 243.600 C 36.200 243.700 36.300 243.600 36.200 243.600 H 32.300 C 32.245 243.600 32.200 243.645 32.200 243.700 V 251.700 C 32.200 251.755 32.245 251.800 32.300 251.800 H 36.200 C 36.300 251.800 36.200 251.700 36.200 251.800 V 259.600 C 36.200 259.700 36.300 259.600 36.200 259.600 H 32.300 C 32.245 259.600 32.200 259.645 32.200 259.700 V 267.700 C 32.200 267.755 32.245 267.800 32.300 267.800 H 36.200 C 36.300 267.800 36.200 267.700 36.200 267.800 V 275.600 C 36.200 275.700 36.300 275.600 36.200 275.600 H 32.300 C 32.245 275.600 32.200 275.645 32.200 275.700 V 283.700 C 32.200 283.755 32.245 283.800 32.300 283.800 H 36.200 C 36.300 283.800 36.200 283.700 36.200 283.800 V 291.600 C 36.200 291.700 36.300 291.600 36.200 291.600 H 32.300 C 32.245 291.600 32.200 291.645 32.200 291.700 V 299.700 C 32.200 299.755 32.245 299.800 32.300 299.800 H 36.200 C 36.300 299.800 36.200 299.700 36.200 299.800 V 307.600 C 36.200 307.700 36.300 307.600 36.200 307.600 H 32.300 C 32.245 307.600 32.200 307.645 32.200 307.700 V 315.700 C 32.200 315.755 32.245 315.800 32.300 315.800 H 36.200 C 36.300 315.800 36.200 315.700 36.200 315.800 V 323.600 C 36.200 323.700 36.300 323.600 36.200 323.600 H 32.300 C 32.245 323.600 32.200 323.645 32.200 323.700 V 331.700 C 32.200 331.755 32.245 331.800 32.300 331.800 H 36.200 C 36.300 331.800 36.200 331.700 36.200 331.800 V 339.600 C 36.200 339.700 36.300 339.600 36.200 339.600 H 32.300 C 32.245 339.600 32.200 339.645 32.200 339.700 V 347.700 C 32.200 347.755 32.245 347.800 32.300 347.800 H 36.200 C 36.300 347.800 36.200 347.700 36.200 347.800 V 355.600 C 36.200 355.700 36.300 355.600 36.200 355.600 H 32.300 C 32.245 355.600 32.200 355.645 32.200 355.700 V 363.700 C 32.200 363.755 32.245 363.800 32.300 363.800 H 36.200 C 36.300 363.800 36.200 363.700 36.200 363.800 V 374.700 C 36.200 374.755 36.245 374.800 36.300 374.800" stroke="rgb(0,0,0)" stroke-width="0.20" />
</g>
</svg>