<?xml version='1.0' encoding='utf-8'?>
<svg height="457.00mm" viewBox="0.0 0.0 162.40 457.00" width="162.40mm" xmlns="http://www.w3.org/2000/svg" xmlns:cc="http://creativecommons.org/ns#" xmlns:dc="http://purl.org/dc/elements/1.1/" xmlns:inkscape="http://www.inkscape.org/namespaces/inkscape" xmlns:rdf="http://www.w3.org/1999/02/22-rdf-syntax-ns#" xmlns:svg="http://www.w3.org/2000/svg" xmlns:xlink="http://www.w3.org/1999/xlink">
<!--
UniversalBox - Box with various options for different styles and lids

Created with Boxes.py (https://boxes.hackerspace-bamberg.de/)
Creation date: 2024-09-28 13:11:54
Command line (remove spaces between dashes): boxes UniversalBox - -top_edge=F - -bottom_edge=F - -x=80.0 - -y=60.0 - -h=120.0 - -thickness=4.0 - -reference=0
Url: https://boxes.hackerspace-bamberg.de/UniversalBox?FingerJoint_style=rectangular&FingerJoint_surroundingspaces=2.0&FingerJoint_bottom_lip=0.0&FingerJoint_edge_width=1.0&FingerJoint_extra_length=0.0&FingerJoint_finger=2.0&FingerJoint_play=0.0&FingerJoint_space=2.0&FingerJoint_width=1.0&Stackable_angle=60&Stackable_bottom_stabilizers=0.0&Stackable_height=2.0&Stackable_holedistance=1.0&Stackable_width=4.0&Hinge_grip_percentage=0&Hinge_outset=0&Hinge_outset=1&Hinge_pinwidth=0.5&Hinge_style=outset&Hinge_axle=2.0&Hinge_grip_length=0&Hinge_hingestrength=1&CabinetHinge_bore=3.2&CabinetHinge_eyes_per_hinge=5&CabinetHinge_hinges=2&CabinetHinge_style=inside&CabinetHinge_eye=1.5&CabinetHinge_play=0.05&CabinetHinge_spacing=2.0&SlideOnLid_hole_width=0&SlideOnLid_second_pin=0&SlideOnLid_second_pin=1&SlideOnLid_spring=both&SlideOnLid_style=rectangular&SlideOnLid_surroundingspaces=2.0&SlideOnLid_bottom_lip=0.0&SlideOnLid_edge_width=1.0&SlideOnLid_extra_length=0.0&SlideOnLid_finger=3.0&SlideOnLid_play=0.05&SlideOnLid_space=2.0&SlideOnLid_width=1.0&Click_angle=5.0&Click_bottom_radius=0.1&Click_depth=3.0&RoundedTriangleEdge_height=50.0&RoundedTriangleEdge_r_hole=2.0&RoundedTriangleEdge_radius=30.0&RoundedTriangleEdge_outset=1.0&Mounting_d_head=6.5&Mounting_d_shaft=3.0&Mounting_margin=0.125&Mounting_num=2&Mounting_side=back&Mounting_style=straight+edge%2C+within&HandleEdge_height=20.0&HandleEdge_hole_height=75.0&HandleEdge_hole_width=40%3A40&HandleEdge_on_sides=0&HandleEdge_on_sides=1&HandleEdge_radius=10.0&HandleEdge_outset=1.0&Flex_stretch=1.05&Flex_connection=1.0&Flex_distance=0.5&Flex_width=5.0&Lid_handle=none&Lid_style=none&Lid_handle_height=8.0&Lid_height=4.0&Lid_play=0.1&top_edge=F&bottom_edge=F&x=80.0&y=60.0&h=120.0&outside=0&outside=1&vertical_edges=finger+joints&thickness=4.0&format=svg&tabs=0.0&qr_code=0&debug=0&labels=0&labels=1&reference=0&inner_corners=loop&burn=0.10&language=en&render=2
Url short: https://boxes.hackerspace-bamberg.de/UniversalBox?top_edge=F&bottom_edge=F&x=80.0&y=60.0&h=120.0&thickness=4.0&reference=0
SettingsUrl: https://boxes.hackerspace-bamberg.de/UniversalBox?FingerJoint_style=rectangular&FingerJoint_surroundingspaces=2.0&FingerJoint_bottom_lip=0.0&FingerJoint_edge_width=1.0&FingerJoint_extra_length=0.0&FingerJoint_finger=2.0&FingerJoint_play=0.0&FingerJoint_space=2.0&FingerJoint_width=1.0&Stackable_angle=60&Stackable_bottom_stabilizers=0.0&Stackable_height=2.0&Stackable_holedistance=1.0&Stackable_width=4.0&Hinge_grip_percentage=0&Hinge_outset=0&Hinge_outset=1&Hinge_pinwidth=0.5&Hinge_style=outset&Hinge_axle=2.0&Hinge_grip_length=0&Hinge_hingestrength=1&CabinetHinge_bore=3.2&CabinetHinge_eyes_per_hinge=5&CabinetHinge_hinges=2&CabinetHinge_style=inside&CabinetHinge_eye=1.5&CabinetHinge_play=0.05&CabinetHinge_spacing=2.0&SlideOnLid_hole_width=0&SlideOnLid_second_pin=0&SlideOnLid_second_pin=1&SlideOnLid_spring=both&SlideOnLid_style=rectangular&SlideOnLid_surroundingspaces=2.0&SlideOnLid_bottom_lip=0.0&SlideOnLid_edge_width=1.0&SlideOnLid_extra_length=0.0&SlideOnLid_finger=3.0&SlideOnLid_play=0.05&SlideOnLid_space=2.0&SlideOnLid_width=1.0&Click_angle=5.0&Click_bottom_radius=0.1&Click_depth=3.0&RoundedTriangleEdge_height=50.0&RoundedTriangleEdge_r_hole=2.0&RoundedTriangleEdge_radius=30.0&RoundedTriangleEdge_outset=1.0&Mounting_d_head=6.5&Mounting_d_shaft=3.0&Mounting_margin=0.125&Mounting_num=2&Mounting_side=back&Mounting_style=straight+edge%2C+within&HandleEdge_height=20.0&HandleEdge_hole_height=75.0&HandleEdge_hole_width=40%3A40&HandleEdge_on_sides=0&HandleEdge_on_sides=1&HandleEdge_radius=10.0&HandleEdge_outset=1.0&Flex_stretch=1.05&Flex_connection=1.0&Flex_distance=0.5&Flex_width=5.0&Lid_handle=none&Lid_style=none&Lid_handle_height=8.0&Lid_height=4.0&Lid_play=0.1&top_edge=F&bottom_edge=F&x=80.0&y=60.0&h=120.0&outside=0&outside=1&vertical_edges=finger+joints&thickness=4.0&format=svg&tabs=0.0&qr_code=0&debug=0&labels=0&labels=1&reference=0&inner_corners=loop&burn=0.10&language=en&render=2
SettingsUrl short: https://boxes.hackerspace-bamberg.de/UniversalBox?top_edge=F&bottom_edge=F&x=80.0&y=60.0&h=120.0&thickness=4.0&reference=0
-->
<title>UniversalBox</title>
<metadata>
<rdf:RDF><cc:Work>
<dc:title>Box - UniversalBox</dc:title>
<dc:date>2024-09-28 13:11:54</dc:date>
<dc:source>https://boxes.hackerspace-bamberg.de/UniversalBox?FingerJoint_style=rectangular&amp;FingerJoint_surroundingspaces=2.0&amp;FingerJoint_bottom_lip=0.0&amp;FingerJoint_edge_width=1.0&amp;FingerJoint_extra_length=0.0&amp;FingerJoint_finger=2.0&amp;FingerJoint_play=0.0&amp;FingerJoint_space=2.0&amp;FingerJoint_width=1.0&amp;Stackable_angle=60&amp;Stackable_bottom_stabilizers=0.0&amp;Stackable_height=2.0&amp;Stackable_holedistance=1.0&amp;Stackable_width=4.0&amp;Hinge_grip_percentage=0&amp;Hinge_outset=0&amp;Hinge_outset=1&amp;Hinge_pinwidth=0.5&amp;Hinge_style=outset&amp;Hinge_axle=2.0&amp;Hinge_grip_length=0&amp;Hinge_hingestrength=1&amp;CabinetHinge_bore=3.2&amp;CabinetHinge_eyes_per_hinge=5&amp;CabinetHinge_hinges=2&amp;CabinetHinge_style=inside&amp;CabinetHinge_eye=1.5&amp;CabinetHinge_play=0.05&amp;CabinetHinge_spacing=2.0&amp;SlideOnLid_hole_width=0&amp;SlideOnLid_second_pin=0&amp;SlideOnLid_second_pin=1&amp;SlideOnLid_spring=both&amp;SlideOnLid_style=rectangular&amp;SlideOnLid_surroundingspaces=2.0&amp;SlideOnLid_bottom_lip=0.0&amp;SlideOnLid_edge_width=1.0&amp;SlideOnLid_extra_length=0.0&amp;SlideOnLid_finger=3.0&amp;SlideOnLid_play=0.05&amp;SlideOnLid_space=2.0&amp;SlideOnLid_width=1.0&amp;Click_angle=5.0&amp;Click_bottom_radius=0.1&amp;Click_depth=3.0&amp;RoundedTriangleEdge_height=50.0&amp;RoundedTriangleEdge_r_hole=2.0&amp;RoundedTriangleEdge_radius=30.0&amp;RoundedTriangleEdge_outset=1.0&amp;Mounting_d_head=6.5&amp;Mounting_d_shaft=3.0&amp;Mounting_margin=0.125&amp;Mounting_num=2&amp;Mounting_side=back&amp;Mounting_style=straight+edge%2C+within&amp;HandleEdge_height=20.0&amp;HandleEdge_hole_height=75.0&amp;HandleEdge_hole_width=40%3A40&amp;HandleEdge_on_sides=0&amp;HandleEdge_on_sides=1&amp;HandleEdge_radius=10.0&amp;HandleEdge_outset=1.0&amp;Flex_stretch=1.05&amp;Flex_connection=1.0&amp;Flex_distance=0.5&amp;Flex_width=5.0&amp;Lid_handle=none&amp;Lid_style=none&amp;Lid_handle_height=8.0&amp;Lid_height=4.0&amp;Lid_play=0.1&amp;top_edge=F&amp;bottom_edge=F&amp;x=80.0&amp;y=60.0&amp;h=120.0&amp;outside=0&amp;outside=1&amp;vertical_edges=finger+joints&amp;thickness=4.0&amp;format=svg&amp;tabs=0.0&amp;qr_code=0&amp;debug=0&amp;labels=0&amp;labels=1&amp;reference=0&amp;inner_corners=loop&amp;burn=0.10&amp;language=en&amp;render=2</dc:source>
<dc:source>https://boxes.hackerspace-bamberg.de/UniversalBox?top_edge=F&amp;bottom_edge=F&amp;x=80.0&amp;y=60.0&amp;h=120.0&amp;thickness=4.0&amp;reference=0</dc:source>
<dc:description>Box with various options for different styles and lids

Created with Boxes.py (https://boxes.hackerspace-bamberg.de/)
Command line: boxes UniversalBox --FingerJoint_style=rectangular --FingerJoint_surroundingspaces=2.0 --FingerJoint_bottom_lip=0.0 --FingerJoint_edge_width=1.0 --FingerJoint_extra_length=0.0 --FingerJoint_finger=2.0 --FingerJoint_play=0.0 --FingerJoint_space=2.0 --FingerJoint_width=1.0 --Stackable_angle=60 --Stackable_bottom_stabilizers=0.0 --Stackable_height=2.0 --Stackable_holedistance=1.0 --Stackable_width=4.0 --Hinge_grip_percentage=0 --Hinge_outset=0 --Hinge_outset=1 --Hinge_pinwidth=0.5 --Hinge_style=outset --Hinge_axle=2.0 --Hinge_grip_length=0 --Hinge_hingestrength=1 --CabinetHinge_bore=3.2 --CabinetHinge_eyes_per_hinge=5 --CabinetHinge_hinges=2 --CabinetHinge_style=inside --CabinetHinge_eye=1.5 --CabinetHinge_play=0.05 --CabinetHinge_spacing=2.0 --SlideOnLid_hole_width=0 --SlideOnLid_second_pin=0 --SlideOnLid_second_pin=1 --SlideOnLid_spring=both --SlideOnLid_style=rectangular --SlideOnLid_surroundingspaces=2.0 --SlideOnLid_bottom_lip=0.0 --SlideOnLid_edge_width=1.0 --SlideOnLid_extra_length=0.0 --SlideOnLid_finger=3.0 --SlideOnLid_play=0.05 --SlideOnLid_space=2.0 --SlideOnLid_width=1.0 --Click_angle=5.0 --Click_bottom_radius=0.1 --Click_depth=3.0 --RoundedTriangleEdge_height=50.0 --RoundedTriangleEdge_r_hole=2.0 --RoundedTriangleEdge_radius=30.0 --RoundedTriangleEdge_outset=1.0 --Mounting_d_head=6.5 --Mounting_d_shaft=3.0 --Mounting_margin=0.125 --Mounting_num=2 --Mounting_side=back '--Mounting_style=straight edge, within' --HandleEdge_height=20.0 --HandleEdge_hole_height=75.0 --HandleEdge_hole_width=40:40 --HandleEdge_on_sides=0 --HandleEdge_on_sides=1 --HandleEdge_radius=10.0 --HandleEdge_outset=1.0 --Flex_stretch=1.05 --Flex_connection=1.0 --Flex_distance=0.5 --Flex_width=5.0 --Lid_handle=none --Lid_style=none --Lid_handle_height=8.0 --Lid_height=4.0 --Lid_play=0.1 --top_edge=F --bottom_edge=F --x=80.0 --y=60.0 --h=120.0 --outside=0 --outside=1 '--vertical_edges=finger joints' --thickness=4.0 --format=svg --tabs=0.0 --qr_code=0 --debug=0 --labels=0 --labels=1 --reference=0 --inner_corners=loop --burn=0.10
Command line short: boxes UniversalBox --top_edge=F --bottom_edge=F --x=80.0 --y=60.0 --h=120.0 --thickness=4.0 --reference=0
Url: https://boxes.hackerspace-bamberg.de/UniversalBox?FingerJoint_style=rectangular&amp;FingerJoint_surroundingspaces=2.0&amp;FingerJoint_bottom_lip=0.0&amp;FingerJoint_edge_width=1.0&amp;FingerJoint_extra_length=0.0&amp;FingerJoint_finger=2.0&amp;FingerJoint_play=0.0&amp;FingerJoint_space=2.0&amp;FingerJoint_width=1.0&amp;Stackable_angle=60&amp;Stackable_bottom_stabilizers=0.0&amp;Stackable_height=2.0&amp;Stackable_holedistance=1.0&amp;Stackable_width=4.0&amp;Hinge_grip_percentage=0&amp;Hinge_outset=0&amp;Hinge_outset=1&amp;Hinge_pinwidth=0.5&amp;Hinge_style=outset&amp;Hinge_axle=2.0&amp;Hinge_grip_length=0&amp;Hinge_hingestrength=1&amp;CabinetHinge_bore=3.2&amp;CabinetHinge_eyes_per_hinge=5&amp;CabinetHinge_hinges=2&amp;CabinetHinge_style=inside&amp;CabinetHinge_eye=1.5&amp;CabinetHinge_play=0.05&amp;CabinetHinge_spacing=2.0&amp;SlideOnLid_hole_width=0&amp;SlideOnLid_second_pin=0&amp;SlideOnLid_second_pin=1&amp;SlideOnLid_spring=both&amp;SlideOnLid_style=rectangular&amp;SlideOnLid_surroundingspaces=2.0&amp;SlideOnLid_bottom_lip=0.0&amp;SlideOnLid_edge_width=1.0&amp;SlideOnLid_extra_length=0.0&amp;SlideOnLid_finger=3.0&amp;SlideOnLid_play=0.05&amp;SlideOnLid_space=2.0&amp;SlideOnLid_width=1.0&amp;Click_angle=5.0&amp;Click_bottom_radius=0.1&amp;Click_depth=3.0&amp;RoundedTriangleEdge_height=50.0&amp;RoundedTriangleEdge_r_hole=2.0&amp;RoundedTriangleEdge_radius=30.0&amp;RoundedTriangleEdge_outset=1.0&amp;Mounting_d_head=6.5&amp;Mounting_d_shaft=3.0&amp;Mounting_margin=0.125&amp;Mounting_num=2&amp;Mounting_side=back&amp;Mounting_style=straight+edge%2C+within&amp;HandleEdge_height=20.0&amp;HandleEdge_hole_height=75.0&amp;HandleEdge_hole_width=40%3A40&amp;HandleEdge_on_sides=0&amp;HandleEdge_on_sides=1&amp;HandleEdge_radius=10.0&amp;HandleEdge_outset=1.0&amp;Flex_stretch=1.05&amp;Flex_connection=1.0&amp;Flex_distance=0.5&amp;Flex_width=5.0&amp;Lid_handle=none&amp;Lid_style=none&amp;Lid_handle_height=8.0&amp;Lid_height=4.0&amp;Lid_play=0.1&amp;top_edge=F&amp;bottom_edge=F&amp;x=80.0&amp;y=60.0&amp;h=120.0&amp;outside=0&amp;outside=1&amp;vertical_edges=finger+joints&amp;thickness=4.0&amp;format=svg&amp;tabs=0.0&amp;qr_code=0&amp;debug=0&amp;labels=0&amp;labels=1&amp;reference=0&amp;inner_corners=loop&amp;burn=0.10&amp;language=en&amp;render=2
Url short: https://boxes.hackerspace-bamberg.de/UniversalBox?top_edge=F&amp;bottom_edge=F&amp;x=80.0&amp;y=60.0&amp;h=120.0&amp;thickness=4.0&amp;reference=0
SettingsUrl: https://boxes.hackerspace-bamberg.de/UniversalBox?FingerJoint_style=rectangular&amp;FingerJoint_surroundingspaces=2.0&amp;FingerJoint_bottom_lip=0.0&amp;FingerJoint_edge_width=1.0&amp;FingerJoint_extra_length=0.0&amp;FingerJoint_finger=2.0&amp;FingerJoint_play=0.0&amp;FingerJoint_space=2.0&amp;FingerJoint_width=1.0&amp;Stackable_angle=60&amp;Stackable_bottom_stabilizers=0.0&amp;Stackable_height=2.0&amp;Stackable_holedistance=1.0&amp;Stackable_width=4.0&amp;Hinge_grip_percentage=0&amp;Hinge_outset=0&amp;Hinge_outset=1&amp;Hinge_pinwidth=0.5&amp;Hinge_style=outset&amp;Hinge_axle=2.0&amp;Hinge_grip_length=0&amp;Hinge_hingestrength=1&amp;CabinetHinge_bore=3.2&amp;CabinetHinge_eyes_per_hinge=5&amp;CabinetHinge_hinges=2&amp;CabinetHinge_style=inside&amp;CabinetHinge_eye=1.5&amp;CabinetHinge_play=0.05&amp;CabinetHinge_spacing=2.0&amp;SlideOnLid_hole_width=0&amp;SlideOnLid_second_pin=0&amp;SlideOnLid_second_pin=1&amp;SlideOnLid_spring=both&amp;SlideOnLid_style=rectangular&amp;SlideOnLid_surroundingspaces=2.0&amp;SlideOnLid_bottom_lip=0.0&amp;SlideOnLid_edge_width=1.0&amp;SlideOnLid_extra_length=0.0&amp;SlideOnLid_finger=3.0&amp;SlideOnLid_play=0.05&amp;SlideOnLid_space=2.0&amp;SlideOnLid_width=1.0&amp;Click_angle=5.0&amp;Click_bottom_radius=0.1&amp;Click_depth=3.0&amp;RoundedTriangleEdge_height=50.0&amp;RoundedTriangleEdge_r_hole=2.0&amp;RoundedTriangleEdge_radius=30.0&amp;RoundedTriangleEdge_outset=1.0&amp;Mounting_d_head=6.5&amp;Mounting_d_shaft=3.0&amp;Mounting_margin=0.125&amp;Mounting_num=2&amp;Mounting_side=back&amp;Mounting_style=straight+edge%2C+within&amp;HandleEdge_height=20.0&amp;HandleEdge_hole_height=75.0&amp;HandleEdge_hole_width=40%3A40&amp;HandleEdge_on_sides=0&amp;HandleEdge_on_sides=1&amp;HandleEdge_radius=10.0&amp;HandleEdge_outset=1.0&amp;Flex_stretch=1.05&amp;Flex_connection=1.0&amp;Flex_distance=0.5&amp;Flex_width=5.0&amp;Lid_handle=none&amp;Lid_style=none&amp;Lid_handle_height=8.0&amp;Lid_height=4.0&amp;Lid_play=0.1&amp;top_edge=F&amp;bottom_edge=F&amp;x=80.0&amp;y=60.0&amp;h=120.0&amp;outside=0&amp;outside=1&amp;vertical_edges=finger+joints&amp;thickness=4.0&amp;format=svg&amp;tabs=0.0&amp;qr_code=0&amp;debug=0&amp;labels=0&amp;labels=1&amp;reference=0&amp;inner_corners=loop&amp;burn=0.10&amp;language=en&amp;render=2
SettingsUrl short: https://boxes.hackerspace-bamberg.de/UniversalBox?top_edge=F&amp;bottom_edge=F&amp;x=80.0&amp;y=60.0&amp;h=120.0&amp;thickness=4.0&amp;reference=0
</dc:description>
</cc:Work></rdf:RDF></metadata>
<g id="p-0" style="fill:none;stroke-linecap:round;stroke-linejoin:round;">
  <text dominant-baseline="hanging" font-size="4px" style="font-family: sans-serif ; font-weight: normal; font-style: normal; fill: rgb(255,0,0)" text-anchor="middle" transform="matrix( 1.000 0.000 0.000 1.000 50.100 385.000 )">front</text><path d="M 14.100 447.000 H 22.100 C 22.155 447.000 22.200 446.955 22.200 446.900 V 443.000 C 22.200 442.900 22.100 443.000 22.200 443.000 H 30.000 C 30.100 443.000 30.000 442.900 30.000 443.000 V 446.900 C 30.000 446.955 30.045 447.000 30.100 447.000 H 38.100 C 38.155 447.000 38.200 446.955 38.200 446.900 V 443.000 C 38.200 442.900 38.100 443.000 38.200 443.000 H 46.000 C 46.100 443.000 46.000 442.900 46.000 443.000 V 446.900 C 46.000 446.955 46.045 447.000 46.100 447.000 H 54.100 C 54.155 447.000 54.200 446.955 54.200 446.900 V 443.000 C 54.200 442.900 54.100 443.000 54.200 443.000 H 62.000 C 62.100 443.000 62.000 442.900 62.000 443.000 V 446.900 C 62.000 446.955 62.045 447.000 62.100 447.000 H 70.100 C 70.155 447.000 70.200 446.955 70.200 446.900 V 443.000 C 70.200 442.900 70.100 443.000 70.200 443.000 H 78.000 C 78.100 443.000 78.000 442.900 78.000 443.000 V 446.900 C 78.000 446.955 78.045 447.000 78.100 447.000 H 86.100 H 90.100 C 90.155 447.000 90.200 446.955 90.200 446.900 V 432.900 C 90.200 432.845 90.155 432.800 90.100 432.800 H 86.200 C 86.100 432.800 86.200 432.900 86.200 432.800 V 425.000 C 86.200 424.900 86.100 425.000 86.200 425.000 H 90.100 C 90.155 425.000 90.200 424.955 90.200 424.900 V 416.900 C 90.200 416.845 90.155 416.800 90.100 416.800 H 86.200 C 86.100 416.800 86.200 416.900 86.200 416.800 V 409.000 C 86.200 408.900 86.100 409.000 86.200 409.000 H 90.100 C 90.155 409.000 90.200 408.955 90.200 408.900 V 400.900 C 90.200 400.845 90.155 400.800 90.100 400.800 H 86.200 C 86.100 400.800 86.200 400.900 86.200 400.800 V 393.000 C 86.200 392.900 86.100 393.000 86.200 393.000 H 90.100 C 90.155 393.000 90.200 392.955 90.200 392.900 V 384.900 C 90.200 384.845 90.155 384.800 90.100 384.800 H 86.200 C 86.100 384.800 86.200 384.900 86.200 384.800 V 377.000 C 86.200 376.900 86.100 377.000 86.200 377.000 H 90.100 C 90.155 377.000 90.200 376.955 90.200 376.900 V 368.900 C 90.200 368.845 90.155 368.800 90.100 368.800 H 86.200 C 86.100 368.800 86.200 368.900 86.200 368.800 V 361.000 C 86.200 360.900 86.100 361.000 86.200 361.000 H 90.100 C 90.155 361.000 90.200 360.955 90.200 360.900 V 352.900 C 90.200 352.845 90.155 352.800 90.100 352.800 H 86.200 C 86.100 352.800 86.200 352.900 86.200 352.800 V 345.000 C 86.200 344.900 86.100 345.000 86.200 345.000 H 90.100 C 90.155 345.000 90.200 344.955 90.200 344.900 V 330.900 V 326.900 C 90.200 326.845 90.155 326.800 90.100 326.800 H 86.100 H 78.100 C 78.045 326.800 78.000 326.845 78.000 326.900 V 330.800 C 78.000 330.900 78.100 330.800 78.000 330.800 H 70.200 C 70.100 330.800 70.200 330.900 70.200 330.800 V 326.900 C 70.200 326.845 70.155 326.800 70.100 326.800 H 62.100 C 62.045 326.800 62.000 326.845 62.000 326.900 V 330.800 C 62.000 330.900 62.100 330.800 62.000 330.800 H 54.200 C 54.100 330.800 54.200 330.900 54.200 330.800 V 326.900 C 54.200 326.845 54.155 326.800 54.100 326.800 H 46.100 C 46.045 326.800 46.000 326.845 46.000 326.900 V 330.800 C 46.000 330.900 46.100 330.800 46.000 330.800 H 38.200 C 38.100 330.800 38.200 330.900 38.200 330.800 V 326.900 C 38.200 326.845 38.155 326.800 38.100 326.800 H 30.100 C 30.045 326.800 30.000 326.845 30.000 326.900 V 330.800 C 30.000 330.900 30.100 330.800 30.000 330.800 H 22.200 C 22.100 330.800 22.200 330.900 22.200 330.800 V 326.900 C 22.200 326.845 22.155 326.800 22.100 326.800 H 14.100 H 10.100 C 10.045 326.800 10.000 326.845 10.000 326.900 V 330.900 V 344.900 C 10.000 344.955 10.045 345.000 10.100 345.000 H 14.000 C 14.100 345.000 14.000 344.900 14.000 345.000 V 352.800 C 14.000 352.900 14.100 352.800 14.000 352.800 H 10.100 C 10.045 352.800 10.000 352.845 10.000 352.900 V 360.900 C 10.000 360.955 10.045 361.000 10.100 361.000 H 14.000 C 14.100 361.000 14.000 360.900 14.000 361.000 V 368.800 C 14.000 368.900 14.100 368.800 14.000 368.800 H 10.100 C 10.045 368.800 10.000 368.845 10.000 368.900 V 376.900 C 10.000 376.955 10.045 377.000 10.100 377.000 H 14.000 C 14.100 377.000 14.000 376.900 14.000 377.000 V 384.800 C 14.000 384.900 14.100 384.800 14.000 384.800 H 10.100 C 10.045 384.800 10.000 384.845 10.000 384.900 V 392.900 C 10.000 392.955 10.045 393.000 10.100 393.000 H 14.000 C 14.100 393.000 14.000 392.900 14.000 393.000 V 400.800 C 14.000 400.900 14.100 400.800 14.000 400.800 H 10.100 C 10.045 400.800 10.000 400.845 10.000 400.900 V 408.900 C 10.000 408.955 10.045 409.000 10.100 409.000 H 14.000 C 14.100 409.000 14.000 408.900 14.000 409.000 V 416.800 C 14.000 416.900 14.100 416.800 14.000 416.800 H 10.100 C 10.045 416.800 10.000 416.845 10.000 416.900 V 424.900 C 10.000 424.955 10.045 425.000 10.100 425.000 H 14.000 C 14.100 425.000 14.000 424.900 14.000 425.000 V 432.800 C 14.000 432.900 14.100 432.800 14.000 432.800 H 10.100 C 10.045 432.800 10.000 432.845 10.000 432.900 V 446.900 C 10.000 446.955 10.045 447.000 10.100 447.000 H 14.100" stroke="rgb(0,0,0)" stroke-width="0.20" />
</g>
<g id="p-1" style="fill:none;stroke-linecap:round;stroke-linejoin:round;">
  <text dominant-baseline="hanging" font-size="4px" style="font-family: sans-serif ; font-weight: normal; font-style: normal; fill: rgb(255,0,0)" text-anchor="middle" transform="matrix( 1.000 0.000 0.000 1.000 50.100 262.800 )">back</text><path d="M 14.100 324.800 H 22.100 C 22.155 324.800 22.200 324.755 22.200 324.700 V 320.800 C 22.200 320.700 22.100 320.800 22.200 320.800 H 30.000 C 30.100 320.800 30.000 320.700 30.000 320.800 V 324.700 C 30.000 324.755 30.045 324.800 30.100 324.800 H 38.100 C 38.155 324.800 38.200 324.755 38.200 324.700 V 320.800 C 38.200 320.700 38.100 320.800 38.200 320.800 H 46.000 C 46.100 320.800 46.000 320.700 46.000 320.800 V 324.700 C 46.000 324.755 46.045 324.800 46.100 324.800 H 54.100 C 54.155 324.800 54.200 324.755 54.200 324.700 V 320.800 C 54.200 320.700 54.100 320.800 54.200 320.800 H 62.000 C 62.100 320.800 62.000 320.700 62.000 320.800 V 324.700 C 62.000 324.755 62.045 324.800 62.100 324.800 H 70.100 C 70.155 324.800 70.200 324.755 70.200 324.700 V 320.800 C 70.200 320.700 70.100 320.800 70.200 320.800 H 78.000 C 78.100 320.800 78.000 320.700 78.000 320.800 V 324.700 C 78.000 324.755 78.045 324.800 78.100 324.800 H 86.100 H 90.100 C 90.155 324.800 90.200 324.755 90.200 324.700 V 310.700 C 90.200 310.645 90.155 310.600 90.100 310.600 H 86.200 C 86.100 310.600 86.200 310.700 86.200 310.600 V 302.800 C 86.200 302.700 86.100 302.800 86.200 302.800 H 90.100 C 90.155 302.800 90.200 302.755 90.200 302.700 V 294.700 C 90.200 294.645 90.155 294.600 90.100 294.600 H 86.200 C 86.100 294.600 86.200 294.700 86.200 294.600 V 286.800 C 86.200 286.700 86.100 286.800 86.200 286.800 H 90.100 C 90.155 286.800 90.200 286.755 90.200 286.700 V 278.700 C 90.200 278.645 90.155 278.600 90.100 278.600 H 86.200 C 86.100 278.600 86.200 278.700 86.200 278.600 V 270.800 C 86.200 270.700 86.100 270.800 86.200 270.800 H 90.100 C 90.155 270.800 90.200 270.755 90.200 270.700 V 262.700 C 90.200 262.645 90.155 262.600 90.100 262.600 H 86.200 C 86.100 262.600 86.200 262.700 86.200 262.600 V 254.800 C 86.200 254.700 86.100 254.800 86.200 254.800 H 90.100 C 90.155 254.800 90.200 254.755 90.200 254.700 V 246.700 C 90.200 246.645 90.155 246.600 90.100 246.600 H 86.200 C 86.100 246.600 86.200 246.700 86.200 246.600 V 238.800 C 86.200 238.700 86.100 238.800 86.200 238.800 H 90.100 C 90.155 238.800 90.200 238.755 90.200 238.700 V 230.700 C 90.200 230.645 90.155 230.600 90.100 230.600 H 86.200 C 86.100 230.600 86.200 230.700 86.200 230.600 V 222.800 C 86.200 222.700 86.100 222.800 86.200 222.800 H 90.100 C 90.155 222.800 90.200 222.755 90.200 222.700 V 208.700 V 204.700 C 90.200 204.645 90.155 204.600 90.100 204.600 H 86.100 H 78.100 C 78.045 204.600 78.000 204.645 78.000 204.700 V 208.600 C 78.000 208.700 78.100 208.600 78.000 208.600 H 70.200 C 70.100 208.600 70.200 208.700 70.200 208.600 V 204.700 C 70.200 204.645 70.155 204.600 70.100 204.600 H 62.100 C 62.045 204.600 62.000 204.645 62.000 204.700 V 208.600 C 62.000 208.700 62.100 208.600 62.000 208.600 H 54.200 C 54.100 208.600 54.200 208.700 54.200 208.600 V 204.700 C 54.200 204.645 54.155 204.600 54.100 204.600 H 46.100 C 46.045 204.600 46.000 204.645 46.000 204.700 V 208.600 C 46.000 208.700 46.100 208.600 46.000 208.600 H 38.200 C 38.100 208.600 38.200 208.700 38.200 208.600 V 204.700 C 38.200 204.645 38.155 204.600 38.100 204.600 H 30.100 C 30.045 204.600 30.000 204.645 30.000 204.700 V 208.600 C 30.000 208.700 30.100 208.600 30.000 208.600 H 22.200 C 22.100 208.600 22.200 208.700 22.200 208.600 V 204.700 C 22.200 204.645 22.155 204.600 22.100 204.600 H 14.100 H 10.100 C 10.045 204.600 10.000 204.645 10.000 204.700 V 208.700 V 222.700 C 10.000 222.755 10.045 222.800 10.100 222.800 H 14.000 C 14.100 222.800 14.000 222.700 14.000 222.800 V 230.600 C 14.000 230.700 14.100 230.600 14.000 230.600 H 10.100 C 10.045 230.600 10.000 230.645 10.000 230.700 V 238.700 C 10.000 238.755 10.045 238.800 10.100 238.800 H 14.000 C 14.100 238.800 14.000 238.700 14.000 238.800 V 246.600 C 14.000 246.700 14.100 246.600 14.000 246.600 H 10.100 C 10.045 246.600 10.000 246.645 10.000 246.700 V 254.700 C 10.000 254.755 10.045 254.800 10.100 254.800 H 14.000 C 14.100 254.800 14.000 254.700 14.000 254.800 V 262.600 C 14.000 262.700 14.100 262.600 14.000 262.600 H 10.100 C 10.045 262.600 10.000 262.645 10.000 262.700 V 270.700 C 10.000 270.755 10.045 270.800 10.100 270.800 H 14.000 C 14.100 270.800 14.000 270.700 14.000 270.800 V 278.600 C 14.000 278.700 14.100 278.600 14.000 278.600 H 10.100 C 10.045 278.600 10.000 278.645 10.000 278.700 V 286.700 C 10.000 286.755 10.045 286.800 10.100 286.800 H 14.000 C 14.100 286.800 14.000 286.700 14.000 286.800 V 294.600 C 14.000 294.700 14.100 294.600 14.000 294.600 H 10.100 C 10.045 294.600 10.000 294.645 10.000 294.700 V 302.700 C 10.000 302.755 10.045 302.800 10.100 302.800 H 14.000 C 14.100 302.800 14.000 302.700 14.000 302.800 V 310.600 C 14.000 310.700 14.100 310.600 14.000 310.600 H 10.100 C 10.045 310.600 10.000 310.645 10.000 310.700 V 324.700 C 10.000 324.755 10.045 324.800 10.100 324.800 H 14.100" stroke="rgb(0,0,0)" stroke-width="0.20" />
</g>
<g id="p-2" style="fill:none;stroke-linecap:round;stroke-linejoin:round;">
  <text dominant-baseline="hanging" font-size="4px" style="font-family: sans-serif ; font-weight: normal; font-style: normal; fill: rgb(255,0,0)" text-anchor="middle" transform="matrix( 1.000 0.000 0.000 1.000 50.100 170.600 )">bottom</text><path d="M 14.100 198.600 H 22.000 C 22.100 198.600 22.000 198.500 22.000 198.600 V 202.500 C 22.000 202.555 22.045 202.600 22.100 202.600 H 30.100 C 30.155 202.600 30.200 202.555 30.200 202.500 V 198.600 C 30.200 198.500 30.100 198.600 30.200 198.600 H 38.000 C 38.100 198.600 38.000 198.500 38.000 198.600 V 202.500 C 38.000 202.555 38.045 202.600 38.100 202.600 H 46.100 C 46.155 202.600 46.200 202.555 46.200 202.500 V 198.600 C 46.200 198.500 46.100 198.600 46.200 198.600 H 54.000 C 54.100 198.600 54.000 198.500 54.000 198.600 V 202.500 C 54.000 202.555 54.045 202.600 54.100 202.600 H 62.100 C 62.155 202.600 62.200 202.555 62.200 202.500 V 198.600 C 62.200 198.500 62.100 198.600 62.200 198.600 H 70.000 C 70.100 198.600 70.000 198.500 70.000 198.600 V 202.500 C 70.000 202.555 70.045 202.600 70.100 202.600 H 78.100 C 78.155 202.600 78.200 202.555 78.200 202.500 V 198.600 C 78.200 198.500 78.100 198.600 78.200 198.600 H 86.100 C 86.155 198.600 86.200 198.555 86.200 198.500 V 184.600 C 86.200 184.500 86.100 184.600 86.200 184.600 H 90.100 C 90.155 184.600 90.200 184.555 90.200 184.500 V 176.500 C 90.200 176.445 90.155 176.400 90.100 176.400 H 86.200 C 86.100 176.400 86.200 176.500 86.200 176.400 V 168.600 C 86.200 168.500 86.100 168.600 86.200 168.600 H 90.100 C 90.155 168.600 90.200 168.555 90.200 168.500 V 160.500 C 90.200 160.445 90.155 160.400 90.100 160.400 H 86.200 C 86.100 160.400 86.200 160.500 86.200 160.400 V 146.500 C 86.200 146.445 86.155 146.400 86.100 146.400 H 78.200 C 78.100 146.400 78.200 146.500 78.200 146.400 V 142.500 C 78.200 142.445 78.155 142.400 78.100 142.400 H 70.100 C 70.045 142.400 70.000 142.445 70.000 142.500 V 146.400 C 70.000 146.500 70.100 146.400 70.000 146.400 H 62.200 C 62.100 146.400 62.200 146.500 62.200 146.400 V 142.500 C 62.200 142.445 62.155 142.400 62.100 142.400 H 54.100 C 54.045 142.400 54.000 142.445 54.000 142.500 V 146.400 C 54.000 146.500 54.100 146.400 54.000 146.400 H 46.200 C 46.100 146.400 46.200 146.500 46.200 146.400 V 142.500 C 46.200 142.445 46.155 142.400 46.100 142.400 H 38.100 C 38.045 142.400 38.000 142.445 38.000 142.500 V 146.400 C 38.000 146.500 38.100 146.400 38.000 146.400 H 30.200 C 30.100 146.400 30.200 146.500 30.200 146.400 V 142.500 C 30.200 142.445 30.155 142.400 30.100 142.400 H 22.100 C 22.045 142.400 22.000 142.445 22.000 142.500 V 146.400 C 22.000 146.500 22.100 146.400 22.000 146.400 H 14.100 C 14.045 146.400 14.000 146.445 14.000 146.500 V 160.400 C 14.000 160.500 14.100 160.400 14.000 160.400 H 10.100 C 10.045 160.400 10.000 160.445 10.000 160.500 V 168.500 C 10.000 168.555 10.045 168.600 10.100 168.600 H 14.000 C 14.100 168.600 14.000 168.500 14.000 168.600 V 176.400 C 14.000 176.500 14.100 176.400 14.000 176.400 H 10.100 C 10.045 176.400 10.000 176.445 10.000 176.500 V 184.500 C 10.000 184.555 10.045 184.600 10.100 184.600 H 14.000 C 14.100 184.600 14.000 184.500 14.000 184.600 V 198.500 C 14.000 198.555 14.045 198.600 14.100 198.600" stroke="rgb(0,0,0)" stroke-width="0.20" />
</g>
<g id="p-3" style="fill:none;stroke-linecap:round;stroke-linejoin:round;">
  <text dominant-baseline="hanging" font-size="4px" style="font-family: sans-serif ; font-weight: normal; font-style: normal; fill: rgb(255,0,0)" text-anchor="middle" transform="matrix( 1.000 0.000 0.000 1.000 54.100 104.400 )">top hole</text><path d="M 14.200 132.300 V 118.400 C 14.200 118.300 14.100 118.400 14.200 118.400 H 18.100 C 18.155 118.400 18.200 118.355 18.200 118.300 V 110.300 C 18.200 110.245 18.155 110.200 18.100 110.200 H 14.200 C 14.100 110.200 14.200 110.300 14.200 110.200 V 102.400 C 14.200 102.300 14.100 102.400 14.200 102.400 H 18.100 C 18.155 102.400 18.200 102.355 18.200 102.300 V 94.300 C 18.200 94.245 18.155 94.200 18.100 94.200 H 14.200 C 14.100 94.200 14.200 94.300 14.200 94.200 V 80.300 V 76.400 C 14.200 76.300 14.100 76.400 14.200 76.400 H 18.100 H 26.000 C 26.100 76.400 26.000 76.300 26.000 76.400 V 80.300 C 26.000 80.355 26.045 80.400 26.100 80.400 H 34.100 C 34.155 80.400 34.200 80.355 34.200 80.300 V 76.400 C 34.200 76.300 34.100 76.400 34.200 76.400 H 42.000 C 42.100 76.400 42.000 76.300 42.000 76.400 V 80.300 C 42.000 80.355 42.045 80.400 42.100 80.400 H 50.100 C 50.155 80.400 50.200 80.355 50.200 80.300 V 76.400 C 50.200 76.300 50.100 76.400 50.200 76.400 H 58.000 C 58.100 76.400 58.000 76.300 58.000 76.400 V 80.300 C 58.000 80.355 58.045 80.400 58.100 80.400 H 66.100 C 66.155 80.400 66.200 80.355 66.200 80.300 V 76.400 C 66.200 76.300 66.100 76.400 66.200 76.400 H 74.000 C 74.100 76.400 74.000 76.300 74.000 76.400 V 80.300 C 74.000 80.355 74.045 80.400 74.100 80.400 H 82.100 C 82.155 80.400 82.200 80.355 82.200 80.300 V 76.400 C 82.200 76.300 82.100 76.400 82.200 76.400 H 90.100 H 94.000 C 94.100 76.400 94.000 76.300 94.000 76.400 V 80.300 V 94.200 C 94.000 94.300 94.100 94.200 94.000 94.200 H 90.100 C 90.045 94.200 90.000 94.245 90.000 94.300 V 102.300 C 90.000 102.355 90.045 102.400 90.100 102.400 H 94.000 C 94.100 102.400 94.000 102.300 94.000 102.400 V 110.200 C 94.000 110.300 94.100 110.200 94.000 110.200 H 90.100 C 90.045 110.200 90.000 110.245 90.000 110.300 V 118.300 C 90.000 118.355 90.045 118.400 90.100 118.400 H 94.000 C 94.100 118.400 94.000 118.300 94.000 118.400 V 132.300 V 136.200 C 94.000 136.300 94.100 136.200 94.000 136.200 H 90.100 H 82.200 C 82.100 136.200 82.200 136.300 82.200 136.200 V 132.300 C 82.200 132.245 82.155 132.200 82.100 132.200 H 74.100 C 74.045 132.200 74.000 132.245 74.000 132.300 V 136.200 C 74.000 136.300 74.100 136.200 74.000 136.200 H 66.200 C 66.100 136.200 66.200 136.300 66.200 136.200 V 132.300 C 66.200 132.245 66.155 132.200 66.100 132.200 H 58.100 C 58.045 132.200 58.000 132.245 58.000 132.300 V 136.200 C 58.000 136.300 58.100 136.200 58.000 136.200 H 50.200 C 50.100 136.200 50.200 136.300 50.200 136.200 V 132.300 C 50.200 132.245 50.155 132.200 50.100 132.200 H 42.100 C 42.045 132.200 42.000 132.245 42.000 132.300 V 136.200 C 42.000 136.300 42.100 136.200 42.000 136.200 H 34.200 C 34.100 136.200 34.200 136.300 34.200 136.200 V 132.300 C 34.200 132.245 34.155 132.200 34.100 132.200 H 26.100 C 26.045 132.200 26.000 132.245 26.000 132.300 V 136.200 C 26.000 136.300 26.100 136.200 26.000 136.200 H 18.100 H 14.200 C 14.100 136.200 14.200 136.300 14.200 136.200 V 132.300 Z M 10.100 140.400 H 98.100 C 98.155 140.400 98.200 140.355 98.200 140.300 V 72.300 C 98.200 72.245 98.155 72.200 98.100 72.200 H 10.100 C 10.045 72.200 10.000 72.245 10.000 72.300 V 140.300 C 10.000 140.355 10.045 140.400 10.100 140.400" stroke="rgb(255,0,255)" stroke-width="0.20" />
</g>
<g id="p-4" style="fill:none;stroke-linecap:round;stroke-linejoin:round;">
  <text dominant-baseline="hanging" font-size="4px" style="font-family: sans-serif ; font-weight: normal; font-style: normal; fill: rgb(255,0,0)" text-anchor="middle" transform="matrix( 1.000 0.000 0.000 1.000 50.100 38.200 )">top</text><path d="M 14.100 66.200 H 22.000 C 22.100 66.200 22.000 66.100 22.000 66.200 V 70.100 C 22.000 70.155 22.045 70.200 22.100 70.200 H 30.100 C 30.155 70.200 30.200 70.155 30.200 70.100 V 66.200 C 30.200 66.100 30.100 66.200 30.200 66.200 H 38.000 C 38.100 66.200 38.000 66.100 38.000 66.200 V 70.100 C 38.000 70.155 38.045 70.200 38.100 70.200 H 46.100 C 46.155 70.200 46.200 70.155 46.200 70.100 V 66.200 C 46.200 66.100 46.100 66.200 46.200 66.200 H 54.000 C 54.100 66.200 54.000 66.100 54.000 66.200 V 70.100 C 54.000 70.155 54.045 70.200 54.100 70.200 H 62.100 C 62.155 70.200 62.200 70.155 62.200 70.100 V 66.200 C 62.200 66.100 62.100 66.200 62.200 66.200 H 70.000 C 70.100 66.200 70.000 66.100 70.000 66.200 V 70.100 C 70.000 70.155 70.045 70.200 70.100 70.200 H 78.100 C 78.155 70.200 78.200 70.155 78.200 70.100 V 66.200 C 78.200 66.100 78.100 66.200 78.200 66.200 H 86.100 C 86.155 66.200 86.200 66.155 86.200 66.100 V 52.200 C 86.200 52.100 86.100 52.200 86.200 52.200 H 90.100 C 90.155 52.200 90.200 52.155 90.200 52.100 V 44.100 C 90.200 44.045 90.155 44.000 90.100 44.000 H 86.200 C 86.100 44.000 86.200 44.100 86.200 44.000 V 36.200 C 86.200 36.100 86.100 36.200 86.200 36.200 H 90.100 C 90.155 36.200 90.200 36.155 90.200 36.100 V 28.100 C 90.200 28.045 90.155 28.000 90.100 28.000 H 86.200 C 86.100 28.000 86.200 28.100 86.200 28.000 V 14.100 C 86.200 14.045 86.155 14.000 86.100 14.000 H 78.200 C 78.100 14.000 78.200 14.100 78.200 14.000 V 10.100 C 78.200 10.045 78.155 10.000 78.100 10.000 H 70.100 C 70.045 10.000 70.000 10.045 70.000 10.100 V 14.000 C 70.000 14.100 70.100 14.000 70.000 14.000 H 62.200 C 62.100 14.000 62.200 14.100 62.200 14.000 V 10.100 C 62.200 10.045 62.155 10.000 62.100 10.000 H 54.100 C 54.045 10.000 54.000 10.045 54.000 10.100 V 14.000 C 54.000 14.100 54.100 14.000 54.000 14.000 H 46.200 C 46.100 14.000 46.200 14.100 46.200 14.000 V 10.100 C 46.200 10.045 46.155 10.000 46.100 10.000 H 38.100 C 38.045 10.000 38.000 10.045 38.000 10.100 V 14.000 C 38.000 14.100 38.100 14.000 38.000 14.000 H 30.200 C 30.100 14.000 30.200 14.100 30.200 14.000 V 10.100 C 30.200 10.045 30.155 10.000 30.100 10.000 H 22.100 C 22.045 10.000 22.000 10.045 22.000 10.100 V 14.000 C 22.000 14.100 22.100 14.000 22.000 14.000 H 14.100 C 14.045 14.000 14.000 14.045 14.000 14.100 V 28.000 C 14.000 28.100 14.100 28.000 14.000 28.000 H 10.100 C 10.045 28.000 10.000 28.045 10.000 28.100 V 36.100 C 10.000 36.155 10.045 36.200 10.100 36.200 H 14.000 C 14.100 36.200 14.000 36.100 14.000 36.200 V 44.000 C 14.000 44.100 14.100 44.000 14.000 44.000 H 10.100 C 10.045 44.000 10.000 44.045 10.000 44.100 V 52.100 C 10.000 52.155 10.045 52.200 10.100 52.200 H 14.000 C 14.100 52.200 14.000 52.100 14.000 52.200 V 66.100 C 14.000 66.155 14.045 66.200 14.100 66.200" stroke="rgb(0,0,0)" stroke-width="0.20" />
</g>
<g id="p-5" style="fill:none;stroke-linecap:round;stroke-linejoin:round;">
  <text dominant-baseline="hanging" font-size="4px" style="font-family: sans-serif ; font-weight: normal; font-style: normal; fill: rgb(255,0,0)" text-anchor="middle" transform="matrix( 1.000 0.000 0.000 1.000 122.300 385.000 )">left</text><path d="M 96.300 447.000 H 110.300 C 110.355 447.000 110.400 446.955 110.400 446.900 V 443.000 C 110.400 442.900 110.300 443.000 110.400 443.000 H 118.200 C 118.300 443.000 118.200 442.900 118.200 443.000 V 446.900 C 118.200 446.955 118.245 447.000 118.300 447.000 H 126.300 C 126.355 447.000 126.400 446.955 126.400 446.900 V 443.000 C 126.400 442.900 126.300 443.000 126.400 443.000 H 134.200 C 134.300 443.000 134.200 442.900 134.200 443.000 V 446.900 C 134.200 446.955 134.245 447.000 134.300 447.000 H 148.300 C 148.355 447.000 148.400 446.955 148.400 446.900 V 433.000 C 148.400 432.900 148.300 433.000 148.400 433.000 H 152.300 C 152.355 433.000 152.400 432.955 152.400 432.900 V 424.900 C 152.400 424.845 152.355 424.800 152.300 424.800 H 148.400 C 148.300 424.800 148.400 424.900 148.400 424.800 V 417.000 C 148.400 416.900 148.300 417.000 148.400 417.000 H 152.300 C 152.355 417.000 152.400 416.955 152.400 416.900 V 408.900 C 152.400 408.845 152.355 408.800 152.300 408.800 H 148.400 C 148.300 408.800 148.400 408.900 148.400 408.800 V 401.000 C 148.400 400.900 148.300 401.000 148.400 401.000 H 152.300 C 152.355 401.000 152.400 400.955 152.400 400.900 V 392.900 C 152.400 392.845 152.355 392.800 152.300 392.800 H 148.400 C 148.300 392.800 148.400 392.900 148.400 392.800 V 385.000 C 148.400 384.900 148.300 385.000 148.400 385.000 H 152.300 C 152.355 385.000 152.400 384.955 152.400 384.900 V 376.900 C 152.400 376.845 152.355 376.800 152.300 376.800 H 148.400 C 148.300 376.800 148.400 376.900 148.400 376.800 V 369.000 C 148.400 368.900 148.300 369.000 148.400 369.000 H 152.300 C 152.355 369.000 152.400 368.955 152.400 368.900 V 360.900 C 152.400 360.845 152.355 360.800 152.300 360.800 H 148.400 C 148.300 360.800 148.400 360.900 148.400 360.800 V 353.000 C 148.400 352.900 148.300 353.000 148.400 353.000 H 152.300 C 152.355 353.000 152.400 352.955 152.400 352.900 V 344.900 C 152.400 344.845 152.355 344.800 152.300 344.800 H 148.400 C 148.300 344.800 148.400 344.900 148.400 344.800 V 330.900 V 326.900 C 148.400 326.845 148.355 326.800 148.300 326.800 H 134.300 C 134.245 326.800 134.200 326.845 134.200 326.900 V 330.800 C 134.200 330.900 134.300 330.800 134.200 330.800 H 126.400 C 126.300 330.800 126.400 330.900 126.400 330.800 V 326.900 C 126.400 326.845 126.355 326.800 126.300 326.800 H 118.300 C 118.245 326.800 118.200 326.845 118.200 326.900 V 330.800 C 118.200 330.900 118.300 330.800 118.200 330.800 H 110.400 C 110.300 330.800 110.400 330.900 110.400 330.800 V 326.900 C 110.400 326.845 110.355 326.800 110.300 326.800 H 96.300 C 96.245 326.800 96.200 326.845 96.200 326.900 V 330.900 V 344.800 C 96.200 344.900 96.300 344.800 96.200 344.800 H 92.300 C 92.245 344.800 92.200 344.845 92.200 344.900 V 352.900 C 92.200 352.955 92.245 353.000 92.300 353.000 H 96.200 C 96.300 353.000 96.200 352.900 96.200 353.000 V 360.800 C 96.200 360.900 96.300 360.800 96.200 360.800 H 92.300 C 92.245 360.800 92.200 360.845 92.200 360.900 V 368.900 C 92.200 368.955 92.245 369.000 92.300 369.000 H 96.200 C 96.300 369.000 96.200 368.900 96.200 369.000 V 376.800 C 96.200 376.900 96.300 376.800 96.200 376.800 H 92.300 C 92.245 376.800 92.200 376.845 92.200 376.900 V 384.900 C 92.200 384.955 92.245 385.000 92.300 385.000 H 96.200 C 96.300 385.000 96.200 384.900 96.200 385.000 V 392.800 C 96.200 392.900 96.300 392.800 96.200 392.800 H 92.300 C 92.245 392.800 92.200 392.845 92.200 392.900 V 400.900 C 92.200 400.955 92.245 401.000 92.300 401.000 H 96.200 C 96.300 401.000 96.200 400.900 96.200 401.000 V 408.800 C 96.200 408.900 96.300 408.800 96.200 408.800 H 92.300 C 92.245 408.800 92.200 408.845 92.200 408.900 V 416.900 C 92.200 416.955 92.245 417.000 92.300 417.000 H 96.200 C 96.300 417.000 96.200 416.900 96.200 417.000 V 424.800 C 96.200 424.900 96.300 424.800 96.200 424.800 H 92.300 C 92.245 424.800 92.200 424.845 92.200 424.900 V 432.900 C 92.200 432.955 92.245 433.000 92.300 433.000 H 96.200 C 96.300 433.000 96.200 432.900 96.200 433.000 V 446.900 C 96.200 446.955 96.245 447.000 96.300 447.000" stroke="rgb(0,0,0)" stroke-width="0.20" />
</g>
<g id="p-6" style="fill:none;stroke-linecap:round;stroke-linejoin:round;">
  <text dominant-baseline="hanging" font-size="4px" style="font-family: sans-serif ; font-weight: normal; font-style: normal; fill: rgb(255,0,0)" text-anchor="middle" transform="matrix( 1.000 0.000 0.000 1.000 122.300 262.800 )">right</text><path d="M 96.300 324.800 H 110.300 C 110.355 324.800 110.400 324.755 110.400 324.700 V 320.800 C 110.400 320.700 110.300 320.800 110.400 320.800 H 118.200 C 118.300 320.800 118.200 320.700 118.200 320.800 V 324.700 C 118.200 324.755 118.245 324.800 118.300 324.800 H 126.300 C 126.355 324.800 126.400 324.755 126.400 324.700 V 320.800 C 126.400 320.700 126.300 320.800 126.400 320.800 H 134.200 C 134.300 320.800 134.200 320.700 134.200 320.800 V 324.700 C 134.200 324.755 134.245 324.800 134.300 324.800 H 148.300 C 148.355 324.800 148.400 324.755 148.400 324.700 V 310.800 C 148.400 310.700 148.300 310.800 148.400 310.800 H 152.300 C 152.355 310.800 152.400 310.755 152.400 310.700 V 302.700 C 152.400 302.645 152.355 302.600 152.300 302.600 H 148.400 C 148.300 302.600 148.400 302.700 148.400 302.600 V 294.800 C 148.400 294.700 148.300 294.800 148.400 294.800 H 152.300 C 152.355 294.800 152.400 294.755 152.400 294.700 V 286.700 C 152.400 286.645 152.355 286.600 152.300 286.600 H 148.400 C 148.300 286.600 148.400 286.700 148.400 286.600 V 278.800 C 148.400 278.700 148.300 278.800 148.400 278.800 H 152.300 C 152.355 278.800 152.400 278.755 152.400 278.700 V 270.700 C 152.400 270.645 152.355 270.600 152.300 270.600 H 148.400 C 148.300 270.600 148.400 270.700 148.400 270.600 V 262.800 C 148.400 262.700 148.300 262.800 148.400 262.800 H 152.300 C 152.355 262.800 152.400 262.755 152.400 262.700 V 254.700 C 152.400 254.645 152.355 254.600 152.300 254.600 H 148.400 C 148.300 254.600 148.400 254.700 148.400 254.600 V 246.800 C 148.400 246.700 148.300 246.800 148.400 246.800 H 152.300 C 152.355 246.800 152.400 246.755 152.400 246.700 V 238.700 C 152.400 238.645 152.355 238.600 152.300 238.600 H 148.400 C 148.300 238.600 148.400 238.700 148.400 238.600 V 230.800 C 148.400 230.700 148.300 230.800 148.400 230.800 H 152.300 C 152.355 230.800 152.400 230.755 152.400 230.700 V 222.700 C 152.400 222.645 152.355 222.600 152.300 222.600 H 148.400 C 148.300 222.600 148.400 222.700 148.400 222.600 V 208.700 V 204.700 C 148.400 204.645 148.355 204.600 148.300 204.600 H 134.300 C 134.245 204.600 134.200 204.645 134.200 204.700 V 208.600 C 134.200 208.700 134.300 208.600 134.200 208.600 H 126.400 C 126.300 208.600 126.400 208.700 126.400 208.600 V 204.700 C 126.400 204.645 126.355 204.600 126.300 204.600 H 118.300 C 118.245 204.600 118.200 204.645 118.200 204.700 V 208.600 C 118.200 208.700 118.300 208.600 118.200 208.600 H 110.400 C 110.300 208.600 110.400 208.700 110.400 208.600 V 204.700 C 110.400 204.645 110.355 204.600 110.300 204.600 H 96.300 C 96.245 204.600 96.200 204.645 96.200 204.700 V 208.700 V 222.600 C 96.200 222.700 96.300 222.600 96.200 222.600 H 92.300 C 92.245 222.600 92.200 222.645 92.200 222.700 V 230.700 C 92.200 230.755 92.245 230.800 92.300 230.800 H 96.200 C 96.300 230.800 96.200 230.700 96.200 230.800 V 238.600 C 96.200 238.700 96.300 238.600 96.200 238.600 H 92.300 C 92.245 238.600 92.200 238.645 92.200 238.700 V 246.700 C 92.200 246.755 92.245 246.800 92.300 246.800 H 96.200 C 96.300 246.800 96.200 246.700 96.200 246.800 V 254.600 C 96.200 254.700 96.300 254.600 96.200 254.600 H 92.300 C 92.245 254.600 92.200 254.645 92.200 254.700 V 262.700 C 92.200 262.755 92.245 262.800 92.300 262.800 H 96.200 C 96.300 262.800 96.200 262.700 96.200 262.800 V 270.600 C 96.200 270.700 96.300 270.600 96.200 270.600 H 92.300 C 92.245 270.600 92.200 270.645 92.200 270.700 V 278.700 C 92.200 278.755 92.245 278.800 92.300 278.800 H 96.200 C 96.300 278.800 96.200 278.700 96.200 278.800 V 286.600 C 96.200 286.700 96.300 286.600 96.200 286.600 H 92.300 C 92.245 286.600 92.200 286.645 92.200 286.700 V 294.700 C 92.200 294.755 92.245 294.800 92.300 294.800 H 96.200 C 96.300 294.800 96.200 294.700 96.200 294.800 V 302.600 C 96.200 302.700 96.300 302.600 96.200 302.600 H 92.300 C 92.245 302.600 92.200 302.645 92.200 302.700 V 310.700 C 92.200 310.755 92.245 310.800 92.300 310.800 H 96.200 C 96.300 310.800 96.200 310.700 96.200 310.800 V 324.700 C 96.200 324.755 96.245 324.800 96.300 324.800" stroke="rgb(0,0,0)" stroke-width="0.20" />
</g>
</svg>