<?xml version='1.0' encoding='utf-8'?>
<svg height="437.00mm" viewBox="0.0 0.0 182.40 437.00" width="182.40mm" xmlns="http://www.w3.org/2000/svg" xmlns:cc="http://creativecommons.org/ns#" xmlns:dc="http://purl.org/dc/elements/1.1/" xmlns:inkscape="http://www.inkscape.org/namespaces/inkscape" xmlns:rdf="http://www.w3.org/1999/02/22-rdf-syntax-ns#" xmlns:svg="http://www.w3.org/2000/svg" xmlns:xlink="http://www.w3.org/1999/xlink">
<!--
UniversalBox - Box with various options for different styles and lids

Created with Boxes.py (https://boxes.hackerspace-bamberg.de/)
Creation date: 2024-09-28 13:11:21
Command line (remove spaces between dashes): boxes UniversalBox - -top_edge=F - -bottom_edge=F - -x=80.0 - -y=80.0 - -h=80.0 - -thickness=4.0 - -reference=0
Url: https://boxes.hackerspace-bamberg.de/UniversalBox?FingerJoint_style=rectangular&FingerJoint_surroundingspaces=2.0&FingerJoint_bottom_lip=0.0&FingerJoint_edge_width=1.0&FingerJoint_extra_length=0.0&FingerJoint_finger=2.0&FingerJoint_play=0.0&FingerJoint_space=2.0&FingerJoint_width=1.0&Stackable_angle=60&Stackable_bottom_stabilizers=0.0&Stackable_height=2.0&Stackable_holedistance=1.0&Stackable_width=4.0&Hinge_grip_percentage=0&Hinge_outset=0&Hinge_outset=1&Hinge_pinwidth=0.5&Hinge_style=outset&Hinge_axle=2.0&Hinge_grip_length=0&Hinge_hingestrength=1&CabinetHinge_bore=3.2&CabinetHinge_eyes_per_hinge=5&CabinetHinge_hinges=2&CabinetHinge_style=inside&CabinetHinge_eye=1.5&CabinetHinge_play=0.05&CabinetHinge_spacing=2.0&SlideOnLid_hole_width=0&SlideOnLid_second_pin=0&SlideOnLid_second_pin=1&SlideOnLid_spring=both&SlideOnLid_style=rectangular&SlideOnLid_surroundingspaces=2.0&SlideOnLid_bottom_lip=0.0&SlideOnLid_edge_width=1.0&SlideOnLid_extra_length=0.0&SlideOnLid_finger=3.0&SlideOnLid_play=0.05&SlideOnLid_space=2.0&SlideOnLid_width=1.0&Click_angle=5.0&Click_bottom_radius=0.1&Click_depth=3.0&RoundedTriangleEdge_height=50.0&RoundedTriangleEdge_r_hole=2.0&RoundedTriangleEdge_radius=30.0&RoundedTriangleEdge_outset=1.0&Mounting_d_head=6.5&Mounting_d_shaft=3.0&Mounting_margin=0.125&Mounting_num=2&Mounting_side=back&Mounting_style=straight+edge%2C+within&HandleEdge_height=20.0&HandleEdge_hole_height=75.0&HandleEdge_hole_width=40%3A40&HandleEdge_on_sides=0&HandleEdge_on_sides=1&HandleEdge_radius=10.0&HandleEdge_outset=1.0&Flex_stretch=1.05&Flex_connection=1.0&Flex_distance=0.5&Flex_width=5.0&Lid_handle=none&Lid_style=none&Lid_handle_height=8.0&Lid_height=4.0&Lid_play=0.1&top_edge=F&bottom_edge=F&x=80.0&y=80.0&h=80.0&outside=0&outside=1&vertical_edges=finger+joints&thickness=4.0&format=svg&tabs=0.0&qr_code=0&debug=0&labels=0&labels=1&reference=0&inner_corners=loop&burn=0.10&language=en&render=2
Url short: https://boxes.hackerspace-bamberg.de/UniversalBox?top_edge=F&bottom_edge=F&x=80.0&y=80.0&h=80.0&thickness=4.0&reference=0
SettingsUrl: https://boxes.hackerspace-bamberg.de/UniversalBox?FingerJoint_style=rectangular&FingerJoint_surroundingspaces=2.0&FingerJoint_bottom_lip=0.0&FingerJoint_edge_width=1.0&FingerJoint_extra_length=0.0&FingerJoint_finger=2.0&FingerJoint_play=0.0&FingerJoint_space=2.0&FingerJoint_width=1.0&Stackable_angle=60&Stackable_bottom_stabilizers=0.0&Stackable_height=2.0&Stackable_holedistance=1.0&Stackable_width=4.0&Hinge_grip_percentage=0&Hinge_outset=0&Hinge_outset=1&Hinge_pinwidth=0.5&Hinge_style=outset&Hinge_axle=2.0&Hinge_grip_length=0&Hinge_hingestrength=1&CabinetHinge_bore=3.2&CabinetHinge_eyes_per_hinge=5&CabinetHinge_hinges=2&CabinetHinge_style=inside&CabinetHinge_eye=1.5&CabinetHinge_play=0.05&CabinetHinge_spacing=2.0&SlideOnLid_hole_width=0&SlideOnLid_second_pin=0&SlideOnLid_second_pin=1&SlideOnLid_spring=both&SlideOnLid_style=rectangular&SlideOnLid_surroundingspaces=2.0&SlideOnLid_bottom_lip=0.0&SlideOnLid_edge_width=1.0&SlideOnLid_extra_length=0.0&SlideOnLid_finger=3.0&SlideOnLid_play=0.05&SlideOnLid_space=2.0&SlideOnLid_width=1.0&Click_angle=5.0&Click_bottom_radius=0.1&Click_depth=3.0&RoundedTriangleEdge_height=50.0&RoundedTriangleEdge_r_hole=2.0&RoundedTriangleEdge_radius=30.0&RoundedTriangleEdge_outset=1.0&Mounting_d_head=6.5&Mounting_d_shaft=3.0&Mounting_margin=0.125&Mounting_num=2&Mounting_side=back&Mounting_style=straight+edge%2C+within&HandleEdge_height=20.0&HandleEdge_hole_height=75.0&HandleEdge_hole_width=40%3A40&HandleEdge_on_sides=0&HandleEdge_on_sides=1&HandleEdge_radius=10.0&HandleEdge_outset=1.0&Flex_stretch=1.05&Flex_connection=1.0&Flex_distance=0.5&Flex_width=5.0&Lid_handle=none&Lid_style=none&Lid_handle_height=8.0&Lid_height=4.0&Lid_play=0.1&top_edge=F&bottom_edge=F&x=80.0&y=80.0&h=80.0&outside=0&outside=1&vertical_edges=finger+joints&thickness=4.0&format=svg&tabs=0.0&qr_code=0&debug=0&labels=0&labels=1&reference=0&inner_corners=loop&burn=0.10&language=en&render=2
SettingsUrl short: https://boxes.hackerspace-bamberg.de/UniversalBox?top_edge=F&bottom_edge=F&x=80.0&y=80.0&h=80.0&thickness=4.0&reference=0
-->
<title>UniversalBox</title>
<metadata>
<rdf:RDF><cc:Work>
<dc:title>Box - UniversalBox</dc:title>
<dc:date>2024-09-28 13:11:21</dc:date>
<dc:source>https://boxes.hackerspace-bamberg.de/UniversalBox?FingerJoint_style=rectangular&amp;FingerJoint_surroundingspaces=2.0&amp;FingerJoint_bottom_lip=0.0&amp;FingerJoint_edge_width=1.0&amp;FingerJoint_extra_length=0.0&amp;FingerJoint_finger=2.0&amp;FingerJoint_play=0.0&amp;FingerJoint_space=2.0&amp;FingerJoint_width=1.0&amp;Stackable_angle=60&amp;Stackable_bottom_stabilizers=0.0&amp;Stackable_height=2.0&amp;Stackable_holedistance=1.0&amp;Stackable_width=4.0&amp;Hinge_grip_percentage=0&amp;Hinge_outset=0&amp;Hinge_outset=1&amp;Hinge_pinwidth=0.5&amp;Hinge_style=outset&amp;Hinge_axle=2.0&amp;Hinge_grip_length=0&amp;Hinge_hingestrength=1&amp;CabinetHinge_bore=3.2&amp;CabinetHinge_eyes_per_hinge=5&amp;CabinetHinge_hinges=2&amp;CabinetHinge_style=inside&amp;CabinetHinge_eye=1.5&amp;CabinetHinge_play=0.05&amp;CabinetHinge_spacing=2.0&amp;SlideOnLid_hole_width=0&amp;SlideOnLid_second_pin=0&amp;SlideOnLid_second_pin=1&amp;SlideOnLid_spring=both&amp;SlideOnLid_style=rectangular&amp;SlideOnLid_surroundingspaces=2.0&amp;SlideOnLid_bottom_lip=0.0&amp;SlideOnLid_edge_width=1.0&amp;SlideOnLid_extra_length=0.0&amp;SlideOnLid_finger=3.0&amp;SlideOnLid_play=0.05&amp;SlideOnLid_space=2.0&amp;SlideOnLid_width=1.0&amp;Click_angle=5.0&amp;Click_bottom_radius=0.1&amp;Click_depth=3.0&amp;RoundedTriangleEdge_height=50.0&amp;RoundedTriangleEdge_r_hole=2.0&amp;RoundedTriangleEdge_radius=30.0&amp;RoundedTriangleEdge_outset=1.0&amp;Mounting_d_head=6.5&amp;Mounting_d_shaft=3.0&amp;Mounting_margin=0.125&amp;Mounting_num=2&amp;Mounting_side=back&amp;Mounting_style=straight+edge%2C+within&amp;HandleEdge_height=20.0&amp;HandleEdge_hole_height=75.0&amp;HandleEdge_hole_width=40%3A40&amp;HandleEdge_on_sides=0&amp;HandleEdge_on_sides=1&amp;HandleEdge_radius=10.0&amp;HandleEdge_outset=1.0&amp;Flex_stretch=1.05&amp;Flex_connection=1.0&amp;Flex_distance=0.5&amp;Flex_width=5.0&amp;Lid_handle=none&amp;Lid_style=none&amp;Lid_handle_height=8.0&amp;Lid_height=4.0&amp;Lid_play=0.1&amp;top_edge=F&amp;bottom_edge=F&amp;x=80.0&amp;y=80.0&amp;h=80.0&amp;outside=0&amp;outside=1&amp;vertical_edges=finger+joints&amp;thickness=4.0&amp;format=svg&amp;tabs=0.0&amp;qr_code=0&amp;debug=0&amp;labels=0&amp;labels=1&amp;reference=0&amp;inner_corners=loop&amp;burn=0.10&amp;language=en&amp;render=2</dc:source>
<dc:source>https://boxes.hackerspace-bamberg.de/UniversalBox?top_edge=F&amp;bottom_edge=F&amp;x=80.0&amp;y=80.0&amp;h=80.0&amp;thickness=4.0&amp;reference=0</dc:source>
<dc:description>Box with various options for different styles and lids

Created with Boxes.py (https://boxes.hackerspace-bamberg.de/)
Command line: boxes UniversalBox --FingerJoint_style=rectangular --FingerJoint_surroundingspaces=2.0 --FingerJoint_bottom_lip=0.0 --FingerJoint_edge_width=1.0 --FingerJoint_extra_length=0.0 --FingerJoint_finger=2.0 --FingerJoint_play=0.0 --FingerJoint_space=2.0 --FingerJoint_width=1.0 --Stackable_angle=60 --Stackable_bottom_stabilizers=0.0 --Stackable_height=2.0 --Stackable_holedistance=1.0 --Stackable_width=4.0 --Hinge_grip_percentage=0 --Hinge_outset=0 --Hinge_outset=1 --Hinge_pinwidth=0.5 --Hinge_style=outset --Hinge_axle=2.0 --Hinge_grip_length=0 --Hinge_hingestrength=1 --CabinetHinge_bore=3.2 --CabinetHinge_eyes_per_hinge=5 --CabinetHinge_hinges=2 --CabinetHinge_style=inside --CabinetHinge_eye=1.5 --CabinetHinge_play=0.05 --CabinetHinge_spacing=2.0 --SlideOnLid_hole_width=0 --SlideOnLid_second_pin=0 --SlideOnLid_second_pin=1 --SlideOnLid_spring=both --SlideOnLid_style=rectangular --SlideOnLid_surroundingspaces=2.0 --SlideOnLid_bottom_lip=0.0 --SlideOnLid_edge_width=1.0 --SlideOnLid_extra_length=0.0 --SlideOnLid_finger=3.0 --SlideOnLid_play=0.05 --SlideOnLid_space=2.0 --SlideOnLid_width=1.0 --Click_angle=5.0 --Click_bottom_radius=0.1 --Click_depth=3.0 --RoundedTriangleEdge_height=50.0 --RoundedTriangleEdge_r_hole=2.0 --RoundedTriangleEdge_radius=30.0 --RoundedTriangleEdge_outset=1.0 --Mounting_d_head=6.5 --Mounting_d_shaft=3.0 --Mounting_margin=0.125 --Mounting_num=2 --Mounting_side=back '--Mounting_style=straight edge, within' --HandleEdge_height=20.0 --HandleEdge_hole_height=75.0 --HandleEdge_hole_width=40:40 --HandleEdge_on_sides=0 --HandleEdge_on_sides=1 --HandleEdge_radius=10.0 --HandleEdge_outset=1.0 --Flex_stretch=1.05 --Flex_connection=1.0 --Flex_distance=0.5 --Flex_width=5.0 --Lid_handle=none --Lid_style=none --Lid_handle_height=8.0 --Lid_height=4.0 --Lid_play=0.1 --top_edge=F --bottom_edge=F --x=80.0 --y=80.0 --h=80.0 --outside=0 --outside=1 '--vertical_edges=finger joints' --thickness=4.0 --format=svg --tabs=0.0 --qr_code=0 --debug=0 --labels=0 --labels=1 --reference=0 --inner_corners=loop --burn=0.10
Command line short: boxes UniversalBox --top_edge=F --bottom_edge=F --x=80.0 --y=80.0 --h=80.0 --thickness=4.0 --reference=0
Url: https://boxes.hackerspace-bamberg.de/UniversalBox?FingerJoint_style=rectangular&amp;FingerJoint_surroundingspaces=2.0&amp;FingerJoint_bottom_lip=0.0&amp;FingerJoint_edge_width=1.0&amp;FingerJoint_extra_length=0.0&amp;FingerJoint_finger=2.0&amp;FingerJoint_play=0.0&amp;FingerJoint_space=2.0&amp;FingerJoint_width=1.0&amp;Stackable_angle=60&amp;Stackable_bottom_stabilizers=0.0&amp;Stackable_height=2.0&amp;Stackable_holedistance=1.0&amp;Stackable_width=4.0&amp;Hinge_grip_percentage=0&amp;Hinge_outset=0&amp;Hinge_outset=1&amp;Hinge_pinwidth=0.5&amp;Hinge_style=outset&amp;Hinge_axle=2.0&amp;Hinge_grip_length=0&amp;Hinge_hingestrength=1&amp;CabinetHinge_bore=3.2&amp;CabinetHinge_eyes_per_hinge=5&amp;CabinetHinge_hinges=2&amp;CabinetHinge_style=inside&amp;CabinetHinge_eye=1.5&amp;CabinetHinge_play=0.05&amp;CabinetHinge_spacing=2.0&amp;SlideOnLid_hole_width=0&amp;SlideOnLid_second_pin=0&amp;SlideOnLid_second_pin=1&amp;SlideOnLid_spring=both&amp;SlideOnLid_style=rectangular&amp;SlideOnLid_surroundingspaces=2.0&amp;SlideOnLid_bottom_lip=0.0&amp;SlideOnLid_edge_width=1.0&amp;SlideOnLid_extra_length=0.0&amp;SlideOnLid_finger=3.0&amp;SlideOnLid_play=0.05&amp;SlideOnLid_space=2.0&amp;SlideOnLid_width=1.0&amp;Click_angle=5.0&amp;Click_bottom_radius=0.1&amp;Click_depth=3.0&amp;RoundedTriangleEdge_height=50.0&amp;RoundedTriangleEdge_r_hole=2.0&amp;RoundedTriangleEdge_radius=30.0&amp;RoundedTriangleEdge_outset=1.0&amp;Mounting_d_head=6.5&amp;Mounting_d_shaft=3.0&amp;Mounting_margin=0.125&amp;Mounting_num=2&amp;Mounting_side=back&amp;Mounting_style=straight+edge%2C+within&amp;HandleEdge_height=20.0&amp;HandleEdge_hole_height=75.0&amp;HandleEdge_hole_width=40%3A40&amp;HandleEdge_on_sides=0&amp;HandleEdge_on_sides=1&amp;HandleEdge_radius=10.0&amp;HandleEdge_outset=1.0&amp;Flex_stretch=1.05&amp;Flex_connection=1.0&amp;Flex_distance=0.5&amp;Flex_width=5.0&amp;Lid_handle=none&amp;Lid_style=none&amp;Lid_handle_height=8.0&amp;Lid_height=4.0&amp;Lid_play=0.1&amp;top_edge=F&amp;bottom_edge=F&amp;x=80.0&amp;y=80.0&amp;h=80.0&amp;outside=0&amp;outside=1&amp;vertical_edges=finger+joints&amp;thickness=4.0&amp;format=svg&amp;tabs=0.0&amp;qr_code=0&amp;debug=0&amp;labels=0&amp;labels=1&amp;reference=0&amp;inner_corners=loop&amp;burn=0.10&amp;language=en&amp;render=2
Url short: https://boxes.hackerspace-bamberg.de/UniversalBox?top_edge=F&amp;bottom_edge=F&amp;x=80.0&amp;y=80.0&amp;h=80.0&amp;thickness=4.0&amp;reference=0
SettingsUrl: https://boxes.hackerspace-bamberg.de/UniversalBox?FingerJoint_style=rectangular&amp;FingerJoint_surroundingspaces=2.0&amp;FingerJoint_bottom_lip=0.0&amp;FingerJoint_edge_width=1.0&amp;FingerJoint_extra_length=0.0&amp;FingerJoint_finger=2.0&amp;FingerJoint_play=0.0&amp;FingerJoint_space=2.0&amp;FingerJoint_width=1.0&amp;Stackable_angle=60&amp;Stackable_bottom_stabilizers=0.0&amp;Stackable_height=2.0&amp;Stackable_holedistance=1.0&amp;Stackable_width=4.0&amp;Hinge_grip_percentage=0&amp;Hinge_outset=0&amp;Hinge_outset=1&amp;Hinge_pinwidth=0.5&amp;Hinge_style=outset&amp;Hinge_axle=2.0&amp;Hinge_grip_length=0&amp;Hinge_hingestrength=1&amp;CabinetHinge_bore=3.2&amp;CabinetHinge_eyes_per_hinge=5&amp;CabinetHinge_hinges=2&amp;CabinetHinge_style=inside&amp;CabinetHinge_eye=1.5&amp;CabinetHinge_play=0.05&amp;CabinetHinge_spacing=2.0&amp;SlideOnLid_hole_width=0&amp;SlideOnLid_second_pin=0&amp;SlideOnLid_second_pin=1&amp;SlideOnLid_spring=both&amp;SlideOnLid_style=rectangular&amp;SlideOnLid_surroundingspaces=2.0&amp;SlideOnLid_bottom_lip=0.0&amp;SlideOnLid_edge_width=1.0&amp;SlideOnLid_extra_length=0.0&amp;SlideOnLid_finger=3.0&amp;SlideOnLid_play=0.05&amp;SlideOnLid_space=2.0&amp;SlideOnLid_width=1.0&amp;Click_angle=5.0&amp;Click_bottom_radius=0.1&amp;Click_depth=3.0&amp;RoundedTriangleEdge_height=50.0&amp;RoundedTriangleEdge_r_hole=2.0&amp;RoundedTriangleEdge_radius=30.0&amp;RoundedTriangleEdge_outset=1.0&amp;Mounting_d_head=6.5&amp;Mounting_d_shaft=3.0&amp;Mounting_margin=0.125&amp;Mounting_num=2&amp;Mounting_side=back&amp;Mounting_style=straight+edge%2C+within&amp;HandleEdge_height=20.0&amp;HandleEdge_hole_height=75.0&amp;HandleEdge_hole_width=40%3A40&amp;HandleEdge_on_sides=0&amp;HandleEdge_on_sides=1&amp;HandleEdge_radius=10.0&amp;HandleEdge_outset=1.0&amp;Flex_stretch=1.05&amp;Flex_connection=1.0&amp;Flex_distance=0.5&amp;Flex_width=5.0&amp;Lid_handle=none&amp;Lid_style=none&amp;Lid_handle_height=8.0&amp;Lid_height=4.0&amp;Lid_play=0.1&amp;top_edge=F&amp;bottom_edge=F&amp;x=80.0&amp;y=80.0&amp;h=80.0&amp;outside=0&amp;outside=1&amp;vertical_edges=finger+joints&amp;thickness=4.0&amp;format=svg&amp;tabs=0.0&amp;qr_code=0&amp;debug=0&amp;labels=0&amp;labels=1&amp;reference=0&amp;inner_corners=loop&amp;burn=0.10&amp;language=en&amp;render=2
SettingsUrl short: https://boxes.hackerspace-bamberg.de/UniversalBox?top_edge=F&amp;bottom_edge=F&amp;x=80.0&amp;y=80.0&amp;h=80.0&amp;thickness=4.0&amp;reference=0
</dc:description>
</cc:Work></rdf:RDF></metadata>
<g id="p-0" style="fill:none;stroke-linecap:round;stroke-linejoin:round;">
  <text dominant-baseline="hanging" font-size="4px" style="font-family: sans-serif ; font-weight: normal; font-style: normal; fill: rgb(255,0,0)" text-anchor="middle" transform="matrix( 1.000 0.000 0.000 1.000 50.100 385.000 )">front</text><path d="M 14.100 427.000 H 22.100 C 22.155 427.000 22.200 426.955 22.200 426.900 V 423.000 C 22.200 422.900 22.100 423.000 22.200 423.000 H 30.000 C 30.100 423.000 30.000 422.900 30.000 423.000 V 426.900 C 30.000 426.955 30.045 427.000 30.100 427.000 H 38.100 C 38.155 427.000 38.200 426.955 38.200 426.900 V 423.000 C 38.200 422.900 38.100 423.000 38.200 423.000 H 46.000 C 46.100 423.000 46.000 422.900 46.000 423.000 V 426.900 C 46.000 426.955 46.045 427.000 46.100 427.000 H 54.100 C 54.155 427.000 54.200 426.955 54.200 426.900 V 423.000 C 54.200 422.900 54.100 423.000 54.200 423.000 H 62.000 C 62.100 423.000 62.000 422.900 62.000 423.000 V 426.900 C 62.000 426.955 62.045 427.000 62.100 427.000 H 70.100 C 70.155 427.000 70.200 426.955 70.200 426.900 V 423.000 C 70.200 422.900 70.100 423.000 70.200 423.000 H 78.000 C 78.100 423.000 78.000 422.900 78.000 423.000 V 426.900 C 78.000 426.955 78.045 427.000 78.100 427.000 H 86.100 H 90.100 C 90.155 427.000 90.200 426.955 90.200 426.900 V 416.900 C 90.200 416.845 90.155 416.800 90.100 416.800 H 86.200 C 86.100 416.800 86.200 416.900 86.200 416.800 V 409.000 C 86.200 408.900 86.100 409.000 86.200 409.000 H 90.100 C 90.155 409.000 90.200 408.955 90.200 408.900 V 400.900 C 90.200 400.845 90.155 400.800 90.100 400.800 H 86.200 C 86.100 400.800 86.200 400.900 86.200 400.800 V 393.000 C 86.200 392.900 86.100 393.000 86.200 393.000 H 90.100 C 90.155 393.000 90.200 392.955 90.200 392.900 V 384.900 C 90.200 384.845 90.155 384.800 90.100 384.800 H 86.200 C 86.100 384.800 86.200 384.900 86.200 384.800 V 377.000 C 86.200 376.900 86.100 377.000 86.200 377.000 H 90.100 C 90.155 377.000 90.200 376.955 90.200 376.900 V 368.900 C 90.200 368.845 90.155 368.800 90.100 368.800 H 86.200 C 86.100 368.800 86.200 368.900 86.200 368.800 V 361.000 C 86.200 360.900 86.100 361.000 86.200 361.000 H 90.100 C 90.155 361.000 90.200 360.955 90.200 360.900 V 350.900 V 346.900 C 90.200 346.845 90.155 346.800 90.100 346.800 H 86.100 H 78.100 C 78.045 346.800 78.000 346.845 78.000 346.900 V 350.800 C 78.000 350.900 78.100 350.800 78.000 350.800 H 70.200 C 70.100 350.800 70.200 350.900 70.200 350.800 V 346.900 C 70.200 346.845 70.155 346.800 70.100 346.800 H 62.100 C 62.045 346.800 62.000 346.845 62.000 346.900 V 350.800 C 62.000 350.900 62.100 350.800 62.000 350.800 H 54.200 C 54.100 350.800 54.200 350.900 54.200 350.800 V 346.900 C 54.200 346.845 54.155 346.800 54.100 346.800 H 46.100 C 46.045 346.800 46.000 346.845 46.000 346.900 V 350.800 C 46.000 350.900 46.100 350.800 46.000 350.800 H 38.200 C 38.100 350.800 38.200 350.900 38.200 350.800 V 346.900 C 38.200 346.845 38.155 346.800 38.100 346.800 H 30.100 C 30.045 346.800 30.000 346.845 30.000 346.900 V 350.800 C 30.000 350.900 30.100 350.800 30.000 350.800 H 22.200 C 22.100 350.800 22.200 350.900 22.200 350.800 V 346.900 C 22.200 346.845 22.155 346.800 22.100 346.800 H 14.100 H 10.100 C 10.045 346.800 10.000 346.845 10.000 346.900 V 350.900 V 360.900 C 10.000 360.955 10.045 361.000 10.100 361.000 H 14.000 C 14.100 361.000 14.000 360.900 14.000 361.000 V 368.800 C 14.000 368.900 14.100 368.800 14.000 368.800 H 10.100 C 10.045 368.800 10.000 368.845 10.000 368.900 V 376.900 C 10.000 376.955 10.045 377.000 10.100 377.000 H 14.000 C 14.100 377.000 14.000 376.900 14.000 377.000 V 384.800 C 14.000 384.900 14.100 384.800 14.000 384.800 H 10.100 C 10.045 384.800 10.000 384.845 10.000 384.900 V 392.900 C 10.000 392.955 10.045 393.000 10.100 393.000 H 14.000 C 14.100 393.000 14.000 392.900 14.000 393.000 V 400.800 C 14.000 400.900 14.100 400.800 14.000 400.800 H 10.100 C 10.045 400.800 10.000 400.845 10.000 400.900 V 408.900 C 10.000 408.955 10.045 409.000 10.100 409.000 H 14.000 C 14.100 409.000 14.000 408.900 14.000 409.000 V 416.800 C 14.000 416.900 14.100 416.800 14.000 416.800 H 10.100 C 10.045 416.800 10.000 416.845 10.000 416.900 V 426.900 C 10.000 426.955 10.045 427.000 10.100 427.000 H 14.100" stroke="rgb(0,0,0)" stroke-width="0.20" />
</g>
<g id="p-1" style="fill:none;stroke-linecap:round;stroke-linejoin:round;">
  <text dominant-baseline="hanging" font-size="4px" style="font-family: sans-serif ; font-weight: normal; font-style: normal; fill: rgb(255,0,0)" text-anchor="middle" transform="matrix( 1.000 0.000 0.000 1.000 50.100 302.800 )">back</text><path d="M 14.100 344.800 H 22.100 C 22.155 344.800 22.200 344.755 22.200 344.700 V 340.800 C 22.200 340.700 22.100 340.800 22.200 340.800 H 30.000 C 30.100 340.800 30.000 340.700 30.000 340.800 V 344.700 C 30.000 344.755 30.045 344.800 30.100 344.800 H 38.100 C 38.155 344.800 38.200 344.755 38.200 344.700 V 340.800 C 38.200 340.700 38.100 340.800 38.200 340.800 H 46.000 C 46.100 340.800 46.000 340.700 46.000 340.800 V 344.700 C 46.000 344.755 46.045 344.800 46.100 344.800 H 54.100 C 54.155 344.800 54.200 344.755 54.200 344.700 V 340.800 C 54.200 340.700 54.100 340.800 54.200 340.800 H 62.000 C 62.100 340.800 62.000 340.700 62.000 340.800 V 344.700 C 62.000 344.755 62.045 344.800 62.100 344.800 H 70.100 C 70.155 344.800 70.200 344.755 70.200 344.700 V 340.800 C 70.200 340.700 70.100 340.800 70.200 340.800 H 78.000 C 78.100 340.800 78.000 340.700 78.000 340.800 V 344.700 C 78.000 344.755 78.045 344.800 78.100 344.800 H 86.100 H 90.100 C 90.155 344.800 90.200 344.755 90.200 344.700 V 334.700 C 90.200 334.645 90.155 334.600 90.100 334.600 H 86.200 C 86.100 334.600 86.200 334.700 86.200 334.600 V 326.800 C 86.200 326.700 86.100 326.800 86.200 326.800 H 90.100 C 90.155 326.800 90.200 326.755 90.200 326.700 V 318.700 C 90.200 318.645 90.155 318.600 90.100 318.600 H 86.200 C 86.100 318.600 86.200 318.700 86.200 318.600 V 310.800 C 86.200 310.700 86.100 310.800 86.200 310.800 H 90.100 C 90.155 310.800 90.200 310.755 90.200 310.700 V 302.700 C 90.200 302.645 90.155 302.600 90.100 302.600 H 86.200 C 86.100 302.600 86.200 302.700 86.200 302.600 V 294.800 C 86.200 294.700 86.100 294.800 86.200 294.800 H 90.100 C 90.155 294.800 90.200 294.755 90.200 294.700 V 286.700 C 90.200 286.645 90.155 286.600 90.100 286.600 H 86.200 C 86.100 286.600 86.200 286.700 86.200 286.600 V 278.800 C 86.200 278.700 86.100 278.800 86.200 278.800 H 90.100 C 90.155 278.800 90.200 278.755 90.200 278.700 V 268.700 V 264.700 C 90.200 264.645 90.155 264.600 90.100 264.600 H 86.100 H 78.100 C 78.045 264.600 78.000 264.645 78.000 264.700 V 268.600 C 78.000 268.700 78.100 268.600 78.000 268.600 H 70.200 C 70.100 268.600 70.200 268.700 70.200 268.600 V 264.700 C 70.200 264.645 70.155 264.600 70.100 264.600 H 62.100 C 62.045 264.600 62.000 264.645 62.000 264.700 V 268.600 C 62.000 268.700 62.100 268.600 62.000 268.600 H 54.200 C 54.100 268.600 54.200 268.700 54.200 268.600 V 264.700 C 54.200 264.645 54.155 264.600 54.100 264.600 H 46.100 C 46.045 264.600 46.000 264.645 46.000 264.700 V 268.600 C 46.000 268.700 46.100 268.600 46.000 268.600 H 38.200 C 38.100 268.600 38.200 268.700 38.200 268.600 V 264.700 C 38.200 264.645 38.155 264.600 38.100 264.600 H 30.100 C 30.045 264.600 30.000 264.645 30.000 264.700 V 268.600 C 30.000 268.700 30.100 268.600 30.000 268.600 H 22.200 C 22.100 268.600 22.200 268.700 22.200 268.600 V 264.700 C 22.200 264.645 22.155 264.600 22.100 264.600 H 14.100 H 10.100 C 10.045 264.600 10.000 264.645 10.000 264.700 V 268.700 V 278.700 C 10.000 278.755 10.045 278.800 10.100 278.800 H 14.000 C 14.100 278.800 14.000 278.700 14.000 278.800 V 286.600 C 14.000 286.700 14.100 286.600 14.000 286.600 H 10.100 C 10.045 286.600 10.000 286.645 10.000 286.700 V 294.700 C 10.000 294.755 10.045 294.800 10.100 294.800 H 14.000 C 14.100 294.800 14.000 294.700 14.000 294.800 V 302.600 C 14.000 302.700 14.100 302.600 14.000 302.600 H 10.100 C 10.045 302.600 10.000 302.645 10.000 302.700 V 310.700 C 10.000 310.755 10.045 310.800 10.100 310.800 H 14.000 C 14.100 310.800 14.000 310.700 14.000 310.800 V 318.600 C 14.000 318.700 14.100 318.600 14.000 318.600 H 10.100 C 10.045 318.600 10.000 318.645 10.000 318.700 V 326.700 C 10.000 326.755 10.045 326.800 10.100 326.800 H 14.000 C 14.100 326.800 14.000 326.700 14.000 326.800 V 334.600 C 14.000 334.700 14.100 334.600 14.000 334.600 H 10.100 C 10.045 334.600 10.000 334.645 10.000 334.700 V 344.700 C 10.000 344.755 10.045 344.800 10.100 344.800 H 14.100" stroke="rgb(0,0,0)" stroke-width="0.20" />
</g>
<g id="p-2" style="fill:none;stroke-linecap:round;stroke-linejoin:round;">
  <text dominant-baseline="hanging" font-size="4px" style="font-family: sans-serif ; font-weight: normal; font-style: normal; fill: rgb(255,0,0)" text-anchor="middle" transform="matrix( 1.000 0.000 0.000 1.000 50.100 220.600 )">bottom</text><path d="M 14.100 258.600 H 22.000 C 22.100 258.600 22.000 258.500 22.000 258.600 V 262.500 C 22.000 262.555 22.045 262.600 22.100 262.600 H 30.100 C 30.155 262.600 30.200 262.555 30.200 262.500 V 258.600 C 30.200 258.500 30.100 258.600 30.200 258.600 H 38.000 C 38.100 258.600 38.000 258.500 38.000 258.600 V 262.500 C 38.000 262.555 38.045 262.600 38.100 262.600 H 46.100 C 46.155 262.600 46.200 262.555 46.200 262.500 V 258.600 C 46.200 258.500 46.100 258.600 46.200 258.600 H 54.000 C 54.100 258.600 54.000 258.500 54.000 258.600 V 262.500 C 54.000 262.555 54.045 262.600 54.100 262.600 H 62.100 C 62.155 262.600 62.200 262.555 62.200 262.500 V 258.600 C 62.200 258.500 62.100 258.600 62.200 258.600 H 70.000 C 70.100 258.600 70.000 258.500 70.000 258.600 V 262.500 C 70.000 262.555 70.045 262.600 70.100 262.600 H 78.100 C 78.155 262.600 78.200 262.555 78.200 262.500 V 258.600 C 78.200 258.500 78.100 258.600 78.200 258.600 H 86.100 C 86.155 258.600 86.200 258.555 86.200 258.500 V 250.600 C 86.200 250.500 86.100 250.600 86.200 250.600 H 90.100 C 90.155 250.600 90.200 250.555 90.200 250.500 V 242.500 C 90.200 242.445 90.155 242.400 90.100 242.400 H 86.200 C 86.100 242.400 86.200 242.500 86.200 242.400 V 234.600 C 86.200 234.500 86.100 234.600 86.200 234.600 H 90.100 C 90.155 234.600 90.200 234.555 90.200 234.500 V 226.500 C 90.200 226.445 90.155 226.400 90.100 226.400 H 86.200 C 86.100 226.400 86.200 226.500 86.200 226.400 V 218.600 C 86.200 218.500 86.100 218.600 86.200 218.600 H 90.100 C 90.155 218.600 90.200 218.555 90.200 218.500 V 210.500 C 90.200 210.445 90.155 210.400 90.100 210.400 H 86.200 C 86.100 210.400 86.200 210.500 86.200 210.400 V 202.600 C 86.200 202.500 86.100 202.600 86.200 202.600 H 90.100 C 90.155 202.600 90.200 202.555 90.200 202.500 V 194.500 C 90.200 194.445 90.155 194.400 90.100 194.400 H 86.200 C 86.100 194.400 86.200 194.500 86.200 194.400 V 186.500 C 86.200 186.445 86.155 186.400 86.100 186.400 H 78.200 C 78.100 186.400 78.200 186.500 78.200 186.400 V 182.500 C 78.200 182.445 78.155 182.400 78.100 182.400 H 70.100 C 70.045 182.400 70.000 182.445 70.000 182.500 V 186.400 C 70.000 186.500 70.100 186.400 70.000 186.400 H 62.200 C 62.100 186.400 62.200 186.500 62.200 186.400 V 182.500 C 62.200 182.445 62.155 182.400 62.100 182.400 H 54.100 C 54.045 182.400 54.000 182.445 54.000 182.500 V 186.400 C 54.000 186.500 54.100 186.400 54.000 186.400 H 46.200 C 46.100 186.400 46.200 186.500 46.200 186.400 V 182.500 C 46.200 182.445 46.155 182.400 46.100 182.400 H 38.100 C 38.045 182.400 38.000 182.445 38.000 182.500 V 186.400 C 38.000 186.500 38.100 186.400 38.000 186.400 H 30.200 C 30.100 186.400 30.200 186.500 30.200 186.400 V 182.500 C 30.200 182.445 30.155 182.400 30.100 182.400 H 22.100 C 22.045 182.400 22.000 182.445 22.000 182.500 V 186.400 C 22.000 186.500 22.100 186.400 22.000 186.400 H 14.100 C 14.045 186.400 14.000 186.445 14.000 186.500 V 194.400 C 14.000 194.500 14.100 194.400 14.000 194.400 H 10.100 C 10.045 194.400 10.000 194.445 10.000 194.500 V 202.500 C 10.000 202.555 10.045 202.600 10.100 202.600 H 14.000 C 14.100 202.600 14.000 202.500 14.000 202.600 V 210.400 C 14.000 210.500 14.100 210.400 14.000 210.400 H 10.100 C 10.045 210.400 10.000 210.445 10.000 210.500 V 218.500 C 10.000 218.555 10.045 218.600 10.100 218.600 H 14.000 C 14.100 218.600 14.000 218.500 14.000 218.600 V 226.400 C 14.000 226.500 14.100 226.400 14.000 226.400 H 10.100 C 10.045 226.400 10.000 226.445 10.000 226.500 V 234.500 C 10.000 234.555 10.045 234.600 10.100 234.600 H 14.000 C 14.100 234.600 14.000 234.500 14.000 234.600 V 242.400 C 14.000 242.500 14.100 242.400 14.000 242.400 H 10.100 C 10.045 242.400 10.000 242.445 10.000 242.500 V 250.500 C 10.000 250.555 10.045 250.600 10.100 250.600 H 14.000 C 14.100 250.600 14.000 250.500 14.000 250.600 V 258.500 C 14.000 258.555 14.045 258.600 14.100 258.600" stroke="rgb(0,0,0)" stroke-width="0.20" />
</g>
<g id="p-3" style="fill:none;stroke-linecap:round;stroke-linejoin:round;">
  <text dominant-baseline="hanging" font-size="4px" style="font-family: sans-serif ; font-weight: normal; font-style: normal; fill: rgb(255,0,0)" text-anchor="middle" transform="matrix( 1.000 0.000 0.000 1.000 54.100 134.400 )">top hole</text><path d="M 14.200 172.300 V 164.400 C 14.200 164.300 14.100 164.400 14.200 164.400 H 18.100 C 18.155 164.400 18.200 164.355 18.200 164.300 V 156.300 C 18.200 156.245 18.155 156.200 18.100 156.200 H 14.200 C 14.100 156.200 14.200 156.300 14.200 156.200 V 148.400 C 14.200 148.300 14.100 148.400 14.200 148.400 H 18.100 C 18.155 148.400 18.200 148.355 18.200 148.300 V 140.300 C 18.200 140.245 18.155 140.200 18.100 140.200 H 14.200 C 14.100 140.200 14.200 140.300 14.200 140.200 V 132.400 C 14.200 132.300 14.100 132.400 14.200 132.400 H 18.100 C 18.155 132.400 18.200 132.355 18.200 132.300 V 124.300 C 18.200 124.245 18.155 124.200 18.100 124.200 H 14.200 C 14.100 124.200 14.200 124.300 14.200 124.200 V 116.400 C 14.200 116.300 14.100 116.400 14.200 116.400 H 18.100 C 18.155 116.400 18.200 116.355 18.200 116.300 V 108.300 C 18.200 108.245 18.155 108.200 18.100 108.200 H 14.200 C 14.100 108.200 14.200 108.300 14.200 108.200 V 100.300 V 96.400 C 14.200 96.300 14.100 96.400 14.200 96.400 H 18.100 H 26.000 C 26.100 96.400 26.000 96.300 26.000 96.400 V 100.300 C 26.000 100.355 26.045 100.400 26.100 100.400 H 34.100 C 34.155 100.400 34.200 100.355 34.200 100.300 V 96.400 C 34.200 96.300 34.100 96.400 34.200 96.400 H 42.000 C 42.100 96.400 42.000 96.300 42.000 96.400 V 100.300 C 42.000 100.355 42.045 100.400 42.100 100.400 H 50.100 C 50.155 100.400 50.200 100.355 50.200 100.300 V 96.400 C 50.200 96.300 50.100 96.400 50.200 96.400 H 58.000 C 58.100 96.400 58.000 96.300 58.000 96.400 V 100.300 C 58.000 100.355 58.045 100.400 58.100 100.400 H 66.100 C 66.155 100.400 66.200 100.355 66.200 100.300 V 96.400 C 66.200 96.300 66.100 96.400 66.200 96.400 H 74.000 C 74.100 96.400 74.000 96.300 74.000 96.400 V 100.300 C 74.000 100.355 74.045 100.400 74.100 100.400 H 82.100 C 82.155 100.400 82.200 100.355 82.200 100.300 V 96.400 C 82.200 96.300 82.100 96.400 82.200 96.400 H 90.100 H 94.000 C 94.100 96.400 94.000 96.300 94.000 96.400 V 100.300 V 108.200 C 94.000 108.300 94.100 108.200 94.000 108.200 H 90.100 C 90.045 108.200 90.000 108.245 90.000 108.300 V 116.300 C 90.000 116.355 90.045 116.400 90.100 116.400 H 94.000 C 94.100 116.400 94.000 116.300 94.000 116.400 V 124.200 C 94.000 124.300 94.100 124.200 94.000 124.200 H 90.100 C 90.045 124.200 90.000 124.245 90.000 124.300 V 132.300 C 90.000 132.355 90.045 132.400 90.100 132.400 H 94.000 C 94.100 132.400 94.000 132.300 94.000 132.400 V 140.200 C 94.000 140.300 94.100 140.200 94.000 140.200 H 90.100 C 90.045 140.200 90.000 140.245 90.000 140.300 V 148.300 C 90.000 148.355 90.045 148.400 90.100 148.400 H 94.000 C 94.100 148.400 94.000 148.300 94.000 148.400 V 156.200 C 94.000 156.300 94.100 156.200 94.000 156.200 H 90.100 C 90.045 156.200 90.000 156.245 90.000 156.300 V 164.300 C 90.000 164.355 90.045 164.400 90.100 164.400 H 94.000 C 94.100 164.400 94.000 164.300 94.000 164.400 V 172.300 V 176.200 C 94.000 176.300 94.100 176.200 94.000 176.200 H 90.100 H 82.200 C 82.100 176.200 82.200 176.300 82.200 176.200 V 172.300 C 82.200 172.245 82.155 172.200 82.100 172.200 H 74.100 C 74.045 172.200 74.000 172.245 74.000 172.300 V 176.200 C 74.000 176.300 74.100 176.200 74.000 176.200 H 66.200 C 66.100 176.200 66.200 176.300 66.200 176.200 V 172.300 C 66.200 172.245 66.155 172.200 66.100 172.200 H 58.100 C 58.045 172.200 58.000 172.245 58.000 172.300 V 176.200 C 58.000 176.300 58.100 176.200 58.000 176.200 H 50.200 C 50.100 176.200 50.200 176.300 50.200 176.200 V 172.300 C 50.200 172.245 50.155 172.200 50.100 172.200 H 42.100 C 42.045 172.200 42.000 172.245 42.000 172.300 V 176.200 C 42.000 176.300 42.100 176.200 42.000 176.200 H 34.200 C 34.100 176.200 34.200 176.300 34.200 176.200 V 172.300 C 34.200 172.245 34.155 172.200 34.100 172.200 H 26.100 C 26.045 172.200 26.000 172.245 26.000 172.300 V 176.200 C 26.000 176.300 26.100 176.200 26.000 176.200 H 18.100 H 14.200 C 14.100 176.200 14.200 176.300 14.200 176.200 V 172.300 Z M 10.100 180.400 H 98.100 C 98.155 180.400 98.200 180.355 98.200 180.300 V 92.300 C 98.200 92.245 98.155 92.200 98.100 92.200 H 10.100 C 10.045 92.200 10.000 92.245 10.000 92.300 V 180.300 C 10.000 180.355 10.045 180.400 10.100 180.400" stroke="rgb(255,0,255)" stroke-width="0.20" />
</g>
<g id="p-4" style="fill:none;stroke-linecap:round;stroke-linejoin:round;">
  <text dominant-baseline="hanging" font-size="4px" style="font-family: sans-serif ; font-weight: normal; font-style: normal; fill: rgb(255,0,0)" text-anchor="middle" transform="matrix( 1.000 0.000 0.000 1.000 50.100 48.200 )">top</text><path d="M 14.100 86.200 H 22.000 C 22.100 86.200 22.000 86.100 22.000 86.200 V 90.100 C 22.000 90.155 22.045 90.200 22.100 90.200 H 30.100 C 30.155 90.200 30.200 90.155 30.200 90.100 V 86.200 C 30.200 86.100 30.100 86.200 30.200 86.200 H 38.000 C 38.100 86.200 38.000 86.100 38.000 86.200 V 90.100 C 38.000 90.155 38.045 90.200 38.100 90.200 H 46.100 C 46.155 90.200 46.200 90.155 46.200 90.100 V 86.200 C 46.200 86.100 46.100 86.200 46.200 86.200 H 54.000 C 54.100 86.200 54.000 86.100 54.000 86.200 V 90.100 C 54.000 90.155 54.045 90.200 54.100 90.200 H 62.100 C 62.155 90.200 62.200 90.155 62.200 90.100 V 86.200 C 62.200 86.100 62.100 86.200 62.200 86.200 H 70.000 C 70.100 86.200 70.000 86.100 70.000 86.200 V 90.100 C 70.000 90.155 70.045 90.200 70.100 90.200 H 78.100 C 78.155 90.200 78.200 90.155 78.200 90.100 V 86.200 C 78.200 86.100 78.100 86.200 78.200 86.200 H 86.100 C 86.155 86.200 86.200 86.155 86.200 86.100 V 78.200 C 86.200 78.100 86.100 78.200 86.200 78.200 H 90.100 C 90.155 78.200 90.200 78.155 90.200 78.100 V 70.100 C 90.200 70.045 90.155 70.000 90.100 70.000 H 86.200 C 86.100 70.000 86.200 70.100 86.200 70.000 V 62.200 C 86.200 62.100 86.100 62.200 86.200 62.200 H 90.100 C 90.155 62.200 90.200 62.155 90.200 62.100 V 54.100 C 90.200 54.045 90.155 54.000 90.100 54.000 H 86.200 C 86.100 54.000 86.200 54.100 86.200 54.000 V 46.200 C 86.200 46.100 86.100 46.200 86.200 46.200 H 90.100 C 90.155 46.200 90.200 46.155 90.200 46.100 V 38.100 C 90.200 38.045 90.155 38.000 90.100 38.000 H 86.200 C 86.100 38.000 86.200 38.100 86.200 38.000 V 30.200 C 86.200 30.100 86.100 30.200 86.200 30.200 H 90.100 C 90.155 30.200 90.200 30.155 90.200 30.100 V 22.100 C 90.200 22.045 90.155 22.000 90.100 22.000 H 86.200 C 86.100 22.000 86.200 22.100 86.200 22.000 V 14.100 C 86.200 14.045 86.155 14.000 86.100 14.000 H 78.200 C 78.100 14.000 78.200 14.100 78.200 14.000 V 10.100 C 78.200 10.045 78.155 10.000 78.100 10.000 H 70.100 C 70.045 10.000 70.000 10.045 70.000 10.100 V 14.000 C 70.000 14.100 70.100 14.000 70.000 14.000 H 62.200 C 62.100 14.000 62.200 14.100 62.200 14.000 V 10.100 C 62.200 10.045 62.155 10.000 62.100 10.000 H 54.100 C 54.045 10.000 54.000 10.045 54.000 10.100 V 14.000 C 54.000 14.100 54.100 14.000 54.000 14.000 H 46.200 C 46.100 14.000 46.200 14.100 46.200 14.000 V 10.100 C 46.200 10.045 46.155 10.000 46.100 10.000 H 38.100 C 38.045 10.000 38.000 10.045 38.000 10.100 V 14.000 C 38.000 14.100 38.100 14.000 38.000 14.000 H 30.200 C 30.100 14.000 30.200 14.100 30.200 14.000 V 10.100 C 30.200 10.045 30.155 10.000 30.100 10.000 H 22.100 C 22.045 10.000 22.000 10.045 22.000 10.100 V 14.000 C 22.000 14.100 22.100 14.000 22.000 14.000 H 14.100 C 14.045 14.000 14.000 14.045 14.000 14.100 V 22.000 C 14.000 22.100 14.100 22.000 14.000 22.000 H 10.100 C 10.045 22.000 10.000 22.045 10.000 22.100 V 30.100 C 10.000 30.155 10.045 30.200 10.100 30.200 H 14.000 C 14.100 30.200 14.000 30.100 14.000 30.200 V 38.000 C 14.000 38.100 14.100 38.000 14.000 38.000 H 10.100 C 10.045 38.000 10.000 38.045 10.000 38.100 V 46.100 C 10.000 46.155 10.045 46.200 10.100 46.200 H 14.000 C 14.100 46.200 14.000 46.100 14.000 46.200 V 54.000 C 14.000 54.100 14.100 54.000 14.000 54.000 H 10.100 C 10.045 54.000 10.000 54.045 10.000 54.100 V 62.100 C 10.000 62.155 10.045 62.200 10.100 62.200 H 14.000 C 14.100 62.200 14.000 62.100 14.000 62.200 V 70.000 C 14.000 70.100 14.100 70.000 14.000 70.000 H 10.100 C 10.045 70.000 10.000 70.045 10.000 70.100 V 78.100 C 10.000 78.155 10.045 78.200 10.100 78.200 H 14.000 C 14.100 78.200 14.000 78.100 14.000 78.200 V 86.100 C 14.000 86.155 14.045 86.200 14.100 86.200" stroke="rgb(0,0,0)" stroke-width="0.20" />
</g>
<g id="p-5" style="fill:none;stroke-linecap:round;stroke-linejoin:round;">
  <text dominant-baseline="hanging" font-size="4px" style="font-family: sans-serif ; font-weight: normal; font-style: normal; fill: rgb(255,0,0)" text-anchor="middle" transform="matrix( 1.000 0.000 0.000 1.000 132.300 385.000 )">left</text><path d="M 96.300 427.000 H 104.300 C 104.355 427.000 104.400 426.955 104.400 426.900 V 423.000 C 104.400 422.900 104.300 423.000 104.400 423.000 H 112.200 C 112.300 423.000 112.200 422.900 112.200 423.000 V 426.900 C 112.200 426.955 112.245 427.000 112.300 427.000 H 120.300 C 120.355 427.000 120.400 426.955 120.400 426.900 V 423.000 C 120.400 422.900 120.300 423.000 120.400 423.000 H 128.200 C 128.300 423.000 128.200 422.900 128.200 423.000 V 426.900 C 128.200 426.955 128.245 427.000 128.300 427.000 H 136.300 C 136.355 427.000 136.400 426.955 136.400 426.900 V 423.000 C 136.400 422.900 136.300 423.000 136.400 423.000 H 144.200 C 144.300 423.000 144.200 422.900 144.200 423.000 V 426.900 C 144.200 426.955 144.245 427.000 144.300 427.000 H 152.300 C 152.355 427.000 152.400 426.955 152.400 426.900 V 423.000 C 152.400 422.900 152.300 423.000 152.400 423.000 H 160.200 C 160.300 423.000 160.200 422.900 160.200 423.000 V 426.900 C 160.200 426.955 160.245 427.000 160.300 427.000 H 168.300 C 168.355 427.000 168.400 426.955 168.400 426.900 V 417.000 C 168.400 416.900 168.300 417.000 168.400 417.000 H 172.300 C 172.355 417.000 172.400 416.955 172.400 416.900 V 408.900 C 172.400 408.845 172.355 408.800 172.300 408.800 H 168.400 C 168.300 408.800 168.400 408.900 168.400 408.800 V 401.000 C 168.400 400.900 168.300 401.000 168.400 401.000 H 172.300 C 172.355 401.000 172.400 400.955 172.400 400.900 V 392.900 C 172.400 392.845 172.355 392.800 172.300 392.800 H 168.400 C 168.300 392.800 168.400 392.900 168.400 392.800 V 385.000 C 168.400 384.900 168.300 385.000 168.400 385.000 H 172.300 C 172.355 385.000 172.400 384.955 172.400 384.900 V 376.900 C 172.400 376.845 172.355 376.800 172.300 376.800 H 168.400 C 168.300 376.800 168.400 376.900 168.400 376.800 V 369.000 C 168.400 368.900 168.300 369.000 168.400 369.000 H 172.300 C 172.355 369.000 172.400 368.955 172.400 368.900 V 360.900 C 172.400 360.845 172.355 360.800 172.300 360.800 H 168.400 C 168.300 360.800 168.400 360.900 168.400 360.800 V 350.900 V 346.900 C 168.400 346.845 168.355 346.800 168.300 346.800 H 160.300 C 160.245 346.800 160.200 346.845 160.200 346.900 V 350.800 C 160.200 350.900 160.300 350.800 160.200 350.800 H 152.400 C 152.300 350.800 152.400 350.900 152.400 350.800 V 346.900 C 152.400 346.845 152.355 346.800 152.300 346.800 H 144.300 C 144.245 346.800 144.200 346.845 144.200 346.900 V 350.800 C 144.200 350.900 144.300 350.800 144.200 350.800 H 136.400 C 136.300 350.800 136.400 350.900 136.400 350.800 V 346.900 C 136.400 346.845 136.355 346.800 136.300 346.800 H 128.300 C 128.245 346.800 128.200 346.845 128.200 346.900 V 350.800 C 128.200 350.900 128.300 350.800 128.200 350.800 H 120.400 C 120.300 350.800 120.400 350.900 120.400 350.800 V 346.900 C 120.400 346.845 120.355 346.800 120.300 346.800 H 112.300 C 112.245 346.800 112.200 346.845 112.200 346.900 V 350.800 C 112.200 350.900 112.300 350.800 112.200 350.800 H 104.400 C 104.300 350.800 104.400 350.900 104.400 350.800 V 346.900 C 104.400 346.845 104.355 346.800 104.300 346.800 H 96.300 C 96.245 346.800 96.200 346.845 96.200 346.900 V 350.900 V 360.800 C 96.200 360.900 96.300 360.800 96.200 360.800 H 92.300 C 92.245 360.800 92.200 360.845 92.200 360.900 V 368.900 C 92.200 368.955 92.245 369.000 92.300 369.000 H 96.200 C 96.300 369.000 96.200 368.900 96.200 369.000 V 376.800 C 96.200 376.900 96.300 376.800 96.200 376.800 H 92.300 C 92.245 376.800 92.200 376.845 92.200 376.900 V 384.900 C 92.200 384.955 92.245 385.000 92.300 385.000 H 96.200 C 96.300 385.000 96.200 384.900 96.200 385.000 V 392.800 C 96.200 392.900 96.300 392.800 96.200 392.800 H 92.300 C 92.245 392.800 92.200 392.845 92.200 392.900 V 400.900 C 92.200 400.955 92.245 401.000 92.300 401.000 H 96.200 C 96.300 401.000 96.200 400.900 96.200 401.000 V 408.800 C 96.200 408.900 96.300 408.800 96.200 408.800 H 92.300 C 92.245 408.800 92.200 408.845 92.200 408.900 V 416.900 C 92.200 416.955 92.245 417.000 92.300 417.000 H 96.200 C 96.300 417.000 96.200 416.900 96.200 417.000 V 426.900 C 96.200 426.955 96.245 427.000 96.300 427.000" stroke="rgb(0,0,0)" stroke-width="0.20" />
</g>
<g id="p-6" style="fill:none;stroke-linecap:round;stroke-linejoin:round;">
  <text dominant-baseline="hanging" font-size="4px" style="font-family: sans-serif ; font-weight: normal; font-style: normal; fill: rgb(255,0,0)" text-anchor="middle" transform="matrix( 1.000 0.000 0.000 1.000 132.300 302.800 )">right</text><path d="M 96.300 344.800 H 104.300 C 104.355 344.800 104.400 344.755 104.400 344.700 V 340.800 C 104.400 340.700 104.300 340.800 104.400 340.800 H 112.200 C 112.300 340.800 112.200 340.700 112.200 340.800 V 344.700 C 112.200 344.755 112.245 344.800 112.300 344.800 H 120.300 C 120.355 344.800 120.400 344.755 120.400 344.700 V 340.800 C 120.400 340.700 120.300 340.800 120.400 340.800 H 128.200 C 128.300 340.800 128.200 340.700 128.200 340.800 V 344.700 C 128.200 344.755 128.245 344.800 128.300 344.800 H 136.300 C 136.355 344.800 136.400 344.755 136.400 344.700 V 340.800 C 136.400 340.700 136.300 340.800 136.400 340.800 H 144.200 C 144.300 340.800 144.200 340.700 144.200 340.800 V 344.700 C 144.200 344.755 144.245 344.800 144.300 344.800 H 152.300 C 152.355 344.800 152.400 344.755 152.400 344.700 V 340.800 C 152.400 340.700 152.300 340.800 152.400 340.800 H 160.200 C 160.300 340.800 160.200 340.700 160.200 340.800 V 344.700 C 160.200 344.755 160.245 344.800 160.300 344.800 H 168.300 C 168.355 344.800 168.400 344.755 168.400 344.700 V 334.800 C 168.400 334.700 168.300 334.800 168.400 334.800 H 172.300 C 172.355 334.800 172.400 334.755 172.400 334.700 V 326.700 C 172.400 326.645 172.355 326.600 172.300 326.600 H 168.400 C 168.300 326.600 168.400 326.700 168.400 326.600 V 318.800 C 168.400 318.700 168.300 318.800 168.400 318.800 H 172.300 C 172.355 318.800 172.400 318.755 172.400 318.700 V 310.700 C 172.400 310.645 172.355 310.600 172.300 310.600 H 168.400 C 168.300 310.600 168.400 310.700 168.400 310.600 V 302.800 C 168.400 302.700 168.300 302.800 168.400 302.800 H 172.300 C 172.355 302.800 172.400 302.755 172.400 302.700 V 294.700 C 172.400 294.645 172.355 294.600 172.300 294.600 H 168.400 C 168.300 294.600 168.400 294.700 168.400 294.600 V 286.800 C 168.400 286.700 168.300 286.800 168.400 286.800 H 172.300 C 172.355 286.800 172.400 286.755 172.400 286.700 V 278.700 C 172.400 278.645 172.355 278.600 172.300 278.600 H 168.400 C 168.300 278.600 168.400 278.700 168.400 278.600 V 268.700 V 264.700 C 168.400 264.645 168.355 264.600 168.300 264.600 H 160.300 C 160.245 264.600 160.200 264.645 160.200 264.700 V 268.600 C 160.200 268.700 160.300 268.600 160.200 268.600 H 152.400 C 152.300 268.600 152.400 268.700 152.400 268.600 V 264.700 C 152.400 264.645 152.355 264.600 152.300 264.600 H 144.300 C 144.245 264.600 144.200 264.645 144.200 264.700 V 268.600 C 144.200 268.700 144.300 268.600 144.200 268.600 H 136.400 C 136.300 268.600 136.400 268.700 136.400 268.600 V 264.700 C 136.400 264.645 136.355 264.600 136.300 264.600 H 128.300 C 128.245 264.600 128.200 264.645 128.200 264.700 V 268.600 C 128.200 268.700 128.300 268.600 128.200 268.600 H 120.400 C 120.300 268.600 120.400 268.700 120.400 268.600 V 264.700 C 120.400 264.645 120.355 264.600 120.300 264.600 H 112.300 C 112.245 264.600 112.200 264.645 112.200 264.700 V 268.600 C 112.200 268.700 112.300 268.600 112.200 268.600 H 104.400 C 104.300 268.600 104.400 268.700 104.400 268.600 V 264.700 C 104.400 264.645 104.355 264.600 104.300 264.600 H 96.300 C 96.245 264.600 96.200 264.645 96.200 264.700 V 268.700 V 278.600 C 96.200 278.700 96.300 278.600 96.200 278.600 H 92.300 C 92.245 278.600 92.200 278.645 92.200 278.700 V 286.700 C 92.200 286.755 92.245 286.800 92.300 286.800 H 96.200 C 96.300 286.800 96.200 286.700 96.200 286.800 V 294.600 C 96.200 294.700 96.300 294.600 96.200 294.600 H 92.300 C 92.245 294.600 92.200 294.645 92.200 294.700 V 302.700 C 92.200 302.755 92.245 302.800 92.300 302.800 H 96.200 C 96.300 302.800 96.200 302.700 96.200 302.800 V 310.600 C 96.200 310.700 96.300 310.600 96.200 310.600 H 92.300 C 92.245 310.600 92.200 310.645 92.200 310.700 V 318.700 C 92.200 318.755 92.245 318.800 92.300 318.800 H 96.200 C 96.300 318.800 96.200 318.700 96.200 318.800 V 326.600 C 96.200 326.700 96.300 326.600 96.200 326.600 H 92.300 C 92.245 326.600 92.200 326.645 92.200 326.700 V 334.700 C 92.200 334.755 92.245 334.800 92.300 334.800 H 96.200 C 96.300 334.800 96.200 334.700 96.200 334.800 V 344.700 C 96.200 344.755 96.245 344.800 96.300 344.800" stroke="rgb(0,0,0)" stroke-width="0.20" />
</g>
</svg>