<?xml version='1.0' encoding='utf-8'?>
<svg height="557.00mm" viewBox="0.0 0.0 62.40 557.00" width="62.40mm" xmlns="http://www.w3.org/2000/svg" xmlns:cc="http://creativecommons.org/ns#" xmlns:dc="http://purl.org/dc/elements/1.1/" xmlns:inkscape="http://www.inkscape.org/namespaces/inkscape" xmlns:rdf="http://www.w3.org/1999/02/22-rdf-syntax-ns#" xmlns:svg="http://www.w3.org/2000/svg" xmlns:xlink="http://www.w3.org/1999/xlink">
<!--
UniversalBox - Box with various options for different styles and lids

Created with Boxes.py (https://boxes.hackerspace-bamberg.de/)
Creation date: 2024-09-28 13:10:08
Command line (remove spaces between dashes): boxes UniversalBox - -top_edge=F - -bottom_edge=F - -x=20.0 - -y=20.0 - -h=230.0 - -thickness=4.0 - -reference=0
Url: https://boxes.hackerspace-bamberg.de/UniversalBox?FingerJoint_style=rectangular&FingerJoint_surroundingspaces=2.0&FingerJoint_bottom_lip=0.0&FingerJoint_edge_width=1.0&FingerJoint_extra_length=0.0&FingerJoint_finger=2.0&FingerJoint_play=0.0&FingerJoint_space=2.0&FingerJoint_width=1.0&Stackable_angle=60&Stackable_bottom_stabilizers=0.0&Stackable_height=2.0&Stackable_holedistance=1.0&Stackable_width=4.0&Hinge_grip_percentage=0&Hinge_outset=0&Hinge_outset=1&Hinge_pinwidth=0.5&Hinge_style=outset&Hinge_axle=2.0&Hinge_grip_length=0&Hinge_hingestrength=1&CabinetHinge_bore=3.2&CabinetHinge_eyes_per_hinge=5&CabinetHinge_hinges=2&CabinetHinge_style=inside&CabinetHinge_eye=1.5&CabinetHinge_play=0.05&CabinetHinge_spacing=2.0&SlideOnLid_hole_width=0&SlideOnLid_second_pin=0&SlideOnLid_second_pin=1&SlideOnLid_spring=both&SlideOnLid_style=rectangular&SlideOnLid_surroundingspaces=2.0&SlideOnLid_bottom_lip=0.0&SlideOnLid_edge_width=1.0&SlideOnLid_extra_length=0.0&SlideOnLid_finger=3.0&SlideOnLid_play=0.05&SlideOnLid_space=2.0&SlideOnLid_width=1.0&Click_angle=5.0&Click_bottom_radius=0.1&Click_depth=3.0&RoundedTriangleEdge_height=50.0&RoundedTriangleEdge_r_hole=2.0&RoundedTriangleEdge_radius=30.0&RoundedTriangleEdge_outset=1.0&Mounting_d_head=6.5&Mounting_d_shaft=3.0&Mounting_margin=0.125&Mounting_num=2&Mounting_side=back&Mounting_style=straight+edge%2C+within&HandleEdge_height=20.0&HandleEdge_hole_height=75.0&HandleEdge_hole_width=40%3A40&HandleEdge_on_sides=0&HandleEdge_on_sides=1&HandleEdge_radius=10.0&HandleEdge_outset=1.0&Flex_stretch=1.05&Flex_connection=1.0&Flex_distance=0.5&Flex_width=5.0&Lid_handle=none&Lid_style=none&Lid_handle_height=8.0&Lid_height=4.0&Lid_play=0.1&top_edge=F&bottom_edge=F&x=20.0&y=20.0&h=230.0&outside=0&outside=1&vertical_edges=finger+joints&thickness=4.0&format=svg&tabs=0.0&qr_code=0&debug=0&labels=0&labels=1&reference=0&inner_corners=loop&burn=0.10&language=en&render=2
Url short: https://boxes.hackerspace-bamberg.de/UniversalBox?top_edge=F&bottom_edge=F&x=20.0&y=20.0&h=230.0&thickness=4.0&reference=0
SettingsUrl: https://boxes.hackerspace-bamberg.de/UniversalBox?FingerJoint_style=rectangular&FingerJoint_surroundingspaces=2.0&FingerJoint_bottom_lip=0.0&FingerJoint_edge_width=1.0&FingerJoint_extra_length=0.0&FingerJoint_finger=2.0&FingerJoint_play=0.0&FingerJoint_space=2.0&FingerJoint_width=1.0&Stackable_angle=60&Stackable_bottom_stabilizers=0.0&Stackable_height=2.0&Stackable_holedistance=1.0&Stackable_width=4.0&Hinge_grip_percentage=0&Hinge_outset=0&Hinge_outset=1&Hinge_pinwidth=0.5&Hinge_style=outset&Hinge_axle=2.0&Hinge_grip_length=0&Hinge_hingestrength=1&CabinetHinge_bore=3.2&CabinetHinge_eyes_per_hinge=5&CabinetHinge_hinges=2&CabinetHinge_style=inside&CabinetHinge_eye=1.5&CabinetHinge_play=0.05&CabinetHinge_spacing=2.0&SlideOnLid_hole_width=0&SlideOnLid_second_pin=0&SlideOnLid_second_pin=1&SlideOnLid_spring=both&SlideOnLid_style=rectangular&SlideOnLid_surroundingspaces=2.0&SlideOnLid_bottom_lip=0.0&SlideOnLid_edge_width=1.0&SlideOnLid_extra_length=0.0&SlideOnLid_finger=3.0&SlideOnLid_play=0.05&SlideOnLid_space=2.0&SlideOnLid_width=1.0&Click_angle=5.0&Click_bottom_radius=0.1&Click_depth=3.0&RoundedTriangleEdge_height=50.0&RoundedTriangleEdge_r_hole=2.0&RoundedTriangleEdge_radius=30.0&RoundedTriangleEdge_outset=1.0&Mounting_d_head=6.5&Mounting_d_shaft=3.0&Mounting_margin=0.125&Mounting_num=2&Mounting_side=back&Mounting_style=straight+edge%2C+within&HandleEdge_height=20.0&HandleEdge_hole_height=75.0&HandleEdge_hole_width=40%3A40&HandleEdge_on_sides=0&HandleEdge_on_sides=1&HandleEdge_radius=10.0&HandleEdge_outset=1.0&Flex_stretch=1.05&Flex_connection=1.0&Flex_distance=0.5&Flex_width=5.0&Lid_handle=none&Lid_style=none&Lid_handle_height=8.0&Lid_height=4.0&Lid_play=0.1&top_edge=F&bottom_edge=F&x=20.0&y=20.0&h=230.0&outside=0&outside=1&vertical_edges=finger+joints&thickness=4.0&format=svg&tabs=0.0&qr_code=0&debug=0&labels=0&labels=1&reference=0&inner_corners=loop&burn=0.10&language=en&render=2
SettingsUrl short: https://boxes.hackerspace-bamberg.de/UniversalBox?top_edge=F&bottom_edge=F&x=20.0&y=20.0&h=230.0&thickness=4.0&reference=0
-->
<title>UniversalBox</title>
<metadata>
<rdf:RDF><cc:Work>
<dc:title>Box - UniversalBox</dc:title>
<dc:date>2024-09-28 13:10:08</dc:date>
<dc:source>https://boxes.hackerspace-bamberg.de/UniversalBox?FingerJoint_style=rectangular&amp;FingerJoint_surroundingspaces=2.0&amp;FingerJoint_bottom_lip=0.0&amp;FingerJoint_edge_width=1.0&amp;FingerJoint_extra_length=0.0&amp;FingerJoint_finger=2.0&amp;FingerJoint_play=0.0&amp;FingerJoint_space=2.0&amp;FingerJoint_width=1.0&amp;Stackable_angle=60&amp;Stackable_bottom_stabilizers=0.0&amp;Stackable_height=2.0&amp;Stackable_holedistance=1.0&amp;Stackable_width=4.0&amp;Hinge_grip_percentage=0&amp;Hinge_outset=0&amp;Hinge_outset=1&amp;Hinge_pinwidth=0.5&amp;Hinge_style=outset&amp;Hinge_axle=2.0&amp;Hinge_grip_length=0&amp;Hinge_hingestrength=1&amp;CabinetHinge_bore=3.2&amp;CabinetHinge_eyes_per_hinge=5&amp;CabinetHinge_hinges=2&amp;CabinetHinge_style=inside&amp;CabinetHinge_eye=1.5&amp;CabinetHinge_play=0.05&amp;CabinetHinge_spacing=2.0&amp;SlideOnLid_hole_width=0&amp;SlideOnLid_second_pin=0&amp;SlideOnLid_second_pin=1&amp;SlideOnLid_spring=both&amp;SlideOnLid_style=rectangular&amp;SlideOnLid_surroundingspaces=2.0&amp;SlideOnLid_bottom_lip=0.0&amp;SlideOnLid_edge_width=1.0&amp;SlideOnLid_extra_length=0.0&amp;SlideOnLid_finger=3.0&amp;SlideOnLid_play=0.05&amp;SlideOnLid_space=2.0&amp;SlideOnLid_width=1.0&amp;Click_angle=5.0&amp;Click_bottom_radius=0.1&amp;Click_depth=3.0&amp;RoundedTriangleEdge_height=50.0&amp;RoundedTriangleEdge_r_hole=2.0&amp;RoundedTriangleEdge_radius=30.0&amp;RoundedTriangleEdge_outset=1.0&amp;Mounting_d_head=6.5&amp;Mounting_d_shaft=3.0&amp;Mounting_margin=0.125&amp;Mounting_num=2&amp;Mounting_side=back&amp;Mounting_style=straight+edge%2C+within&amp;HandleEdge_height=20.0&amp;HandleEdge_hole_height=75.0&amp;HandleEdge_hole_width=40%3A40&amp;HandleEdge_on_sides=0&amp;HandleEdge_on_sides=1&amp;HandleEdge_radius=10.0&amp;HandleEdge_outset=1.0&amp;Flex_stretch=1.05&amp;Flex_connection=1.0&amp;Flex_distance=0.5&amp;Flex_width=5.0&amp;Lid_handle=none&amp;Lid_style=none&amp;Lid_handle_height=8.0&amp;Lid_height=4.0&amp;Lid_play=0.1&amp;top_edge=F&amp;bottom_edge=F&amp;x=20.0&amp;y=20.0&amp;h=230.0&amp;outside=0&amp;outside=1&amp;vertical_edges=finger+joints&amp;thickness=4.0&amp;format=svg&amp;tabs=0.0&amp;qr_code=0&amp;debug=0&amp;labels=0&amp;labels=1&amp;reference=0&amp;inner_corners=loop&amp;burn=0.10&amp;language=en&amp;render=2</dc:source>
<dc:source>https://boxes.hackerspace-bamberg.de/UniversalBox?top_edge=F&amp;bottom_edge=F&amp;x=20.0&amp;y=20.0&amp;h=230.0&amp;thickness=4.0&amp;reference=0</dc:source>
<dc:description>Box with various options for different styles and lids

Created with Boxes.py (https://boxes.hackerspace-bamberg.de/)
Command line: boxes UniversalBox --FingerJoint_style=rectangular --FingerJoint_surroundingspaces=2.0 --FingerJoint_bottom_lip=0.0 --FingerJoint_edge_width=1.0 --FingerJoint_extra_length=0.0 --FingerJoint_finger=2.0 --FingerJoint_play=0.0 --FingerJoint_space=2.0 --FingerJoint_width=1.0 --Stackable_angle=60 --Stackable_bottom_stabilizers=0.0 --Stackable_height=2.0 --Stackable_holedistance=1.0 --Stackable_width=4.0 --Hinge_grip_percentage=0 --Hinge_outset=0 --Hinge_outset=1 --Hinge_pinwidth=0.5 --Hinge_style=outset --Hinge_axle=2.0 --Hinge_grip_length=0 --Hinge_hingestrength=1 --CabinetHinge_bore=3.2 --CabinetHinge_eyes_per_hinge=5 --CabinetHinge_hinges=2 --CabinetHinge_style=inside --CabinetHinge_eye=1.5 --CabinetHinge_play=0.05 --CabinetHinge_spacing=2.0 --SlideOnLid_hole_width=0 --SlideOnLid_second_pin=0 --SlideOnLid_second_pin=1 --SlideOnLid_spring=both --SlideOnLid_style=rectangular --SlideOnLid_surroundingspaces=2.0 --SlideOnLid_bottom_lip=0.0 --SlideOnLid_edge_width=1.0 --SlideOnLid_extra_length=0.0 --SlideOnLid_finger=3.0 --SlideOnLid_play=0.05 --SlideOnLid_space=2.0 --SlideOnLid_width=1.0 --Click_angle=5.0 --Click_bottom_radius=0.1 --Click_depth=3.0 --RoundedTriangleEdge_height=50.0 --RoundedTriangleEdge_r_hole=2.0 --RoundedTriangleEdge_radius=30.0 --RoundedTriangleEdge_outset=1.0 --Mounting_d_head=6.5 --Mounting_d_shaft=3.0 --Mounting_margin=0.125 --Mounting_num=2 --Mounting_side=back '--Mounting_style=straight edge, within' --HandleEdge_height=20.0 --HandleEdge_hole_height=75.0 --HandleEdge_hole_width=40:40 --HandleEdge_on_sides=0 --HandleEdge_on_sides=1 --HandleEdge_radius=10.0 --HandleEdge_outset=1.0 --Flex_stretch=1.05 --Flex_connection=1.0 --Flex_distance=0.5 --Flex_width=5.0 --Lid_handle=none --Lid_style=none --Lid_handle_height=8.0 --Lid_height=4.0 --Lid_play=0.1 --top_edge=F --bottom_edge=F --x=20.0 --y=20.0 --h=230.0 --outside=0 --outside=1 '--vertical_edges=finger joints' --thickness=4.0 --format=svg --tabs=0.0 --qr_code=0 --debug=0 --labels=0 --labels=1 --reference=0 --inner_corners=loop --burn=0.10
Command line short: boxes UniversalBox --top_edge=F --bottom_edge=F --x=20.0 --y=20.0 --h=230.0 --thickness=4.0 --reference=0
Url: https://boxes.hackerspace-bamberg.de/UniversalBox?FingerJoint_style=rectangular&amp;FingerJoint_surroundingspaces=2.0&amp;FingerJoint_bottom_lip=0.0&amp;FingerJoint_edge_width=1.0&amp;FingerJoint_extra_length=0.0&amp;FingerJoint_finger=2.0&amp;FingerJoint_play=0.0&amp;FingerJoint_space=2.0&amp;FingerJoint_width=1.0&amp;Stackable_angle=60&amp;Stackable_bottom_stabilizers=0.0&amp;Stackable_height=2.0&amp;Stackable_holedistance=1.0&amp;Stackable_width=4.0&amp;Hinge_grip_percentage=0&amp;Hinge_outset=0&amp;Hinge_outset=1&amp;Hinge_pinwidth=0.5&amp;Hinge_style=outset&amp;Hinge_axle=2.0&amp;Hinge_grip_length=0&amp;Hinge_hingestrength=1&amp;CabinetHinge_bore=3.2&amp;CabinetHinge_eyes_per_hinge=5&amp;CabinetHinge_hinges=2&amp;CabinetHinge_style=inside&amp;CabinetHinge_eye=1.5&amp;CabinetHinge_play=0.05&amp;CabinetHinge_spacing=2.0&amp;SlideOnLid_hole_width=0&amp;SlideOnLid_second_pin=0&amp;SlideOnLid_second_pin=1&amp;SlideOnLid_spring=both&amp;SlideOnLid_style=rectangular&amp;SlideOnLid_surroundingspaces=2.0&amp;SlideOnLid_bottom_lip=0.0&amp;SlideOnLid_edge_width=1.0&amp;SlideOnLid_extra_length=0.0&amp;SlideOnLid_finger=3.0&amp;SlideOnLid_play=0.05&amp;SlideOnLid_space=2.0&amp;SlideOnLid_width=1.0&amp;Click_angle=5.0&amp;Click_bottom_radius=0.1&amp;Click_depth=3.0&amp;RoundedTriangleEdge_height=50.0&amp;RoundedTriangleEdge_r_hole=2.0&amp;RoundedTriangleEdge_radius=30.0&amp;RoundedTriangleEdge_outset=1.0&amp;Mounting_d_head=6.5&amp;Mounting_d_shaft=3.0&amp;Mounting_margin=0.125&amp;Mounting_num=2&amp;Mounting_side=back&amp;Mounting_style=straight+edge%2C+within&amp;HandleEdge_height=20.0&amp;HandleEdge_hole_height=75.0&amp;HandleEdge_hole_width=40%3A40&amp;HandleEdge_on_sides=0&amp;HandleEdge_on_sides=1&amp;HandleEdge_radius=10.0&amp;HandleEdge_outset=1.0&amp;Flex_stretch=1.05&amp;Flex_connection=1.0&amp;Flex_distance=0.5&amp;Flex_width=5.0&amp;Lid_handle=none&amp;Lid_style=none&amp;Lid_handle_height=8.0&amp;Lid_height=4.0&amp;Lid_play=0.1&amp;top_edge=F&amp;bottom_edge=F&amp;x=20.0&amp;y=20.0&amp;h=230.0&amp;outside=0&amp;outside=1&amp;vertical_edges=finger+joints&amp;thickness=4.0&amp;format=svg&amp;tabs=0.0&amp;qr_code=0&amp;debug=0&amp;labels=0&amp;labels=1&amp;reference=0&amp;inner_corners=loop&amp;burn=0.10&amp;language=en&amp;render=2
Url short: https://boxes.hackerspace-bamberg.de/UniversalBox?top_edge=F&amp;bottom_edge=F&amp;x=20.0&amp;y=20.0&amp;h=230.0&amp;thickness=4.0&amp;reference=0
SettingsUrl: https://boxes.hackerspace-bamberg.de/UniversalBox?FingerJoint_style=rectangular&amp;FingerJoint_surroundingspaces=2.0&amp;FingerJoint_bottom_lip=0.0&amp;FingerJoint_edge_width=1.0&amp;FingerJoint_extra_length=0.0&amp;FingerJoint_finger=2.0&amp;FingerJoint_play=0.0&amp;FingerJoint_space=2.0&amp;FingerJoint_width=1.0&amp;Stackable_angle=60&amp;Stackable_bottom_stabilizers=0.0&amp;Stackable_height=2.0&amp;Stackable_holedistance=1.0&amp;Stackable_width=4.0&amp;Hinge_grip_percentage=0&amp;Hinge_outset=0&amp;Hinge_outset=1&amp;Hinge_pinwidth=0.5&amp;Hinge_style=outset&amp;Hinge_axle=2.0&amp;Hinge_grip_length=0&amp;Hinge_hingestrength=1&amp;CabinetHinge_bore=3.2&amp;CabinetHinge_eyes_per_hinge=5&amp;CabinetHinge_hinges=2&amp;CabinetHinge_style=inside&amp;CabinetHinge_eye=1.5&amp;CabinetHinge_play=0.05&amp;CabinetHinge_spacing=2.0&amp;SlideOnLid_hole_width=0&amp;SlideOnLid_second_pin=0&amp;SlideOnLid_second_pin=1&amp;SlideOnLid_spring=both&amp;SlideOnLid_style=rectangular&amp;SlideOnLid_surroundingspaces=2.0&amp;SlideOnLid_bottom_lip=0.0&amp;SlideOnLid_edge_width=1.0&amp;SlideOnLid_extra_length=0.0&amp;SlideOnLid_finger=3.0&amp;SlideOnLid_play=0.05&amp;SlideOnLid_space=2.0&amp;SlideOnLid_width=1.0&amp;Click_angle=5.0&amp;Click_bottom_radius=0.1&amp;Click_depth=3.0&amp;RoundedTriangleEdge_height=50.0&amp;RoundedTriangleEdge_r_hole=2.0&amp;RoundedTriangleEdge_radius=30.0&amp;RoundedTriangleEdge_outset=1.0&amp;Mounting_d_head=6.5&amp;Mounting_d_shaft=3.0&amp;Mounting_margin=0.125&amp;Mounting_num=2&amp;Mounting_side=back&amp;Mounting_style=straight+edge%2C+within&amp;HandleEdge_height=20.0&amp;HandleEdge_hole_height=75.0&amp;HandleEdge_hole_width=40%3A40&amp;HandleEdge_on_sides=0&amp;HandleEdge_on_sides=1&amp;HandleEdge_radius=10.0&amp;HandleEdge_outset=1.0&amp;Flex_stretch=1.05&amp;Flex_connection=1.0&amp;Flex_distance=0.5&amp;Flex_width=5.0&amp;Lid_handle=none&amp;Lid_style=none&amp;Lid_handle_height=8.0&amp;Lid_height=4.0&amp;Lid_play=0.1&amp;top_edge=F&amp;bottom_edge=F&amp;x=20.0&amp;y=20.0&amp;h=230.0&amp;outside=0&amp;outside=1&amp;vertical_edges=finger+joints&amp;thickness=4.0&amp;format=svg&amp;tabs=0.0&amp;qr_code=0&amp;debug=0&amp;labels=0&amp;labels=1&amp;reference=0&amp;inner_corners=loop&amp;burn=0.10&amp;language=en&amp;render=2
SettingsUrl short: https://boxes.hackerspace-bamberg.de/UniversalBox?top_edge=F&amp;bottom_edge=F&amp;x=20.0&amp;y=20.0&amp;h=230.0&amp;thickness=4.0&amp;reference=0
</dc:description>
</cc:Work></rdf:RDF></metadata>
<g id="p-0" style="fill:none;stroke-linecap:round;stroke-linejoin:round;">
  <text dominant-baseline="hanging" font-size="4px" style="font-family: sans-serif ; font-weight: normal; font-style: normal; fill: rgb(255,0,0)" text-anchor="middle" transform="matrix( 1.000 0.000 0.000 1.000 20.100 430.000 )">front</text><path d="M 14.100 547.000 H 17.100 C 17.155 547.000 17.200 546.955 17.200 546.900 V 543.000 C 17.200 542.900 17.100 543.000 17.200 543.000 H 23.000 C 23.100 543.000 23.000 542.900 23.000 543.000 V 546.900 C 23.000 546.955 23.045 547.000 23.100 547.000 H 26.100 H 30.100 C 30.155 547.000 30.200 546.955 30.200 546.900 V 533.900 C 30.200 533.845 30.155 533.800 30.100 533.800 H 26.200 C 26.100 533.800 26.200 533.900 26.200 533.800 V 526.000 C 26.200 525.900 26.100 526.000 26.200 526.000 H 30.100 C 30.155 526.000 30.200 525.955 30.200 525.900 V 517.900 C 30.200 517.845 30.155 517.800 30.100 517.800 H 26.200 C 26.100 517.800 26.200 517.900 26.200 517.800 V 510.000 C 26.200 509.900 26.100 510.000 26.200 510.000 H 30.100 C 30.155 510.000 30.200 509.955 30.200 509.900 V 501.900 C 30.200 501.845 30.155 501.800 30.100 501.800 H 26.200 C 26.100 501.800 26.200 501.900 26.200 501.800 V 494.000 C 26.200 493.900 26.100 494.000 26.200 494.000 H 30.100 C 30.155 494.000 30.200 493.955 30.200 493.900 V 485.900 C 30.200 485.845 30.155 485.800 30.100 485.800 H 26.200 C 26.100 485.800 26.200 485.900 26.200 485.800 V 478.000 C 26.200 477.900 26.100 478.000 26.200 478.000 H 30.100 C 30.155 478.000 30.200 477.955 30.200 477.900 V 469.900 C 30.200 469.845 30.155 469.800 30.100 469.800 H 26.200 C 26.100 469.800 26.200 469.900 26.200 469.800 V 462.000 C 26.200 461.900 26.100 462.000 26.200 462.000 H 30.100 C 30.155 462.000 30.200 461.955 30.200 461.900 V 453.900 C 30.200 453.845 30.155 453.800 30.100 453.800 H 26.200 C 26.100 453.800 26.200 453.900 26.200 453.800 V 446.000 C 26.200 445.900 26.100 446.000 26.200 446.000 H 30.100 C 30.155 446.000 30.200 445.955 30.200 445.900 V 437.900 C 30.200 437.845 30.155 437.800 30.100 437.800 H 26.200 C 26.100 437.800 26.200 437.900 26.200 437.800 V 430.000 C 26.200 429.900 26.100 430.000 26.200 430.000 H 30.100 C 30.155 430.000 30.200 429.955 30.200 429.900 V 421.900 C 30.200 421.845 30.155 421.800 30.100 421.800 H 26.200 C 26.100 421.800 26.200 421.900 26.200 421.800 V 414.000 C 26.200 413.900 26.100 414.000 26.200 414.000 H 30.100 C 30.155 414.000 30.200 413.955 30.200 413.900 V 405.900 C 30.200 405.845 30.155 405.800 30.100 405.800 H 26.200 C 26.100 405.800 26.200 405.900 26.200 405.800 V 398.000 C 26.200 397.900 26.100 398.000 26.200 398.000 H 30.100 C 30.155 398.000 30.200 397.955 30.200 397.900 V 389.900 C 30.200 389.845 30.155 389.800 30.100 389.800 H 26.200 C 26.100 389.800 26.200 389.900 26.200 389.800 V 382.000 C 26.200 381.900 26.100 382.000 26.200 382.000 H 30.100 C 30.155 382.000 30.200 381.955 30.200 381.900 V 373.900 C 30.200 373.845 30.155 373.800 30.100 373.800 H 26.200 C 26.100 373.800 26.200 373.900 26.200 373.800 V 366.000 C 26.200 365.900 26.100 366.000 26.200 366.000 H 30.100 C 30.155 366.000 30.200 365.955 30.200 365.900 V 357.900 C 30.200 357.845 30.155 357.800 30.100 357.800 H 26.200 C 26.100 357.800 26.200 357.900 26.200 357.800 V 350.000 C 26.200 349.900 26.100 350.000 26.200 350.000 H 30.100 C 30.155 350.000 30.200 349.955 30.200 349.900 V 341.900 C 30.200 341.845 30.155 341.800 30.100 341.800 H 26.200 C 26.100 341.800 26.200 341.900 26.200 341.800 V 334.000 C 26.200 333.900 26.100 334.000 26.200 334.000 H 30.100 C 30.155 334.000 30.200 333.955 30.200 333.900 V 320.900 V 316.900 C 30.200 316.845 30.155 316.800 30.100 316.800 H 26.100 H 23.100 C 23.045 316.800 23.000 316.845 23.000 316.900 V 320.800 C 23.000 320.900 23.100 320.800 23.000 320.800 H 17.200 C 17.100 320.800 17.200 320.900 17.200 320.800 V 316.900 C 17.200 316.845 17.155 316.800 17.100 316.800 H 14.100 H 10.100 C 10.045 316.800 10.000 316.845 10.000 316.900 V 320.900 V 333.900 C 10.000 333.955 10.045 334.000 10.100 334.000 H 14.000 C 14.100 334.000 14.000 333.900 14.000 334.000 V 341.800 C 14.000 341.900 14.100 341.800 14.000 341.800 H 10.100 C 10.045 341.800 10.000 341.845 10.000 341.900 V 349.900 C 10.000 349.955 10.045 350.000 10.100 350.000 H 14.000 C 14.100 350.000 14.000 349.900 14.000 350.000 V 357.800 C 14.000 357.900 14.100 357.800 14.000 357.800 H 10.100 C 10.045 357.800 10.000 357.845 10.000 357.900 V 365.900 C 10.000 365.955 10.045 366.000 10.100 366.000 H 14.000 C 14.100 366.000 14.000 365.900 14.000 366.000 V 373.800 C 14.000 373.900 14.100 373.800 14.000 373.800 H 10.100 C 10.045 373.800 10.000 373.845 10.000 373.900 V 381.900 C 10.000 381.955 10.045 382.000 10.100 382.000 H 14.000 C 14.100 382.000 14.000 381.900 14.000 382.000 V 389.800 C 14.000 389.900 14.100 389.800 14.000 389.800 H 10.100 C 10.045 389.800 10.000 389.845 10.000 389.900 V 397.900 C 10.000 397.955 10.045 398.000 10.100 398.000 H 14.000 C 14.100 398.000 14.000 397.900 14.000 398.000 V 405.800 C 14.000 405.900 14.100 405.800 14.000 405.800 H 10.100 C 10.045 405.800 10.000 405.845 10.000 405.900 V 413.900 C 10.000 413.955 10.045 414.000 10.100 414.000 H 14.000 C 14.100 414.000 14.000 413.900 14.000 414.000 V 421.800 C 14.000 421.900 14.100 421.800 14.000 421.800 H 10.100 C 10.045 421.800 10.000 421.845 10.000 421.900 V 429.900 C 10.000 429.955 10.045 430.000 10.100 430.000 H 14.000 C 14.100 430.000 14.000 429.900 14.000 430.000 V 437.800 C 14.000 437.900 14.100 437.800 14.000 437.800 H 10.100 C 10.045 437.800 10.000 437.845 10.000 437.900 V 445.900 C 10.000 445.955 10.045 446.000 10.100 446.000 H 14.000 C 14.100 446.000 14.000 445.900 14.000 446.000 V 453.800 C 14.000 453.900 14.100 453.800 14.000 453.800 H 10.100 C 10.045 453.800 10.000 453.845 10.000 453.900 V 461.900 C 10.000 461.955 10.045 462.000 10.100 462.000 H 14.000 C 14.100 462.000 14.000 461.900 14.000 462.000 V 469.800 C 14.000 469.900 14.100 469.800 14.000 469.800 H 10.100 C 10.045 469.800 10.000 469.845 10.000 469.900 V 477.900 C 10.000 477.955 10.045 478.000 10.100 478.000 H 14.000 C 14.100 478.000 14.000 477.900 14.000 478.000 V 485.800 C 14.000 485.900 14.100 485.800 14.000 485.800 H 10.100 C 10.045 485.800 10.000 485.845 10.000 485.900 V 493.900 C 10.000 493.955 10.045 494.000 10.100 494.000 H 14.000 C 14.100 494.000 14.000 493.900 14.000 494.000 V 501.800 C 14.000 501.900 14.100 501.800 14.000 501.800 H 10.100 C 10.045 501.800 10.000 501.845 10.000 501.900 V 509.900 C 10.000 509.955 10.045 510.000 10.100 510.000 H 14.000 C 14.100 510.000 14.000 509.900 14.000 510.000 V 517.800 C 14.000 517.900 14.100 517.800 14.000 517.800 H 10.100 C 10.045 517.800 10.000 517.845 10.000 517.900 V 525.900 C 10.000 525.955 10.045 526.000 10.100 526.000 H 14.000 C 14.100 526.000 14.000 525.900 14.000 526.000 V 533.800 C 14.000 533.900 14.100 533.800 14.000 533.800 H 10.100 C 10.045 533.800 10.000 533.845 10.000 533.900 V 546.900 C 10.000 546.955 10.045 547.000 10.100 547.000 H 14.100" stroke="rgb(0,0,0)" stroke-width="0.20" />
</g>
<g id="p-1" style="fill:none;stroke-linecap:round;stroke-linejoin:round;">
  <text dominant-baseline="hanging" font-size="4px" style="font-family: sans-serif ; font-weight: normal; font-style: normal; fill: rgb(255,0,0)" text-anchor="middle" transform="matrix( 1.000 0.000 0.000 1.000 20.100 197.800 )">back</text><path d="M 14.100 314.800 H 17.100 C 17.155 314.800 17.200 314.755 17.200 314.700 V 310.800 C 17.200 310.700 17.100 310.800 17.200 310.800 H 23.000 C 23.100 310.800 23.000 310.700 23.000 310.800 V 314.700 C 23.000 314.755 23.045 314.800 23.100 314.800 H 26.100 H 30.100 C 30.155 314.800 30.200 314.755 30.200 314.700 V 301.700 C 30.200 301.645 30.155 301.600 30.100 301.600 H 26.200 C 26.100 301.600 26.200 301.700 26.200 301.600 V 293.800 C 26.200 293.700 26.100 293.800 26.200 293.800 H 30.100 C 30.155 293.800 30.200 293.755 30.200 293.700 V 285.700 C 30.200 285.645 30.155 285.600 30.100 285.600 H 26.200 C 26.100 285.600 26.200 285.700 26.200 285.600 V 277.800 C 26.200 277.700 26.100 277.800 26.200 277.800 H 30.100 C 30.155 277.800 30.200 277.755 30.200 277.700 V 269.700 C 30.200 269.645 30.155 269.600 30.100 269.600 H 26.200 C 26.100 269.600 26.200 269.700 26.200 269.600 V 261.800 C 26.200 261.700 26.100 261.800 26.200 261.800 H 30.100 C 30.155 261.800 30.200 261.755 30.200 261.700 V 253.700 C 30.200 253.645 30.155 253.600 30.100 253.600 H 26.200 C 26.100 253.600 26.200 253.700 26.200 253.600 V 245.800 C 26.200 245.700 26.100 245.800 26.200 245.800 H 30.100 C 30.155 245.800 30.200 245.755 30.200 245.700 V 237.700 C 30.200 237.645 30.155 237.600 30.100 237.600 H 26.200 C 26.100 237.600 26.200 237.700 26.200 237.600 V 229.800 C 26.200 229.700 26.100 229.800 26.200 229.800 H 30.100 C 30.155 229.800 30.200 229.755 30.200 229.700 V 221.700 C 30.200 221.645 30.155 221.600 30.100 221.600 H 26.200 C 26.100 221.600 26.200 221.700 26.200 221.600 V 213.800 C 26.200 213.700 26.100 213.800 26.200 213.800 H 30.100 C 30.155 213.800 30.200 213.755 30.200 213.700 V 205.700 C 30.200 205.645 30.155 205.600 30.100 205.600 H 26.200 C 26.100 205.600 26.200 205.700 26.200 205.600 V 197.800 C 26.200 197.700 26.100 197.800 26.200 197.800 H 30.100 C 30.155 197.800 30.200 197.755 30.200 197.700 V 189.700 C 30.200 189.645 30.155 189.600 30.100 189.600 H 26.200 C 26.100 189.600 26.200 189.700 26.200 189.600 V 181.800 C 26.200 181.700 26.100 181.800 26.200 181.800 H 30.100 C 30.155 181.800 30.200 181.755 30.200 181.700 V 173.700 C 30.200 173.645 30.155 173.600 30.100 173.600 H 26.200 C 26.100 173.600 26.200 173.700 26.200 173.600 V 165.800 C 26.200 165.700 26.100 165.800 26.200 165.800 H 30.100 C 30.155 165.800 30.200 165.755 30.200 165.700 V 157.700 C 30.200 157.645 30.155 157.600 30.100 157.600 H 26.200 C 26.100 157.600 26.200 157.700 26.200 157.600 V 149.800 C 26.200 149.700 26.100 149.800 26.200 149.800 H 30.100 C 30.155 149.800 30.200 149.755 30.200 149.700 V 141.700 C 30.200 141.645 30.155 141.600 30.100 141.600 H 26.200 C 26.100 141.600 26.200 141.700 26.200 141.600 V 133.800 C 26.200 133.700 26.100 133.800 26.200 133.800 H 30.100 C 30.155 133.800 30.200 133.755 30.200 133.700 V 125.700 C 30.200 125.645 30.155 125.600 30.100 125.600 H 26.200 C 26.100 125.600 26.200 125.700 26.200 125.600 V 117.800 C 26.200 117.700 26.100 117.800 26.200 117.800 H 30.100 C 30.155 117.800 30.200 117.755 30.200 117.700 V 109.700 C 30.200 109.645 30.155 109.600 30.100 109.600 H 26.200 C 26.100 109.600 26.200 109.700 26.200 109.600 V 101.800 C 26.200 101.700 26.100 101.800 26.200 101.800 H 30.100 C 30.155 101.800 30.200 101.755 30.200 101.700 V 88.700 V 84.700 C 30.200 84.645 30.155 84.600 30.100 84.600 H 26.100 H 23.100 C 23.045 84.600 23.000 84.645 23.000 84.700 V 88.600 C 23.000 88.700 23.100 88.600 23.000 88.600 H 17.200 C 17.100 88.600 17.200 88.700 17.200 88.600 V 84.700 C 17.200 84.645 17.155 84.600 17.100 84.600 H 14.100 H 10.100 C 10.045 84.600 10.000 84.645 10.000 84.700 V 88.700 V 101.700 C 10.000 101.755 10.045 101.800 10.100 101.800 H 14.000 C 14.100 101.800 14.000 101.700 14.000 101.800 V 109.600 C 14.000 109.700 14.100 109.600 14.000 109.600 H 10.100 C 10.045 109.600 10.000 109.645 10.000 109.700 V 117.700 C 10.000 117.755 10.045 117.800 10.100 117.800 H 14.000 C 14.100 117.800 14.000 117.700 14.000 117.800 V 125.600 C 14.000 125.700 14.100 125.600 14.000 125.600 H 10.100 C 10.045 125.600 10.000 125.645 10.000 125.700 V 133.700 C 10.000 133.755 10.045 133.800 10.100 133.800 H 14.000 C 14.100 133.800 14.000 133.700 14.000 133.800 V 141.600 C 14.000 141.700 14.100 141.600 14.000 141.600 H 10.100 C 10.045 141.600 10.000 141.645 10.000 141.700 V 149.700 C 10.000 149.755 10.045 149.800 10.100 149.800 H 14.000 C 14.100 149.800 14.000 149.700 14.000 149.800 V 157.600 C 14.000 157.700 14.100 157.600 14.000 157.600 H 10.100 C 10.045 157.600 10.000 157.645 10.000 157.700 V 165.700 C 10.000 165.755 10.045 165.800 10.100 165.800 H 14.000 C 14.100 165.800 14.000 165.700 14.000 165.800 V 173.600 C 14.000 173.700 14.100 173.600 14.000 173.600 H 10.100 C 10.045 173.600 10.000 173.645 10.000 173.700 V 181.700 C 10.000 181.755 10.045 181.800 10.100 181.800 H 14.000 C 14.100 181.800 14.000 181.700 14.000 181.800 V 189.600 C 14.000 189.700 14.100 189.600 14.000 189.600 H 10.100 C 10.045 189.600 10.000 189.645 10.000 189.700 V 197.700 C 10.000 197.755 10.045 197.800 10.100 197.800 H 14.000 C 14.100 197.800 14.000 197.700 14.000 197.800 V 205.600 C 14.000 205.700 14.100 205.600 14.000 205.600 H 10.100 C 10.045 205.600 10.000 205.645 10.000 205.700 V 213.700 C 10.000 213.755 10.045 213.800 10.100 213.800 H 14.000 C 14.100 213.800 14.000 213.700 14.000 213.800 V 221.600 C 14.000 221.700 14.100 221.600 14.000 221.600 H 10.100 C 10.045 221.600 10.000 221.645 10.000 221.700 V 229.700 C 10.000 229.755 10.045 229.800 10.100 229.800 H 14.000 C 14.100 229.800 14.000 229.700 14.000 229.800 V 237.600 C 14.000 237.700 14.100 237.600 14.000 237.600 H 10.100 C 10.045 237.600 10.000 237.645 10.000 237.700 V 245.700 C 10.000 245.755 10.045 245.800 10.100 245.800 H 14.000 C 14.100 245.800 14.000 245.700 14.000 245.800 V 253.600 C 14.000 253.700 14.100 253.600 14.000 253.600 H 10.100 C 10.045 253.600 10.000 253.645 10.000 253.700 V 261.700 C 10.000 261.755 10.045 261.800 10.100 261.800 H 14.000 C 14.100 261.800 14.000 261.700 14.000 261.800 V 269.600 C 14.000 269.700 14.100 269.600 14.000 269.600 H 10.100 C 10.045 269.600 10.000 269.645 10.000 269.700 V 277.700 C 10.000 277.755 10.045 277.800 10.100 277.800 H 14.000 C 14.100 277.800 14.000 277.700 14.000 277.800 V 285.600 C 14.000 285.700 14.100 285.600 14.000 285.600 H 10.100 C 10.045 285.600 10.000 285.645 10.000 285.700 V 293.700 C 10.000 293.755 10.045 293.800 10.100 293.800 H 14.000 C 14.100 293.800 14.000 293.700 14.000 293.800 V 301.600 C 14.000 301.700 14.100 301.600 14.000 301.600 H 10.100 C 10.045 301.600 10.000 301.645 10.000 301.700 V 314.700 C 10.000 314.755 10.045 314.800 10.100 314.800 H 14.100" stroke="rgb(0,0,0)" stroke-width="0.20" />
</g>
<g id="p-2" style="fill:none;stroke-linecap:round;stroke-linejoin:round;">
  <text dominant-baseline="hanging" font-size="4px" style="font-family: sans-serif ; font-weight: normal; font-style: normal; fill: rgb(255,0,0)" text-anchor="middle" transform="matrix( 1.000 0.000 0.000 1.000 20.100 70.600 )">bottom</text><path d="M 14.100 78.600 H 17.000 C 17.100 78.600 17.000 78.500 17.000 78.600 V 82.500 C 17.000 82.555 17.045 82.600 17.100 82.600 H 23.100 C 23.155 82.600 23.200 82.555 23.200 82.500 V 78.600 C 23.200 78.500 23.100 78.600 23.200 78.600 H 26.100 C 26.155 78.600 26.200 78.555 26.200 78.500 V 75.600 C 26.200 75.500 26.100 75.600 26.200 75.600 H 30.100 C 30.155 75.600 30.200 75.555 30.200 75.500 V 69.500 C 30.200 69.445 30.155 69.400 30.100 69.400 H 26.200 C 26.100 69.400 26.200 69.500 26.200 69.400 V 66.500 C 26.200 66.445 26.155 66.400 26.100 66.400 H 23.200 C 23.100 66.400 23.200 66.500 23.200 66.400 V 62.500 C 23.200 62.445 23.155 62.400 23.100 62.400 H 17.100 C 17.045 62.400 17.000 62.445 17.000 62.500 V 66.400 C 17.000 66.500 17.100 66.400 17.000 66.400 H 14.100 C 14.045 66.400 14.000 66.445 14.000 66.500 V 69.400 C 14.000 69.500 14.100 69.400 14.000 69.400 H 10.100 C 10.045 69.400 10.000 69.445 10.000 69.500 V 75.500 C 10.000 75.555 10.045 75.600 10.100 75.600 H 14.000 C 14.100 75.600 14.000 75.500 14.000 75.600 V 78.500 C 14.000 78.555 14.045 78.600 14.100 78.600" stroke="rgb(0,0,0)" stroke-width="0.20" />
</g>
<g id="p-3" style="fill:none;stroke-linecap:round;stroke-linejoin:round;">
  <text dominant-baseline="hanging" font-size="4px" style="font-family: sans-serif ; font-weight: normal; font-style: normal; fill: rgb(255,0,0)" text-anchor="middle" transform="matrix( 1.000 0.000 0.000 1.000 24.100 44.400 )">top hole</text><path d="M 14.200 52.300 V 49.400 C 14.200 49.300 14.100 49.400 14.200 49.400 H 18.100 C 18.155 49.400 18.200 49.355 18.200 49.300 V 43.300 C 18.200 43.245 18.155 43.200 18.100 43.200 H 14.200 C 14.100 43.200 14.200 43.300 14.200 43.200 V 40.300 V 36.400 C 14.200 36.300 14.100 36.400 14.200 36.400 H 18.100 H 21.000 C 21.100 36.400 21.000 36.300 21.000 36.400 V 40.300 C 21.000 40.355 21.045 40.400 21.100 40.400 H 27.100 C 27.155 40.400 27.200 40.355 27.200 40.300 V 36.400 C 27.200 36.300 27.100 36.400 27.200 36.400 H 30.100 H 34.000 C 34.100 36.400 34.000 36.300 34.000 36.400 V 40.300 V 43.200 C 34.000 43.300 34.100 43.200 34.000 43.200 H 30.100 C 30.045 43.200 30.000 43.245 30.000 43.300 V 49.300 C 30.000 49.355 30.045 49.400 30.100 49.400 H 34.000 C 34.100 49.400 34.000 49.300 34.000 49.400 V 52.300 V 56.200 C 34.000 56.300 34.100 56.200 34.000 56.200 H 30.100 H 27.200 C 27.100 56.200 27.200 56.300 27.200 56.200 V 52.300 C 27.200 52.245 27.155 52.200 27.100 52.200 H 21.100 C 21.045 52.200 21.000 52.245 21.000 52.300 V 56.200 C 21.000 56.300 21.100 56.200 21.000 56.200 H 18.100 H 14.200 C 14.100 56.200 14.200 56.300 14.200 56.200 V 52.300 Z M 10.100 60.400 H 38.100 C 38.155 60.400 38.200 60.355 38.200 60.300 V 32.300 C 38.200 32.245 38.155 32.200 38.100 32.200 H 10.100 C 10.045 32.200 10.000 32.245 10.000 32.300 V 60.300 C 10.000 60.355 10.045 60.400 10.100 60.400" stroke="rgb(255,0,255)" stroke-width="0.20" />
</g>
<g id="p-4" style="fill:none;stroke-linecap:round;stroke-linejoin:round;">
  <text dominant-baseline="hanging" font-size="4px" style="font-family: sans-serif ; font-weight: normal; font-style: normal; fill: rgb(255,0,0)" text-anchor="middle" transform="matrix( 1.000 0.000 0.000 1.000 20.100 18.200 )">top</text><path d="M 14.100 26.200 H 17.000 C 17.100 26.200 17.000 26.100 17.000 26.200 V 30.100 C 17.000 30.155 17.045 30.200 17.100 30.200 H 23.100 C 23.155 30.200 23.200 30.155 23.200 30.100 V 26.200 C 23.200 26.100 23.100 26.200 23.200 26.200 H 26.100 C 26.155 26.200 26.200 26.155 26.200 26.100 V 23.200 C 26.200 23.100 26.100 23.200 26.200 23.200 H 30.100 C 30.155 23.200 30.200 23.155 30.200 23.100 V 17.100 C 30.200 17.045 30.155 17.000 30.100 17.000 H 26.200 C 26.100 17.000 26.200 17.100 26.200 17.000 V 14.100 C 26.200 14.045 26.155 14.000 26.100 14.000 H 23.200 C 23.100 14.000 23.200 14.100 23.200 14.000 V 10.100 C 23.200 10.045 23.155 10.000 23.100 10.000 H 17.100 C 17.045 10.000 17.000 10.045 17.000 10.100 V 14.000 C 17.000 14.100 17.100 14.000 17.000 14.000 H 14.100 C 14.045 14.000 14.000 14.045 14.000 14.100 V 17.000 C 14.000 17.100 14.100 17.000 14.000 17.000 H 10.100 C 10.045 17.000 10.000 17.045 10.000 17.100 V 23.100 C 10.000 23.155 10.045 23.200 10.100 23.200 H 14.000 C 14.100 23.200 14.000 23.100 14.000 23.200 V 26.100 C 14.000 26.155 14.045 26.200 14.100 26.200" stroke="rgb(0,0,0)" stroke-width="0.20" />
</g>
<g id="p-5" style="fill:none;stroke-linecap:round;stroke-linejoin:round;">
  <text dominant-baseline="hanging" font-size="4px" style="font-family: sans-serif ; font-weight: normal; font-style: normal; fill: rgb(255,0,0)" text-anchor="middle" transform="matrix( 1.000 0.000 0.000 1.000 42.300 430.000 )">left</text><path d="M 36.300 547.000 H 39.300 C 39.355 547.000 39.400 546.955 39.400 546.900 V 543.000 C 39.400 542.900 39.300 543.000 39.400 543.000 H 45.200 C 45.300 543.000 45.200 542.900 45.200 543.000 V 546.900 C 45.200 546.955 45.245 547.000 45.300 547.000 H 48.300 C 48.355 547.000 48.400 546.955 48.400 546.900 V 534.000 C 48.400 533.900 48.300 534.000 48.400 534.000 H 52.300 C 52.355 534.000 52.400 533.955 52.400 533.900 V 525.900 C 52.400 525.845 52.355 525.800 52.300 525.800 H 48.400 C 48.300 525.800 48.400 525.900 48.400 525.800 V 518.000 C 48.400 517.900 48.300 518.000 48.400 518.000 H 52.300 C 52.355 518.000 52.400 517.955 52.400 517.900 V 509.900 C 52.400 509.845 52.355 509.800 52.300 509.800 H 48.400 C 48.300 509.800 48.400 509.900 48.400 509.800 V 502.000 C 48.400 501.900 48.300 502.000 48.400 502.000 H 52.300 C 52.355 502.000 52.400 501.955 52.400 501.900 V 493.900 C 52.400 493.845 52.355 493.800 52.300 493.800 H 48.400 C 48.300 493.800 48.400 493.900 48.400 493.800 V 486.000 C 48.400 485.900 48.300 486.000 48.400 486.000 H 52.300 C 52.355 486.000 52.400 485.955 52.400 485.900 V 477.900 C 52.400 477.845 52.355 477.800 52.300 477.800 H 48.400 C 48.300 477.800 48.400 477.900 48.400 477.800 V 470.000 C 48.400 469.900 48.300 470.000 48.400 470.000 H 52.300 C 52.355 470.000 52.400 469.955 52.400 469.900 V 461.900 C 52.400 461.845 52.355 461.800 52.300 461.800 H 48.400 C 48.300 461.800 48.400 461.900 48.400 461.800 V 454.000 C 48.400 453.900 48.300 454.000 48.400 454.000 H 52.300 C 52.355 454.000 52.400 453.955 52.400 453.900 V 445.900 C 52.400 445.845 52.355 445.800 52.300 445.800 H 48.400 C 48.300 445.800 48.400 445.900 48.400 445.800 V 438.000 C 48.400 437.900 48.300 438.000 48.400 438.000 H 52.300 C 52.355 438.000 52.400 437.955 52.400 437.900 V 429.900 C 52.400 429.845 52.355 429.800 52.300 429.800 H 48.400 C 48.300 429.800 48.400 429.900 48.400 429.800 V 422.000 C 48.400 421.900 48.300 422.000 48.400 422.000 H 52.300 C 52.355 422.000 52.400 421.955 52.400 421.900 V 413.900 C 52.400 413.845 52.355 413.800 52.300 413.800 H 48.400 C 48.300 413.800 48.400 413.900 48.400 413.800 V 406.000 C 48.400 405.900 48.300 406.000 48.400 406.000 H 52.300 C 52.355 406.000 52.400 405.955 52.400 405.900 V 397.900 C 52.400 397.845 52.355 397.800 52.300 397.800 H 48.400 C 48.300 397.800 48.400 397.900 48.400 397.800 V 390.000 C 48.400 389.900 48.300 390.000 48.400 390.000 H 52.300 C 52.355 390.000 52.400 389.955 52.400 389.900 V 381.900 C 52.400 381.845 52.355 381.800 52.300 381.800 H 48.400 C 48.300 381.800 48.400 381.900 48.400 381.800 V 374.000 C 48.400 373.900 48.300 374.000 48.400 374.000 H 52.300 C 52.355 374.000 52.400 373.955 52.400 373.900 V 365.900 C 52.400 365.845 52.355 365.800 52.300 365.800 H 48.400 C 48.300 365.800 48.400 365.900 48.400 365.800 V 358.000 C 48.400 357.900 48.300 358.000 48.400 358.000 H 52.300 C 52.355 358.000 52.400 357.955 52.400 357.900 V 349.900 C 52.400 349.845 52.355 349.800 52.300 349.800 H 48.400 C 48.300 349.800 48.400 349.900 48.400 349.800 V 342.000 C 48.400 341.900 48.300 342.000 48.400 342.000 H 52.300 C 52.355 342.000 52.400 341.955 52.400 341.900 V 333.900 C 52.400 333.845 52.355 333.800 52.300 333.800 H 48.400 C 48.300 333.800 48.400 333.900 48.400 333.800 V 320.900 V 316.900 C 48.400 316.845 48.355 316.800 48.300 316.800 H 45.300 C 45.245 316.800 45.200 316.845 45.200 316.900 V 320.800 C 45.200 320.900 45.300 320.800 45.200 320.800 H 39.400 C 39.300 320.800 39.400 320.900 39.400 320.800 V 316.900 C 39.400 316.845 39.355 316.800 39.300 316.800 H 36.300 C 36.245 316.800 36.200 316.845 36.200 316.900 V 320.900 V 333.800 C 36.200 333.900 36.300 333.800 36.200 333.800 H 32.300 C 32.245 333.800 32.200 333.845 32.200 333.900 V 341.900 C 32.200 341.955 32.245 342.000 32.300 342.000 H 36.200 C 36.300 342.000 36.200 341.900 36.200 342.000 V 349.800 C 36.200 349.900 36.300 349.800 36.200 349.800 H 32.300 C 32.245 349.800 32.200 349.845 32.200 349.900 V 357.900 C 32.200 357.955 32.245 358.000 32.300 358.000 H 36.200 C 36.300 358.000 36.200 357.900 36.200 358.000 V 365.800 C 36.200 365.900 36.300 365.800 36.200 365.800 H 32.300 C 32.245 365.800 32.200 365.845 32.200 365.900 V 373.900 C 32.200 373.955 32.245 374.000 32.300 374.000 H 36.200 C 36.300 374.000 36.200 373.900 36.200 374.000 V 381.800 C 36.200 381.900 36.300 381.800 36.200 381.800 H 32.300 C 32.245 381.800 32.200 381.845 32.200 381.900 V 389.900 C 32.200 389.955 32.245 390.000 32.300 390.000 H 36.200 C 36.300 390.000 36.200 389.900 36.200 390.000 V 397.800 C 36.200 397.900 36.300 397.800 36.200 397.800 H 32.300 C 32.245 397.800 32.200 397.845 32.200 397.900 V 405.900 C 32.200 405.955 32.245 406.000 32.300 406.000 H 36.200 C 36.300 406.000 36.200 405.900 36.200 406.000 V 413.800 C 36.200 413.900 36.300 413.800 36.200 413.800 H 32.300 C 32.245 413.800 32.200 413.845 32.200 413.900 V 421.900 C 32.200 421.955 32.245 422.000 32.300 422.000 H 36.200 C 36.300 422.000 36.200 421.900 36.200 422.000 V 429.800 C 36.200 429.900 36.300 429.800 36.200 429.800 H 32.300 C 32.245 429.800 32.200 429.845 32.200 429.900 V 437.900 C 32.200 437.955 32.245 438.000 32.300 438.000 H 36.200 C 36.300 438.000 36.200 437.900 36.200 438.000 V 445.800 C 36.200 445.900 36.300 445.800 36.200 445.800 H 32.300 C 32.245 445.800 32.200 445.845 32.200 445.900 V 453.900 C 32.200 453.955 32.245 454.000 32.300 454.000 H 36.200 C 36.300 454.000 36.200 453.900 36.200 454.000 V 461.800 C 36.200 461.900 36.300 461.800 36.200 461.800 H 32.300 C 32.245 461.800 32.200 461.845 32.200 461.900 V 469.900 C 32.200 469.955 32.245 470.000 32.300 470.000 H 36.200 C 36.300 470.000 36.200 469.900 36.200 470.000 V 477.800 C 36.200 477.900 36.300 477.800 36.200 477.800 H 32.300 C 32.245 477.800 32.200 477.845 32.200 477.900 V 485.900 C 32.200 485.955 32.245 486.000 32.300 486.000 H 36.200 C 36.300 486.000 36.200 485.900 36.200 486.000 V 493.800 C 36.200 493.900 36.300 493.800 36.200 493.800 H 32.300 C 32.245 493.800 32.200 493.845 32.200 493.900 V 501.900 C 32.200 501.955 32.245 502.000 32.300 502.000 H 36.200 C 36.300 502.000 36.200 501.900 36.200 502.000 V 509.800 C 36.200 509.900 36.300 509.800 36.200 509.800 H 32.300 C 32.245 509.800 32.200 509.845 32.200 509.900 V 517.900 C 32.200 517.955 32.245 518.000 32.300 518.000 H 36.200 C 36.300 518.000 36.200 517.900 36.200 518.000 V 525.800 C 36.200 525.900 36.300 525.800 36.200 525.800 H 32.300 C 32.245 525.800 32.200 525.845 32.200 525.900 V 533.900 C 32.200 533.955 32.245 534.000 32.300 534.000 H 36.200 C 36.300 534.000 36.200 533.900 36.200 534.000 V 546.900 C 36.200 546.955 36.245 547.000 36.300 547.000" stroke="rgb(0,0,0)" stroke-width="0.20" />
</g>
<g id="p-6" style="fill:none;stroke-linecap:round;stroke-linejoin:round;">
  <text dominant-baseline="hanging" font-size="4px" style="font-family: sans-serif ; font-weight: normal; font-style: normal; fill: rgb(255,0,0)" text-anchor="middle" transform="matrix( 1.000 0.000 0.000 1.000 42.300 197.800 )">right</text><path d="M 36.300 314.800 H 39.300 C 39.355 314.800 39.400 314.755 39.400 314.700 V 310.800 C 39.400 310.700 39.300 310.800 39.400 310.800 H 45.200 C 45.300 310.800 45.200 310.700 45.200 310.800 V 314.700 C 45.200 314.755 45.245 314.800 45.300 314.800 H 48.300 C 48.355 314.800 48.400 314.755 48.400 314.700 V 301.800 C 48.400 301.700 48.300 301.800 48.400 301.800 H 52.300 C 52.355 301.800 52.400 301.755 52.400 301.700 V 293.700 C 52.400 293.645 52.355 293.600 52.300 293.600 H 48.400 C 48.300 293.600 48.400 293.700 48.400 293.600 V 285.800 C 48.400 285.700 48.300 285.800 48.400 285.800 H 52.300 C 52.355 285.800 52.400 285.755 52.400 285.700 V 277.700 C 52.400 277.645 52.355 277.600 52.300 277.600 H 48.400 C 48.300 277.600 48.400 277.700 48.400 277.600 V 269.800 C 48.400 269.700 48.300 269.800 48.400 269.800 H 52.300 C 52.355 269.800 52.400 269.755 52.400 269.700 V 261.700 C 52.400 261.645 52.355 261.600 52.300 261.600 H 48.400 C 48.300 261.600 48.400 261.700 48.400 261.600 V 253.800 C 48.400 253.700 48.300 253.800 48.400 253.800 H 52.300 C 52.355 253.800 52.400 253.755 52.400 253.700 V 245.700 C 52.400 245.645 52.355 245.600 52.300 245.600 H 48.400 C 48.300 245.600 48.400 245.700 48.400 245.600 V 237.800 C 48.400 237.700 48.300 237.800 48.400 237.800 H 52.300 C 52.355 237.800 52.400 237.755 52.400 237.700 V 229.700 C 52.400 229.645 52.355 229.600 52.300 229.600 H 48.400 C 48.300 229.600 48.400 229.700 48.400 229.600 V 221.800 C 48.400 221.700 48.300 221.800 48.400 221.800 H 52.300 C 52.355 221.800 52.400 221.755 52.400 221.700 V 213.700 C 52.400 213.645 52.355 213.600 52.300 213.600 H 48.400 C 48.300 213.600 48.400 213.700 48.400 213.600 V 205.800 C 48.400 205.700 48.300 205.800 48.400 205.800 H 52.300 C 52.355 205.800 52.400 205.755 52.400 205.700 V 197.700 C 52.400 197.645 52.355 197.600 52.300 197.600 H 48.400 C 48.300 197.600 48.400 197.700 48.400 197.600 V 189.800 C 48.400 189.700 48.300 189.800 48.400 189.800 H 52.300 C 52.355 189.800 52.400 189.755 52.400 189.700 V 181.700 C 52.400 181.645 52.355 181.600 52.300 181.600 H 48.400 C 48.300 181.600 48.400 181.700 48.400 181.600 V 173.800 C 48.400 173.700 48.300 173.800 48.400 173.800 H 52.300 C 52.355 173.800 52.400 173.755 52.400 173.700 V 165.700 C 52.400 165.645 52.355 165.600 52.300 165.600 H 48.400 C 48.300 165.600 48.400 165.700 48.400 165.600 V 157.800 C 48.400 157.700 48.300 157.800 48.400 157.800 H 52.300 C 52.355 157.800 52.400 157.755 52.400 157.700 V 149.700 C 52.400 149.645 52.355 149.600 52.300 149.600 H 48.400 C 48.300 149.600 48.400 149.700 48.400 149.600 V 141.800 C 48.400 141.700 48.300 141.800 48.400 141.800 H 52.300 C 52.355 141.800 52.400 141.755 52.400 141.700 V 133.700 C 52.400 133.645 52.355 133.600 52.300 133.600 H 48.400 C 48.300 133.600 48.400 133.700 48.400 133.600 V 125.800 C 48.400 125.700 48.300 125.800 48.400 125.800 H 52.300 C 52.355 125.800 52.400 125.755 52.400 125.700 V 117.700 C 52.400 117.645 52.355 117.600 52.300 117.600 H 48.400 C 48.300 117.600 48.400 117.700 48.400 117.600 V 109.800 C 48.400 109.700 48.300 109.800 48.400 109.800 H 52.300 C 52.355 109.800 52.400 109.755 52.400 109.700 V 101.700 C 52.400 101.645 52.355 101.600 52.300 101.600 H 48.400 C 48.300 101.600 48.400 101.700 48.400 101.600 V 88.700 V 84.700 C 48.400 84.645 48.355 84.600 48.300 84.600 H 45.300 C 45.245 84.600 45.200 84.645 45.200 84.700 V 88.600 C 45.200 88.700 45.300 88.600 45.200 88.600 H 39.400 C 39.300 88.600 39.400 88.700 39.400 88.600 V 84.700 C 39.400 84.645 39.355 84.600 39.300 84.600 H 36.300 C 36.245 84.600 36.200 84.645 36.200 84.700 V 88.700 V 101.600 C 36.200 101.700 36.300 101.600 36.200 101.600 H 32.300 C 32.245 101.600 32.200 101.645 32.200 101.700 V 109.700 C 32.200 109.755 32.245 109.800 32.300 109.800 H 36.200 C 36.300 109.800 36.200 109.700 36.200 109.800 V 117.600 C 36.200 117.700 36.300 117.600 36.200 117.600 H 32.300 C 32.245 117.600 32.200 117.645 32.200 117.700 V 125.700 C 32.200 125.755 32.245 125.800 32.300 125.800 H 36.200 C 36.300 125.800 36.200 125.700 36.200 125.800 V 133.600 C 36.200 133.700 36.300 133.600 36.200 133.600 H 32.300 C 32.245 133.600 32.200 133.645 32.200 133.700 V 141.700 C 32.200 141.755 32.245 141.800 32.300 141.800 H 36.200 C 36.300 141.800 36.200 141.700 36.200 141.800 V 149.600 C 36.200 149.700 36.300 149.600 36.200 149.600 H 32.300 C 32.245 149.600 32.200 149.645 32.200 149.700 V 157.700 C 32.200 157.755 32.245 157.800 32.300 157.800 H 36.200 C 36.300 157.800 36.200 157.700 36.200 157.800 V 165.600 C 36.200 165.700 36.300 165.600 36.200 165.600 H 32.300 C 32.245 165.600 32.200 165.645 32.200 165.700 V 173.700 C 32.200 173.755 32.245 173.800 32.300 173.800 H 36.200 C 36.300 173.800 36.200 173.700 36.200 173.800 V 181.600 C 36.200 181.700 36.300 181.600 36.200 181.600 H 32.300 C 32.245 181.600 32.200 181.645 32.200 181.700 V 189.700 C 32.200 189.755 32.245 189.800 32.300 189.800 H 36.200 C 36.300 189.800 36.200 189.700 36.200 189.800 V 197.600 C 36.200 197.700 36.300 197.600 36.200 197.600 H 32.300 C 32.245 197.600 32.200 197.645 32.200 197.700 V 205.700 C 32.200 205.755 32.245 205.800 32.300 205.800 H 36.200 C 36.300 205.800 36.200 205.700 36.200 205.800 V 213.600 C 36.200 213.700 36.300 213.600 36.200 213.600 H 32.300 C 32.245 213.600 32.200 213.645 32.200 213.700 V 221.700 C 32.200 221.755 32.245 221.800 32.300 221.800 H 36.200 C 36.300 221.800 36.200 221.700 36.200 221.800 V 229.600 C 36.200 229.700 36.300 229.600 36.200 229.600 H 32.300 C 32.245 229.600 32.200 229.645 32.200 229.700 V 237.700 C 32.200 237.755 32.245 237.800 32.300 237.800 H 36.200 C 36.300 237.800 36.200 237.700 36.200 237.800 V 245.600 C 36.200 245.700 36.300 245.600 36.200 245.600 H 32.300 C 32.245 245.600 32.200 245.645 32.200 245.700 V 253.700 C 32.200 253.755 32.245 253.800 32.300 253.800 H 36.200 C 36.300 253.800 36.200 253.700 36.200 253.800 V 261.600 C 36.200 261.700 36.300 261.600 36.200 261.600 H 32.300 C 32.245 261.600 32.200 261.645 32.200 261.700 V 269.700 C 32.200 269.755 32.245 269.800 32.300 269.800 H 36.200 C 36.300 269.800 36.200 269.700 36.200 269.800 V 277.600 C 36.200 277.700 36.300 277.600 36.200 277.600 H 32.300 C 32.245 277.600 32.200 277.645 32.200 277.700 V 285.700 C 32.200 285.755 32.245 285.800 32.300 285.800 H 36.200 C 36.300 285.800 36.200 285.700 36.200 285.800 V 293.600 C 36.200 293.700 36.300 293.600 36.200 293.600 H 32.300 C 32.245 293.600 32.200 293.645 32.200 293.700 V 301.700 C 32.200 301.755 32.245 301.800 32.300 301.800 H 36.200 C 36.300 301.800 36.200 301.700 36.200 301.800 V 314.700 C 36.200 314.755 36.245 314.800 36.300 314.800" stroke="rgb(0,0,0)" stroke-width="0.20" />
</g>
</svg>